<?xml version="1.0" encoding="UTF-8" standalone="no"?>
<svg
   width="557"
   height="263"
   viewBox="0 0 557 263"
   fill="none"
   version="1.1"
   id="svg4"
   xmlns="http://www.w3.org/2000/svg"
   xmlns:svg="http://www.w3.org/2000/svg">
  <defs
     id="defs8" />
  <path
     d="M 491,246 H 1 V 191.177 C 1,168.911 19.0503,150.86 41.3165,150.86 h 16.687 c 13.0501,0 23.6294,-10.579 23.6294,-23.629 0,-13.05 10.5793,-23.629 23.6291,-23.629 h 16.997 c 22.438,0 40.627,-18.1896 40.627,-40.627 V 52.3008 C 162.886,23.9681 185.854,1 214.187,1 h 104.01 c 13.566,0 24.562,10.9969 24.562,24.5622 0,13.5653 10.997,24.5622 24.563,24.5622 h 19.786 c 24.492,0 44.348,19.8553 44.348,44.3481 v 41.5395 c 0,16.443 13.329,29.772 29.772,29.772 16.443,0 29.772,13.33 29.772,29.772 z"
     fill="#ffffff"
     stroke="#412589"
     id="path3" />
  <path
     d="M 604.7984,263.8491 H 405.42557 v -22.30657 c 0,-9.05966 7.34437,-16.40431 16.40412,-16.40431 h 6.78965 c 5.30987,0 9.61441,-4.30442 9.61441,-9.61425 0,-5.30983 4.30454,-9.61424 9.61429,-9.61424 h 6.9158 c 9.12964,0 16.53044,-7.40105 16.53044,-16.53045 v -4.34315 c 0,-11.52811 9.3453,-20.87344 20.87353,-20.87344 h 42.31994 c 5.51977,0 9.99386,4.47445 9.99386,9.99394 0,5.5195 4.47449,9.99395 9.99428,9.99395 h 8.05059 c 9.96539,0 18.04446,8.07879 18.04446,18.0445 v 16.90174 c 0,6.69037 5.42335,12.11373 12.11373,12.11373 6.69038,0 12.11373,5.42375 12.11373,12.11373 z"
     fill="#ffffff"
     stroke="#412589"
     id="path5" />
</svg>
