<?xml version="1.0" encoding="UTF-8" standalone="no"?>
<svg
   width="493"
   height="289"
   viewBox="0 0 493 289"
   fill="none"
   version="1.1"
   id="svg4"
   xmlns="http://www.w3.org/2000/svg"
   xmlns:svg="http://www.w3.org/2000/svg">
  <defs
     id="defs8" />
  <path
     d="M 343.62643,161.89326 H 30.112859 v -35.07705 c 0,-14.24631 11.549009,-25.79577 25.795449,-25.79577 h 10.676737 c 8.349756,0 15.118646,-6.768694 15.118646,-15.118392 0,-8.349698 6.76889,-15.118393 15.118459,-15.118393 h 10.87509 c 14.35635,0 25.9941,-11.638136 25.9941,-25.994115 v -6.829604 c 0,-18.127931 14.69547,-32.8234644 32.82359,-32.8234644 h 66.54805 c 8.67985,0 15.71535,7.0360764 15.71535,15.7154764 0,8.679398 7.03616,15.715475 15.716,15.715475 h 12.65955 c 15.67056,0 28.37489,12.70389 28.37489,28.374962 v 26.577953 c 0,10.520622 8.52821,19.048832 19.04883,19.048832 10.52062,0 19.04883,8.52885 19.04883,19.04882 z"
     fill="#ffffff"
     stroke="#412589"
     id="path30" />
  <path
     d="M 491.09257,279.76174 H 0.90742771 V 243.3736 c 0,-14.7788 18.05712029,-26.75994 40.33173329,-26.75994 h 16.693305 c 13.055031,0 23.638329,-7.02169 23.638329,-15.68348 0,-8.66179 10.583297,-15.68348 23.638025,-15.68348 h 17.00342 c 22.44648,0 40.64236,-12.07314 40.64236,-26.96571 v -7.08488 c 0,-18.8055 22.97667,-34.05032 51.32038,-34.05032 h 104.0493 c 13.57113,0 24.57128,7.29907 24.57128,16.30288 0,9.00382 11.00116,16.30288 24.57228,16.30288 h 19.79348 c 24.50125,0 44.36475,13.17873 44.36475,29.43555 v 27.57137 c 0,10.91385 13.33404,19.76082 29.78325,19.76082 16.44922,0 29.78325,8.84764 29.78325,19.76082 z"
     fill="#ffffff"
     stroke="#412589"
     id="path2" />
</svg>
