<?xml version="1.0" encoding="UTF-8"?>
<svg width="117px" height="194px" viewBox="0 0 117 194" version="1.1" xmlns="http://www.w3.org/2000/svg" xmlns:xlink="http://www.w3.org/1999/xlink">
    <title>Group 58</title>
    <defs>
        <path d="M-1.54559807e-15,33.3620282 C-1.54559807e-15,51.7875815 23.3855262,66.7240564 52.2321997,66.7240564 L52.2321997,66.7240564 C81.0788732,66.7240564 104.464399,51.7875815 104.464399,33.3620282 L104.464399,33.3620282 C104.464399,14.9364749 81.0788732,0 52.2321997,0 L52.2321997,0 C23.3855262,0 -1.54559807e-15,14.9364749 -1.54559807e-15,33.3620282" id="path-1"></path>
    </defs>
    <g id="Page-1" stroke="none" stroke-width="1" fill="none" fill-rule="evenodd">
        <g id="open_history" transform="translate(-1770.000000, -843.000000)">
            <g id="Group-5" transform="translate(1604.000000, -37.000000)">
                <g id="Group-58" transform="translate(167.000000, 881.000000)">
                    <g id="Group-7" transform="translate(10.635862, 49.626425)">
                        <path d="M0.0588618837,34.9284591 L9.86439032,115.195099 C9.86439032,130.14071 28.8328825,142.256339 52.2318952,142.256339 C75.6309079,142.256339 94.5994001,130.14071 94.5994001,115.195099 L104.464095,33.3622892 L0.0588618837,34.9284591 Z" id="Fill-1" fill="#E3EEFF"></path>
                        <path d="M0.0588618837,34.9284591 L9.86439032,115.195099 C9.86439032,130.14071 28.8328825,142.256339 52.2318952,142.256339 C75.6309079,142.256339 94.5994001,130.14071 94.5994001,115.195099 L104.464095,33.3622892 L0.0588618837,34.9284591 Z" id="Stroke-3" stroke="#7DA0D3"></path>
                        <path d="M104.463964,33.3624633 C104.463964,51.7880166 81.0788732,66.7249265 52.2317647,66.7249265 C23.3850912,66.7249265 -6.1823923e-15,51.7880166 -6.1823923e-15,33.3624633 C-6.1823923e-15,14.9369099 23.3850912,0 52.2317647,0 C81.0788732,0 104.463964,14.9369099 104.463964,33.3624633" id="Fill-5" fill="#7DA0D3"></path>
                    </g>
                    <g id="Group-10" transform="translate(10.635601, 49.626860)">
                        <mask id="mask-2" fill="white">
                            <use xlink:href="#path-1"></use>
                        </mask>
                        <g id="Clip-9"></g>
                        <path d="M104.464225,59.2701755 C104.464225,77.6957288 81.0791343,92.6326388 52.2320257,92.6326388 C23.3853522,92.6326388 0.000261028309,77.6957288 0.000261028309,59.2701755 C0.000261028309,40.8446222 23.3853522,25.9077123 52.2320257,25.9077123 C81.0791343,25.9077123 104.464225,40.8446222 104.464225,59.2701755" id="Fill-8" fill="#49678C" mask="url(#mask-2)"></path>
                    </g>
                    <g id="Group-57">
                        <path d="M115.099826,82.9888884 C115.099826,101.414442 91.7147348,116.351352 62.8676263,116.351352 C34.0209528,116.351352 10.6358616,101.414442 10.6358616,82.9888884 C10.6358616,64.5633351 34.0209528,49.6264252 62.8676263,49.6264252 C91.7147348,49.6264252 115.099826,64.5633351 115.099826,82.9888884 Z" id="Stroke-11" stroke="#7DA0D3"></path>
                        <path d="M10.5143529,103.293585 C11.4483992,104.683995 13.0659046,106.8936 14.1091478,108.203962 L17.7013323,112.714531 C18.7445755,114.024893 20.8349772,114.710528 22.3463311,114.238066 C23.8581201,113.76604 26.4505662,113.180902 28.108096,112.938581 L29.1239312,112.789794 C30.7810259,112.547038 33.4178468,112.836779 34.9831466,113.432794 L36.5053767,114.012712 C38.0706765,114.609162 39.6907922,116.424614 40.1058272,118.04734 L40.4860584,119.532591 C40.9010934,121.155317 42.4768343,123.074745 43.9877532,123.797793 L51.7716174,127.523537 C53.2821012,128.246586 55.7940636,128.337946 57.3532727,127.726704 L66.5754029,124.110157 C68.134612,123.498481 70.3668391,122.01671 71.5353758,120.81685 L74.9839948,117.277306 C76.1529666,116.077446 75.9663313,114.339868 74.5693948,113.415392 L72.1218194,111.796147 C70.7248829,110.872106 68.2246667,109.928489 66.5653968,109.700089 L47.6773883,107.096332 C46.0181184,106.867497 43.3982642,106.147059 41.8555869,105.494923 L27.5560211,99.4499426 C26.0133438,98.7973719 23.8463738,97.2346824 22.7409189,95.9765259 L16.7990445,89.2150226 C15.6931546,87.9568662 14.0256187,85.7890261 13.0933126,84.3977452 L12.4372614,83.418889 C11.5045203,82.0271731 9.48329108,81.4320286 7.94583433,82.0959106 L5.51653087,83.1443743 C3.97863908,83.8078212 2.72048263,85.7211587 2.72048263,87.3960904 L2.72048263,88.6433706 C2.72048263,90.3183023 3.48442548,92.8263493 4.41847178,94.2167601 L10.5143529,103.293585 Z" id="Fill-13" fill="#7DA0D3"></path>
                        <path d="M10.5143529,103.293585 C11.4483992,104.683995 13.0659046,106.8936 14.1091478,108.203962 L17.7013323,112.714531 C18.7445755,114.024893 20.8349772,114.710528 22.3463311,114.238066 C23.8581201,113.76604 26.4505662,113.180902 28.108096,112.938581 L29.1239312,112.789794 C30.7810259,112.547038 33.4178468,112.836779 34.9831466,113.432794 L36.5053767,114.012712 C38.0706765,114.609162 39.6907922,116.424614 40.1058272,118.04734 L40.4860584,119.532591 C40.9010934,121.155317 42.4768343,123.074745 43.9877532,123.797793 L51.7716174,127.523537 C53.2821012,128.246586 55.7940636,128.337946 57.3532727,127.726704 L66.5754029,124.110157 C68.134612,123.498481 70.3668391,122.01671 71.5353758,120.81685 L74.9839948,117.277306 C76.1529666,116.077446 75.9663313,114.339868 74.5693948,113.415392 L72.1218194,111.796147 C70.7248829,110.872106 68.2246667,109.928489 66.5653968,109.700089 L47.6773883,107.096332 C46.0181184,106.867497 43.3982642,106.147059 41.8555869,105.494923 L27.5560211,99.4499426 C26.0133438,98.7973719 23.8463738,97.2346824 22.7409189,95.9765259 L16.7990445,89.2150226 C15.6931546,87.9568662 14.0256187,85.7890261 13.0933126,84.3977452 L12.4372614,83.418889 C11.5045203,82.0271731 9.48329108,81.4320286 7.94583433,82.0959106 L5.51653087,83.1443743 C3.97863908,83.8078212 2.72048263,85.7211587 2.72048263,87.3960904 L2.72048263,88.6433706 C2.72048263,90.3183023 3.48442548,92.8263493 4.41847178,94.2167601 L10.5143529,103.293585 Z" id="Stroke-15" stroke="#E3EEFF"></path>
                        <path d="M91.2578918,14.1174391 C91.0577701,13.8229122 90.8528628,13.5305605 90.6370794,13.2442994 C90.421296,12.9580384 90.1972467,12.6804783 89.969282,12.4068336 L86.9826831,8.44268366 L86.3235866,8.9390725 C73.418347,-0.800763816 49.3075971,2.61174628 28.8442828,18.0289483 C8.38140357,33.4465854 -1.54811331,55.6814118 4.254546,70.7723285 L3.57195698,71.2861192 L7.2032958,76.1055719 C18.2909083,90.8219129 45.9564287,88.6797406 68.9960924,71.320923 C91.5776514,54.3070978 101.331409,28.9921373 91.2705081,14.1365812 L91.2713782,14.1357111 L91.2578918,14.1174391 Z" id="Fill-17" fill="#E3EEFF"></path>
                        <path d="M91.2578918,14.1174391 C91.0577701,13.8229122 90.8528628,13.5305605 90.6370794,13.2442994 C90.421296,12.9580384 90.1972467,12.6804783 89.969282,12.4068336 L86.9826831,8.44268366 L86.3235866,8.9390725 C73.418347,-0.800763816 49.3075971,2.61174628 28.8442828,18.0289483 C8.38140357,33.4465854 -1.54811331,55.6814118 4.254546,70.7723285 L3.57195698,71.2861192 L7.2032958,76.1055719 C18.2909083,90.8219129 45.9564287,88.6797406 68.9960924,71.320923 C91.5776514,54.3070978 101.331409,28.9921373 91.2705081,14.1365812 L91.2713782,14.1357111 L91.2578918,14.1174391 Z" id="Stroke-19" stroke="#7DA0D3"></path>
                        <path d="M88.0237945,9.77584225 C99.111407,24.4921833 89.4220362,50.4936482 66.3828075,67.8524658 C43.3431438,85.2108484 15.6776234,87.3530207 4.59001089,72.6371147 C-6.4976016,57.9207737 3.1913342,31.9193088 26.2309979,14.5604912 C49.2706616,-2.79832646 76.936182,-4.94049878 88.0237945,9.77584225" id="Fill-21" fill="#E3EEFF"></path>
                        <path d="M88.0237945,9.77584225 C99.111407,24.4921833 89.4220362,50.4936482 66.3828075,67.8524658 C43.3431438,85.2108484 15.6776234,87.3530207 4.59001089,72.6371147 C-6.4976016,57.9207737 3.1913342,31.9193088 26.2309979,14.5604912 C49.2706616,-2.79832646 76.936182,-4.94049878 88.0237945,9.77584225 Z" id="Stroke-23" stroke="#7DA0D3"></path>
                        <path d="M26.2752857,38.9330524 C22.6513427,47.4686781 27.2167278,53.5284503 36.421021,52.3990679 C45.6248792,51.2696854 56.1199575,43.3609626 59.7430304,34.8240318 C63.3661033,26.2871009 58.8002831,20.2273287 49.5972951,21.3580164 C40.394307,22.488704 29.8992287,30.3974267 26.2752857,38.9330524" id="Fill-25" fill="#E3EEFF"></path>
                        <path d="M26.2752857,38.9330524 C22.6513427,47.4686781 27.2167278,53.5284503 36.421021,52.3990679 C45.6248792,51.2696854 56.1199575,43.3609626 59.7430304,34.8240318 C63.3661033,26.2871009 58.8002831,20.2273287 49.5972951,21.3580164 C40.394307,22.488704 29.8992287,30.3974267 26.2752857,38.9330524 Z" id="Stroke-27" stroke="#7DA0D3"></path>
                        <path d="M44.890041,32.1284795 L41.4853618,34.6935176 C41.2704485,34.8401285 41.0620609,34.9967455 40.8623742,35.1633686 L37.4968492,37.6988236 L39.0199494,39.7200528 C39.4097517,40.3317291 40.2045829,40.6519238 41.2948111,40.5179293 C43.3530193,40.2656019 45.7000989,38.4971351 46.5101567,36.5881481 C46.9151857,35.6340896 46.862545,34.8183762 46.4518604,34.272392 L46.4862291,34.2467242 L44.890041,32.1284795 Z" id="Fill-29" fill="#E3EEFF"></path>
                        <path d="M44.890041,32.1284795 L41.4853618,34.6935176 C41.2704485,34.8401285 41.0620609,34.9967455 40.8623742,35.1633686 L37.4968492,37.6988236 L39.0199494,39.7200528 C39.4097517,40.3317291 40.2045829,40.6519238 41.2948111,40.5179293 C43.3530193,40.2656019 45.7000989,38.4971351 46.5101567,36.5881481 C46.9151857,35.6340896 46.862545,34.8183762 46.4518604,34.272392 L46.4862291,34.2467242 L44.890041,32.1284795 Z" id="Stroke-31" stroke="#7DA0D3"></path>
                        <path d="M37.430287,35.3886795 C36.6197941,37.2972315 37.6408498,38.6524035 39.6990581,38.4000761 C41.7572663,38.1473137 44.1039108,36.3788469 44.9139686,34.4698599 C45.7244615,32.5608728 44.7034058,31.2057009 42.6456326,31.4584633 C40.5874244,31.7116607 38.2407799,33.4801275 37.430287,35.3886795" id="Fill-33" fill="#E3EEFF"></path>
                        <path d="M37.430287,35.3886795 C36.6197941,37.2972315 37.6408498,38.6524035 39.6990581,38.4000761 C41.7572663,38.1473137 44.1039108,36.3788469 44.9139686,34.4698599 C45.7244615,32.5608728 44.7034058,31.2057009 42.6456326,31.4584633 C40.5874244,31.7116607 38.2407799,33.4801275 37.430287,35.3886795 Z" id="Stroke-35" stroke="#7DA0D3"></path>
                        <g id="Group-40" transform="translate(32.109268, 115.751335)">
                            <line x1="4.20038054" y1="61.3925532" x2="0" y2="-1.23647846e-14" id="Fill-37" fill="#E3EEFF"></line>
                            <line x1="4.20038054" y1="61.3925532" x2="0" y2="-1.23647846e-14" id="Stroke-39" stroke="#7DA0D3"></line>
                        </g>
                        <g id="Group-44" transform="translate(99.479413, 109.450416)">
                            <line x1="5.81614578" y1="-1.23647846e-14" x2="0" y2="59.1307429" id="Fill-41" fill="#E3EEFF"></line>
                            <line x1="5.81614578" y1="-1.23647846e-14" x2="0" y2="59.1307429" id="Stroke-43" stroke="#7DA0D3"></line>
                        </g>
                        <g id="Group-48" transform="translate(26.248704, 133.293568)">
                            <line x1="3.38597222" y1="36.6666466" x2="6.1823923e-15" y2="1.23647846e-14" id="Fill-45" fill="#E3EEFF"></line>
                            <line x1="3.38597222" y1="36.6666466" x2="6.1823923e-15" y2="1.23647846e-14" id="Stroke-47" stroke="#7DA0D3"></line>
                        </g>
                        <g id="Group-52" transform="translate(92.838636, 113.063918)">
                            <line x1="3.30548849" y1="0" x2="0" y2="35.4019644" id="Fill-49" fill="#E3EEFF"></line>
                            <line x1="3.30548849" y1="0" x2="0" y2="35.4019644" id="Stroke-51" stroke="#7DA0D3"></line>
                        </g>
                        <g id="Group-56" transform="translate(81.037502, 135.190243)">
                            <line x1="4.2147371" y1="-1.23647846e-14" x2="0" y2="43.6204408" id="Fill-53" fill="#E3EEFF"></line>
                            <line x1="4.2147371" y1="-1.23647846e-14" x2="0" y2="43.6204408" id="Stroke-55" stroke="#7DA0D3"></line>
                        </g>
                    </g>
                </g>
            </g>
        </g>
    </g>
</svg>