<?xml version="1.0" encoding="UTF-8"?>
<svg width="117px" height="152px" viewBox="0 0 117 152" version="1.1" xmlns="http://www.w3.org/2000/svg" xmlns:xlink="http://www.w3.org/1999/xlink">
    <title>Group 59</title>
    <defs>
        <path d="M-7.91112126e-15,34.1526112 C-7.91112126e-15,53.0147965 23.9392498,68.3052224 53.4699509,68.3052224 L53.4699509,68.3052224 C83.0002066,68.3052224 106.939902,53.0147965 106.939902,34.1526112 L106.939902,34.1526112 C106.939902,15.2904259 83.0002066,0 53.4699509,0 L53.4699509,0 C23.9392498,0 -7.91112126e-15,15.2904259 -7.91112126e-15,34.1526112" id="path-1"></path>
        <path d="M-4.74667276e-15,20.891675 C8.10504357,33.1674826 27.122213,41.7833501 49.2898345,41.7833501 L49.2898345,41.7833501 C71.457456,41.7833501 90.4746254,33.1674826 98.5792236,20.891675 L98.5792236,20.891675 C90.4746254,8.61631288 71.457456,0 49.2898345,0 L49.2898345,0 C27.122213,0 8.10504357,8.61631288 -4.74667276e-15,20.891675" id="path-3"></path>
        <linearGradient x1="15.8374253%" y1="66.8025498%" x2="101.930384%" y2="38.8277672%" id="linearGradient-5">
            <stop stop-color="#FFCAAA" offset="0%"></stop>
            <stop stop-color="#E2EDFF" offset="100%"></stop>
        </linearGradient>
    </defs>
    <g id="Page-1" stroke="none" stroke-width="1" fill="none" fill-rule="evenodd">
        <g id="start" transform="translate(-1770.000000, -885.000000)">
            <g id="Group-59" transform="translate(1771.000000, 886.000000)">
                <g id="Group-5" transform="translate(8.163252, 38.525478)">
                    <path d="M-7.91112126e-15,1.60328352 L10.0378909,83.7720095 C10.0378909,99.0717879 29.4558812,111.474522 53.4093824,111.474522 C77.3628836,111.474522 96.7808739,99.0717879 96.7808739,83.7720095 L106.879333,0 L-7.91112126e-15,1.60328352 Z" id="Fill-1" fill="#E3EEFF"></path>
                    <path d="M-7.91112126e-15,1.60328352 L10.0378909,83.7720095 C10.0378909,99.0717879 29.4558812,111.474522 53.4093824,111.474522 C77.3628836,111.474522 96.7808739,99.0717879 96.7808739,83.7720095 L106.879333,0 L-7.91112126e-15,1.60328352 Z" id="Stroke-3" stroke="#7DA0D3"></path>
                </g>
                <g id="Group-8" transform="translate(8.102772, 4.373045)">
                    <mask id="mask-2" fill="white">
                        <use xlink:href="#path-1"></use>
                    </mask>
                    <g id="Clip-7"></g>
                    <path d="M-7.91112126e-15,34.1526112 C-7.91112126e-15,53.0147965 23.9392498,68.3052224 53.4699509,68.3052224 L53.4699509,68.3052224 C83.0002066,68.3052224 106.939902,53.0147965 106.939902,34.1526112 L106.939902,34.1526112 C106.939902,15.2904259 83.0002066,0 53.4699509,0 L53.4699509,0 C23.9392498,0 -7.91112126e-15,15.2904259 -7.91112126e-15,34.1526112" id="Fill-6" mask="url(#mask-2)"></path>
                </g>
                <g id="Group-11" transform="translate(12.282889, 30.894917)">
                    <mask id="mask-4" fill="white">
                        <use xlink:href="#path-3"></use>
                    </mask>
                    <g id="Clip-10"></g>
                    <path d="M-4.74667276e-15,20.891675 C8.10504357,33.1674826 27.122213,41.7833501 49.2898345,41.7833501 L49.2898345,41.7833501 C71.457456,41.7833501 90.4746254,33.1674826 98.5792236,20.891675 L98.5792236,20.891675 C90.4746254,8.61631288 71.457456,0 49.2898345,0 L49.2898345,0 C27.122213,0 8.10504357,8.61631288 -4.74667276e-15,20.891675" id="Fill-9" fill="url(#linearGradient-5)" mask="url(#mask-4)"></path>
                </g>
                <g id="Group-58">
                    <path d="M115.042407,38.5256561 C115.042407,57.3878414 91.103157,72.6787127 61.5724559,72.6787127 C32.0422002,72.6787127 8.1029504,57.3878414 8.1029504,38.5256561 C8.1029504,19.6634708 32.0422002,4.37259953 61.5724559,4.37259953 C91.103157,4.37259953 115.042407,19.6634708 115.042407,38.5256561 Z" id="Stroke-12" stroke="#7DA0D3"></path>
                    <path d="M7.97856232,59.3115144 C8.9347428,60.7348739 10.5905784,62.9968398 11.6585434,64.3382536 L15.3358523,68.9557102 C16.4038172,70.2971241 18.5437554,70.999006 20.090924,70.5153488 C21.6385379,70.0321369 24.2924175,69.4331324 25.9892259,69.1850688 L27.0291334,69.0327569 C28.7254965,68.7842479 31.4248024,69.0808554 33.0271953,69.6909938 L34.5854978,70.2846541 C36.1878906,70.8952379 37.8463983,72.7537107 38.2712684,74.4148906 L38.6605101,75.9353378 C39.0853802,77.5965177 40.6984616,79.5614307 42.2451848,80.3016133 L50.2135039,84.1156466 C51.7597818,84.8558292 54.3312704,84.9493541 55.9274283,84.3236281 L65.3680961,80.6213793 C66.9642539,79.995208 69.2493783,78.4783236 70.4456059,77.2500303 L73.9759472,73.6266095 C75.1726202,72.3983162 74.9815622,70.6195622 73.5515224,69.6731796 L71.0459465,68.0155625 C69.6159067,67.0696253 67.0564427,66.1036469 65.3578529,65.8698348 L46.0222536,63.2043759 C44.3236638,62.9701184 41.6417267,62.2326079 40.0624924,61.5650185 L25.4240685,55.3767894 C23.8448342,54.7087546 21.6265133,53.109034 20.4948624,51.8210629 L14.4121828,44.8993316 C13.2800865,43.6113605 11.5730349,41.3921489 10.6186359,39.9678987 L9.9470382,38.9658465 C8.99219379,37.5411509 6.92306733,36.9319032 5.34917734,37.6115173 L2.86230645,38.6848265 C1.2879711,39.3639952 0,41.3226733 0,43.0372959 L0,44.3141331 C0,46.0287558 0.782046075,48.5962362 1.73822655,50.0195957 L7.97856232,59.3115144 Z" id="Fill-14" fill="#7DA0D3"></path>
                    <path d="M7.97856232,59.3115144 C8.9347428,60.7348739 10.5905784,62.9968398 11.6585434,64.3382536 L15.3358523,68.9557102 C16.4038172,70.2971241 18.5437554,70.999006 20.090924,70.5153488 C21.6385379,70.0321369 24.2924175,69.4331324 25.9892259,69.1850688 L27.0291334,69.0327569 C28.7254965,68.7842479 31.4248024,69.0808554 33.0271953,69.6909938 L34.5854978,70.2846541 C36.1878906,70.8952379 37.8463983,72.7537107 38.2712684,74.4148906 L38.6605101,75.9353378 C39.0853802,77.5965177 40.6984616,79.5614307 42.2451848,80.3016133 L50.2135039,84.1156466 C51.7597818,84.8558292 54.3312704,84.9493541 55.9274283,84.3236281 L65.3680961,80.6213793 C66.9642539,79.995208 69.2493783,78.4783236 70.4456059,77.2500303 L73.9759472,73.6266095 C75.1726202,72.3983162 74.9815622,70.6195622 73.5515224,69.6731796 L71.0459465,68.0155625 C69.6159067,67.0696253 67.0564427,66.1036469 65.3578529,65.8698348 L46.0222536,63.2043759 C44.3236638,62.9701184 41.6417267,62.2326079 40.0624924,61.5650185 L25.4240685,55.3767894 C23.8448342,54.7087546 21.6265133,53.109034 20.4948624,51.8210629 L14.4121828,44.8993316 C13.2800865,43.6113605 11.5730349,41.3921489 10.6186359,39.9678987 L9.9470382,38.9658465 C8.99219379,37.5411509 6.92306733,36.9319032 5.34917734,37.6115173 L2.86230645,38.6848265 C1.2879711,39.3639952 0,41.3226733 0,43.0372959 L0,44.3141331 C0,46.0287558 0.782046075,48.5962362 1.73822655,50.0195957 L7.97856232,59.3115144 Z" id="Stroke-16" stroke="#E3EEFF"></path>
                    <g id="Group-21" transform="translate(30.085215, 72.064477)">
                        <line x1="4.29991734" y1="62.8473781" x2="0" y2="0" id="Fill-18" fill="#E3EEFF"></line>
                        <line x1="4.29991734" y1="62.8473781" x2="0" y2="0" id="Stroke-20" stroke="#7DA0D3"></line>
                    </g>
                    <g id="Group-25" transform="translate(99.051880, 65.614245)">
                        <line x1="5.95397151" y1="-1.2657794e-14" x2="1.2657794e-14" y2="60.5319695" id="Fill-22" fill="#E3EEFF"></line>
                        <line x1="5.95397151" y1="-1.2657794e-14" x2="1.2657794e-14" y2="60.5319695" id="Stroke-24" stroke="#7DA0D3"></line>
                    </g>
                    <g id="Group-29" transform="translate(24.085772, 90.022410)">
                        <line x1="3.46620991" y1="37.5355395" x2="0" y2="1.2657794e-14" id="Fill-26" fill="#E3EEFF"></line>
                        <line x1="3.46620991" y1="37.5355395" x2="0" y2="1.2657794e-14" id="Stroke-28" stroke="#7DA0D3"></line>
                    </g>
                    <g id="Group-33" transform="translate(92.253736, 69.313376)">
                        <line x1="3.38381895" y1="0" x2="0" y2="36.240888" id="Fill-30" fill="#E3EEFF"></line>
                        <line x1="3.38381895" y1="0" x2="0" y2="36.240888" id="Stroke-32" stroke="#7DA0D3"></line>
                    </g>
                    <g id="Group-37" transform="translate(80.172950, 91.964031)">
                        <line x1="4.31461411" y1="-1.2657794e-14" x2="0" y2="44.6541183" id="Fill-34" fill="#E3EEFF"></line>
                        <line x1="4.31461411" y1="-1.2657794e-14" x2="0" y2="44.6541183" id="Stroke-36" stroke="#7DA0D3"></line>
                    </g>
                    <path d="M115.072602,39.6950288 C115.090862,39.3307271 115.102886,38.9659801 115.102886,38.5990063 C115.102886,38.2320325 115.090862,37.8668402 115.072602,37.5025385 L115.072602,32.4214658 L114.228206,32.4214658 C109.676662,16.5084315 87.8613178,4.44594975 61.6329354,4.44594975 C35.4049983,4.44594975 13.5896538,16.5084315 9.03766469,32.4214658 L8.16342982,32.4214658 L8.16342982,38.5990063 C8.16342982,57.4611916 32.1022343,72.7516175 61.6329354,72.7516175 C90.5771019,72.7516175 114.145815,58.0619776 115.071266,39.7181873 L115.072602,39.7181873 L115.072602,39.6950288 Z" id="Fill-38" fill="#E3EEFF"></path>
                    <path d="M115.072602,39.6950288 C115.090862,39.3307271 115.102886,38.9659801 115.102886,38.5990063 C115.102886,38.2320325 115.090862,37.8668402 115.072602,37.5025385 L115.072602,32.4214658 L114.228206,32.4214658 C109.676662,16.5084315 87.8613178,4.44594975 61.6329354,4.44594975 C35.4049983,4.44594975 13.5896538,16.5084315 9.03766469,32.4214658 L8.16342982,32.4214658 L8.16342982,38.5990063 C8.16342982,57.4611916 32.1022343,72.7516175 61.6329354,72.7516175 C90.5771019,72.7516175 114.145815,58.0619776 115.071266,39.7181873 L115.072602,39.7181873 L115.072602,39.6950288 Z" id="Stroke-40" stroke="#7DA0D3"></path>
                    <path d="M115.102842,34.1530566 C115.102842,53.0152419 91.1635919,68.3061131 61.6328908,68.3061131 C32.1026351,68.3061131 8.16338528,53.0152419 8.16338528,34.1530566 C8.16338528,15.2908713 32.1026351,0 61.6328908,0 C91.1635919,0 115.102842,15.2908713 115.102842,34.1530566" id="Fill-42" fill="#E3EEFF"></path>
                    <path d="M115.102842,34.1530566 C115.102842,53.0152419 91.1635919,68.3061131 61.6328908,68.3061131 C32.1026351,68.3061131 8.16338528,53.0152419 8.16338528,34.1530566 C8.16338528,15.2908713 32.1026351,0 61.6328908,0 C91.1635919,0 115.102842,15.2908713 115.102842,34.1530566 Z" id="Stroke-44" stroke="#7DA0D3"></path>
                    <path d="M46.655417,19.9546449 C38.4345807,24.7012548 38.4345807,32.4678274 46.655417,37.2144374 C54.8762532,41.960602 68.3291381,41.9597113 76.5499743,37.2113199 C84.771256,32.4633739 84.771256,24.6963559 76.5499743,19.9515274 C68.3291381,15.2066989 54.8762532,15.2080349 46.655417,19.9546449" id="Fill-46" fill="#E3EEFF"></path>
                    <path d="M46.655417,19.9546449 C38.4345807,24.7012548 38.4345807,32.4678274 46.655417,37.2144374 C54.8762532,41.960602 68.3291381,41.9597113 76.5499743,37.2113199 C84.771256,32.4633739 84.771256,24.6963559 76.5499743,19.9515274 C68.3291381,15.2066989 54.8762532,15.2080349 46.655417,19.9546449 Z" id="Stroke-48" stroke="#7DA0D3"></path>
                    <path d="M66.0667714,25.8580239 L61.7027227,25.8580239 C61.4368449,25.8451086 61.1700763,25.8451086 60.9041985,25.8580239 L56.5909204,25.8580239 L56.5909204,28.4486629 C56.5330241,29.1892908 56.9855063,29.9406073 57.9595011,30.5026472 C59.7974875,31.5643772 62.8058709,31.5639318 64.6443026,30.5022018 C65.5630732,29.9717822 66.0226811,29.2725725 66.0226811,28.5729173 L66.0667714,28.5729173 L66.0667714,25.8580239 Z" id="Fill-50" fill="#E3EEFF"></path>
                    <path d="M66.0667714,25.8580239 L61.7027227,25.8580239 C61.4368449,25.8451086 61.1700763,25.8451086 60.9041985,25.8580239 L56.5909204,25.8580239 L56.5909204,28.4486629 C56.5330241,29.1892908 56.9855063,29.9406073 57.9595011,30.5026472 C59.7974875,31.5643772 62.8058709,31.5639318 64.6443026,30.5022018 C65.5630732,29.9717822 66.0226811,29.2725725 66.0226811,28.5729173 L66.0667714,28.5729173 L66.0667714,25.8580239 Z" id="Stroke-52" stroke="#7DA0D3"></path>
                    <path d="M57.9592784,23.928294 C56.1208466,24.9895787 56.1208466,26.7264691 57.9592784,27.7877538 C59.7977102,28.8490384 62.8056482,28.8490384 64.64408,27.7873084 C66.4825117,26.7255784 66.4825117,24.9886879 64.64408,23.9278487 C62.8056482,22.8665641 59.7977102,22.8670094 57.9592784,23.928294" id="Fill-54" fill="#E3EEFF"></path>
                    <path d="M57.9592784,23.928294 C56.1208466,24.9895787 56.1208466,26.7264691 57.9592784,27.7877538 C59.7977102,28.8490384 62.8056482,28.8490384 64.64408,27.7873084 C66.4825117,26.7255784 66.4825117,24.9886879 64.64408,23.9278487 C62.8056482,22.8665641 59.7977102,22.8670094 57.9592784,23.928294 Z" id="Stroke-56" stroke="#7DA0D3"></path>
                </g>
            </g>
        </g>
    </g>
</svg>