<svg width="492" height="247" viewBox="0 0 492 247" fill="none" xmlns="http://www.w3.org/2000/svg">
<path d="M491 246H1V191.177C1 168.911 19.0503 150.86 41.3165 150.86H58.0035C71.0536 150.86 81.6329 140.281 81.6329 127.231C81.6329 114.181 92.2122 103.602 105.262 103.602H122.259C144.697 103.602 162.886 85.4124 162.886 62.975V52.3008C162.886 23.9681 185.854 1 214.187 1H318.197C331.763 1 342.759 11.9969 342.759 25.5622C342.759 39.1275 353.756 50.1244 367.322 50.1244H387.108C411.6 50.1244 431.456 69.9797 431.456 94.4725V136.012C431.456 152.455 444.785 165.784 461.228 165.784C477.671 165.784 491 179.114 491 195.556V246Z" fill="white" stroke="#412589"/>
</svg>
