<svg width="396" height="181" viewBox="0 0 396 181" fill="none" xmlns="http://www.w3.org/2000/svg">
<path d="M161.967 55.4408L168.25 72.4212L168.33 72.6369L168.546 72.7167L185.526 79L168.546 85.2833L168.33 85.3631L168.25 85.5788L161.967 102.559L155.683 85.5788L155.604 85.3631L155.388 85.2833L138.408 79L155.388 72.7167L155.604 72.6369L155.683 72.4212L161.967 55.4408Z" fill="white" stroke="#412589"/>
<path d="M192.865 79.0365L197.024 90.2761L197.104 90.4917L197.32 90.5715L208.559 94.7305L197.32 98.8896L197.104 98.9694L197.024 99.185L192.865 110.425L188.706 99.185L188.626 98.9694L188.411 98.8896L177.171 94.7305L188.411 90.5715L188.626 90.4917L188.706 90.2761L192.865 79.0365Z" fill="white" stroke="#412589"/>
<path d="M148.483 105.441L158.408 132.263L158.488 132.478L158.704 132.558L185.526 142.483L158.704 152.408L158.488 152.488L158.408 152.704L148.483 179.526L138.558 152.704L138.478 152.488L138.263 152.408L111.441 142.483L138.263 132.558L138.478 132.478L138.558 132.263L148.483 105.441Z" fill="white" stroke="#412589"/>
<path d="M23.5 1.44077L29.3782 17.3264L29.458 17.542L29.6736 17.6218L45.5592 23.5L29.6736 29.3782L29.458 29.458L29.3782 29.6736L23.5 45.5592L17.6218 29.6736L17.542 29.458L17.3264 29.3782L1.44077 23.5L17.3264 17.6218L17.542 17.542L17.6218 17.3264L23.5 1.44077Z" fill="white" stroke="#412589"/>
<path d="M230 89.4408L236.824 107.881L236.903 108.097L237.119 108.176L255.559 115L237.119 121.824L236.903 121.903L236.824 122.119L230 140.559L223.176 122.119L223.097 121.903L222.881 121.824L204.441 115L222.881 108.176L223.097 108.097L223.176 107.881L230 89.4408Z" fill="white" stroke="#412589"/>
<path d="M369 51.4408L375.824 69.8811L375.903 70.0967L376.119 70.1765L394.559 77L376.119 83.8235L375.903 83.9033L375.824 84.1189L369 102.559L362.176 84.1189L362.097 83.9033L361.881 83.8235L343.441 77L361.881 70.1765L362.097 70.0967L362.176 69.8811L369 51.4408Z" fill="white" stroke="#412589"/>
</svg>
