<?xml version="1.0" encoding="utf-8"?>
<!-- Generator: Adobe Illustrator 25.4.0, SVG Export Plug-In . SVG Version: 6.00 Build 0)  -->
<svg version="1.1" id="Layer_1" xmlns="http://www.w3.org/2000/svg" xmlns:xlink="http://www.w3.org/1999/xlink" x="0px" y="0px"
	 viewBox="0 0 300 300" style="enable-background:new 0 0 300 300;" xml:space="preserve">
<style type="text/css">
	.st0{fill:#FFFFFF;stroke:#D18D7D;stroke-width:1.5;stroke-miterlimit:10;}
	.st1{fill:#FFC7AB;stroke:#D18D7D;stroke-miterlimit:10;}
	.st2{enable-background:new    ;}
	.st3{fill:#D18D7D;}
	.st4{fill:#F7EEEB;}
	.st5{fill:#EADAD6;}
	.st6{fill:none;stroke:#D18D7D;stroke-width:1.5;stroke-miterlimit:10;}
	.st7{fill:none;stroke:#D18D7D;stroke-width:1.5;stroke-linecap:round;stroke-miterlimit:10;}
	.st8{fill:#FFFFFF;}
</style>
<g id="Layer_1_00000091002024052324769280000015795825067693666201_">
	<circle class="st0" cx="150" cy="150" r="148.3"/>
	<circle class="st1" cx="150" cy="150" r="138.8"/>
	<g class="st2">
		<path class="st3" d="M37.9,102.4l17.8,6.2l-1.5,4.3l-12.6,2.6l-3.5,0.5l0,0l3.1,1l10.3,3.6l-1.2,3.3l-17.8-6.2l1.5-4.2l12.6-2.6
			l3.5-0.5v-0.1l-3.1-1l-10.3-3.6L37.9,102.4z"/>
	</g>
	<g class="st2">
		<path class="st3" d="M53.1,76.1c1.1-1.5,2.4-2.5,3.9-3.1c1.4-0.6,3-0.8,4.6-0.5s3.2,1.1,4.8,2.3c1.6,1.2,2.8,2.6,3.5,4
			c0.7,1.5,1,3,0.8,4.5s-0.9,3.1-2,4.5c-1.1,1.5-2.4,2.5-3.9,3.1c-1.4,0.6-3,0.8-4.6,0.5s-3.2-1.1-4.8-2.3c-1.6-1.2-2.8-2.6-3.5-4
			c-0.7-1.5-1-3-0.7-4.5C51.3,79.1,52,77.6,53.1,76.1z M55.7,78.1c-0.6,0.8-1,1.7-1,2.6c-0.1,0.9,0.2,1.8,0.7,2.7
			c0.5,0.9,1.4,1.8,2.5,2.6c1.1,0.8,2.2,1.4,3.2,1.7c1,0.3,1.9,0.3,2.8,0c0.8-0.3,1.6-0.9,2.2-1.7c0.6-0.8,1-1.7,1-2.6
			c0.1-0.9-0.2-1.8-0.7-2.7c-0.5-0.9-1.4-1.8-2.5-2.6c-1.1-0.8-2.2-1.4-3.2-1.7c-1-0.3-1.9-0.3-2.8,0C57.1,76.7,56.3,77.2,55.7,78.1
			z"/>
	</g>
	<g class="st2">
		<path class="st3" d="M85.8,46.6l1.8,2.6l-5.1,3.7l9.1,12.7l-3.2,2.3l-9.1-12.7l-5.1,3.7l-1.8-2.6L85.8,46.6z"/>
	</g>
	<g class="st2">
		<path class="st3" d="M126.3,49.7l4.2-19.6l4.7-0.7l9.5,17.7l-4,0.6l-6.1-12.1l-1.3-2.7h-0.1l-0.4,2.9l-2.5,13.4L126.3,49.7z
			 M129.6,44.5l-0.4-2.9l10.2-1.5l0.4,2.9L129.6,44.5z"/>
	</g>
	<g class="st2">
		<path class="st3" d="M173.8,30.5l-0.4,3.1l-6.3-0.8l-2,15.6l-3.9-0.5l2-15.6l-6.3-0.8l0.4-3.1L173.8,30.5z"/>
	</g>
	<g class="st2">
		<path class="st3" d="M201.2,60.5L217.6,49l3.9,2.7L216.3,71l-3.4-2.3l3.8-13l0.9-2.8l0,0l-2.3,1.8l-10.9,8.1L201.2,60.5z
			 M207.1,59l1.7-2.4l8.5,5.9l-1.7,2.4L207.1,59z"/>
	</g>
	<g class="st2">
		<path class="st3" d="M231.4,82.3l6.2,7.8l-2.5,2l-8.7-10.9l14.7-11.8l2.5,3.1L231.4,82.3z"/>
	</g>
	<g class="st2">
		<path class="st3" d="M246.9,107.4l3.8,9.2l-2.9,1.2l-5.3-12.8l17.4-7.2l1.5,3.6L246.9,107.4z"/>
	</g>
	<g class="st2">
		<path class="st3" d="M255.8,187.1L245,190l1.4-4.2l9.4-2.3L255.8,187.1z M265.4,188.3c-0.7,2-1.7,3.5-3,4.3
			c-1.4,0.8-2.9,1-4.5,0.5c-1.8-0.6-2.9-1.6-3.5-3c-0.6-1.5-0.5-3.2,0.1-5.2l-0.1-0.5l1.2-3.9l-6.9-2.2l1.2-3.7l18,5.8L265.4,188.3z
			 M257.3,185.2c-0.3,1.1-0.4,1.9-0.1,2.6c0.3,0.7,0.8,1.1,1.7,1.4c0.9,0.3,1.6,0.2,2.2-0.1c0.6-0.4,1.1-1.1,1.4-2.1l1.2-3.8
			l-5.2-1.7L257.3,185.2z"/>
	</g>
	<g class="st2">
		<path class="st3" d="M238.9,201.9l15.6,10.5l-7.9,11.7l-2.6-1.8l5.7-8.5l-3.9-2.6l-4.5,6.7l-2.5-1.7l4.5-6.7l-4-2.7l-5.9,8.8
			l-2.6-1.8L238.9,201.9z"/>
	</g>
	<g class="st2">
		<path class="st3" d="M212.7,238.2c-0.5-1.2-0.7-2.3-0.7-3.4c0.1-1.1,0.4-2.2,0.9-3.2c0.6-1,1.3-1.9,2.3-2.7
			c1.4-1.2,2.9-1.9,4.5-2.2c1.5-0.3,3.1-0.1,4.6,0.5s2.9,1.7,4.2,3.3c1.3,1.5,2.1,3.1,2.5,4.7c0.4,1.6,0.3,3.1-0.2,4.6
			s-1.5,2.8-2.9,4c-1,0.8-2,1.5-3,1.9s-2.1,0.6-3.1,0.5s-2-0.4-3-1l1.8-3.5c1,0.7,1.9,1,2.7,0.9s1.6-0.4,2.4-1.1
			c0.8-0.7,1.3-1.4,1.6-2.3c0.3-0.9,0.3-1.8,0-2.8s-0.9-2-1.8-3.1c-0.9-1.1-1.8-1.8-2.7-2.3s-1.8-0.7-2.7-0.6s-1.8,0.5-2.6,1.2
			s-1.3,1.4-1.5,2.4c-0.2,0.9-0.1,1.9,0.4,2.9L212.7,238.2z"/>
	</g>
	<g class="st2">
		<path class="st3" d="M192.1,264.4l1.2-13.5l-2.9-6.4l3.6-1.6l2.9,6.4l11,8L204,259l-5.1-3.9l-2.5-2.1l-0.1,3.3l-0.4,6.4
			L192.1,264.4z"/>
	</g>
	<g class="st2">
		<path class="st3" d="M157.7,258c0.2-1.3,0.6-2.4,1.2-3.3s1.5-1.7,2.5-2.2c1-0.6,2.1-0.9,3.4-1.1c1.8-0.3,3.5-0.1,5,0.4
			c1.5,0.6,2.7,1.5,3.6,2.8c0.9,1.3,1.6,3,1.9,5c0.3,2,0.2,3.8-0.3,5.3s-1.4,2.8-2.6,3.8c-1.2,1-2.7,1.6-4.6,1.9
			c-1.3,0.2-2.5,0.2-3.6,0s-2.1-0.6-2.9-1.2s-1.5-1.4-2-2.5l3.3-2c0.5,1.1,1.1,1.8,1.8,2.2c0.7,0.4,1.6,0.5,2.7,0.3
			c1-0.2,1.9-0.5,2.6-1.1c0.7-0.6,1.2-1.4,1.4-2.4c0.3-1,0.3-2.2,0.1-3.6s-0.6-2.5-1.1-3.4s-1.2-1.5-2-1.9s-1.8-0.5-2.9-0.3
			c-1,0.2-1.9,0.6-2.5,1.2c-0.7,0.7-1.1,1.6-1.2,2.7L157.7,258z"/>
	</g>
	<g class="st2">
		<path class="st3" d="M139.1,255.3l-9.8-1.2l0.4-3.1l13.8,1.7l-2.3,18.7l-3.9-0.5L139.1,255.3z"/>
	</g>
	<g class="st2">
		<path class="st3" d="M118.5,248.2l-13.7,14.7l-4.3-1.8l1-20.1l3.8,1.6l-1,13.5l-0.3,3h0.1l1.8-2.3l9-10.2L118.5,248.2z M113,250.9
			l-1.1,2.7l-9.5-4l1.1-2.7L113,250.9z"/>
	</g>
	<g class="st2">
		<path class="st3" d="M90.6,234.1l-11.9,14.6l-6.4-5.2c-1.8-1.4-2.8-2.9-3.1-4.2c-0.3-1.4,0.1-2.7,1.1-4c0.6-0.8,1.4-1.3,2.4-1.5
			s2,0,3,0.5l0,0c-0.9-1-1.4-2-1.4-3.1s0.3-2,1-2.9c1-1.3,2.3-1.9,3.8-1.8c1.5,0,3.1,0.8,4.8,2.2L90.6,234.1z M80.7,240.1l-3-2.5
			c-1.6-1.3-2.9-1.3-3.9-0.1c-1,1.3-0.7,2.5,0.9,3.9l3,2.5L80.7,240.1z M85.8,233.9l-3.4-2.8c-0.8-0.7-1.6-1-2.3-1
			c-0.7,0-1.3,0.3-1.8,0.9c-0.5,0.6-0.7,1.3-0.6,1.9c0.1,0.7,0.6,1.3,1.4,2l3.4,2.8L85.8,233.9z"/>
	</g>
	<g class="st2">
		<path class="st3" d="M64.5,212.5l-5.7-8.2l2.6-1.8l7.9,11.4l-15.5,10.8l-2.2-3.2L64.5,212.5z"/>
	</g>
	<g class="st2">
		<path class="st3" d="M55.4,190.5l-17.8,6.3l-4.7-13.3l3-1.1l3.4,9.6l4.4-1.6l-2.7-7.6l2.9-1l2.7,7.6l4.5-1.6l-3.5-10l3-1.1
			L55.4,190.5z"/>
	</g>
	<circle class="st0" cx="37.2" cy="152.8" r="3.6"/>
	<circle class="st0" cx="263.9" cy="149.2" r="3.6"/>
	<path class="st4" d="M202.7,139.4c56.4-11.4,46.9,63.6-4.6,36.1c51.5,27.5-4.1,78.9-26.7,24.7C194,254.4,118.5,258,135,202
		c-16.5,56-76.7,10.2-29-22c-47.7,32.3-64.4-41.5-8-35.5c-56.4-6-21.8-73.2,16.7-32.4C76.2,71.2,145.9,41.9,148.2,98
		c-2.3-56,70-33.6,34.8,10.8C218.1,64.3,259.1,128,202.7,139.4z"/>
	<path class="st5" d="M194.4,98.4c0,0,9.9,5.4,15.7,17.7c5,10.5,5.6,19.4,5.6,19.4l-7.7,3.7c0,0-2-12.5-7.1-18.6
		s-13.3-15.9-13.3-15.9l3.9-4.3L194.4,98.4z"/>
	<path class="st5" d="M117.8,200.6c0,0-0.6,2.4,0.9,4.7s11.3,8.5,11.3,8.5l2.9-5.9l-11.6-4.5L117.8,200.6z"/>
	<path class="st5" d="M147.9,90.4c0,0,19.7-5.9,35.3,1l7.5,3.5l-4.3,9c0,0-5.7-6.5-16.1-9.1C159.9,92.2,147.9,90.4,147.9,90.4z"/>
	<path class="st5" d="M210.9,181.5c0,0,6.8-6.9,8.4-22.5c1.1-10.8-1.6-19.7-1.6-19.7s-9.2-1.6-9.6,0s1.3,5.3,0.9,9.8
		s0.5,11.1-2.5,18.9s-4.1,10.4-4.1,10.4L210.9,181.5z"/>
	<path class="st5" d="M173.1,205.9l3.8,6.3c0,0,10.3-0.3,21.2-10.6c11.2-10.7,11.8-16.2,11.8-16.2l-8-6.6c0,0-4.4,11.1-12.5,16.7
		C181.3,201.1,173.1,205.9,173.1,205.9z"/>
	<path class="st5" d="M132.2,214.3c0,0,24.1,7.5,42.4-0.5l-2.1-8.5c0,0-13.3,5.8-25,4.8c-11.6-1-15.3-2.9-15.3-2.9V214.3z"/>
	<path class="st6" d="M202.7,139.4c56.4-11.4,46.9,63.6-4.6,36.1c51.5,27.5-4.1,78.9-26.7,24.7C194,254.4,118.5,258,135,202
		c-16.5,56-76.7,10.2-29-22c-47.7,32.3-64.4-41.5-8-35.5c-56.4-6-21.8-73.2,16.7-32.4C76.2,71.2,145.9,41.9,148.2,98
		c-2.3-56,70-33.6,34.8,10.8C218.1,64.3,259.1,128,202.7,139.4z"/>
	<circle class="st0" cx="150.3" cy="150" r="59.4"/>
	<path class="st5" d="M117.7,199.6c0,0,2.6-1.9,4.6-1.9s27.7,13,56-3s28-53,30.8-53.1c0.8,0,5.2,32.1-21.2,54.4
		C153.4,225,117.7,199.6,117.7,199.6z"/>
	<circle class="st6" cx="150.2" cy="149.7" r="59.4"/>
	<path class="st7" d="M122.5,188.2c0,0,2.2-31.8,23.6-32.7s32.7,32.7,32.7,32.7"/>
	<g>
		<path class="st3" d="M136.7,121.8c2.3-0.1,2.9,8.7,1.5,14c-1.5,5.3-4.9,13.9-8.3,12.8s-1.1-12.5,0-16.1
			C130.9,129,133.6,122,136.7,121.8z"/>
		<path class="st3" d="M163.7,118.9c2.3-0.1,2.9,8.7,1.5,14c-1.5,5.3-4.9,13.9-8.3,12.8s-1.1-12.5,0-16.1
			C157.9,126,160.6,119,163.7,118.9z"/>
		<circle class="st8" cx="139.2" cy="129.4" r="3"/>
		<circle class="st8" cx="164.7" cy="126.4" r="3"/>
	</g>
</g>
</svg>
