<svg width="235" height="360" viewBox="0 0 235 360" fill="none" xmlns="http://www.w3.org/2000/svg">
<path d="M107.002 17.3043L77.426 46.7348L48.9432 57.9927L53.3288 90.674L41.3917 115.312L48.7718 164.209L56.4855 177.028L59.4048 186.719L59.7217 189.806L64.6185 197.866L72.1171 196.516L85.1777 199.853L92.6586 200.144L97.6374 204.301L104.217 215.303L102.632 224.902L105.38 231.808L105.263 244.546L101.278 254.124L95.9494 267.665L93.3834 284.722L86.4801 297.968L92.1499 311.808L99.04 306.73L107.811 292.692L112.859 275.13L115.516 254.158C115.516 254.158 113.054 238.64 112.832 238.166C112.611 237.692 113.715 216.139 113.715 216.139L125.921 202.28L134.292 208.91C134.292 208.91 141.197 211.718 141.605 210.89C142.013 210.062 143.034 203.015 143.034 203.015L147.931 222.492L150.513 233.705L146.397 249.498L147.877 259.842L139.645 279.469L135.794 294.116C135.794 294.116 129.596 302.379 129.89 303.003C130.184 303.628 135.022 328.664 135.022 328.664L133.074 336.116L143.608 337.148L150.374 321.592C150.374 321.592 150.883 293.603 150.812 292.77C150.742 291.937 156.561 263.728 156.561 263.728L165.305 245.875L171.791 223.872L173.722 180.514L172.359 121.564L163.653 93.9489L145.496 37.4507L132.889 26.8786L107.678 16.6767L107.012 17.3004L107.002 17.3043Z" fill="white" stroke="#412589" stroke-linecap="round" stroke-linejoin="round"/>
<path d="M142.576 332.691L138.707 308.225L142.832 299.702L150.84 265.831L163.364 238.446L162.678 211.676L150.842 161.554L138.047 107.418L123.162 75.1856L112.115 63.0086L107.62 21.9734L132.467 29.9973L142.127 40.585" stroke="#412589" stroke-linecap="round" stroke-linejoin="round"/>
<path d="M93.6756 309.094L98.5422 295.201L107.699 275.302L109.7 248.708L109.425 226.909L112.323 250.278C112.323 250.278 110.213 275.636 110.375 276.489C110.537 277.341 103.394 293.311 103.394 293.311L93.6719 309.103L93.6756 309.094Z" stroke="#412589" stroke-linecap="round" stroke-linejoin="round"/>
<path d="M140.449 319.26L142.609 307.375L143.523 296.759" stroke="#412589" stroke-linecap="round" stroke-linejoin="round"/>
<path d="M71.9157 82.0366C66.4673 87.111 63.3553 95.6539 62.677 105.491C61.9466 116.122 57.0281 141.621 62.1245 152.526C71.9362 173.511 89.0773 181.965 100.41 171.396C111.742 160.827 112.977 135.25 103.165 114.265C99.6011 106.637 102.099 87.3134 97.2261 83.3099C88.6936 76.292 79.1241 75.3126 71.9105 82.0385L71.9157 82.0366Z" stroke="#412589" stroke-linecap="round" stroke-linejoin="round"/>
<path d="M108.813 100.032L87.7988 133.511L67.7598 148.66" stroke="#412589" stroke-linecap="round" stroke-linejoin="round"/>
<path d="M44.9336 114.931L68.1064 98.7821L73.1023 94.1268" stroke="#412589" stroke-linecap="round" stroke-linejoin="round"/>
<path d="M88.1317 112.062C88.6383 111.87 91.6812 120.392 92.6394 125.645C92.7093 126.013 92.0696 126.139 92.1525 126.518C92.5998 128.471 93.051 130.647 93.487 132.945C95.1899 141.92 95.9835 149.426 95.2518 149.703C94.5201 149.98 92.551 142.926 90.8467 133.944C90.5848 132.564 90.3452 131.214 90.1267 129.918C90.0437 129.423 90.5999 129.406 90.5452 128.915C89.7849 122.364 87.5535 112.281 88.1266 112.064L88.1317 112.062Z" fill="#412589"/>
<path d="M73.7572 123.566C74.3303 123.349 78.3063 133.725 77.9695 140.939C77.9394 141.648 76.6532 140.794 76.8395 141.979C78.2596 151.053 79.1073 157.601 78.3756 157.878C77.6439 158.155 75.9856 152.711 74.2827 143.736C74.0702 142.616 75.2426 142.869 75.1942 141.718C74.8581 133.675 73.1189 123.815 73.7586 123.573L73.7572 123.566Z" fill="#412589"/>
<path d="M97.5162 128.68C97.5162 128.68 96.9721 126.477 96.1417 121.378C95.6895 118.59 98.2651 118.839 97.5133 115.6C94.4871 102.541 85.914 83.921 76.6699 94.397C70.7704 101.083 72.5651 112.044 71.5691 116.565C69.915 124.091 68.3922 124.621 68.3769 137.576" stroke="#412589" stroke-linecap="round" stroke-linejoin="round"/>
<path d="M143.037 203.03C143.037 203.03 133.403 192.603 132.983 192.762C132.563 192.921 120.448 189.048 120.448 189.048L111.006 206.368" stroke="#412589" stroke-linecap="round" stroke-linejoin="round"/>
</svg>
