<svg width="850" height="783" viewBox="0 0 850 783" fill="none" xmlns="http://www.w3.org/2000/svg">
<g filter="url(#filter0_f_400_141)">
<path d="M301 413.181C301.344 402.883 306.609 392.218 311.681 383.529C321.627 366.489 347.759 316.148 365.508 306.924C379.573 299.614 416.966 295.95 429.896 306.924C451.845 325.554 460.166 356.897 466.876 383.529C472.072 404.153 472.419 421.969 486.733 438.329C499.979 453.468 518.789 474.798 538.401 479.514C570.598 487.258 609.176 480.664 641.63 473.654C673.506 466.77 706.975 432.182 717 400.986" stroke="url(#paint0_linear_400_141)" stroke-width="200" stroke-linecap="round"/>
</g>
<defs>
<filter id="filter0_f_400_141" x="0.998047" y="0" width="1016.03" height="782.951" filterUnits="userSpaceOnUse" color-interpolation-filters="sRGB">
<feFlood flood-opacity="0" result="BackgroundImageFix"/>
<feBlend mode="normal" in="SourceGraphic" in2="BackgroundImageFix" result="shape"/>
<feGaussianBlur stdDeviation="100" result="effect1_foregroundBlur_400_141"/>
</filter>
<linearGradient id="paint0_linear_400_141" x1="578.346" y1="300.02" x2="406.407" y2="509.427" gradientUnits="userSpaceOnUse">
<stop stop-color="#FEECA4"/>
<stop offset="0.532092" stop-color="#EEA73D"/>
<stop offset="1" stop-color="white"/>
</linearGradient>
</defs>
</svg>
