<svg width="163" height="110" viewBox="0 0 163 110" fill="none" xmlns="http://www.w3.org/2000/svg">
<path d="M217 109H1V84.8331C1 75.0178 8.95686 67.0609 18.7722 67.0609H26.1281C31.8808 67.0609 36.5443 62.3974 36.5443 56.6447C36.5443 50.8919 41.2078 46.2284 46.9605 46.2284H54.4532C64.3439 46.2284 72.362 38.2104 72.362 28.3196V23.6142C72.362 11.1247 82.4868 1 94.9763 1H140.826C146.806 1 151.653 5.8476 151.653 11.8274C151.653 17.8072 156.501 22.6548 162.481 22.6548H171.203C181.999 22.6548 190.752 31.4074 190.752 42.2042V60.5155C190.752 67.7638 196.628 73.6396 203.876 73.6396C211.124 73.6396 217 79.5154 217 86.7637V109Z" fill="white" stroke="#412589"/>
</svg>
