<svg width="696" height="696" viewBox="0 0 696 696" fill="none" xmlns="http://www.w3.org/2000/svg">
<path d="M47.25 521.31L45.0521 470.962L11.4298 433.421L22.8972 384.347L0.650116 339.127L24.9323 294.966L15.7104 245.421L51.0065 209.45L55.4937 159.254L99.1859 134.139L117.049 87.0147L165.897 74.6192L195.812 34.0623L246.193 35.3054L285.941 4.32336L334.118 19.1129L380.751 0.00366352L423.151 27.2429L473.21 21.4235L506.689 59.0921L556.462 66.9943L578.537 112.299L624.332 133.336L633.365 182.916L671.786 215.529L667.107 265.708L695.305 307.477L677.262 354.533L693.144 402.361L663.075 442.803L665.465 493.143L625.599 523.973L614.319 573.091L567.614 592.022L543.5 636.275L493.419 641.903L458.26 678.009L408.518 669.917L364.922 695.199L319.207 673.987L270.407 686.568L232.11 653.809L181.725 652.758L153.687 610.881L105.454 596.275L89.7539 548.387L47.25 521.31Z" fill="url(#paint0_radial_295_32)"/>
<defs>
<radialGradient id="paint0_radial_295_32" cx="0" cy="0" r="1" gradientUnits="userSpaceOnUse" gradientTransform="translate(28.5 347) rotate(-6.17432) scale(822.694)">
<stop stop-color="#E5BFA8"/>
<stop offset="1" stop-color="#C5AEDC" stop-opacity="0"/>
</radialGradient>
</defs>
</svg>
