<?xml version="1.0" encoding="UTF-8"?>
<svg width="417px" height="430px" viewBox="0 0 417 430" version="1.1" xmlns="http://www.w3.org/2000/svg" xmlns:xlink="http://www.w3.org/1999/xlink">
    <title>Group 3</title>
    <defs>
        <path d="M-4.29415752e-15,18.5380412 C-4.29415752e-15,28.7764375 12.9942275,37.0760825 29.0234954,37.0760825 L29.0234954,37.0760825 C45.0525215,37.0760825 58.0469908,28.7764375 58.0469908,18.5380412 L58.0469908,18.5380412 C58.0469908,8.29964491 45.0525215,0 29.0234954,0 L29.0234954,0 C12.9942275,0 -4.29415752e-15,8.29964491 -4.29415752e-15,18.5380412" id="path-1"></path>
        <path d="M-4.29415752e-15,18.5380412 C-4.29415752e-15,28.7764375 12.9942275,37.0760825 29.0234954,37.0760825 L29.0234954,37.0760825 C45.0525215,37.0760825 58.0469908,28.7764375 58.0469908,18.5380412 L58.0469908,18.5380412 C58.0469908,8.29964491 45.0525215,0 29.0234954,0 L29.0234954,0 C12.9942275,0 -4.29415752e-15,8.29964491 -4.29415752e-15,18.5380412 L-4.29415752e-15,18.5380412 Z" id="path-3"></path>
    </defs>
    <g id="Page-1" stroke="none" stroke-width="1" fill="none" fill-rule="evenodd">
        <g id="start" transform="translate(-78.000000, -525.000000)">
            <g id="Group-3" transform="translate(79.000000, 526.000000)">
                <circle id="Oval" stroke="#7D9FD3" stroke-width="2" cx="196" cy="213" r="165"></circle>
                <g id="Group-21" transform="translate(336.000000, 179.000000)">
                    <path d="M24.1001457,46.7410536 L28.2691645,49.8518353 L26.6245265,52.7300933 C26.6245265,52.7300933 25.6720847,54.4508248 26.9192827,56.0465254 C28.1667636,57.6419431 30.2128019,56.8869484 30.2128019,56.8869484 L31.7242056,78.4406454 L28.3749599,89.8920105 L27.104849,95.4751239 L19.2677839,100 L13.3986835,99.4240655 L9.51056005,97.1197619 L8.35840823,98.1089774 L5.52512744,95.6799257 C5.52512744,95.6799257 8.07044099,68.3193608 8.50267472,68.3193608 C8.93462558,68.3193608 10.4799743,50.6832063 10.4799743,50.6832063 L24.1001457,46.7410536 Z" id="Fill-1" fill="#FFFFFF"></path>
                    <path d="M24.1001457,46.7410536 L28.2691645,49.8518353 L26.6245265,52.7300933 C26.6245265,52.7300933 25.6720847,54.4508248 26.9192827,56.0465254 C28.1667636,57.6419431 30.2128019,56.8869484 30.2128019,56.8869484 L31.7242056,78.4406454 L28.3749599,89.8920105 L27.104849,95.4751239 L19.2677839,100 L13.3986835,99.4240655 L9.51056005,97.1197619 L8.35840823,98.1089774 L5.52512744,95.6799257 C5.52512744,95.6799257 8.07044099,68.3193608 8.50267472,68.3193608 C8.93462558,68.3193608 10.4799743,50.6832063 10.4799743,50.6832063 L24.1001457,46.7410536 Z" id="Stroke-3" stroke="#000000" stroke-linecap="round" stroke-linejoin="round"></path>
                    <path d="M52.6175581,10.187064 L36.0215367,0.497447404 C35.1089804,-0.116958134 33.5825843,-0.169572973 32.6298597,0.380619832 L5.95951103,15.780078 C3.92195896,16.9565571 2.62356051,19.0894382 2.5140877,21.4398505 L0.00441646309,30.4338764 C-0.033488851,31.2496892 0.173293123,32.0584302 0.598172091,32.7560012 L3.55337221,37.6053355 L3.42381524,38.2712244 C3.21279013,39.3571833 3.47727871,40.4813305 4.15052234,41.359376 L7.69721509,45.98439 C7.69721509,45.98439 7.9693413,48.9223347 9.28810678,49.8470547 L15.28931,54.0559589 C15.28931,54.0559589 15.423393,54.9328729 15.5441808,55.5628366 L15.9619879,57.7435236 C16.150383,58.7259502 16.7520591,59.5802341 17.613415,60.0888442 L20.8947705,62.0262584 C21.434214,62.3447762 22.0701181,61.7985436 21.8370287,61.2175174 L21.2118739,59.6588735 C20.9666209,59.0475796 20.9278669,58.3732044 21.1009867,57.7378661 L24.8951955,43.8257672 C25.0456853,43.2738772 25.3130026,42.7610239 25.6790435,42.3217183 L30.0675736,37.0557084 C31.33429,35.5355356 33.5237462,35.1740207 35.2119471,36.2059505 L35.2119471,36.2059505 C36.9867078,37.290778 37.6296838,39.5568934 36.6894057,41.4122737 L34.5500185,45.6336244 C34.1845433,46.354674 33.608326,46.9478639 32.8980257,47.3342718 L28.2693342,49.8518636 L26.6246962,52.7301215 C25.7047851,54.339683 26.5027769,56.3879843 28.2693342,56.9511894 L28.2693342,56.9511894 C28.9482354,57.1675892 29.6831459,57.1274208 30.3346081,56.838605 L37.4916406,53.6661565 C38.0525826,53.4172261 38.5207415,52.9977217 38.8293587,52.4673302 L45.5134234,43.5776854 C47.9665195,40.3152826 47.3874734,37.7258404 48.1512372,33.7160805 L48.8946339,29.8140962 C49.814545,24.9839974 50.8289365,21.3119908 53.808181,17.4006716 L53.808181,17.4006716 C55.559746,15.1011768 55.0152107,11.8017173 52.6175581,10.187064" id="Fill-5" fill="#FFFFFF"></path>
                    <path d="M52.6175581,10.187064 L36.0215367,0.497447404 C35.1089804,-0.116958134 33.5825843,-0.169572973 32.6298597,0.380619832 L5.95951103,15.780078 C3.92195896,16.9565571 2.62356051,19.0894382 2.5140877,21.4398505 L0.00441646309,30.4338764 C-0.033488851,31.2496892 0.173293123,32.0584302 0.598172091,32.7560012 L3.55337221,37.6053355 L3.42381524,38.2712244 C3.21279013,39.3571833 3.47727871,40.4813305 4.15052234,41.359376 L7.69721509,45.98439 C7.69721509,45.98439 7.9693413,48.9223347 9.28810678,49.8470547 L15.28931,54.0559589 C15.28931,54.0559589 15.423393,54.9328729 15.5441808,55.5628366 L15.9619879,57.7435236 C16.150383,58.7259502 16.7520591,59.5802341 17.613415,60.0888442 L20.8947705,62.0262584 C21.434214,62.3447762 22.0701181,61.7985436 21.8370287,61.2175174 L21.2118739,59.6588735 C20.9666209,59.0475796 20.9278669,58.3732044 21.1009867,57.7378661 L24.8951955,43.8257672 C25.0456853,43.2738772 25.3130026,42.7610239 25.6790435,42.3217183 L30.0675736,37.0557084 C31.33429,35.5355356 33.5237462,35.1740207 35.2119471,36.2059505 L35.2119471,36.2059505 C36.9867078,37.290778 37.6296838,39.5568934 36.6894057,41.4122737 L34.5500185,45.6336244 C34.1845433,46.354674 33.608326,46.9478639 32.8980257,47.3342718 L28.2693342,49.8518636 L26.6246962,52.7301215 C25.7047851,54.339683 26.5027769,56.3879843 28.2693342,56.9511894 L28.2693342,56.9511894 C28.9482354,57.1675892 29.6831459,57.1274208 30.3346081,56.838605 L37.4916406,53.6661565 C38.0525826,53.4172261 38.5207415,52.9977217 38.8293587,52.4673302 L45.5134234,43.5776854 C47.9665195,40.3152826 47.3874734,37.7258404 48.1512372,33.7160805 L48.8946339,29.8140962 C49.814545,24.9839974 50.8289365,21.3119908 53.808181,17.4006716 L53.808181,17.4006716 C55.559746,15.1011768 55.0152107,11.8017173 52.6175581,10.187064 Z" id="Stroke-7" stroke="#000000" stroke-linecap="round" stroke-linejoin="round"></path>
                    <g id="Group-12" transform="translate(21.837085, 61.217319)">
                        <line x1="1" y1="13.5401176" x2="0" y2="0" id="Fill-9" fill="#FFFFFF"></line>
                        <line x1="1" y1="13.5401176" x2="0" y2="0" id="Stroke-11" stroke="#000000" stroke-linecap="round" stroke-linejoin="round"></line>
                    </g>
                    <g id="Group-16" transform="translate(9.510560, 74.757437)">
                        <polyline id="Fill-13" fill="#FFFFFF" points="2.00995116e-15 22.362438 1.44719095 9.51479958 3.03299087 0"></polyline>
                        <polyline id="Stroke-15" stroke="#000000" stroke-linecap="round" stroke-linejoin="round" points="2.00995116e-15 22.362438 1.44719095 9.51479958 3.03299087 0"></polyline>
                    </g>
                    <g id="Group-20" transform="translate(19.267812, 85.625060)">
                        <line x1="0" y1="14.3748832" x2="2.05848485" y2="0" id="Fill-17" fill="#FFFFFF"></line>
                        <line x1="0" y1="14.3748832" x2="2.05848485" y2="0" id="Stroke-19" stroke="#000000" stroke-linecap="round" stroke-linejoin="round"></line>
                    </g>
                </g>
                <g id="Group-62" transform="translate(0.000000, 163.000000)">
                    <g id="Group-7" transform="translate(4.398282, 20.953431)">
                        <path d="M0.0327315388,19.4084487 L5.48129987,64.0096425 C5.48129987,72.3143639 16.0213872,79.0465694 29.0233504,79.0465694 C42.0253135,79.0465694 52.5654008,72.3143639 52.5654008,64.0096425 L58.0468457,18.5381863 L0.0327315388,19.4084487 Z" id="Fill-1" fill="#FFFFFF"></path>
                        <path d="M0.0327315388,19.4084487 L5.48129987,64.0096425 C5.48129987,72.3143639 16.0213872,79.0465694 29.0233504,79.0465694 C42.0253135,79.0465694 52.5654008,72.3143639 52.5654008,64.0096425 L58.0468457,18.5381863 L0.0327315388,19.4084487 Z" id="Stroke-3" stroke="#000000"></path>
                        <path d="M58.046749,18.538283 C58.046749,28.7766793 45.0525215,37.0765659 29.0232537,37.0765659 C12.9942275,37.0765659 -3.43532601e-15,28.7766793 -3.43532601e-15,18.538283 C-3.43532601e-15,8.29988665 12.9942275,0 29.0232537,0 C45.0525215,0 58.046749,8.29988665 58.046749,18.538283" id="Fill-5" fill="#000000"></path>
                    </g>
                    <g id="Group-14" transform="translate(4.398186, 20.953672)">
                        <g id="Group-10">
                            <mask id="mask-2" fill="white">
                                <use xlink:href="#path-1"></use>
                            </mask>
                            <g id="Clip-9"></g>
                            <path d="M58.0468457,32.9342374 C58.0468457,43.1726337 45.0526182,51.4725204 29.0233504,51.4725204 C12.9943242,51.4725204 9.66958309e-05,43.1726337 9.66958309e-05,32.9342374 C9.66958309e-05,22.6958411 12.9943242,14.3959544 29.0233504,14.3959544 C45.0526182,14.3959544 58.0468457,22.6958411 58.0468457,32.9342374" id="Fill-8" fill="#000000" mask="url(#mask-2)"></path>
                        </g>
                        <g id="Group-13">
                            <mask id="mask-4" fill="white">
                                <use xlink:href="#path-3"></use>
                            </mask>
                            <g id="Clip-12"></g>
                            <path d="M58.0468457,32.9342374 C58.0468457,43.1726337 45.0526182,51.4725204 29.0233504,51.4725204 C12.9943242,51.4725204 9.66958309e-05,43.1726337 9.66958309e-05,32.9342374 C9.66958309e-05,22.6958411 12.9943242,14.3959544 29.0233504,14.3959544 C45.0526182,14.3959544 58.0468457,22.6958411 58.0468457,32.9342374 Z" id="Stroke-11" stroke="#FFFFFF" mask="url(#mask-4)"></path>
                        </g>
                    </g>
                    <g id="Group-61">
                        <path d="M62.4450314,39.4917135 C62.4450314,49.7301098 49.4508039,58.0299965 33.421536,58.0299965 C17.3925099,58.0299965 4.39828239,49.7301098 4.39828239,39.4917135 C4.39828239,29.2533172 17.3925099,20.9534306 33.421536,20.9534306 C49.4508039,20.9534306 62.4450314,29.2533172 62.4450314,39.4917135 Z" id="Stroke-15" stroke="#FFFFFF"></path>
                        <path d="M62.4450073,21.5464661 C62.4549186,21.3487231 62.4614456,21.1507384 62.4614456,20.951545 C62.4614456,20.7523516 62.4549186,20.5541251 62.4450073,20.3563822 L62.4450073,17.5983753 L61.986669,17.5983753 C59.5160905,8.96077848 47.6747191,2.41326203 33.4379502,2.41326203 C19.201423,2.41326203 7.36005152,8.96077848 4.8892313,17.5983753 L4.41469651,17.5983753 L4.41469651,20.951545 C4.41469651,31.1899413 17.4086823,39.4895862 33.4379502,39.4895862 C49.148847,39.4895862 61.9419472,31.516048 62.444282,21.5590366 L62.4450073,21.5590366 L62.4450073,21.5464661 Z" id="Fill-17" fill="#FFFFFF"></path>
                        <path d="M62.4450073,21.5464661 C62.4549186,21.3487231 62.4614456,21.1507384 62.4614456,20.951545 C62.4614456,20.7523516 62.4549186,20.5541251 62.4450073,20.3563822 L62.4450073,17.5983753 L61.986669,17.5983753 C59.5160905,8.96077848 47.6747191,2.41326203 33.4379502,2.41326203 C19.201423,2.41326203 7.36005152,8.96077848 4.8892313,17.5983753 L4.41469651,17.5983753 L4.41469651,20.951545 C4.41469651,31.1899413 17.4086823,39.4895862 33.4379502,39.4895862 C49.148847,39.4895862 61.9419472,31.516048 62.444282,21.5590366 L62.4450073,21.5590366 L62.4450073,21.5464661 Z" id="Stroke-19" stroke="#000000"></path>
                        <path d="M62.4614214,18.538283 C62.4614214,28.7766793 49.4671939,37.0765659 33.437926,37.0765659 C17.4088998,37.0765659 4.41467234,28.7766793 4.41467234,18.538283 C4.41467234,8.29988665 17.4088998,0 33.437926,0 C49.4671939,0 62.4614214,8.29988665 62.4614214,18.538283" id="Fill-21" fill="#FFFFFF"></path>
                        <path d="M62.4614214,18.538283 C62.4614214,28.7766793 49.4671939,37.0765659 33.437926,37.0765659 C17.4088998,37.0765659 4.41467234,28.7766793 4.41467234,18.538283 C4.41467234,8.29988665 17.4088998,0 33.437926,0 C49.4671939,0 62.4614214,8.29988665 62.4614214,18.538283 Z" id="Stroke-23" stroke="#000000"></path>
                        <path d="M4.33076453,50.7742798 C4.8497794,51.5468795 5.74856715,52.7746748 6.32825866,53.5027944 L8.32430235,56.0091503 C8.90399385,56.7372699 10.0655525,57.1182515 10.9053558,56.8557223 C11.7454008,56.5934349 13.185927,56.2682952 14.1069548,56.1336462 L14.6714167,56.0509713 C15.5922027,55.9160806 17.0573863,56.0770791 17.9271653,56.4082624 L18.7730121,56.7305012 C19.6427911,57.0619262 20.5430293,58.0707054 20.7736488,58.9723941 L20.9849292,59.797693 C21.2155488,60.6993816 22.0911295,61.7659366 22.9306911,62.1677078 L27.2558956,64.2379655 C28.0952154,64.6397367 29.4910197,64.690502 30.3574144,64.3508579 L35.4818099,62.3412768 C36.3482046,62.001391 37.5885704,61.178026 38.2378829,60.5113082 L40.1541525,58.544515 C40.8037067,57.8777973 40.7000005,56.9122894 39.9237747,56.3985928 L38.5637478,55.4988381 C37.787522,54.9853832 36.3982447,54.4610501 35.4762499,54.3341368 L24.9808844,52.8873254 C24.0588897,52.7601704 22.603134,52.3598497 21.7459254,51.997482 L13.8001873,48.6385106 C12.9429787,48.2759012 11.7388739,47.4075727 11.1246136,46.7084618 L7.82293446,42.9513453 C7.20843246,42.2522345 6.28184466,41.0476461 5.76379674,40.274563 L5.39925346,39.7306489 C4.88096381,38.957324 3.75784173,38.6266243 2.90353406,38.9955189 L1.55366026,39.5781113 C0.699110858,39.9467641 0,41.0099348 0,41.9406321 L0,42.6336995 C0,43.5643969 0.424494698,44.9580255 0.94350957,45.7306252 L4.33076453,50.7742798 Z" id="Fill-25" fill="#000000"></path>
                        <path d="M4.33076453,50.7742798 C4.8497794,51.5468795 5.74856715,52.7746748 6.32825866,53.5027944 L8.32430235,56.0091503 C8.90399385,56.7372699 10.0655525,57.1182515 10.9053558,56.8557223 C11.7454008,56.5934349 13.185927,56.2682952 14.1069548,56.1336462 L14.6714167,56.0509713 C15.5922027,55.9160806 17.0573863,56.0770791 17.9271653,56.4082624 L18.7730121,56.7305012 C19.6427911,57.0619262 20.5430293,58.0707054 20.7736488,58.9723941 L20.9849292,59.797693 C21.2155488,60.6993816 22.0911295,61.7659366 22.9306911,62.1677078 L27.2558956,64.2379655 C28.0952154,64.6397367 29.4910197,64.690502 30.3574144,64.3508579 L35.4818099,62.3412768 C36.3482046,62.001391 37.5885704,61.178026 38.2378829,60.5113082 L40.1541525,58.544515 C40.8037067,57.8777973 40.7000005,56.9122894 39.9237747,56.3985928 L38.5637478,55.4988381 C37.787522,54.9853832 36.3982447,54.4610501 35.4762499,54.3341368 L24.9808844,52.8873254 C24.0588897,52.7601704 22.603134,52.3598497 21.7459254,51.997482 L13.8001873,48.6385106 C12.9429787,48.2759012 11.7388739,47.4075727 11.1246136,46.7084618 L7.82293446,42.9513453 C7.20843246,42.2522345 6.28184466,41.0476461 5.76379674,40.274563 L5.39925346,39.7306489 C4.88096381,38.957324 3.75784173,38.6266243 2.90353406,38.9955189 L1.55366026,39.5781113 C0.699110858,39.9467641 0,41.0099348 0,41.9406321 L0,42.6336995 C0,43.5643969 0.424494698,44.9580255 0.94350957,45.7306252 L4.33076453,50.7742798 Z" id="Stroke-27" stroke="#FFFFFF"></path>
                        <path d="M25.3245656,10.8313593 C20.8622947,13.4078197 20.8622947,17.6235162 25.3245656,20.1999766 C29.7868365,22.7761953 37.0890639,22.7757118 41.5513347,20.1982845 C46.0138473,17.6210988 46.0138473,13.4051606 41.5513347,10.8296672 C37.0890639,8.25417369 29.7868365,8.25489891 25.3245656,10.8313593" id="Fill-29" fill="#FFFFFF"></path>
                        <path d="M25.3245656,10.8313593 C20.8622947,13.4078197 20.8622947,17.6235162 25.3245656,20.1999766 C29.7868365,22.7761953 37.0890639,22.7757118 41.5513347,20.1982845 C46.0138473,17.6210988 46.0138473,13.4051606 41.5513347,10.8296672 C37.0890639,8.25417369 29.7868365,8.25489891 25.3245656,10.8313593 Z" id="Stroke-31" stroke="#000000"></path>
                        <path d="M35.861051,14.0357383 L33.4922449,14.0357383 C33.3479263,14.0287278 33.2031243,14.0287278 33.0588058,14.0357383 L30.717558,14.0357383 L30.717558,15.4419374 C30.6861319,15.8439503 30.9317393,16.251765 31.4604237,16.5568403 C32.458083,17.1331475 34.0910338,17.1329058 35.0889348,16.5565986 C35.5876435,16.2686868 35.8371188,15.8891556 35.8371188,15.5093828 L35.861051,15.5093828 L35.861051,14.0357383 Z" id="Fill-33" fill="#FFFFFF"></path>
                        <path d="M35.861051,14.0357383 L33.4922449,14.0357383 C33.3479263,14.0287278 33.2031243,14.0287278 33.0588058,14.0357383 L30.717558,14.0357383 L30.717558,15.4419374 C30.6861319,15.8439503 30.9317393,16.251765 31.4604237,16.5568403 C32.458083,17.1331475 34.0910338,17.1329058 35.0889348,16.5565986 C35.5876435,16.2686868 35.8371188,15.8891556 35.8371188,15.5093828 L35.861051,15.5093828 L35.861051,14.0357383 Z" id="Stroke-35" stroke="#000000"></path>
                        <path d="M31.4603029,12.9882807 C30.4624019,13.5643461 30.4624019,14.5071305 31.4603029,15.0831959 C32.4582038,15.6592613 34.0909129,15.6592613 35.0888139,15.0829541 C36.0867149,14.506647 36.0867149,13.5638626 35.0888139,12.988039 C34.0909129,12.4119736 32.4582038,12.4122153 31.4603029,12.9882807" id="Fill-37" fill="#FFFFFF"></path>
                        <path d="M31.4603029,12.9882807 C30.4624019,13.5643461 30.4624019,14.5071305 31.4603029,15.0831959 C32.4582038,15.6592613 34.0909129,15.6592613 35.0888139,15.0829541 C36.0867149,14.506647 36.0867149,13.5638626 35.0888139,12.988039 C34.0909129,12.4119736 32.4582038,12.4122153 31.4603029,12.9882807 Z" id="Stroke-39" stroke="#000000"></path>
                        <g id="Group-44" transform="translate(16.330258, 57.696589)">
                            <line x1="2.33399562" y1="34.1135639" x2="0" y2="-6.87065202e-15" id="Fill-41" fill="#FFFFFF"></line>
                            <line x1="2.33399562" y1="34.1135639" x2="0" y2="-6.87065202e-15" id="Stroke-43" stroke="#000000"></line>
                        </g>
                        <g id="Group-48" transform="translate(53.765372, 54.195402)">
                            <line x1="3.23181641" y1="-6.87065202e-15" x2="6.87065202e-15" y2="32.8567599" id="Fill-45" fill="#FFFFFF"></line>
                            <line x1="3.23181641" y1="-6.87065202e-15" x2="6.87065202e-15" y2="32.8567599" id="Stroke-47" stroke="#000000"></line>
                        </g>
                        <g id="Group-52" transform="translate(13.073760, 67.444158)">
                            <line x1="1.88145913" y1="20.3742951" x2="0" y2="6.87065202e-15" id="Fill-49" fill="#FFFFFF"></line>
                            <line x1="1.88145913" y1="20.3742951" x2="0" y2="6.87065202e-15" id="Stroke-51" stroke="#000000"></line>
                        </g>
                        <g id="Group-56" transform="translate(50.075338, 56.203291)">
                            <line x1="1.83673731" y1="-6.87065202e-15" x2="0" y2="19.6715581" id="Fill-53" fill="#FFFFFF"></line>
                            <line x1="1.83673731" y1="-6.87065202e-15" x2="0" y2="19.6715581" id="Stroke-55" stroke="#000000"></line>
                        </g>
                        <g id="Group-60" transform="translate(43.517886, 68.498070)">
                            <line x1="2.34197303" y1="-6.87065202e-15" x2="0" y2="24.2382605" id="Fill-57" fill="#FFFFFF"></line>
                            <line x1="2.34197303" y1="-6.87065202e-15" x2="0" y2="24.2382605" id="Stroke-59" stroke="#000000"></line>
                        </g>
                    </g>
                </g>
                <text id="Find-the-objects-har" font-family="NittiGrotesk-Normal, Nitti Grotesk" font-size="16" font-weight="normal" letter-spacing="0.247023689" fill="#000000">
                    <tspan x="306" y="298">Find the objects </tspan>
                    <tspan x="306" y="314">hard to recycle.</tspan>
                </text>
                <text id="you-can-check-again" font-family="NittiGrotesk-Normal, Nitti Grotesk" font-size="16" font-weight="normal" letter-spacing="0.247023689" fill="#000000">
                    <tspan x="84" y="193">you can check again the </tspan>
                    <tspan x="84" y="209">objects by clicking on </tspan>
                    <tspan x="84" y="225">them or by using the </tspan>
                    <tspan x="84" y="241">bin history.</tspan>
                </text>
                <text id="1" font-family="NittiGrotesk-Normal, Nitti Grotesk" font-size="36" font-weight="normal" letter-spacing="0.5558033" fill="#000000">
                    <tspan x="255" y="37">1</tspan>
                </text>
                <text id="2" font-family="NittiGrotesk-Normal, Nitti Grotesk" font-size="36" font-weight="normal" letter-spacing="0.5558033" fill="#000000">
                    <tspan x="276" y="312">2</tspan>
                </text>
                <text id="3" font-family="NittiGrotesk-Normal, Nitti Grotesk" font-size="36" font-weight="normal" letter-spacing="0.5558033" fill="#000000">
                    <tspan x="31" y="344">3</tspan>
                </text>
                <text id="4" font-family="NittiGrotesk-Normal, Nitti Grotesk" font-size="36" font-weight="normal" letter-spacing="0.5558033" fill="#000000">
                    <tspan x="84" y="171">4</tspan>
                </text>
                <g id="Group-5" transform="translate(165.000000, 328.000000)">
                    <path d="M63.2052644,43.9263937 C63.2052644,37.1047894 58.3639925,28.7464638 52.4465608,25.3526123 L10.759117,1.44226914 C4.84168531,-1.95199578 0,0.852717157 0,7.67432143 L0,55.8497311 C0,62.6713354 0.677199261,68.6433399 1.50488725,69.1212656 C2.33257523,69.5991913 4.26743026,73.864141 5.80456509,78.5991613 C7.34169992,83.3341815 8.66963889,84.1010952 8.75563245,80.303322 C8.841626,76.5055489 13.7457393,76.1888611 19.6532486,79.5996632 L52.4643384,98.5442919 C58.3718477,101.955094 63.2052644,99.1644377 63.2052644,92.3428334 L63.2052644,43.9263937 Z" id="Fill-1" fill="#FFFFFF"></path>
                    <path d="M63.2052644,43.9263937 C63.2052644,37.1047894 58.3639925,28.7464638 52.4465608,25.3526123 L10.759117,1.44226914 C4.84168531,-1.95199578 0,0.852717157 0,7.67432143 L0,55.8497311 C0,62.6713354 0.677199261,68.6433399 1.50488725,69.1212656 C2.33257523,69.5991913 4.26743026,73.864141 5.80456509,78.5991613 C7.34169992,83.3341815 8.66963889,84.1010952 8.75563245,80.303322 C8.841626,76.5055489 13.7457393,76.1888611 19.6532486,79.5996632 L52.4643384,98.5442919 C58.3718477,101.955094 63.2052644,99.1644377 63.2052644,92.3428334 L63.2052644,43.9263937 Z" id="Stroke-3" stroke="#000000"></path>
                </g>
                <text id="discover-how-things" font-family="NittiGrotesk-Normal, Nitti Grotesk" font-size="16" font-weight="normal" letter-spacing="0.247023689" fill="#000000">
                    <tspan x="23.9305499" y="371">discover how things </tspan>
                    <tspan x="4.49250253" y="387">should be thrown away </tspan>
                    <tspan x="61.636692" y="403">and separated</tspan>
                </text>
                <text id="Look-around-by-scrol" font-family="NittiGrotesk-Normal, Nitti Grotesk" font-size="16" font-weight="normal" letter-spacing="0.247023689" fill="#000000">
                    <tspan x="280" y="21">Look around by </tspan>
                    <tspan x="280" y="37">scrolling in all </tspan>
                    <tspan x="280" y="53">directions</tspan>
                </text>
                <polyline id="Path-5" stroke="#7D9FD3" stroke-width="2" points="99 70 114 70 107 84"></polyline>
                <g id="Group-15" transform="translate(136.000000, 0.000000)">
                    <path d="M57.881057,35.7936593 C51.3015768,39.571034 45.9186528,48.8768483 45.9186528,56.4732147 C45.9186528,64.0695811 51.3015768,67.1770681 57.881057,63.3790284 C64.4605372,59.5807017 69.8434613,50.2748874 69.8434613,42.6991859 C69.8434613,35.1237715 64.4605372,32.0162845 57.881057,35.7936593" id="Fill-1" fill="#FFFFFF"></path>
                    <path d="M57.881057,35.7936593 C51.3015768,39.571034 45.9186528,48.8768483 45.9186528,56.4732147 C45.9186528,64.0695811 51.3015768,67.1770681 57.881057,63.3790284 C64.4605372,59.5807017 69.8434613,50.2748874 69.8434613,42.6991859 C69.8434613,35.1237715 64.4605372,32.0162845 57.881057,35.7936593 Z" id="Stroke-3" stroke="#000000"></path>
                    <path d="M87.1569887,18.8018158 C80.5775084,22.5791906 75.1945844,31.8850049 75.1945844,39.4813712 C75.1945844,47.0777376 80.5775084,50.1852246 87.1569887,46.3871849 C93.7364689,42.5888582 99.1193929,33.283044 99.1193929,25.7073425 C99.1193929,18.1319281 93.7364689,15.024441 87.1569887,18.8018158" id="Fill-5" fill="#FFFFFF"></path>
                    <path d="M87.1569887,18.8018158 C80.5775084,22.5791906 75.1945844,31.8850049 75.1945844,39.4813712 C75.1945844,47.0777376 80.5775084,50.1852246 87.1569887,46.3871849 C93.7364689,42.5888582 99.1193929,33.283044 99.1193929,25.7073425 C99.1193929,18.1319281 93.7364689,15.024441 87.1569887,18.8018158 Z" id="Stroke-7" stroke="#000000"></path>
                    <path d="M68.2477852,36.7639058 C68.2477852,36.7639058 70.177946,34.0189159 72.1787118,33.1601738 C74.1791907,32.3014317 76.1096384,33.6739266 76.1096384,33.6739266" id="Stroke-9" stroke="#000000"></path>
                    <path d="M4.32040288,42.1284898 L1.46778319,40.3779991 C0.660416331,39.8826151 -1.01967411e-15,38.7024186 -1.01967411e-15,37.7552766 L-1.01967411e-15,35.1116022 C-1.01967411e-15,34.1644601 0.681655274,33.757763 1.51514029,34.208086 L42.2689413,56.228278 C43.1024263,56.678601 44.266837,56.7804905 44.8569352,56.4550181 C45.4470334,56.1292586 45.9300759,55.8629108 45.9300759,55.8629108" id="Stroke-11" stroke="#000000"></path>
                    <path d="M63.3449474,8.1040758 L60.4923277,6.35358505 C59.6849609,5.85820105 59.0245445,4.67800464 59.0245445,3.73086257 L59.0245445,1.08718816 C59.0245445,0.140046094 59.7061998,-0.266650969 60.5396848,0.183672031 L101.293486,22.203864 C102.126971,22.654187 102.128119,23.3932448 101.296356,23.846438 L99.1193642,25.0326616" id="Stroke-13" stroke="#000000"></path>
                </g>
            </g>
        </g>
    </g>
</svg>