<?xml version="1.0" encoding="utf-8"?>
<!-- Generator: Adobe Illustrator 25.2.3, SVG Export Plug-In . SVG Version: 6.00 Build 0)  -->
<svg version="1.1" id="Layer_1" xmlns="http://www.w3.org/2000/svg" xmlns:xlink="http://www.w3.org/1999/xlink" x="0px" y="0px"
	 viewBox="0 0 1366 768" style="enable-background:new 0 0 1366 768;" xml:space="preserve">
<style type="text/css">
	.st0{fill:#FFFFFF;}
	.st1{fill:#FFFFFF;stroke:#000000;stroke-miterlimit:10;}
	.st2{fill:#FFFFFF;stroke:#FF0000;stroke-width:10;stroke-miterlimit:10;}
	.st3{fill:#FFFFFF;stroke:#00ED32;stroke-width:10;stroke-miterlimit:10;}
</style>
<g id="background">
	<rect x="0" class="st0" width="1366" height="768"/>
	<path class="st1" d="M615.1,8.5c-14.7,121.5,33.8,166,38.4,270c1.8,21,3.7,58,7.3,80c0.9,5.4,3.1,13,3.8,13.6
		c9.5,7.5,21,13,31.3,19.2c22.1,13.5,44.4,26.7,66.8,39.8c44.7,26.1,89.9,51.3,135.4,75.5c91.1,48.6,183.8,93.5,277.9,134.8
		c14.6,6.4,29.3,12.8,42.6,21.9c13.2,9.1,24.8,20.8,37,31.4c28.6,24.8,60.9,43.8,93,62.6"/>
	<path class="st1" d="M143,759.2c30.4-51.5,62.2-103.4,106-142.5c30.2-27,65.3-47,99.9-67.2c40.9-23.8,81.6-48,119.8-76.5
		c22.8-17.1,46.3-36.3,74-39.2c6.6-12.3,21.9-16.8,34.3-21.9c31.7-12.9,63.3-25.8,95-38.7"/>
	<path class="st1" d="M247.9,292.4C282.2,280.3,317,270,352,261.7c-5-35.7-10.7-71.3-17.1-106.7c-0.2-1.1-0.5-2.4-1.3-3
		c-0.7-0.5-1.6-0.3-2.5-0.1c-24.2,5.8-48.3,11.6-72.5,17.4c-15.5,3.7-31.2,7.5-45.8,15.2c5,20.4,10.7,32.3,19.9,50.4
		C235.2,239.5,255.7,289.7,247.9,292.4z"/>
	<path class="st1" d="M608.1,673.8c3.8,7.2,9.3,13.5,16.2,17.8c12.4,7.7,27.9,7.8,42.5,7.7s31-1,40.8-11.8c4-4.4,6.3-10,8.3-15.6
		c6.6-18.9,13.6-51.1-2.2-67.5c-10-10.4-36.2-21-50.9-21C619.4,583.6,587.9,635.9,608.1,673.8z"/>
	<path class="st1" d="M1106.5,137.1c24.9,45.5,40,96.4,44,148.2c-0.3-4.5-51.1-18.7-57.2-20.7c-20.3-6.8-40.8-12.8-61.8-17
		c-9.9-2-20.6-2.3-30.3-4.9c-11.8-3.1-10.8-5-2.5-14.3c14.5-16.1,31.7-30.6,48.1-44.8C1066,167.3,1085.9,151.7,1106.5,137.1z"/>
</g>
<g id="square">
	<path class="st2" d="M247.9,292.4C282.2,280.3,317,270,352,261.7c-5-35.7-10.7-71.3-17.1-106.7c-0.2-1.1-0.5-2.4-1.3-3
		c-0.7-0.5-1.6-0.3-2.5-0.1c-24.2,5.8-48.3,11.6-72.5,17.4c-15.5,3.7-31.2,7.5-45.8,15.2c5,20.4,10.7,32.3,19.9,50.4
		C235.2,239.5,255.7,289.7,247.9,292.4z"/>
</g>
<g id="triangle">
	<path class="st3" d="M1106.5,137.1c24.9,45.5,40,96.4,44,148.2c-0.3-4.5-51.1-18.7-57.2-20.7c-20.3-6.8-40.8-12.8-61.8-17
		c-9.9-2-20.6-2.3-30.3-4.9c-11.8-3.1-10.8-5-2.5-14.3c14.5-16.1,31.7-30.6,48.1-44.8C1066,167.3,1085.9,151.7,1106.5,137.1z"/>
</g>
<g id="circle">
	<path class="st2" d="M608.1,673.8c3.8,7.2,9.3,13.5,16.2,17.8c12.4,7.7,27.9,7.8,42.5,7.7s31-1,40.8-11.8c4-4.4,6.3-10,8.3-15.6
		c6.6-18.9,13.6-51.1-2.2-67.5c-10-10.4-36.2-21-50.9-21C619.4,583.6,587.9,635.9,608.1,673.8z"/>
</g>
</svg>
