<?xml version="1.0" encoding="UTF-8"?>
<svg width="200px" height="44px" viewBox="0 0 200 44" version="1.1" xmlns="http://www.w3.org/2000/svg" xmlns:xlink="http://www.w3.org/1999/xlink">
    <title>civity-Logo-sw</title>
    <g id="design" stroke="none" stroke-width="1" fill="none" fill-rule="evenodd">
        <g id="Page-Unrolled" transform="translate(-858.000000, -3314.000000)" fill="#000000" fill-rule="nonzero">
            <g id="civity-Logo-sw" transform="translate(858.000000, 3314.000000)">
                <path d="M32.7044025,32.5851429 L32.7044025,11.968 C32.7044025,10.2322479 31.2964929,8.82514286 29.5597484,8.82514286 C27.8230039,8.82514286 26.4150943,10.2322479 26.4150943,11.968 L26.4150943,32.5851429 L32.7044025,32.5851429 Z" id="Path"></path>
                <path d="M50.3144654,32.5851429 L57.3584906,12.8857143 C57.4403298,12.5862631 57.4867682,12.278257 57.4968553,11.968 C57.4956649,10.419313 56.3615353,9.10428405 54.8290833,8.87470485 C53.2966312,8.64512564 51.8265521,9.57001375 51.3710692,11.0502857 L47.0188679,23.8857143 L41.408805,8.87542857 L35.836478,10.912 L44.0251572,32.5851429 L50.3144654,32.5851429 Z" id="Path"></path>
                <path d="M67.5471698,32.5851429 L67.5471698,11.968 C67.5471698,10.2322479 66.1392602,8.82514286 64.4025157,8.82514286 C62.6657712,8.82514286 61.2578616,10.2322479 61.2578616,11.968 L61.2578616,32.5851429 L67.5471698,32.5851429 Z" id="Path"></path>
                <path d="M73.4339623,8.8 C72.7572631,8.74273196 72.0905792,8.99206702 71.6177359,9.47925574 C71.1448927,9.96644446 70.9158311,10.6400307 70.9937107,11.3142857 C70.9465434,11.9700645 71.190323,12.6133927 71.660311,13.0734271 C72.130299,13.5334616 72.7789334,13.7636478 73.4339623,13.7028571 L77.3962264,13.7028571 L77.3962264,29.4045714 L83.6855346,34.1062857 L83.6855346,13.6274286 L90.2641509,13.6274286 L88.427673,8.8 L83.6603774,8.8 L83.6603774,0 L77.3710692,3.40685714 L77.3710692,8.8 L73.4339623,8.8 Z" id="Path"></path>
                <path d="M93.9622642,43.4845714 C97.2704403,43.4845714 100.251572,43.8114286 102.767296,40.9074286 C104.339623,39.0217143 105.534591,34.2822857 106.138365,32.5348571 L113.044025,13.024 C113.161494,12.6846585 113.216884,12.3269549 113.207547,11.968 C113.209343,10.4164638 112.069341,9.09971388 110.532773,8.87852401 C108.996206,8.65733415 107.530728,9.59902376 107.09434,11.088 L102.805031,23.9737143 L96.8553459,8.05828571 L91.5220126,10.7234286 L99.8113208,32.5851429 C99.903478,34.0160533 99.4545498,35.429369 98.5534591,36.5451429 C97.5471698,37.3245714 95.7987421,37.2742857 94,37.2742857 C92.2787116,37.2946465 90.8882969,38.6842667 90.8679245,40.4045714 C90.8953998,42.113711 92.2896625,43.484792 94,43.4845714" id="Path"></path>
                <path d="M17.7987421,24.728 C16.8655023,25.7794557 15.6005456,26.4803293 14.2138365,26.7142857 C11.097485,27.3012122 8.03139659,25.4775559 7.0613243,22.4600954 C6.09125201,19.4426349 7.52068274,16.1753819 10.3958728,14.8383104 C13.2710629,13.501239 16.6925099,14.5126516 18.3773585,17.1977143 L22.5786164,13.4262857 C19.9040722,9.86788941 15.4527949,8.11756796 11.0691824,8.90057143 C4.60849301,10.0392249 0.294658197,16.1967166 1.43396257,22.6537142 C2.57326693,29.1107118 8.73427912,33.4220817 15.1949686,32.2834286 C17.9125247,31.8100438 20.378218,30.399975 22.163522,28.2982857 C22.6589896,27.679464 22.8733066,26.8819314 22.754717,26.0982857 C22.4383135,24.5723764 20.9904171,23.5544761 19.4465409,23.7725714 C18.8104102,23.9099374 18.2338097,24.2442626 17.7987421,24.728" id="Path"></path>
                <path d="M130.641509,29.0525714 L130.930818,29.0525714 L130.930818,32.3588571 L130.641509,32.3588571 C130.561078,32.0000178 130.406871,31.6618125 130.188679,31.3657143 C129.402441,32.279497 128.249696,32.7956316 127.044025,32.7737143 C125.799361,32.8329594 124.585026,32.3784121 123.685535,31.5165714 C122.818481,30.5951105 122.364311,29.3604731 122.427673,28.0971429 C122.422628,27.1823939 122.629267,26.2788651 123.031447,25.4571429 C123.38649,24.6876285 123.970799,24.0465729 124.704403,23.6217143 C125.423321,23.2226775 126.234342,23.0189547 127.056604,23.0308571 C127.718915,23.0188219 128.374491,23.1653801 128.968553,23.4582857 C129.449632,23.6916382 129.877733,24.0210877 130.226415,24.4262857 C130.42067,24.0326414 130.540095,23.6063675 130.578616,23.1691429 L130.81761,23.1691429 L130.893082,26.752 L130.603774,26.752 C130.528926,25.7422947 130.080493,24.7966424 129.345912,24.0994286 C128.724456,23.6149949 127.957933,23.3537289 127.169811,23.3577143 C126.218203,23.3445712 125.326006,23.818873 124.805031,24.6148571 C124.16289,25.6442841 123.859383,26.8488255 123.937107,28.0594286 C123.86005,29.223644 124.198803,30.3774217 124.893082,31.3154286 C125.471857,32.0330996 126.348217,32.4455414 127.27044,32.4342857 C127.807066,32.4308677 128.335975,32.306237 128.81761,32.0697143 C129.362807,31.7989134 129.804516,31.3574571 130.075472,30.8125714 C130.366793,30.2829099 130.55462,29.7026877 130.628931,29.1028571" id="Path"></path>
                <path d="M133.748428,29.7691429 C133.680114,30.5155543 133.851977,31.2642727 134.238994,31.9062857 C134.579263,32.3141491 135.092041,32.537779 135.622642,32.5097143 C136.158294,32.5460063 136.678446,32.3212042 137.018868,31.9062857 C137.405885,31.2642727 137.577748,30.5155543 137.509434,29.7691429 C137.569775,29.0248608 137.40313,28.279767 137.031447,27.632 C136.680172,27.223371 136.167969,26.9882845 135.628931,26.9882845 C135.089892,26.9882845 134.57769,27.223371 134.226415,27.632 C133.851716,28.2785931 133.684857,29.0246395 133.748428,29.7691429 M132.591195,29.7691429 C132.565145,28.9489211 132.884563,28.1553934 133.471698,27.5817143 C134.031902,26.996166 134.812206,26.6723652 135.622642,26.6891429 C136.440321,26.6729933 137.228154,26.9961389 137.798742,27.5817143 C138.376101,28.1609528 138.689919,28.9518671 138.666667,29.7691429 C138.712833,30.6149465 138.391955,31.4395908 137.786164,32.032 C136.558381,33.1314588 134.699481,33.1314588 133.471698,32.032 C132.877367,31.4372379 132.558238,30.6216443 132.591195,29.7817143" id="Shape"></path>
                <path d="M141.345912,26.664 L141.534591,26.664 C141.652562,27.04678 141.711933,27.4451894 141.710692,27.8457143 C142.00598,27.4901679 142.364129,27.191881 142.767296,26.9657143 C143.116444,26.7682083 143.510754,26.6642739 143.91195,26.664 C144.305301,26.6496008 144.694326,26.7500779 145.031447,26.9531429 C145.300864,27.1096351 145.502571,27.360504 145.597484,27.6571429 C145.695064,28.068752 145.737365,28.4915155 145.72327,28.9142857 L145.72327,30.6868571 C145.701303,31.1056172 145.701303,31.5252399 145.72327,31.944 C145.743118,32.0790295 145.8213,32.1985341 145.937107,32.2708571 C146.155503,32.3627703 146.392613,32.4015479 146.628931,32.384 L146.628931,32.6982857 L143.710692,32.6982857 L143.710692,32.384 L143.836478,32.384 C144.06553,32.4132483 144.297501,32.3597471 144.490566,32.2331429 C144.586903,32.143855 144.649161,32.0238544 144.666667,31.8937143 C144.666667,31.768 144.666667,31.3782857 144.666667,30.7371429 L144.666667,28.8011429 C144.677859,28.4808364 144.652539,28.1602975 144.591195,27.8457143 C144.54666,27.6340965 144.42001,27.4487505 144.238994,27.3302857 C144.029874,27.171704 143.771645,27.0916097 143.509434,27.104 C143.158845,27.1116337 142.81801,27.220813 142.528302,27.4182857 C142.181553,27.6592048 141.886467,27.9669438 141.660377,28.3234286 L141.660377,30.6365714 C141.635096,31.0552382 141.635096,31.4750475 141.660377,31.8937143 C141.679492,32.0324736 141.763568,32.1538472 141.886792,32.2205714 C142.104774,32.3139134 142.342235,32.3527485 142.578616,32.3337143 L142.578616,32.648 L139.685535,32.648 L139.685535,32.3337143 C139.916488,32.3478587 140.14785,32.3136025 140.36478,32.2331429 C140.478804,32.1743416 140.561488,32.0687508 140.591195,31.944 C140.618066,31.5253826 140.618066,31.1054745 140.591195,30.6868571 L140.591195,28.9142857 C140.627408,28.4960196 140.627408,28.075409 140.591195,27.6571429 C140.576795,27.5201129 140.497183,27.3984238 140.377358,27.3302857 C140.159377,27.2369437 139.921916,27.1981087 139.685535,27.2171429 L139.685535,26.9028571 C140.219132,26.8458993 140.745796,26.7364156 141.257862,26.576" id="Path"></path>
                <path d="M147.72327,32.7737143 L147.72327,30.9131429 L148,30.9131429 C148.314465,31.9817143 148.867925,32.5348571 149.685535,32.5348571 C149.986177,32.5550328 150.279089,32.4342174 150.477987,32.208 C150.646514,32.0119052 150.740097,31.7624912 150.742138,31.504 C150.751403,31.23131 150.646567,30.9670922 150.45283,30.7748571 C150.118488,30.4931452 149.74579,30.2603422 149.345912,30.0834286 C148.879479,29.8858855 148.453166,29.60468 148.08805,29.2537143 C147.838483,28.9839003 147.703229,28.627936 147.710692,28.2605714 C147.718544,27.865043 147.860452,27.4838822 148.113208,27.1794286 C148.387654,26.8382059 148.807563,26.6470235 149.245283,26.664 C149.740287,26.6506944 150.21034,26.8808886 150.503145,27.28 C150.62371,27.1249506 150.717263,26.9507003 150.779874,26.7645714 L151.031447,26.7645714 L151.031447,28.5245714 L150.779874,28.5245714 C150.695851,28.1236155 150.509528,27.7511825 150.238994,27.4434286 C150.007611,27.1580966 149.66295,26.9881611 149.295597,26.9782857 C149.042438,26.9688723 148.796635,27.0644079 148.616352,27.2422857 C148.455335,27.3966772 148.364451,27.6101328 148.36478,27.8331429 C148.365891,28.0818115 148.470748,28.3187439 148.654088,28.4868571 C148.969535,28.752707 149.326474,28.9650491 149.710692,29.1154286 C150.286315,29.3110546 150.790136,29.6744738 151.157233,30.1588571 C151.322051,30.4645979 151.412541,30.8048211 151.421384,31.152 C151.451787,31.6229116 151.272194,32.0831426 150.930818,32.4091429 C150.593961,32.7314138 150.138571,32.899812 149.672956,32.8742857 C149.136891,32.8714518 148.628067,32.6378013 148.27673,32.2331429 C148.134173,32.405724 148.031134,32.607394 147.974843,32.824 L147.72327,32.7737143 Z" id="Path"></path>
                <path d="M158.289308,26.9028571 L158.289308,30.6742857 C158.289308,31.2902857 158.289308,31.68 158.289308,31.8434286 C158.295089,31.9865012 158.370168,32.1178139 158.490566,32.1954286 C158.687125,32.3001885 158.910487,32.3439599 159.132075,32.3211429 L159.132075,32.6354286 C158.607034,32.6190597 158.083237,32.6956692 157.584906,32.8617143 L157.496855,32.8617143 C157.321911,32.4443732 157.240343,31.993862 157.257862,31.5417143 C157.015462,31.9425951 156.684072,32.2823984 156.289308,32.5348571 C155.91158,32.7657118 155.473847,32.8794572 155.031447,32.8617143 C154.679173,32.8728389 154.330749,32.7857828 154.025157,32.6102857 C153.763118,32.4631985 153.552418,32.2394577 153.421384,31.9691429 C153.292407,31.6065535 153.236823,31.2219602 153.257862,30.8377143 L153.257862,28.9142857 C153.280955,28.516525 153.280955,28.1177607 153.257862,27.72 C153.243381,27.5797427 153.164318,27.4542444 153.044025,27.3805714 C152.827095,27.3001118 152.595733,27.2658556 152.36478,27.28 L152.36478,26.9028571 L154.301887,26.9028571 L154.301887,30.8502857 C154.274439,31.1345779 154.274439,31.4208507 154.301887,31.7051429 C154.362961,31.8957003 154.48719,32.0597662 154.654088,32.1702857 C154.854266,32.2942765 155.085251,32.3596124 155.320755,32.3588571 C155.691623,32.3562794 156.052352,32.2375706 156.352201,32.0194286 C156.630917,31.8277416 156.856054,31.5681157 157.006289,31.2651429 C157.158206,30.9206456 157.235372,30.5478903 157.232704,30.1714286 L157.232704,28.9142857 C157.232704,28.2982857 157.232704,27.9211429 157.232704,27.7828571 C157.219692,27.644952 157.151689,27.5180853 157.044025,27.4308571 C156.855287,27.3051321 156.627545,27.2515762 156.402516,27.28 L156.251572,27.28 L156.251572,26.9028571 L158.289308,26.9028571 Z" id="Path"></path>
                <path d="M161.886792,23.0308571 L161.886792,30.6365714 C161.886792,31.2525714 161.886792,31.6297143 161.886792,31.7931429 C161.899595,31.9375457 161.972651,32.0698845 162.08805,32.1577143 C162.278374,32.2544732 162.491363,32.2979155 162.704403,32.2834286 L162.880503,32.2834286 L162.880503,32.5977143 L159.823899,32.5977143 L159.823899,32.2834286 L160.025157,32.2834286 C160.228723,32.2978992 160.432536,32.2588936 160.616352,32.1702857 C160.727769,32.0935831 160.804566,31.9761955 160.830189,31.8434286 C160.85547,31.4247618 160.85547,31.0049525 160.830189,30.5862857 L160.830189,25.0045714 C160.863329,24.6198829 160.807376,24.2327341 160.666667,23.8731429 C160.553459,23.7222857 160.301887,23.6468571 159.886792,23.6468571 L159.886792,23.32 C160.220173,23.3128573 160.552458,23.2792275 160.880503,23.2194286 C161.150927,23.1866537 161.41677,23.123394 161.672956,23.0308571 L161.886792,23.0308571 Z" id="Path"></path>
                <path d="M167.220126,27.2171429 L165.509434,27.2171429 L165.509434,30.6617143 C165.47146,31.0168938 165.47146,31.3751062 165.509434,31.7302857 C165.555517,31.9044535 165.657068,32.058899 165.798742,32.1702857 C165.94036,32.2777978 166.111606,32.3392356 166.289308,32.3462857 C166.662898,32.3273736 166.996077,32.1053809 167.157233,31.768 L167.383648,31.9062857 C167.250746,32.2003592 167.025527,32.4431038 166.742138,32.5977143 C166.484661,32.7426146 166.19484,32.8204323 165.899371,32.824 C165.577356,32.8324979 165.262153,32.730448 165.006289,32.5348571 C164.77701,32.3639669 164.61285,32.1200847 164.540881,31.8434286 C164.459519,31.3829687 164.425798,30.9153615 164.440252,30.448 L164.440252,27.2171429 L163.622642,27.2171429 L163.622642,26.9028571 C164.014398,26.882948 164.381634,26.7062316 164.641509,26.4125714 C164.958898,26.0627996 165.160911,25.6238923 165.220126,25.1554286 L165.446541,25.1554286 L165.446541,26.9028571 L167.157233,26.9028571 L167.220126,27.2171429 Z" id="Path"></path>
                <path d="M171.91195,29.1154286 L171.157233,29.4297143 C169.962264,29.9074286 169.358491,30.5234286 169.358491,31.2651429 C169.343957,31.5218831 169.42963,31.774249 169.597484,31.9691429 C169.74372,32.1429548 169.961568,32.2402353 170.188679,32.2331429 C170.454034,32.2251791 170.7133,32.1517621 170.943396,32.0194286 C171.290457,31.8447071 171.615576,31.6294918 171.91195,31.3782857 L171.91195,29.1154286 Z M173.937107,31.5542857 L174.188679,31.5542857 C174.188679,32.3462857 173.761006,32.7485714 173.018868,32.7485714 C172.748387,32.7629296 172.482719,32.672924 172.27673,32.4971429 C172.074971,32.2980581 171.946428,32.0366886 171.91195,31.7554286 C171.519763,32.0459402 171.098169,32.2945384 170.654088,32.4971429 C170.334942,32.6488664 169.988348,32.7343963 169.63522,32.7485714 C169.27401,32.7579459 168.92142,32.6375091 168.641509,32.4091429 C168.363396,32.2034771 168.203643,31.8747634 168.213836,31.5291429 C168.233316,31.0214407 168.495294,30.5538909 168.918239,30.272 C169.517175,29.84369 170.168077,29.4930794 170.855346,29.2285714 L171.924528,28.7885714 L171.924528,28.512 C171.934994,28.2250208 171.909641,27.9378565 171.849057,27.6571429 C171.781994,27.4555556 171.643244,27.2855728 171.459119,27.1794286 C171.203099,27.0335269 170.910709,26.9637424 170.616352,26.9782857 C169.91195,26.9782857 169.534591,27.2045714 169.446541,27.6697143 C169.358491,28.1348571 169.18239,28.3862857 168.867925,28.3862857 C168.553459,28.3862857 168.440252,28.248 168.440252,27.9714286 C168.440252,27.6948571 168.628931,27.4308571 169.006289,27.1291429 C169.520487,26.7826791 170.136223,26.6188718 170.754717,26.664 C171.229175,26.6389115 171.70192,26.7386082 172.125786,26.9531429 C172.405344,27.0830517 172.631803,27.3049434 172.767296,27.5817143 C172.895981,27.926927 172.95166,28.2950543 172.930818,28.6628571 L172.930818,30.976 C172.909204,31.3220778 172.938875,31.6694481 173.018868,32.0068571 C173.071287,32.1592735 173.223721,32.2538337 173.383648,32.2331429 C173.685535,32.2331429 173.874214,32.0068571 173.949686,31.5542857" id="Shape"></path>
                <path d="M176.490566,26.664 L176.679245,26.664 C176.797216,27.04678 176.856587,27.4451894 176.855346,27.8457143 C177.150634,27.4901679 177.508783,27.191881 177.91195,26.9657143 C178.261736,26.7697792 178.655629,26.6659547 179.056604,26.664 C179.449955,26.6496008 179.83898,26.7500779 180.176101,26.9531429 C180.445518,27.1096351 180.647225,27.360504 180.742138,27.6571429 C180.839718,28.068752 180.882019,28.4915155 180.867925,28.9142857 L180.867925,30.6868571 C180.867925,31.3531429 180.867925,31.7554286 180.867925,31.944 C180.887039,32.0827593 180.971115,32.2041329 181.09434,32.2708571 C181.308199,32.3631514 181.541336,32.4019853 181.773585,32.384 L181.773585,32.6982857 L178.855346,32.6982857 L178.855346,32.384 L178.981132,32.384 C179.210184,32.4132483 179.442155,32.3597471 179.63522,32.2331429 C179.736348,32.1475868 179.799627,32.0256173 179.811321,31.8937143 C179.811321,31.768 179.811321,31.3782857 179.811321,30.7371429 L179.811321,28.8011429 C179.822513,28.4808364 179.797193,28.1602975 179.735849,27.8457143 C179.691314,27.6340965 179.564664,27.4487505 179.383648,27.3302857 C179.174528,27.171704 178.916299,27.0916097 178.654088,27.104 C178.307059,27.1096326 177.969688,27.2191062 177.685535,27.4182857 C177.331697,27.6548624 177.031684,27.9632708 176.805031,28.3234286 L176.805031,30.6365714 C176.77975,31.0552382 176.77975,31.4750475 176.805031,31.8937143 C176.824146,32.0324736 176.908222,32.1538472 177.031447,32.2205714 C177.249428,32.3139134 177.486889,32.3527485 177.72327,32.3337143 L177.72327,32.648 L174.830189,32.648 L174.830189,32.3337143 C175.061142,32.3478587 175.292504,32.3136025 175.509434,32.2331429 C175.627079,32.1788108 175.711353,32.0711895 175.735849,31.944 C175.769773,31.5256382 175.769773,31.105219 175.735849,30.6868571 L175.735849,28.9142857 C175.772062,28.4960196 175.772062,28.075409 175.735849,27.6571429 C175.725813,27.5186006 175.644974,27.3950347 175.522013,27.3302857 C175.304031,27.2369437 175.06657,27.1981087 174.830189,27.2171429 L174.830189,26.9028571 C175.36398,26.8471441 175.890768,26.7376348 176.402516,26.576" id="Path"></path>
                <path d="M186.163522,27.2171429 L184.45283,27.2171429 L184.45283,30.6617143 C184.435694,31.0191267 184.456778,31.3773461 184.515723,31.7302857 C184.55615,31.906921 184.658846,32.0631094 184.805031,32.1702857 C184.9445,32.2816988 185.117072,32.343612 185.295597,32.3462857 C185.669187,32.3273736 186.002366,32.1053809 186.163522,31.768 L186.389937,31.9062857 C186.252647,32.1974225 186.028556,32.4389515 185.748428,32.5977143 C185.487019,32.7441515 185.192746,32.8220026 184.893082,32.824 C184.574896,32.8326904 184.263599,32.7304655 184.012579,32.5348571 C183.783299,32.3639669 183.61914,32.1200847 183.54717,31.8434286 C183.465808,31.3829687 183.432088,30.9153615 183.446541,30.448 L183.446541,27.2171429 L182.616352,27.2171429 L182.616352,26.9028571 C183.014459,26.8830778 183.38714,26.7013864 183.647799,26.4 C183.965187,26.0502282 184.1672,25.6113208 184.226415,25.1428571 L184.45283,25.1428571 L184.45283,26.9028571 L186.163522,26.9028571 L186.163522,27.2171429 Z" id="Path"></path>
                <path d="M187.207547,32.7737143 L187.207547,30.9131429 L187.484277,30.9131429 C187.798742,31.9817143 188.36478,32.5348571 189.18239,32.5348571 C189.479387,32.5549766 189.768463,32.4338205 189.962264,32.208 C190.13079,32.0119052 190.224374,31.7624912 190.226415,31.504 C190.238998,31.2331688 190.138822,30.9692177 189.949686,30.7748571 C189.615343,30.4931452 189.242646,30.2603422 188.842767,30.0834286 C188.375514,29.8874189 187.948934,29.6060371 187.584906,29.2537143 C187.344273,28.9793416 187.214263,28.6253779 187.220126,28.2605714 C187.221721,27.8638788 187.36439,27.4806756 187.622642,27.1794286 C187.894496,26.8348872 188.316193,26.6428903 188.754717,26.664 C189.248323,26.6570164 189.715632,26.8858669 190.012579,27.28 C190.127733,27.1234703 190.216924,26.9494345 190.27673,26.7645714 L190.540881,26.7645714 L190.540881,28.5245714 L190.27673,28.5245714 C190.197861,28.1218407 190.010897,27.7481259 189.735849,27.4434286 C189.5142,27.1529141 189.170565,26.9811948 188.805031,26.9782857 C188.551616,26.9673375 188.30522,27.0631032 188.125786,27.2422857 C187.95622,27.3916719 187.859848,27.6072382 187.861635,27.8331429 C187.862746,28.0818115 187.967603,28.3187439 188.150943,28.4868571 C188.471118,28.7525941 188.832169,28.9648557 189.220126,29.1154286 C189.795749,29.3110546 190.29957,29.6744738 190.666667,30.1588571 C190.831485,30.4645979 190.921975,30.8048211 190.930818,31.152 C190.961221,31.6229116 190.781628,32.0831426 190.440252,32.4091429 C190.101793,32.7288439 189.647548,32.8968184 189.18239,32.8742857 C188.643351,32.8686186 188.131752,32.6357917 187.773585,32.2331429 C187.631029,32.405724 187.52799,32.607394 187.471698,32.824 L187.207547,32.7737143 Z" id="Path"></path>
                <path d="M128.301887,16.72 L131.748428,8.91314286 L134.591195,8.91314286 L134.591195,9.22742857 L134.238994,9.22742857 C133.931444,9.19887745 133.621457,9.24190661 133.333333,9.35314286 C133.174757,9.43828327 133.063633,9.59099217 133.031447,9.768 C132.99771,10.2660967 132.99771,10.7659033 133.031447,11.264 L133.031447,15.8902857 C133.001662,16.3759252 133.001662,16.8629319 133.031447,17.3485714 C133.058025,17.5482585 133.156385,17.7314616 133.308176,17.864 C133.582857,17.9928569 133.886022,18.0491269 134.188679,18.0274286 L134.591195,18.0274286 L134.591195,18.3417143 L130.062893,18.3417143 L130.062893,18.0274286 L130.402516,18.0274286 C130.687597,18.0488626 130.973418,17.9969249 131.232704,17.8765714 C131.392051,17.7650646 131.497064,17.5916636 131.522013,17.3988571 C131.590384,16.8990911 131.615634,16.3943753 131.597484,15.8902857 L131.597484,9.88114286 L127.823899,18.3417143 L127.496855,18.3417143 L123.72327,9.88114286 L123.72327,15.4125714 C123.709612,15.929162 123.73484,16.4460478 123.798742,16.9588571 C123.848265,17.2421547 124.000527,17.497271 124.226415,17.6754286 C124.518769,17.9002482 124.876421,18.0238104 125.245283,18.0274286 L125.245283,18.3417143 L121.899371,18.3417143 L121.899371,18.0274286 C122.252185,18.0214391 122.594656,17.9073475 122.880503,17.7005714 C123.126132,17.5287125 123.293512,17.266484 123.345912,16.9714286 C123.422354,16.4386595 123.451817,15.9002087 123.433962,15.3622857 L123.433962,11.3142857 C123.466498,10.8287343 123.466498,10.3415514 123.433962,9.856 C123.406844,9.67068945 123.301503,9.50590283 123.144654,9.40342857 C122.850787,9.29761164 122.53793,9.25477895 122.226415,9.27771429 L121.962264,9.27771429 L121.962264,8.91314286 L124.779874,8.91314286 L128.301887,16.72 Z" id="Path"></path>
                <path d="M139.018868,14.872 L138.251572,15.1737143 C136.993711,15.664 136.45283,16.2674286 136.45283,17.0091429 C136.441374,17.2692796 136.526487,17.524475 136.691824,17.7257143 C136.83806,17.8995263 137.055907,17.9968067 137.283019,17.9897143 C137.553248,17.9769199 137.816426,17.8993053 138.050314,17.7634286 C138.393869,17.5827297 138.718356,17.3679331 139.018868,17.1222857 L139.018868,14.872 Z M141.031447,17.2982857 L141.283019,17.2982857 C141.283019,18.0902857 140.855346,18.5554286 140.113208,18.5554286 C139.842727,18.5697868 139.577059,18.4797812 139.371069,18.304 C139.168746,18.1067765 139.0438,17.8436469 139.018868,17.5622857 C138.626428,17.852415 138.204875,18.1009888 137.761006,18.304 C137.44186,18.4557235 137.095266,18.5412534 136.742138,18.5554286 C136.380929,18.564803 136.028338,18.4443662 135.748428,18.216 C135.471997,18.008942 135.312697,17.6811592 135.320755,17.336 C135.340235,16.8282979 135.602212,16.360748 136.025157,16.0788571 C136.624093,15.6505471 137.274995,15.2999365 137.962264,15.0354286 L139.044025,14.608 L139.044025,14.3188571 C139.051727,14.0313005 139.02213,13.743958 138.955975,13.464 C138.888335,13.2659175 138.749327,13.1000993 138.566038,12.9988571 C138.311884,12.8472338 138.019009,12.7729647 137.72327,12.7851429 C137.018868,12.7851429 136.641509,13.024 136.553459,13.4765714 C136.465409,13.9291429 136.289308,14.1931429 135.974843,14.1931429 C135.660377,14.1931429 135.54717,14.0548571 135.54717,13.7908571 C135.605757,13.4384727 135.811575,13.1276372 136.113208,12.936 C136.628971,12.5939582 137.244584,12.43461 137.861635,12.4834286 C138.338897,12.4562796 138.815182,12.5514823 139.245283,12.76 C139.516289,12.8976046 139.736531,13.1177206 139.874214,13.3885714 C140.003914,13.7378921 140.059598,14.1103307 140.037736,14.4822857 L140.037736,16.72 C140.015182,17.0660879 140.044865,17.4135974 140.125786,17.7508571 C140.177506,17.9051851 140.328343,18.0039533 140.490566,17.9897143 C140.792453,17.9897143 140.981132,17.7634286 141.056604,17.2982857" id="Shape"></path>
                <path d="M143.584906,12.4205714 L143.773585,12.4205714 C143.895703,12.798404 143.959331,13.1926693 143.962264,13.5897143 C144.253821,13.2353584 144.607623,12.9371418 145.006289,12.7097143 C145.356834,12.5171195 145.750934,12.4175688 146.150943,12.4205714 C146.543185,12.4009087 146.932539,12.4970984 147.27044,12.6971429 C147.533298,12.8611395 147.73282,13.109291 147.836478,13.4011429 C147.940855,13.8115844 147.983252,14.2353148 147.962264,14.6582857 L147.962264,16.3428571 C147.937723,16.7615459 147.937723,17.1813113 147.962264,17.6 C147.974568,17.7377664 148.05476,17.8603434 148.176101,17.9268571 C148.393031,18.0073168 148.624392,18.041573 148.855346,18.0274286 L148.855346,18.3417143 L145.937107,18.3417143 L145.937107,18.0274286 L146.062893,18.0274286 C146.29592,18.056425 146.531757,18.0030586 146.72956,17.8765714 C146.824968,17.788103 146.88338,17.6668539 146.893082,17.5371429 C146.893082,17.4114286 146.893082,17.0217143 146.893082,16.3931429 L146.893082,14.5577143 C146.921515,14.2356733 146.921515,13.9117553 146.893082,13.5897143 C146.834365,13.381115 146.705547,13.1990958 146.528302,13.0742857 C146.312993,12.9295456 146.058164,12.854897 145.798742,12.8605714 C145.452913,12.861734 145.115434,12.9668621 144.830189,13.1622857 C144.480416,13.3996488 144.184671,13.7080762 143.962264,14.0674286 L143.962264,16.3428571 C143.962264,16.9965714 143.962264,17.3988571 143.962264,17.6 C143.989611,17.7354089 144.07149,17.8536111 144.188679,17.9268571 C144.40972,18.0083348 144.645397,18.0425954 144.880503,18.0274286 L144.880503,18.3417143 L142,18.3417143 L142,18.0274286 C142.2268,18.0405519 142.453847,18.0063002 142.666667,17.9268571 C142.784312,17.8725251 142.868585,17.7649038 142.893082,17.6377143 C142.927451,17.2193706 142.927451,16.7989151 142.893082,16.3805714 L142.893082,14.696 C142.918363,14.2773333 142.918363,13.8575239 142.893082,13.4388571 C142.872151,13.3039734 142.78802,13.1871924 142.666667,13.1245714 C142.452808,13.0322772 142.219671,12.9934432 141.987421,13.0114286 L141.987421,12.6845714 C142.515587,12.6259399 143.037534,12.5207688 143.54717,12.3702857" id="Path"></path>
                <path d="M153.647799,14.872 L152.893082,15.1737143 C151.63522,15.664 151.09434,16.2674286 151.09434,17.0091429 C151.083844,17.2670861 151.163939,17.5205758 151.320755,17.7257143 C151.470907,17.901525 151.693428,17.998822 151.924528,17.9897143 C152.190456,17.9749389 152.449095,17.8973916 152.679245,17.7634286 C153.026306,17.5887071 153.351425,17.3734918 153.647799,17.1222857 L153.647799,14.872 Z M155.672956,17.2982857 L155.924528,17.2982857 C155.924528,18.0902857 155.496855,18.5554286 154.754717,18.5554286 C154.480829,18.5667942 154.212287,18.4773315 154,18.304 C153.802854,18.1031221 153.678837,17.8419498 153.647799,17.5622857 C153.253932,17.8502555 152.832605,18.0986963 152.389937,18.304 C152.065901,18.4544724 151.715458,18.5398976 151.358491,18.5554286 C150.997621,18.5626018 150.645769,18.4424174 150.36478,18.216 C150.091403,18.0076309 149.936558,17.6793583 149.949686,17.336 C149.964257,16.8300528 150.221781,16.3620953 150.641509,16.0788571 C151.243659,15.6557214 151.893905,15.3054649 152.578616,15.0354286 L153.660377,14.608 L153.660377,14.3188571 C153.670843,14.031878 153.64549,13.7447137 153.584906,13.464 C153.512074,13.2650262 153.368898,13.0995724 153.18239,12.9988571 C152.928236,12.8472338 152.635362,12.7729647 152.339623,12.7851429 C151.647799,12.7851429 151.257862,13.024 151.18239,13.4765714 C151.106918,13.9291429 150.918239,14.1931429 150.591195,14.1931429 C150.479147,14.2094896 150.365857,14.1729039 150.284565,14.0941206 C150.203273,14.0153373 150.163199,13.9032909 150.176101,13.7908571 C150.231701,13.4406467 150.432699,13.1301901 150.72956,12.936 C151.249999,12.5939066 151.869567,12.43468 152.490566,12.4834286 C152.963786,12.4561911 153.436032,12.5514524 153.861635,12.76 C154.138377,12.8939418 154.363673,13.1146943 154.503145,13.3885714 C154.626343,13.7395332 154.68183,14.110661 154.666667,14.4822857 L154.666667,16.72 C154.649249,17.0654142 154.674598,17.4116559 154.742138,17.7508571 C154.797485,17.9023498 154.945848,17.9994972 155.106918,17.9897143 C155.421384,17.9897143 155.610063,17.7634286 155.685535,17.2982857" id="Shape"></path>
                <path d="M158.012579,14.6708571 C157.985907,15.1212897 158.119584,15.5666241 158.389937,15.928 C158.627763,16.1818804 158.960196,16.3259522 159.308176,16.3259522 C159.656156,16.3259522 159.988589,16.1818804 160.226415,15.928 C160.524522,15.5078873 160.662797,14.9952244 160.616352,14.4822857 C160.673091,13.9723841 160.523651,13.4609591 160.201258,13.0617143 C159.96502,12.8140379 159.637972,12.6733059 159.295597,12.672 C158.914984,12.6517995 158.551821,12.8332773 158.339623,13.1497143 C158.093682,13.5946892 157.980206,14.1006802 158.012579,14.608 M161.144654,13.0868571 C161.440132,12.6844347 161.903421,12.4390318 162.402516,12.4205714 C162.591088,12.4077103 162.77692,12.471129 162.918239,12.5965714 C163.03462,12.6984211 163.103041,12.8443015 163.106918,12.9988571 C163.106918,13.3005714 162.968553,13.4514286 162.691824,13.4514286 C162.515608,13.4418676 162.362133,13.3280641 162.301887,13.1622857 C162.188679,12.9988571 162.08805,12.8982857 161.974843,12.8982857 C161.740169,12.9355267 161.531034,13.0672974 161.396226,13.2628571 C161.633969,13.6385279 161.756409,14.075566 161.748428,14.52 C161.757318,15.0735091 161.544463,15.607606 161.157233,16.0034286 C160.601552,16.4947691 159.872402,16.7437152 159.132075,16.6948571 C158.150943,16.6948571 157.660377,16.896 157.660377,17.2982857 C157.660377,17.4742857 157.773585,17.5874286 157.987421,17.6628571 C158.441434,17.7667933 158.905322,17.8215851 159.371069,17.8262857 C159.96747,17.8443646 160.561045,17.9158895 161.144654,18.04 C161.53565,18.1272917 161.883173,18.3499358 162.125786,18.6685714 C162.37949,18.9903289 162.512943,19.3904585 162.503145,19.8 C162.511683,20.3885959 162.229336,20.9435613 161.748428,21.2834286 C161.103188,21.6901158 160.346287,21.8836309 159.584906,21.8365714 C158.859067,21.872181 158.138378,21.6975685 157.509434,21.3337143 C157.038424,21.0893636 156.739105,20.6068667 156.72956,20.0765714 C156.721332,19.8247743 156.7965,19.5773045 156.943396,19.3725714 C157.106376,19.1922737 157.342153,19.0952445 157.584906,19.1085714 C157.651341,19.095362 157.719729,19.095362 157.786164,19.1085714 C157.519333,19.3711158 157.365839,19.7275579 157.358491,20.1017143 C157.368945,20.5133009 157.580391,20.893687 157.924528,21.12 C158.446696,21.4209868 159.046252,21.5609491 159.647799,21.5222857 C160.202872,21.556209 160.754138,21.4107577 161.220126,21.1074286 C161.576351,20.8790509 161.793787,20.4869463 161.798742,20.064 C161.830216,19.6684713 161.628945,19.2906907 161.283019,19.096 C160.709322,18.8585694 160.092488,18.7429791 159.471698,18.7565714 C158.806401,18.7874519 158.143082,18.6626125 157.534591,18.392 C157.258687,18.229814 157.090729,17.932458 157.09434,17.6125714 C157.09434,17.0091429 157.509434,16.6194286 158.352201,16.4685714 C157.958668,16.2486098 157.619187,15.943681 157.358491,15.576 C156.800581,14.7466922 156.946026,13.6322506 157.698113,12.9737143 C158.149018,12.5761355 158.732103,12.3609654 159.333333,12.3702857 C160.028021,12.3458489 160.701865,12.609772 161.194969,13.0994286" id="Shape"></path>
                <path d="M167.610063,14.2937143 C167.615801,14.201613 167.615801,14.1092441 167.610063,14.0171429 C167.632738,13.6632762 167.50483,13.3162953 167.257862,13.0617143 C167.019561,12.83865 166.703814,12.7169312 166.377358,12.7222857 C165.534591,12.7222857 165.031447,13.2502857 164.867925,14.2937143 L167.610063,14.2937143 Z M168.867925,14.5702857 L164.893082,14.5702857 C164.893082,14.8468571 164.893082,15.048 164.893082,15.1862857 C164.8474,15.96828 165.007883,16.7485616 165.358491,17.4491429 C165.655684,17.938142 166.195318,18.2270662 166.767296,18.2034286 C167.54651,18.2465626 168.267897,17.7928017 168.566038,17.072 L168.90566,17.072 C168.754705,17.5382409 168.436626,17.9322541 168.012579,18.1782857 C167.147573,18.6896794 166.072552,18.6896794 165.207547,18.1782857 C164.260071,17.6331908 163.696906,16.6045468 163.748428,15.5131429 C163.720173,14.6939584 164.003303,13.8944608 164.540881,13.2754286 C165.0306,12.6952232 165.75638,12.3671916 166.515723,12.3828571 C167.16638,12.3410485 167.802104,12.5896681 168.251572,13.0617143 C168.639699,13.4572907 168.871953,13.9795653 168.90566,14.5325714" id="Shape"></path>
                <path d="M171.559748,12.4205714 L171.622642,12.4205714 C171.772601,12.8002072 171.841165,13.2070731 171.823899,13.6148571 C172.094078,13.2510938 172.436701,12.9471891 172.830189,12.7222857 C173.183906,12.5248017 173.582255,12.420944 173.987421,12.4205714 C174.392967,12.3986145 174.794675,12.5089107 175.132075,12.7348571 C175.442959,12.9769351 175.660676,13.3188674 175.748428,13.7028571 C176.050069,13.3198882 176.416121,12.9923306 176.830189,12.7348571 C177.173301,12.5323599 177.563809,12.4239476 177.962264,12.4205714 C178.361125,12.4074668 178.754969,12.5124318 179.09434,12.7222857 C179.356622,12.8780523 179.553319,13.1237825 179.647799,13.4137143 C179.725462,13.828062 179.759191,14.2494394 179.748428,14.6708571 L179.748428,16.3428571 C179.748428,17.0091429 179.748428,17.4114286 179.748428,17.6 C179.777131,17.7348278 179.858675,17.852547 179.974843,17.9268571 C180.195884,18.0083348 180.43156,18.0425954 180.666667,18.0274286 L180.666667,18.3417143 L177.823899,18.3417143 L177.823899,18.0274286 C178.038375,18.0401897 178.253045,18.0058621 178.45283,17.9268571 C178.573718,17.8700634 178.658541,17.7570315 178.679245,17.6251429 C178.703558,17.2064475 178.703558,16.7866954 178.679245,16.368 L178.679245,14.4948571 C178.711647,14.2024176 178.711647,13.9072967 178.679245,13.6148571 C178.633051,13.4139852 178.511486,13.2384911 178.339623,13.1245714 C178.124313,12.9798314 177.869484,12.9051828 177.610063,12.9108571 C177.284735,12.9183915 176.969188,13.0235135 176.704403,13.2125714 C176.352683,13.4740956 176.043028,13.7878135 175.786164,14.1428571 L175.786164,16.3428571 C175.786164,16.9462857 175.786164,17.336 175.786164,17.4868571 C175.798653,17.6284465 175.866438,17.7594224 175.974843,17.8514286 C176.163555,17.9527177 176.377861,17.9964287 176.591195,17.9771429 L176.591195,18.2914286 L173.836478,18.2914286 L173.836478,17.9771429 C174.055158,17.9922031 174.274424,17.9578281 174.477987,17.8765714 C174.598597,17.8165438 174.686196,17.7059555 174.716981,17.5748571 C174.742021,17.1561831 174.742021,16.7363883 174.716981,16.3177143 L174.716981,14.8091429 C174.751749,14.4495995 174.751749,14.0875433 174.716981,13.728 C174.68567,13.4944924 174.557936,13.2847642 174.36478,13.1497143 C174.154029,12.9837918 173.890667,12.8990285 173.622642,12.9108571 C173.308657,12.9166347 173.002978,13.0126504 172.742138,13.1874286 C172.393674,13.4131979 172.083663,13.6933213 171.823899,14.0171429 L171.823899,16.3428571 C171.823899,16.9714286 171.823899,17.3611429 171.823899,17.512 C171.83838,17.6522573 171.917443,17.7777556 172.037736,17.8514286 C172.240501,17.9513135 172.466453,17.9947409 172.691824,17.9771429 L172.691824,18.2914286 L169.899371,18.2914286 L169.899371,17.9771429 C170.113928,17.9915995 170.32897,17.9572124 170.528302,17.8765714 C170.652642,17.8212425 170.741943,17.7085064 170.767296,17.5748571 C170.791608,17.1561618 170.791608,16.7364097 170.767296,16.3177143 L170.767296,14.6834286 C170.790184,14.2898559 170.790184,13.8952869 170.767296,13.5017143 C170.759117,13.3593628 170.678366,13.2311838 170.553459,13.1622857 C170.3495,13.066717 170.123604,13.027642 169.899371,13.0491429 L169.899371,12.7348571 C170.452996,12.6808604 171.000415,12.5756477 171.534591,12.4205714" id="Path"></path>
                <path d="M185.383648,14.2937143 C185.389386,14.201613 185.389386,14.1092441 185.383648,14.0171429 C185.383648,13.322842 184.820484,12.76 184.125786,12.76 C183.283019,12.76 182.767296,13.288 182.616352,14.3314286 L185.383648,14.2937143 Z M186.641509,14.5702857 L182.666667,14.5702857 C182.666667,14.8468571 182.666667,15.048 182.666667,15.1862857 C182.614885,15.9687091 182.775693,16.7505718 183.132075,17.4491429 C183.42732,17.9401936 183.968274,18.2298249 184.540881,18.2034286 C185.320094,18.2465626 186.041482,17.7928017 186.339623,17.072 L186.666667,17.072 C186.525452,17.5396934 186.21037,17.9355706 185.786164,18.1782857 C185.350557,18.4436623 184.849772,18.5829315 184.339623,18.5806009 C183.859041,18.5773624 183.387192,18.4518964 182.968553,18.216 C182.540775,17.958278 182.182398,17.600105 181.924528,17.1725714 C181.634597,16.6824817 181.490595,16.1198895 181.509434,15.5508571 C181.481179,14.7316727 181.764309,13.9321751 182.301887,13.3131429 C182.794393,12.72946 183.525596,12.4010693 184.289308,12.4205714 C184.939691,12.3805122 185.574702,12.6288528 186.025157,13.0994286 C186.409634,13.496247 186.637491,14.0186809 186.666667,14.5702857" id="Shape"></path>
                <path d="M189.295597,12.4205714 L189.484277,12.4205714 C189.601371,12.7992402 189.660737,13.1933743 189.660377,13.5897143 C189.955666,13.2341679 190.313815,12.935881 190.716981,12.7097143 C191.067106,12.5160561 191.461489,12.4164338 191.861635,12.4205714 C192.249948,12.4003827 192.635431,12.4966984 192.968553,12.6971429 C193.237971,12.8536351 193.439678,13.104504 193.534591,13.4011429 C193.638968,13.8115844 193.681365,14.2353148 193.660377,14.6582857 L193.660377,16.3428571 C193.635837,16.7615459 193.635837,17.1813113 193.660377,17.6 C193.683291,17.7338468 193.760721,17.8522016 193.874214,17.9268571 C194.091144,18.0073168 194.322506,18.041573 194.553459,18.0274286 L194.553459,18.3417143 L191.63522,18.3417143 L191.63522,18.0274286 L191.773585,18.0274286 C192.002637,18.0566769 192.234608,18.0031757 192.427673,17.8765714 C192.52674,17.789389 192.589563,17.6682999 192.603774,17.5371429 C192.603774,17.4114286 192.603774,17.0217143 192.603774,16.3931429 L192.603774,14.5577143 C192.638693,14.2359913 192.638693,13.9114373 192.603774,13.5897143 C192.550233,13.3820558 192.425621,13.1996925 192.251572,13.0742857 C192.036263,12.9295456 191.781434,12.854897 191.522013,12.8605714 C191.172588,12.8637606 190.831658,12.9686021 190.540881,13.1622857 C190.197064,13.4066168 189.902582,13.7137272 189.672956,14.0674286 L189.672956,16.3428571 C189.648415,16.7615459 189.648415,17.1813113 189.672956,17.6 C189.695869,17.7338468 189.773299,17.8522016 189.886792,17.9268571 C190.108189,18.0069259 190.34357,18.0411435 190.578616,18.0274286 L190.578616,18.3417143 L187.698113,18.3417143 L187.698113,18.0274286 C187.924981,18.0420791 188.152347,18.0077793 188.36478,17.9268571 C188.526908,17.8929492 188.6517,17.7632403 188.679245,17.6 C188.713614,17.1816563 188.713614,16.7612008 188.679245,16.3428571 L188.679245,14.696 C188.704527,14.2773333 188.704527,13.8575239 188.679245,13.4388571 C188.658314,13.3039734 188.574184,13.1871924 188.45283,13.1245714 C188.239896,13.0291795 188.005965,12.9902133 187.773585,13.0114286 L187.773585,12.6845714 C188.305881,12.6259598 188.832006,12.5207948 189.345912,12.3702857" id="Path"></path>
                <path d="M199.006289,12.9611429 L197.283019,12.9611429 L197.283019,16.4182857 C197.268948,16.7761636 197.294257,17.1345035 197.358491,17.4868571 C197.397844,17.6639476 197.50077,17.8204841 197.647799,17.9268571 C197.791269,18.0291763 197.962162,18.0861081 198.138365,18.0902857 C198.510199,18.066131 198.840967,17.8457454 199.006289,17.512 L199.220126,17.6502857 C199.090447,17.9464836 198.864368,18.1901558 198.578616,18.3417143 C198.322525,18.4915167 198.0325,18.5737157 197.735849,18.5805714 C197.415955,18.5867675 197.104139,18.47992 196.855346,18.2788571 C196.621371,18.1100071 196.452606,17.8658822 196.377358,17.5874286 C196.301997,17.1263303 196.272503,16.6589072 196.289308,16.192 L196.289308,12.9611429 L195.459119,12.9611429 L195.459119,12.6468571 C195.84832,12.627464 196.214278,12.455878 196.477987,12.1691429 C196.796067,11.8198278 196.998185,11.3806909 197.056604,10.912 L197.283019,10.912 L197.283019,12.6971429 L199.006289,12.6971429 L199.006289,12.9611429 Z" id="Path"></path>
            </g>
        </g>
    </g>
</svg>