<?xml version="1.0" encoding="UTF-8"?>
<svg width="200px" height="36px" viewBox="0 0 200 36" version="1.1" xmlns="http://www.w3.org/2000/svg" xmlns:xlink="http://www.w3.org/1999/xlink">
    <title>161116_FH;P_horizontal_K</title>
    <g id="design" stroke="none" stroke-width="1" fill="none" fill-rule="evenodd">
        <g id="Page-Unrolled" transform="translate(-350.000000, -3314.000000)" fill="#1A1918" fill-rule="nonzero">
            <g id="161116_FH;P_horizontal_K" transform="translate(350.000000, 3314.000000)">
                <path d="M59.548253,26.5456525 C59.548253,30.3233889 58.6908301,33.1476569 55.2988582,35.8236694 L51.6198522,32.6871381 C53.5508936,30.863595 54.1645213,29.4523876 54.2132799,27.2192886 L51.2693394,27.2211418 L51.2693394,18.798374 L59.548253,18.798374 L59.548253,26.5456525 Z" id="Fill-1"></path>
                <polygon id="Fill-3" points="51.3215944 13.1928321 59.5397892 13.1928321 59.5397892 4.77006444 51.3215944 4.77006444"></polygon>
                <polygon id="Fill-5" points="0.124347006 27.2226243 0.124347006 0.584810587 20.0161873 0.584810587 20.0161873 6.92273484 8.10334667 6.92273484 8.10334667 11.5992705 19.1173653 11.5992705 19.1173653 17.9390479 8.10334667 17.9390479 8.10334667 27.2226243"></polygon>
                <polygon id="Fill-6" points="38.5548267 27.2212344 38.5548267 16.8081361 30.8380218 16.8081361 30.8380218 27.2212344 22.6713459 27.2212344 22.6713459 0.584347292 30.8380218 0.584347292 30.8380218 9.9411249 38.5548267 9.9411249 38.5548267 0.584347292 46.758302 0.584347292 46.758302 27.2212344"></polygon>
                <path d="M75.4105743,12.6579077 C76.9837426,12.6579077 78.144759,12.4308913 78.7813863,11.9036576 C79.3802944,11.4125611 79.60569,10.6583111 79.60569,9.79008957 C79.60569,8.95985858 79.3802944,8.20560851 78.7813863,7.67744818 C78.1824783,7.11129733 77.2082181,6.92319814 75.521892,6.92319814 L72.2633173,6.92319814 L72.2633173,12.6579077 L75.4105743,12.6579077 Z M64.2097992,27.2212344 L64.2097992,0.584347292 L75.521892,0.584347292 C80.7299072,0.584347292 82.976502,1.14957153 84.5496707,2.20681883 C86.8726237,3.75330941 87.9968414,6.28106635 87.9968414,9.60106377 C87.9968414,12.6579077 86.7981052,15.3366999 84.6628281,16.921181 C82.8274651,18.2415818 80.4299932,18.8837136 76.309396,18.8837136 L72.3001169,18.8837136 L72.3001169,27.2212344 L64.2097992,27.2212344 Z" id="Fill-7"></path>
                <polygon id="Fill-8" points="102.177896 1.53447997 102.177896 3.257024 103.915741 3.257024 103.915741 4.1919605 102.177896 4.1919605 102.177896 6.83183564 100.935921 6.83183564 100.935921 0.58101154 104.108937 0.58101154 104.108937 1.53447997"></polygon>
                <path d="M107.293545,4.73865278 L106.943953,4.73865278 C106.05157,4.73865278 105.793976,5.03516387 105.793976,5.47066448 C105.793976,5.84964271 106.006491,6.08129199 106.410363,6.08129199 C106.695557,6.08129199 107.007431,5.93396304 107.293545,5.68378181 L107.293545,4.73865278 Z M107.55022,6.83183564 L107.467422,6.35927113 C107.07275,6.70211207 106.649559,6.93376131 106.06077,6.93376131 C105.131589,6.93376131 104.635719,6.47046279 104.635719,5.60872747 C104.635719,4.64599307 105.398384,4.00756766 107.007431,4.00756766 L107.293545,4.00756766 L107.293545,3.65546075 C107.293545,3.18289623 107.026751,2.95124695 106.437963,2.95124695 C105.960492,2.95124695 105.454502,3.08097055 105.040511,3.22922608 L104.884114,2.50740693 C105.426903,2.26649168 106.043291,2.09043824 106.732357,2.09043824 C107.909013,2.09043824 108.460082,2.65566247 108.460082,3.53500313 L108.460082,6.83183564 L107.55022,6.83183564 Z" id="Fill-9"></path>
                <path d="M111.377711,6.92477333 C110.164256,6.92477333 109.538668,6.14643177 109.538668,4.57214327 C109.538668,3.10904644 110.283853,2.08978962 111.46051,2.08978962 C112.049298,2.08978962 112.517569,2.30383355 112.839562,2.6735458 L112.42557,3.28417329 C112.213975,3.09051449 111.95638,2.97932284 111.643586,2.97932284 C111.110917,2.97932284 110.770524,3.47875869 110.770524,4.45168565 C110.770524,5.58213411 111.074118,6.02597415 111.606787,6.02597415 C111.97478,6.02597415 112.279293,5.90551653 112.581967,5.63680335 L112.93984,6.24835743 C112.581967,6.61899628 112.075978,6.92477333 111.377711,6.92477333" id="Fill-10"></path>
                <path d="M117.548947,6.83165035 L116.372291,6.83165035 C116.372291,5.88652127 116.398971,4.92378686 116.398971,4.40581911 C116.398971,3.29482916 116.179095,3.04372134 115.755904,3.04372134 C115.525908,3.04372134 115.222314,3.18271091 114.90952,3.42362616 L114.90952,6.83165035 L113.723664,6.83165035 L113.723664,0.265783203 L114.90952,0.265783203 L114.90952,2.59061536 C115.232434,2.31263622 115.663905,2.09025292 116.169895,2.09025292 C117.088957,2.09025292 117.585747,2.66474312 117.585747,4.19177516 C117.585747,4.74866001 117.548947,5.80405413 117.548947,6.83165035" id="Fill-11"></path>
                <path d="M122.709492,6.83165035 L121.532835,6.83165035 C121.532835,5.88652127 121.559515,4.92378686 121.559515,4.40581911 C121.559515,3.29482916 121.339639,3.04372134 120.916448,3.04372134 C120.686452,3.04372134 120.382859,3.18271091 120.070065,3.42362616 L120.070065,6.83165035 L118.884208,6.83165035 L118.884208,0.265783203 L120.070065,0.265783203 L120.070065,2.59061536 C120.392058,2.31263622 120.82445,2.09025292 121.330439,2.09025292 C122.249501,2.09025292 122.746291,2.66474312 122.746291,4.19177516 C122.746291,4.74866001 122.709492,5.80405413 122.709492,6.83165035" id="Fill-12"></path>
                <path d="M125.921331,2.97052017 C125.378542,2.97052017 125.002269,3.34949839 125.002269,4.40581911 C125.002269,5.71139442 125.341743,6.05423536 125.930531,6.05423536 C126.46412,6.05423536 126.840393,5.67433056 126.840393,4.61800982 C126.840393,3.3124345 126.50092,2.97052017 125.921331,2.97052017 M125.829333,6.93357601 C124.522959,6.93357601 123.788814,6.26735269 123.788814,4.60040449 C123.788814,2.88619983 124.642557,2.09025292 126.013329,2.09025292 C127.319703,2.09025292 128.053848,2.75740283 128.053848,4.42342444 C128.053848,6.12743651 127.200106,6.93357601 125.829333,6.93357601" id="Fill-13"></path>
                <path d="M130.715263,6.92477333 C129.501807,6.92477333 128.87622,6.14643177 128.87622,4.57214327 C128.87622,3.10904644 129.621405,2.08978962 130.798061,2.08978962 C131.386849,2.08978962 131.85512,2.30383355 132.177114,2.6735458 L131.763122,3.28417329 C131.551526,3.09051449 131.293931,2.97932284 130.981137,2.97932284 C130.448468,2.97932284 130.108075,3.47875869 130.108075,4.45168565 C130.108075,5.58213411 130.411669,6.02597415 130.944338,6.02597415 C131.313251,6.02597415 131.616845,5.90551653 131.919518,5.63680335 L132.277392,6.24835743 C131.919518,6.61899628 131.413529,6.92477333 130.715263,6.92477333" id="Fill-14"></path>
                <path d="M136.886591,6.83165035 L135.709935,6.83165035 C135.709935,5.88652127 135.736614,4.92378686 135.736614,4.40581911 C135.736614,3.29482916 135.516739,3.04372134 135.093547,3.04372134 C134.863551,3.04372134 134.559957,3.18271091 134.247164,3.42362616 L134.247164,6.83165035 L133.061308,6.83165035 L133.061308,0.265783203 L134.247164,0.265783203 L134.247164,2.59061536 C134.569157,2.31263622 135.001549,2.09025292 135.507539,2.09025292 C136.4266,2.09025292 136.92339,2.66474312 136.92339,4.19177516 C136.92339,4.74866001 136.886591,5.80405413 136.886591,6.83165035" id="Fill-15"></path>
                <path d="M139.316814,6.92477333 C138.801624,6.92477333 138.333354,6.79412314 137.882563,6.54486852 L137.983761,5.92404844 C138.50815,6.0445061 138.820024,6.08156996 139.105218,6.08156996 C139.712406,6.08156996 139.942402,5.84992068 139.942402,5.57194154 C139.942402,5.26709111 139.794284,5.1095696 139.123618,4.86865436 C138.241355,4.55361132 137.900963,4.17370652 137.900963,3.49821722 C137.900963,2.65594045 138.571629,2.08978962 139.583609,2.08978962 C139.99668,2.08978962 140.393192,2.18337592 140.870663,2.43263055 L140.741865,3.04418464 C140.356393,2.95152493 140.089598,2.90519507 139.831084,2.90519507 C139.353613,2.90519507 139.142018,3.12665178 139.142018,3.38702557 C139.142018,3.66407811 139.298414,3.80399427 139.950681,4.04490952 C140.852263,4.34975999 141.192656,4.7852606 141.192656,5.45148392 C141.192656,6.29468729 140.50267,6.92477333 139.316814,6.92477333" id="Fill-16"></path>
                <path d="M143.769341,6.92477333 C142.555885,6.92477333 141.930298,6.14643177 141.930298,4.57214327 C141.930298,3.10904644 142.675482,2.08978962 143.852139,2.08978962 C144.440927,2.08978962 144.909198,2.30383355 145.231191,2.6735458 L144.8172,3.28417329 C144.605604,3.09051449 144.348009,2.97932284 144.035215,2.97932284 C143.502546,2.97932284 143.162153,3.47875869 143.162153,4.45168565 C143.162153,5.58213411 143.465747,6.02597415 143.998416,6.02597415 C144.366408,6.02597415 144.670922,5.90551653 144.973596,5.63680335 L145.331469,6.24835743 C144.973596,6.61899628 144.467606,6.92477333 143.769341,6.92477333" id="Fill-17"></path>
                <path d="M149.940577,6.83165035 L148.76392,6.83165035 C148.76392,5.88652127 148.7906,4.92378686 148.7906,4.40581911 C148.7906,3.29482916 148.570724,3.04372134 148.147533,3.04372134 C147.917537,3.04372134 147.613943,3.18271091 147.301149,3.42362616 L147.301149,6.83165035 L146.115294,6.83165035 L146.115294,0.265783203 L147.301149,0.265783203 L147.301149,2.59061536 C147.623143,2.31263622 148.055535,2.09025292 148.561524,2.09025292 C149.480586,2.09025292 149.977376,2.66474312 149.977376,4.19177516 C149.977376,4.74866001 149.940577,5.80405413 149.940577,6.83165035" id="Fill-18"></path>
                <path d="M154.136244,6.83165035 L154.044246,6.34148045 C153.649574,6.70192673 153.180384,6.93357601 152.655994,6.93357601 C151.717613,6.93357601 151.240143,6.34148045 151.240143,4.83205377 C151.240143,4.25756354 151.276942,3.21143542 151.276942,2.1921786 L152.462798,2.1921786 C152.462798,3.12711508 152.426918,4.07131754 152.426918,4.62727582 C152.426918,5.72066041 152.646794,5.9801076 153.060786,5.9801076 C153.317461,5.9801076 153.621055,5.82258608 153.916369,5.60020276 L153.916369,2.1921786 L155.102225,2.1921786 L155.102225,6.83165035 L154.136244,6.83165035 Z" id="Fill-19"></path>
                <path d="M157.347164,6.90577811 C156.750096,6.90577811 156.437302,6.72045868 156.437302,5.96991503 L156.437302,0.265783203 L157.623158,0.265783203 L157.623158,5.49735047 C157.623158,6.01717146 157.687557,6.09037265 157.926752,6.09037265 C158.000351,6.09037265 158.092349,6.08110665 158.156747,6.08110665 L158.202747,6.78532049 C157.981951,6.85944825 157.706876,6.90577811 157.347164,6.90577811" id="Fill-20"></path>
                <path d="M161.542739,3.98847976 C161.542739,3.24812866 161.293424,2.88675579 160.797554,2.88675579 C160.283285,2.88675579 160.00729,3.34078837 159.970491,4.0070117 L161.542739,4.0070117 L161.542739,3.98847976 Z M159.970491,4.74828937 L159.970491,4.81315118 C159.970491,5.66562054 160.337563,6.02606682 160.99995,6.02606682 C161.413022,6.02606682 161.955811,5.93433368 162.4894,5.75735364 L162.664197,6.44210891 C162.103008,6.73954657 161.441541,6.93413199 160.760755,6.93413199 C159.556499,6.93413199 158.757035,6.33184386 158.757035,4.63709775 C158.757035,2.9794155 159.556499,2.08988227 160.843553,2.08988227 C162.02941,2.08988227 162.811394,2.7570322 162.682596,4.74828937 L159.970491,4.74828937 Z" id="Fill-21"></path>
                <path d="M167.881136,1.47925478 L167.503944,1.47925478 L167.503944,3.80408693 L167.881136,3.80408693 C168.699,3.80408693 169.066992,3.37785226 169.066992,2.63657457 C169.066992,1.88603091 168.744999,1.47925478 167.881136,1.47925478 M167.761539,4.72975746 L167.503944,4.72975746 L167.503944,6.83127971 L166.261969,6.83127971 L166.261969,0.580455582 C166.841557,0.580455582 167.430345,0.562850236 168.064212,0.562850236 C169.746859,0.562850236 170.363246,1.33099924 170.363246,2.52538292 C170.363246,3.80408693 169.68338,4.72975746 167.761539,4.72975746" id="Fill-22"></path>
                <path d="M173.106355,2.97052017 C172.563566,2.97052017 172.187294,3.34949839 172.187294,4.40581911 C172.187294,5.71139442 172.526767,6.05423536 173.115555,6.05423536 C173.649144,6.05423536 174.025416,5.67433056 174.025416,4.61800982 C174.025416,3.3124345 173.685943,2.97052017 173.106355,2.97052017 M173.014357,6.93357601 C171.707983,6.93357601 170.973838,6.26735269 170.973838,4.60040449 C170.973838,2.88619983 171.827581,2.09025292 173.198353,2.09025292 C174.504727,2.09025292 175.238872,2.75740283 175.238872,4.42342444 C175.238872,6.12743651 174.385129,6.93357601 173.014357,6.93357601" id="Fill-23"></path>
                <path d="M177.522082,6.92477333 C176.676619,6.92477333 176.354626,6.60046433 176.354626,5.71185773 L176.354626,3.0256527 L175.775957,3.0256527 L175.775957,2.1926419 L176.400625,2.1926419 C176.511022,1.7747466 176.593821,1.3587045 176.676619,0.840736711 L177.540482,0.840736711 L177.540482,2.1926419 L178.561661,2.1926419 L178.561661,3.0256527 L177.540482,3.0256527 L177.540482,5.41442006 C177.540482,5.88698458 177.6518,6.0352401 177.954473,6.0352401 C178.101671,6.0352401 178.294867,6.01763477 178.589261,5.93424101 L178.681259,6.61899628 C178.248868,6.84045299 177.871675,6.92477333 177.522082,6.92477333" id="Fill-24"></path>
                <path d="M180.696202,6.92477333 C180.181013,6.92477333 179.712742,6.79412314 179.261951,6.54486852 L179.363149,5.92404844 C179.887539,6.0445061 180.199412,6.08156996 180.485527,6.08156996 C181.091794,6.08156996 181.32179,5.84992068 181.32179,5.57194154 C181.32179,5.26709111 181.174593,5.1095696 180.503006,4.86865436 C179.620744,4.55361132 179.280351,4.17370652 179.280351,3.49821722 C179.280351,2.65594045 179.951018,2.08978962 180.962997,2.08978962 C181.376069,2.08978962 181.772581,2.18337592 182.250051,2.43263055 L182.121254,3.04418464 C181.735782,2.95152493 181.468987,2.90519507 181.211392,2.90519507 C180.733002,2.90519507 180.522326,3.12665178 180.522326,3.38702557 C180.522326,3.66407811 180.677803,3.80399427 181.33007,4.04490952 C182.231652,4.34975999 182.572045,4.7852606 182.572045,5.45148392 C182.572045,6.29468729 181.882059,6.92477333 180.696202,6.92477333" id="Fill-25"></path>
                <path d="M186.095666,3.03473335 C185.929149,2.97913752 185.736873,2.94207364 185.534477,2.94207364 C184.936489,2.94207364 184.523418,3.43317011 184.523418,4.53489407 C184.523418,5.51708701 184.808612,6.01744943 185.276882,6.01744943 C185.497678,6.01744943 185.792072,5.88679924 186.095666,5.62827867 L186.095666,3.03473335 Z M186.315542,6.83192831 L186.224463,6.3593638 C185.838071,6.69293875 185.41488,6.93385398 184.92729,6.93385398 C183.851831,6.93385398 183.309962,5.94332167 183.309962,4.70168155 C183.309962,2.83088198 184.311822,2.0896043 185.580476,2.0896043 C185.764473,2.0896043 185.976068,2.10906284 186.095666,2.11832881 L186.095666,0.266061182 L187.281522,0.266061182 L187.281522,6.83192831 L186.315542,6.83192831 Z" id="Fill-26"></path>
                <path d="M190.98132,4.73865278 L190.631727,4.73865278 C189.739345,4.73865278 189.48175,5.03516387 189.48175,5.47066448 C189.48175,5.84964271 189.693346,6.08129199 190.098138,6.08129199 C190.383332,6.08129199 190.695206,5.93396304 190.98132,5.68378181 L190.98132,4.73865278 Z M191.237995,6.83183564 L191.155196,6.35927113 C190.760524,6.70211207 190.337333,6.93376131 189.748545,6.93376131 C188.819363,6.93376131 188.323493,6.47046279 188.323493,5.60872747 C188.323493,4.64599307 189.086158,4.00756766 190.695206,4.00756766 L190.98132,4.00756766 L190.98132,3.65546075 C190.98132,3.18289623 190.714525,2.95124695 190.125737,2.95124695 C189.648267,2.95124695 189.142277,3.08097055 188.728285,3.22922608 L188.571888,2.50740693 C189.114678,2.26649168 189.731065,2.09043824 190.420131,2.09043824 C191.596788,2.09043824 192.147856,2.65566247 192.147856,3.53500313 L192.147856,6.83183564 L191.237995,6.83183564 Z" id="Fill-27"></path>
                <path d="M199.83789,6.83165035 L198.661233,6.83165035 C198.661233,5.89671384 198.688833,4.94231881 198.688833,4.40581911 C198.688833,3.29482916 198.486437,3.04372134 198.091765,3.04372134 C197.85257,3.04372134 197.521376,3.21977479 197.216863,3.46069004 C197.245382,3.60894558 197.263782,3.82206291 197.263782,4.15563787 L197.263782,6.83165035 L196.087125,6.83165035 L196.087125,4.40581911 C196.087125,3.3124345 195.883809,3.04372134 195.498337,3.04372134 C195.277541,3.04372134 194.973948,3.19197688 194.670354,3.42362616 L194.670354,6.83165035 L193.484498,6.83165035 L193.484498,2.1921786 L194.458758,2.1921786 L194.541556,2.68234847 C194.910469,2.34043414 195.378739,2.09025292 195.903129,2.09025292 C196.472598,2.09025292 196.84979,2.37749802 197.023666,2.75647624 C197.466178,2.35896608 197.943648,2.09025292 198.495637,2.09025292 C199.397219,2.09025292 199.874689,2.68234847 199.874689,4.18343578 C199.874689,4.757926 199.83789,5.81239351 199.83789,6.83165035" id="Fill-28"></path>
                <path d="M103.152709,17.1264222 C101.680738,17.1264222 100.927273,16.5056021 100.927273,14.9044424 L100.927273,10.7736724 L102.169249,10.7736724 L102.169249,14.7737922 C102.169249,15.8384522 102.499522,16.2100177 103.263106,16.2100177 C103.952173,16.2100177 104.366164,15.8847821 104.366164,14.8479199 L104.366164,10.7736724 L105.58054,10.7736724 L105.58054,14.7645262 C105.58054,16.4778042 104.57776,17.1264222 103.152709,17.1264222" id="Fill-29"></path>
                <path d="M110.815327,17.0242185 L109.63867,17.0242185 C109.63867,16.0892821 109.66535,15.1348871 109.66535,14.5891213 C109.66535,13.4873974 109.454674,13.2362896 109.031483,13.2362896 C108.783088,13.2362896 108.479494,13.3845451 108.1759,13.6161944 L108.1759,17.0242185 L106.990044,17.0242185 L106.990044,12.3847468 L107.964304,12.3847468 L108.047102,12.8749167 C108.442694,12.5144704 108.911885,12.2828212 109.445474,12.2828212 C110.373736,12.2828212 110.852126,12.8749167 110.852126,14.3843434 C110.852126,14.9588336 110.815327,16.0049617 110.815327,17.0242185" id="Fill-30"></path>
                <path d="M112.197624,17.0243112 L113.882592,17.0243112 L113.882592,12.3848395 L112.197624,12.3848395 L112.197624,17.0243112 Z M113.04599,11.7834779 C112.23684,11.7834779 112.039454,11.6342958 112.039454,11.1626579 C112.039454,10.6993593 112.249912,10.5418378 113.04599,10.5418378 C113.856448,10.5418378 114.039454,10.6808274 114.039454,11.1626579 C114.039454,11.6259565 113.843376,11.7834779 113.04599,11.7834779 L113.04599,11.7834779 Z" id="Fill-31"></path>
                <path d="M117.034218,17.0242185 L115.489569,17.0242185 L114.174915,12.3847468 L115.452769,12.3847468 L116.197955,15.0051634 L116.381951,15.9317606 C116.768343,14.6725151 117.034218,13.5244613 117.144616,12.3847468 L118.367271,12.3847468 C118.128076,13.9775673 117.678205,15.5703877 117.034218,17.0242185" id="Fill-32"></path>
                <path d="M121.744615,14.181048 C121.744615,13.4406969 121.49622,13.079324 120.99943,13.079324 C120.48516,13.079324 120.209166,13.5333566 120.172367,14.1995799 L121.744615,14.1995799 L121.744615,14.181048 Z M120.172367,14.9408576 L120.172367,15.0057194 C120.172367,15.8581887 120.539439,16.218635 121.201826,16.218635 C121.614898,16.218635 122.157687,16.1269019 122.691276,15.9499219 L122.866073,16.6346771 C122.304884,16.9321148 121.643417,17.1267002 120.962631,17.1267002 C119.758375,17.1267002 118.958911,16.5244121 118.958911,14.8296659 C118.958911,13.1719837 119.758375,12.2824505 121.045429,12.2824505 C122.231285,12.2824505 123.013269,12.9496004 122.884472,14.9408576 L120.172367,14.9408576 Z" id="Fill-33"></path>
                <path d="M126.519687,13.4408822 C126.326491,13.3843598 126.206894,13.3760204 126.114895,13.3760204 C125.8573,13.3760204 125.636505,13.5511473 125.222513,14.0793076 L125.222513,17.0240332 L124.036657,17.0240332 L124.036657,12.3845615 L125.010918,12.3845615 L125.102916,13.1073072 C125.572106,12.4864872 125.8849,12.2919018 126.216093,12.2919018 C126.353171,12.2919018 126.509567,12.3196997 126.656764,12.3938275 L126.519687,13.4408822 Z" id="Fill-34"></path>
                <path d="M128.572534,17.1173416 C128.058264,17.1173416 127.589073,16.9866914 127.138283,16.7374368 L127.239481,16.1166167 C127.76295,16.2370743 128.075744,16.2741382 128.361858,16.2741382 C128.968126,16.2741382 129.198121,16.0424889 129.198121,15.7645098 C129.198121,15.4596593 129.050924,15.3021378 128.379338,15.0612226 C127.497076,14.7461796 127.156682,14.3662748 127.156682,13.6907854 C127.156682,12.8485087 127.828269,12.2823578 128.839329,12.2823578 C129.2524,12.2823578 129.648912,12.3759441 130.126383,12.6251988 L129.997585,13.2367529 C129.612113,13.1440932 129.345318,13.0977633 129.087724,13.0977633 C128.609333,13.0977633 128.398657,13.31922 128.398657,13.5795938 C128.398657,13.8566463 128.554134,13.9965625 129.206401,14.2374778 C130.107983,14.5423282 130.448376,14.9778288 130.448376,15.6440522 C130.448376,16.4872555 129.75839,17.1173416 128.572534,17.1173416" id="Fill-35"></path>
                <path d="M131.489352,17.0243112 L133.175421,17.0243112 L133.175421,12.3848395 L131.489352,12.3848395 L131.489352,17.0243112 Z M132.339581,11.7834779 C131.528593,11.7834779 131.332386,11.6342958 131.332386,11.1626579 C131.332386,10.6993593 131.541674,10.5418378 132.339581,10.5418378 C133.150568,10.5418378 133.332386,10.6808274 133.332386,11.1626579 C133.332386,11.6259565 133.137488,11.7834779 132.339581,11.7834779 L132.339581,11.7834779 Z" id="Fill-36"></path>
                <path d="M135.22354,17.1173416 C134.378077,17.1173416 134.056084,16.7930326 134.056084,15.9044259 L134.056084,13.2182209 L133.477415,13.2182209 L133.477415,12.3852101 L134.102083,12.3852101 C134.212481,11.9673148 134.295279,11.5512727 134.378077,11.0333049 L135.24194,11.0333049 L135.24194,12.3852101 L136.263119,12.3852101 L136.263119,13.2182209 L135.24194,13.2182209 L135.24194,15.6069883 C135.24194,16.0795528 135.353258,16.2278083 135.655932,16.2278083 C135.803129,16.2278083 135.996325,16.210203 136.290719,16.1268092 L136.382717,16.8115645 C135.950326,17.0330212 135.573133,17.1173416 135.22354,17.1173416" id="Fill-37"></path>
                <path d="M137.448976,18.6819008 C137.24658,18.6819008 136.989905,18.6179656 136.75071,18.4873154 L136.75071,17.8025601 C136.888707,17.8201655 137.100302,17.830358 137.20978,17.830358 C137.505094,17.830358 137.70657,17.7654962 137.872167,17.6255801 C138.065363,17.4597192 138.138962,17.3021977 138.138962,17.0798144 C138.138962,16.894495 138.083763,16.6165158 137.928286,16.1624832 L136.787509,12.3847468 L138.056163,12.3847468 L138.772829,14.9875581 C138.911746,15.4313981 138.994545,15.8576328 138.975225,16.1356119 C139.324818,15.0514933 139.646811,13.6254604 139.73881,12.3847468 L140.961465,12.3847468 C140.2264,17.2280699 138.71855,18.6819008 137.448976,18.6819008" id="Fill-38"></path>
                <path d="M145.700934,13.1630884 C145.158145,13.1630884 144.781872,13.5420666 144.781872,14.5983873 C144.781872,15.9039627 145.121345,16.2468036 145.710134,16.2468036 C146.243723,16.2468036 146.619995,15.8668988 146.619995,14.8105781 C146.619995,13.5050027 146.280522,13.1630884 145.700934,13.1630884 M145.608936,17.1261443 C144.302562,17.1261443 143.568416,16.4599209 143.568416,14.7929727 C143.568416,13.078768 144.422159,12.2828212 145.792932,12.2828212 C147.099306,12.2828212 147.833451,12.949971 147.833451,14.6159927 C147.833451,16.3200047 146.979708,17.1261443 145.608936,17.1261443" id="Fill-39"></path>
                <path d="M151.229839,11.3288894 C151.036643,11.2547616 150.853566,11.2176978 150.687049,11.2176978 C150.328257,11.2176978 150.19118,11.4030172 150.19118,11.792188 L150.19118,12.3852101 L151.018243,12.3852101 L151.018243,13.2182209 L150.19118,13.2182209 L150.19118,17.0237552 L149.014523,17.0237552 L149.014523,13.2182209 L148.425735,13.2182209 L148.425735,12.3852101 L149.014523,12.3852101 L149.014523,11.8292519 C149.014523,10.9128473 149.372396,10.3559624 150.301577,10.3559624 C150.760648,10.3559624 151.129561,10.4958786 151.404635,10.6441342 L151.229839,11.3288894 Z" id="Fill-40"></path>
                <path d="M102.784348,22.0679646 C102.527673,22.9565712 102.21488,24.104625 101.984884,25.0497541 L103.639931,25.0497541 C103.382336,24.0870197 103.087942,23.030699 102.784348,22.0679646 L102.784348,22.0679646 Z M104.108202,27.2170648 C104.034603,26.8649579 103.934325,26.3460635 103.841407,25.9856172 L101.791688,25.9856172 C101.70889,26.3367975 101.607692,26.7908301 101.535013,27.2170648 L100.348237,27.2170648 C100.808228,25.1340745 101.415416,22.9751032 102.067682,20.9662406 L103.69513,20.9662406 C104.411796,23.1048268 104.954584,25.1146159 105.450455,27.2170648 L104.108202,27.2170648 Z" id="Fill-41"></path>
                <path d="M108.277282,23.3917939 C108.057406,23.3917939 107.753812,23.5224441 107.458498,23.7809647 L107.458498,26.37451 C107.614895,26.4393718 107.808091,26.4662431 108.011407,26.4662431 C108.608475,26.4662431 109.031667,25.9760732 109.031667,24.8743493 C109.031667,23.9199542 108.746472,23.3917939 108.277282,23.3917939 M107.947008,27.3187124 C107.808091,27.3187124 107.605695,27.3103731 107.458498,27.2909145 L107.458498,28.8188732 L106.272642,28.8188732 L106.272642,22.577315 L107.238622,22.577315 L107.330621,23.0498796 C107.707813,22.7070386 108.148484,22.4753893 108.608475,22.4753893 C109.712453,22.4753893 110.245122,23.4761142 110.245122,24.7075618 C110.245122,26.5403709 109.270862,27.3187124 107.947008,27.3187124" id="Fill-42"></path>
                <path d="M113.327336,23.3917939 C113.107461,23.3917939 112.803867,23.5224441 112.508553,23.7809647 L112.508553,26.37451 C112.664949,26.4393718 112.858146,26.4662431 113.061461,26.4662431 C113.65853,26.4662431 114.081721,25.9760732 114.081721,24.8743493 C114.081721,23.9199542 113.796527,23.3917939 113.327336,23.3917939 M112.997063,27.3187124 C112.858146,27.3187124 112.65575,27.3103731 112.508553,27.2909145 L112.508553,28.8188732 L111.322696,28.8188732 L111.322696,22.577315 L112.288677,22.577315 L112.380675,23.0498796 C112.757868,22.7070386 113.198539,22.4753893 113.65853,22.4753893 C114.761588,22.4753893 115.295177,23.4761142 115.295177,24.7075618 C115.295177,26.5403709 114.320916,27.3187124 112.997063,27.3187124" id="Fill-43"></path>
                <path d="M117.283901,27.2909145 C116.686833,27.2909145 116.374039,27.1055951 116.374039,26.3550515 L116.374039,20.6509196 L117.559895,20.6509196 L117.559895,25.8824869 C117.559895,26.4023079 117.624294,26.4755091 117.863489,26.4755091 C117.937088,26.4755091 118.029086,26.4662431 118.093484,26.4662431 L118.139484,27.1704569 C117.918688,27.2445847 117.643614,27.2909145 117.283901,27.2909145" id="Fill-44"></path>
                <path d="M119.088001,27.2168794 L120.77407,27.2168794 L120.77407,22.5774077 L119.088001,22.5774077 L119.088001,27.2168794 Z M119.936922,21.9760462 C119.127242,21.9760462 118.931036,21.826864 118.931036,21.3552261 C118.931036,20.8919276 119.140322,20.734406 119.936922,20.734406 C120.747909,20.734406 120.931036,20.8733956 120.931036,21.3552261 C120.931036,21.8185247 120.736137,21.9760462 119.936922,21.9760462 L119.936922,21.9760462 Z" id="Fill-45"></path>
                <path d="M124.091304,24.3736162 C124.091304,23.6332651 123.841989,23.2718922 123.346119,23.2718922 C122.831849,23.2718922 122.555855,23.7259248 122.519055,24.3921481 L124.091304,24.3921481 L124.091304,24.3736162 Z M122.519055,25.1334258 L122.519055,25.1982876 C122.519055,26.050757 122.886128,26.4112033 123.548515,26.4112033 C123.961587,26.4112033 124.504376,26.3194701 125.037965,26.1424901 L125.212761,26.8272453 C124.651573,27.124683 123.990106,27.3192684 123.30932,27.3192684 C122.105064,27.3192684 121.3056,26.7169803 121.3056,25.0222342 C121.3056,23.3645519 122.105064,22.4750187 123.392118,22.4750187 C124.577974,22.4750187 125.359959,23.1421686 125.231161,25.1334258 L122.519055,25.1334258 Z" id="Fill-46"></path>
                <path d="M128.912191,23.4198698 C128.745674,23.364274 128.553398,23.3272101 128.351002,23.3272101 C127.753014,23.3272101 127.339943,23.8183065 127.339943,24.9200305 C127.339943,25.9022234 127.625137,26.4025859 128.093408,26.4025859 C128.314203,26.4025859 128.608597,26.2719357 128.912191,26.0134151 L128.912191,23.4198698 Z M129.132067,27.2170648 L129.040988,26.7445002 C128.654596,27.0780752 128.231405,27.3189904 127.743814,27.3189904 C126.669276,27.3189904 126.126487,26.3284581 126.126487,25.086818 C126.126487,23.2160184 127.128347,22.4747407 128.397002,22.4747407 C128.580998,22.4747407 128.792594,22.4941993 128.912191,22.5034653 L128.912191,20.6511976 L130.098047,20.6511976 L130.098047,27.2170648 L129.132067,27.2170648 Z" id="Fill-47"></path>
                <path d="M135.370921,27.3099098 C134.644136,27.3099098 134.028668,27.068068 133.504279,26.7168876 L133.798673,26.0590037 C134.294543,26.2628551 134.791333,26.3925786 135.140926,26.3925786 C135.774793,26.3925786 136.170385,26.1145995 136.170385,25.5873657 C136.170385,24.3642576 133.577878,24.6051728 133.577878,22.6417135 C133.577878,21.5677875 134.404941,20.8737663 135.564117,20.8737663 C136.143706,20.8737663 136.703975,21.0312878 137.228364,21.3833947 L136.93397,22.031086 C136.539298,21.8735645 136.133586,21.7809048 135.794113,21.7809048 C135.177725,21.7809048 134.892531,22.0774159 134.892531,22.4943846 C134.892531,23.7165662 137.549437,23.5117882 137.549437,25.4381836 C137.549437,26.4945043 136.777573,27.3099098 135.370921,27.3099098" id="Fill-48"></path>
                <path d="M140.154089,27.3099098 C138.940634,27.3099098 138.315046,26.5315682 138.315046,24.9572797 C138.315046,23.4941829 139.060231,22.474926 140.236888,22.474926 C140.825676,22.474926 141.293946,22.68897 141.61594,23.0586822 L141.201948,23.6693097 C140.990352,23.4756509 140.732757,23.3644593 140.419964,23.3644593 C139.887294,23.3644593 139.546901,23.8638951 139.546901,24.8368221 C139.546901,25.9672705 139.850495,26.4111106 140.383165,26.4111106 C140.751157,26.4111106 141.055671,26.290653 141.358345,26.0219398 L141.716218,26.6334939 C141.358345,27.0041327 140.852355,27.3099098 140.154089,27.3099098" id="Fill-49"></path>
                <path d="M142.647808,27.2168794 L144.333877,27.2168794 L144.333877,22.5774077 L142.647808,22.5774077 L142.647808,27.2168794 Z M143.498037,21.9760462 C142.687049,21.9760462 142.490842,21.826864 142.490842,21.3552261 C142.490842,20.8919276 142.700129,20.734406 143.498037,20.734406 C144.309024,20.734406 144.490842,20.8733956 144.490842,21.3552261 C144.490842,21.8185247 144.295944,21.9760462 143.498037,21.9760462 L143.498037,21.9760462 Z" id="Fill-50"></path>
                <path d="M147.651386,24.3736162 C147.651386,23.6332651 147.402992,23.2718922 146.907121,23.2718922 C146.391932,23.2718922 146.115937,23.7259248 146.079138,24.3921481 L147.651386,24.3921481 L147.651386,24.3736162 Z M146.079138,25.1334258 L146.079138,25.1982876 C146.079138,26.050757 146.447131,26.4112033 147.108598,26.4112033 C147.521669,26.4112033 148.064458,26.3194701 148.598047,26.1424901 L148.772844,26.8272453 C148.211655,27.124683 147.550189,27.3192684 146.869402,27.3192684 C145.665147,27.3192684 144.865682,26.7169803 144.865682,25.0222342 C144.865682,23.3645519 145.665147,22.4750187 146.9522,22.4750187 C148.138057,22.4750187 148.920041,23.1421686 148.791244,25.1334258 L146.079138,25.1334258 Z" id="Fill-51"></path>
                <path d="M153.767884,27.2167868 L152.591227,27.2167868 C152.591227,26.2818503 152.617907,25.3274552 152.617907,24.7816895 C152.617907,23.6799656 152.406311,23.4288578 151.98312,23.4288578 C151.735645,23.4288578 151.432051,23.5771133 151.128457,23.8087626 L151.128457,27.2167868 L149.9426,27.2167868 L149.9426,22.577315 L150.916861,22.577315 L150.999659,23.0674849 C151.395251,22.7070386 151.864442,22.4753893 152.398031,22.4753893 C153.325373,22.4753893 153.804683,23.0674849 153.804683,24.5769116 C153.804683,25.1514018 153.767884,26.1975299 153.767884,27.2167868" id="Fill-52"></path>
                <path d="M156.685881,27.3099098 C155.472425,27.3099098 154.846838,26.5315682 154.846838,24.9572797 C154.846838,23.4941829 155.592023,22.474926 156.76868,22.474926 C157.356547,22.474926 157.825738,22.68897 158.147732,23.0586822 L157.73374,23.6693097 C157.522144,23.4756509 157.264549,23.3644593 156.951756,23.3644593 C156.419086,23.3644593 156.078693,23.8638951 156.078693,24.8368221 C156.078693,25.9672705 156.382287,26.4111106 156.914956,26.4111106 C157.282949,26.4111106 157.586543,26.290653 157.890137,26.0219398 L158.24801,26.6334939 C157.890137,27.0041327 157.384147,27.3099098 156.685881,27.3099098" id="Fill-53"></path>
                <path d="M161.514956,24.3736162 C161.514956,23.6332651 161.265641,23.2718922 160.769771,23.2718922 C160.255501,23.2718922 159.979507,23.7259248 159.942708,24.3921481 L161.514956,24.3921481 L161.514956,24.3736162 Z M159.942708,25.1334258 L159.942708,25.1982876 C159.942708,26.050757 160.30978,26.4112033 160.972167,26.4112033 C161.385239,26.4112033 161.928028,26.3194701 162.461617,26.1424901 L162.636413,26.8272453 C162.075224,27.124683 161.413758,27.3192684 160.732971,27.3192684 C159.528716,27.3192684 158.729252,26.7169803 158.729252,25.0222342 C158.729252,23.3645519 159.528716,22.4750187 160.81577,22.4750187 C162.001626,22.4750187 162.78361,23.1421686 162.654813,25.1334258 L159.942708,25.1334258 Z" id="Fill-54"></path>
                <path d="M164.90104,27.3099098 C164.38677,27.3099098 163.91758,27.1792596 163.466789,26.930005 L163.567987,26.3091849 C164.091456,26.4296425 164.40425,26.4667064 164.690364,26.4667064 C165.296632,26.4667064 165.526627,26.2350571 165.526627,25.957078 C165.526627,25.6522276 165.37943,25.494706 164.707844,25.2537908 C163.825582,24.9387478 163.485188,24.558843 163.485188,23.8833537 C163.485188,23.0410769 164.156775,22.474926 165.167835,22.474926 C165.580906,22.474926 165.977418,22.5685124 166.455809,22.817767 L166.326091,23.4293211 C165.940619,23.3366614 165.673824,23.2903315 165.41623,23.2903315 C164.937839,23.2903315 164.727163,23.5117882 164.727163,23.772162 C164.727163,24.0501412 164.88356,24.1891307 165.535827,24.430046 C166.436489,24.7348964 166.776882,25.170397 166.776882,25.8366204 C166.776882,26.6798237 166.086896,27.3099098 164.90104,27.3099098" id="Fill-55"></path>
            </g>
        </g>
    </g>
</svg>