<?xml version="1.0" encoding="utf-8"?>
<!-- Generator: Adobe Illustrator 25.4.0, SVG Export Plug-In . SVG Version: 6.00 Build 0)  -->
<svg version="1.1" id="Layer_1" xmlns="http://www.w3.org/2000/svg" xmlns:xlink="http://www.w3.org/1999/xlink" x="0px" y="0px"
	 viewBox="0 0 365.7 388.1" style="enable-background:new 0 0 365.7 388.1;" xml:space="preserve">
<style type="text/css">
	
		.st0{fill-rule:evenodd;clip-rule:evenodd;fill:#FFFFFF;stroke:#000000;stroke-linecap:round;stroke-linejoin:round;stroke-miterlimit:10;}
	.st1{fill:none;stroke:#000000;stroke-linecap:round;stroke-linejoin:round;}
	.st2{fill:none;stroke:#000000;stroke-linecap:round;stroke-linejoin:round;stroke-miterlimit:10;}
	.st3{fill-rule:evenodd;clip-rule:evenodd;fill:#FFFFFF;stroke:#000000;stroke-miterlimit:10;}
	.st4{fill:none;stroke:#000000;}
	.st5{fill-rule:evenodd;clip-rule:evenodd;stroke:#000000;stroke-miterlimit:10;}
	.st6{filter:url(#Adobe_OpacityMaskFilter);}
	.st7{fill-rule:evenodd;clip-rule:evenodd;fill:#FFFFFF;}
	
		.st8{mask:url(#mask-2_00000182486959694221257030000002403760316438277521_);fill-rule:evenodd;clip-rule:evenodd;stroke:#000000;stroke-miterlimit:10;}
	.st9{filter:url(#Adobe_OpacityMaskFilter_00000052790314698221624470000017038000872794020505_);}
	.st10{mask:url(#mask-4_00000085934228100703052180000009643576804207516062_);fill:none;stroke:#000000;}
	.st11{fill:none;stroke:#000000;stroke-miterlimit:10;}
	.st12{fill:none;stroke:#7D9FD3;stroke-width:2;}
	.st13{fill:#7D9FD3;}
</style>
<g>
	<g>
		<path id="Fill-1" class="st0" d="M20.4,122l2.2,1.6l-0.9,1.5c0,0-0.5,0.9,0.2,1.8c0.7,0.8,1.7,0.4,1.7,0.4l0.8,11.4l-1.8,6
			l-0.7,2.9l-4.1,2.4l-3.1-0.3l-2.1-1.2l-0.6,0.5l-1.5-1.3c0,0,1.3-14.4,1.6-14.4c0.2,0,1-9.3,1-9.3L20.4,122z"/>
		<path id="Stroke-3" class="st1" d="M20.4,122l2.2,1.6l-0.9,1.5c0,0-0.5,0.9,0.2,1.8c0.7,0.8,1.7,0.4,1.7,0.4l0.8,11.4l-1.8,6
			l-0.7,2.9l-4.1,2.4l-3.1-0.3l-2.1-1.2l-0.6,0.5l-1.5-1.3c0,0,1.3-14.4,1.6-14.4c0.2,0,1-9.3,1-9.3L20.4,122z"/>
		<path id="Fill-5" class="st0" d="M35.4,102.7l-8.8-5.1c-0.5-0.3-1.3-0.4-1.8-0.1l-14.1,8.1c-1.1,0.6-1.8,1.7-1.8,3l-1.3,4.7
			c0,0.4,0.1,0.9,0.3,1.2l1.6,2.6l-0.1,0.4c-0.1,0.6,0,1.2,0.4,1.6l1.9,2.4c0,0,0.1,1.6,0.8,2l3.2,2.2c0,0,0.1,0.5,0.1,0.8l0.2,1.2
			c0.1,0.5,0.4,1,0.9,1.2l1.7,1c0.3,0.2,0.6-0.1,0.5-0.4l-0.3-0.8c-0.1-0.3-0.1-0.7-0.1-1l2-7.3c0.1-0.3,0.2-0.6,0.4-0.8l2.3-2.8
			c0.7-0.8,1.8-1,2.7-0.4l0,0c0.9,0.6,1.3,1.8,0.8,2.7l-1.1,2.2c-0.2,0.4-0.5,0.7-0.9,0.9l-2.4,1.3l-0.9,1.5
			c-0.5,0.9-0.1,1.9,0.9,2.2l0,0c0.4,0.1,0.7,0.1,1.1-0.1l3.8-1.7c0.3-0.1,0.5-0.4,0.7-0.6l3.5-4.7c1.3-1.7,1-3.1,1.4-5.2l0.4-2.1
			c0.5-2.6,1-4.5,2.6-6.6l0,0C37,105.3,36.7,103.6,35.4,102.7"/>
		<path id="Stroke-7" class="st1" d="M35.4,102.7l-8.8-5.1c-0.5-0.3-1.3-0.4-1.8-0.1l-14.1,8.1c-1.1,0.6-1.8,1.7-1.8,3l-1.3,4.7
			c0,0.4,0.1,0.9,0.3,1.2l1.6,2.6l-0.1,0.4c-0.1,0.6,0,1.2,0.4,1.6l1.9,2.4c0,0,0.1,1.6,0.8,2l3.2,2.2c0,0,0.1,0.5,0.1,0.8l0.2,1.2
			c0.1,0.5,0.4,1,0.9,1.2l1.7,1c0.3,0.2,0.6-0.1,0.5-0.4l-0.3-0.8c-0.1-0.3-0.1-0.7-0.1-1l2-7.3c0.1-0.3,0.2-0.6,0.4-0.8l2.3-2.8
			c0.7-0.8,1.8-1,2.7-0.4l0,0c0.9,0.6,1.3,1.8,0.8,2.7l-1.1,2.2c-0.2,0.4-0.5,0.7-0.9,0.9l-2.4,1.3l-0.9,1.5
			c-0.5,0.9-0.1,1.9,0.9,2.2l0,0c0.4,0.1,0.7,0.1,1.1-0.1l3.8-1.7c0.3-0.1,0.5-0.4,0.7-0.6l3.5-4.7c1.3-1.7,1-3.1,1.4-5.2l0.4-2.1
			c0.5-2.6,1-4.5,2.6-6.6l0,0C37,105.3,36.7,103.6,35.4,102.7z"/>
		<g id="Group-12" transform="translate(21.837085, 61.217319)">
			<line id="Fill-9" class="st2" x1="-2.1" y1="75.6" x2="-2.7" y2="68.4"/>
			<line id="Stroke-11" class="st1" x1="-2.1" y1="75.6" x2="-2.7" y2="68.4"/>
		</g>
		<g id="Group-16" transform="translate(9.510560, 74.757437)">
			<polyline id="Fill-13" class="st0" points="3.1,73.9 3.9,67.1 4.8,62.1 			"/>
			<polyline id="Stroke-15" class="st1" points="3.1,73.9 3.9,67.1 4.8,62.1 			"/>
		</g>
		<g id="Group-20" transform="translate(19.267812, 85.625060)">
			<line id="Fill-17" class="st2" x1="-1.5" y1="64.5" x2="-0.4" y2="56.9"/>
			<line id="Stroke-19" class="st1" x1="-1.5" y1="64.5" x2="-0.4" y2="56.9"/>
		</g>
	</g>
	<g>
		<g id="Group-7" transform="translate(4.398282, 20.953431)">
			<path id="Fill-1_00000100357683426336421620000010598281101934315663_" class="st3" d="M4.6,316.1L8.8,350
				c0,6.3,8,11.4,17.9,11.4s17.9-5.1,17.9-11.4l4.2-34.5L4.6,316.1z"/>
			<path id="Stroke-3_00000170969795709877911570000012245120431992397237_" class="st4" d="M4.6,316.1L8.8,350
				c0,6.3,8,11.4,17.9,11.4s17.9-5.1,17.9-11.4l4.2-34.5L4.6,316.1z"/>
			<path id="Fill-5_00000148645084986132588550000000627208940156701829_" class="st5" d="M48.6,315.5c0,7.8-9.9,14.1-22,14.1
				c-12.2,0-22-6.3-22-14.1s9.9-14.1,22-14.1C38.8,301.4,48.6,307.7,48.6,315.5"/>
		</g>
		<g id="Group-14" transform="translate(4.398186, 20.953672)">
			<g id="Group-10">
				<g id="Clip-9">
				</g>
				<defs>
					<filter id="Adobe_OpacityMaskFilter" filterUnits="userSpaceOnUse" x="4.1" y="311.8" width="45" height="29.1">
						<feColorMatrix  type="matrix" values="1 0 0 0 0  0 1 0 0 0  0 0 1 0 0  0 0 0 1 0"/>
					</filter>
				</defs>
				
					<mask maskUnits="userSpaceOnUse" x="4.1" y="311.8" width="45" height="29.1" id="mask-2_00000182486959694221257030000002403760316438277521_">
					<g class="st6">
						<path id="path-1_00000086676912039381161680000009596539036257031837_" class="st7" d="M4.6,315.5c0,7.8,9.9,14.1,22,14.1l0,0
							c12.2,0,22-6.3,22-14.1l0,0c0-7.8-9.9-14.1-22-14.1l0,0C14.5,301.4,4.6,307.7,4.6,315.5"/>
					</g>
				</mask>
				<path id="Fill-8" class="st8" d="M48.6,326.4c0,7.8-9.9,14.1-22,14.1c-12.2,0-22-6.3-22-14.1s9.9-14.1,22-14.1
					C38.8,312.3,48.6,318.6,48.6,326.4"/>
			</g>
			<g id="Group-13">
				<g id="Clip-12">
				</g>
				<defs>
					
						<filter id="Adobe_OpacityMaskFilter_00000095332307234046476750000006410802259057934484_" filterUnits="userSpaceOnUse" x="4.1" y="311.8" width="45" height="29.1">
						<feColorMatrix  type="matrix" values="1 0 0 0 0  0 1 0 0 0  0 0 1 0 0  0 0 0 1 0"/>
					</filter>
				</defs>
				
					<mask maskUnits="userSpaceOnUse" x="4.1" y="311.8" width="45" height="29.1" id="mask-4_00000085934228100703052180000009643576804207516062_">
					<g style="filter:url(#Adobe_OpacityMaskFilter_00000095332307234046476750000006410802259057934484_);">
						<path id="path-3_00000078767564019088153770000013416435732017132967_" class="st7" d="M4.6,315.5c0,7.8,9.9,14.1,22,14.1l0,0
							c12.2,0,22-6.3,22-14.1l0,0c0-7.8-9.9-14.1-22-14.1l0,0C14.5,301.4,4.6,307.7,4.6,315.5L4.6,315.5z"/>
					</g>
				</mask>
				<path id="Stroke-11_00000044146773472741651320000015731998183940425088_" class="st10" d="M48.6,326.4c0,7.8-9.9,14.1-22,14.1
					c-12.2,0-22-6.3-22-14.1s9.9-14.1,22-14.1C38.8,312.3,48.6,318.6,48.6,326.4z"/>
			</g>
		</g>
		<g id="Group-61">
			<path id="Stroke-15_00000096049639398252082100000006759588700321987983_" class="st4" d="M53,336.4c0,7.8-9.9,14.1-22,14.1
				c-12.2,0-22-6.3-22-14.1s9.9-14.1,22-14.1C43.2,322.4,53,328.7,53,336.4z"/>
			<path id="Fill-17_00000052095057930809928890000013072576912790179971_" class="st3" d="M53,322.8c0-0.1,0-0.3,0-0.5
				c0-0.2,0-0.3,0-0.5v-2.1h-0.3c-1.9-6.6-10.9-11.5-21.7-11.5c-10.8,0-19.8,5-21.7,11.5H9v2.5c0,7.8,9.9,14.1,22,14.1
				C42.9,336.4,52.6,330.4,53,322.8L53,322.8L53,322.8z"/>
			<path id="Stroke-19_00000147201240345198457350000016873340139233657220_" class="st4" d="M53,322.8c0-0.1,0-0.3,0-0.5
				c0-0.2,0-0.3,0-0.5v-2.1h-0.3c-1.9-6.6-10.9-11.5-21.7-11.5c-10.8,0-19.8,5-21.7,11.5H9v2.5c0,7.8,9.9,14.1,22,14.1
				C42.9,336.4,52.6,330.4,53,322.8L53,322.8L53,322.8z"/>
			<path id="Fill-21" class="st3" d="M53,320.5c0,7.8-9.9,14.1-22,14.1c-12.2,0-22-6.3-22-14.1s9.9-14.1,22-14.1
				C43.2,306.5,53,312.8,53,320.5"/>
			<path id="Stroke-23" class="st4" d="M53,320.5c0,7.8-9.9,14.1-22,14.1c-12.2,0-22-6.3-22-14.1s9.9-14.1,22-14.1
				C43.2,306.5,53,312.8,53,320.5z"/>
			<path id="Fill-25" class="st5" d="M9,345c0.4,0.6,1.1,1.5,1.5,2.1L12,349c0.4,0.6,1.3,0.8,2,0.6c0.6-0.2,1.7-0.4,2.4-0.5l0.4-0.1
				c0.7-0.1,1.8,0,2.5,0.3l0.6,0.2c0.7,0.3,1.3,1,1.5,1.7l0.2,0.6c0.2,0.7,0.8,1.5,1.5,1.8l3.3,1.6c0.6,0.3,1.7,0.3,2.4,0.1l3.9-1.5
				c0.7-0.3,1.6-0.9,2.1-1.4l1.5-1.5c0.5-0.5,0.4-1.2-0.2-1.6l-1-0.7c-0.6-0.4-1.6-0.8-2.3-0.9l-8-1.1c-0.7-0.1-1.8-0.4-2.5-0.7
				l-6-2.5c-0.7-0.3-1.6-0.9-2-1.5l-2.5-2.8c-0.5-0.5-1.2-1.4-1.6-2l-0.3-0.4c-0.4-0.6-1.2-0.8-1.9-0.6l-1,0.4
				c-0.6,0.3-1.2,1.1-1.2,1.8v0.5c0,0.7,0.3,1.8,0.7,2.3L9,345z"/>
			<path id="Stroke-27" class="st4" d="M9,345c0.4,0.6,1.1,1.5,1.5,2.1L12,349c0.4,0.6,1.3,0.8,2,0.6c0.6-0.2,1.7-0.4,2.4-0.5
				l0.4-0.1c0.7-0.1,1.8,0,2.5,0.3l0.6,0.2c0.7,0.3,1.3,1,1.5,1.7l0.2,0.6c0.2,0.7,0.8,1.5,1.5,1.8l3.3,1.6c0.6,0.3,1.7,0.3,2.4,0.1
				l3.9-1.5c0.7-0.3,1.6-0.9,2.1-1.4l1.5-1.5c0.5-0.5,0.4-1.2-0.2-1.6l-1-0.7c-0.6-0.4-1.6-0.8-2.3-0.9l-8-1.1
				c-0.7-0.1-1.8-0.4-2.5-0.7l-6-2.5c-0.7-0.3-1.6-0.9-2-1.5l-2.5-2.8c-0.5-0.5-1.2-1.4-1.6-2l-0.3-0.4c-0.4-0.6-1.2-0.8-1.9-0.6
				l-1,0.4c-0.6,0.3-1.2,1.1-1.2,1.8v0.5c0,0.7,0.3,1.8,0.7,2.3L9,345z"/>
			<path id="Fill-29" class="st3" d="M24.9,314.7c-3.4,2-3.4,5.2,0,7.1c3.4,2,8.9,2,12.3,0c3.4-2,3.4-5.2,0-7.1
				C33.8,312.7,28.3,312.7,24.9,314.7"/>
			<path id="Stroke-31" class="st4" d="M24.9,314.7c-3.4,2-3.4,5.2,0,7.1c3.4,2,8.9,2,12.3,0c3.4-2,3.4-5.2,0-7.1
				C33.8,312.7,28.3,312.7,24.9,314.7z"/>
			<path id="Fill-33" class="st3" d="M32.9,317.1h-1.8c-0.1,0-0.2,0-0.3,0H29v1.1c0,0.3,0.2,0.6,0.6,0.8c0.8,0.4,2,0.4,2.8,0
				c0.4-0.2,0.6-0.5,0.6-0.8h0V317.1z"/>
			<path id="Stroke-35" class="st4" d="M32.9,317.1h-1.8c-0.1,0-0.2,0-0.3,0H29v1.1c0,0.3,0.2,0.6,0.6,0.8c0.8,0.4,2,0.4,2.8,0
				c0.4-0.2,0.6-0.5,0.6-0.8h0V317.1z"/>
			<path id="Fill-37" class="st3" d="M29.5,316.3c-0.8,0.4-0.8,1.2,0,1.6s2,0.4,2.8,0c0.8-0.4,0.8-1.2,0-1.6
				C31.5,315.9,30.3,315.9,29.5,316.3"/>
			<path id="Stroke-39" class="st4" d="M29.5,316.3c-0.8,0.4-0.8,1.2,0,1.6s2,0.4,2.8,0c0.8-0.4,0.8-1.2,0-1.6
				C31.5,315.9,30.3,315.9,29.5,316.3z"/>
			<g id="Group-44" transform="translate(16.330258, 57.696589)">
				<line id="Fill-41" class="st11" x1="3.5" y1="318.4" x2="1.7" y2="292.5"/>
				<line id="Stroke-43" class="st4" x1="3.5" y1="318.4" x2="1.7" y2="292.5"/>
			</g>
			<g id="Group-48" transform="translate(53.765372, 54.195402)">
				<line id="Fill-45" class="st11" x1="-4.9" y1="293.4" x2="-7.3" y2="318.3"/>
				<line id="Stroke-47" class="st4" x1="-4.9" y1="293.4" x2="-7.3" y2="318.3"/>
			</g>
			<g id="Group-52" transform="translate(13.073760, 67.444158)">
				<line id="Fill-49" class="st11" x1="3.9" y1="305.6" x2="2.5" y2="290.2"/>
				<line id="Stroke-51" class="st4" x1="3.9" y1="305.6" x2="2.5" y2="290.2"/>
			</g>
			<g id="Group-56" transform="translate(50.075338, 56.203291)">
				<line id="Fill-53" class="st11" x1="-5" y1="292.9" x2="-6.4" y2="307.8"/>
				<line id="Stroke-55" class="st4" x1="-5" y1="292.9" x2="-6.4" y2="307.8"/>
			</g>
			<g id="Group-60" transform="translate(43.517886, 68.498070)">
				<line id="Fill-57" class="st11" x1="-3.1" y1="289.9" x2="-4.8" y2="308.3"/>
				<line id="Stroke-59" class="st4" x1="-3.1" y1="289.9" x2="-4.8" y2="308.3"/>
			</g>
		</g>
	</g>
	<g>
		<g>
			<path id="Fill-1_00000041283268519266251390000017796300406285862040_" class="st3" d="M35.7,225.6c0-3-2.2-6.7-4.8-8.3
				l-18.5-10.6c-2.6-1.5-4.8-0.3-4.8,2.8v21.4c0,3,0.3,5.7,0.7,5.9c0.4,0.2,1.2,2.1,1.9,4.2c0.7,2.1,1.3,2.4,1.3,0.8
				c0-1.7,2.2-1.8,4.8-0.3l14.6,8.4c2.6,1.5,4.8,0.3,4.8-2.8V225.6z"/>
			<path id="Stroke-3_00000146494790784228444350000005607824203950537138_" class="st4" d="M35.7,225.6c0-3-2.2-6.7-4.8-8.3
				l-18.5-10.6c-2.6-1.5-4.8-0.3-4.8,2.8v21.4c0,3,0.3,5.7,0.7,5.9c0.4,0.2,1.2,2.1,1.9,4.2c0.7,2.1,1.3,2.4,1.3,0.8
				c0-1.7,2.2-1.8,4.8-0.3l14.6,8.4c2.6,1.5,4.8,0.3,4.8-2.8V225.6z"/>
		</g>
		<g>
			<path id="Fill-1_00000039125536747030343540000000373229806718050706_" class="st3" d="M53.4,210.8c0-3-2.2-6.7-4.8-8.3L30,192
				c-2.6-1.5-4.8-0.3-4.8,2.8v21.4c0,3,0.3,5.7,0.7,5.9c0.4,0.2,1.2,2.1,1.9,4.2c0.7,2.1,1.3,2.4,1.3,0.8c0-1.7,2.2-1.8,4.8-0.3
				l14.6,8.4c2.6,1.5,4.8,0.3,4.8-2.8V210.8z"/>
			<path id="Stroke-3_00000086678401833416522420000008540204259590164893_" class="st4" d="M53.4,210.8c0-3-2.2-6.7-4.8-8.3L30,192
				c-2.6-1.5-4.8-0.3-4.8,2.8v21.4c0,3,0.3,5.7,0.7,5.9c0.4,0.2,1.2,2.1,1.9,4.2c0.7,2.1,1.3,2.4,1.3,0.8c0-1.7,2.2-1.8,4.8-0.3
				l14.6,8.4c2.6,1.5,4.8,0.3,4.8-2.8V210.8z"/>
		</g>
	</g>
	<g>
		<path id="Fill-1_00000181767092710390425880000016866566697202555547_" class="st7" d="M35,31.2c-3.1,1.8-5.7,6.2-5.7,9.8
			s2.5,5.1,5.7,3.3c3.1-1.8,5.7-6.2,5.7-9.8C40.7,30.9,38.1,29.5,35,31.2"/>
		<path id="Stroke-3_00000052089040514161965580000011566863864067281596_" class="st1" d="M35,31.2c-3.1,1.8-5.7,6.2-5.7,9.8
			s2.5,5.1,5.7,3.3c3.1-1.8,5.7-6.2,5.7-9.8C40.7,30.9,38.1,29.5,35,31.2z"/>
		<path id="Fill-5_00000027567940856918669580000006080490304674180481_" class="st7" d="M48.9,23.2c-3.1,1.8-5.7,6.2-5.7,9.8
			c0,3.6,2.5,5.1,5.7,3.3c3.1-1.8,5.7-6.2,5.7-9.8C54.5,22.9,52,21.4,48.9,23.2"/>
		<path id="Stroke-7_00000121985229786570422820000004989556373372361914_" class="st1" d="M48.9,23.2c-3.1,1.8-5.7,6.2-5.7,9.8
			c0,3.6,2.5,5.1,5.7,3.3c3.1-1.8,5.7-6.2,5.7-9.8C54.5,22.9,52,21.4,48.9,23.2z"/>
		<path id="Stroke-9" class="st1" d="M39.9,31.7c0,0,0.9-1.3,1.9-1.7c0.9-0.4,1.9,0.2,1.9,0.2"/>
		<path id="Stroke-11_00000046338345528650749980000003091917697753324700_" class="st1" d="M9.7,34.2l-1.3-0.8
			c-0.4-0.2-0.7-0.8-0.7-1.2v-1.3c0-0.4,0.3-0.6,0.7-0.4l19.3,10.4c0.4,0.2,0.9,0.3,1.2,0.1c0.3-0.2,0.5-0.3,0.5-0.3"/>
		<path id="Stroke-13" class="st1" d="M37.6,18.1l-1.3-0.8c-0.4-0.2-0.7-0.8-0.7-1.2v-1.3c0-0.4,0.3-0.6,0.7-0.4l19.3,10.4
			c0.4,0.2,0.4,0.6,0,0.8l-1,0.6"/>
	</g>
	<g>
		<path d="M84,15.6h6v1.1h-4.7v2.8h3.9v1.1h-3.9v3h4.7v1.1h-6V15.6z"/>
		<path d="M93.8,20.9l-2.4-3.3h1.4l1.7,2.4l1.7-2.4h1.3l-2.4,3.3l2.7,3.7h-1.4l-2-2.8l-2,2.8h-1.3L93.8,20.9z"/>
		<path d="M99.6,17.6h1v0.9c0.4-0.5,1.1-1,2.2-1c1.5,0,2.9,1,2.9,3.6c0,2.7-1.4,3.7-2.9,3.7c-1,0-1.7-0.5-2-0.9v3.9h-1.2V17.6z
			 M100.8,23c0.4,0.4,1,0.7,1.7,0.7c1.3,0,2-1,2-2.6c0-1.6-0.7-2.6-2-2.6c-0.7,0-1.3,0.3-1.7,0.7V23z"/>
		<path d="M107.9,14h1.2v10.6h-1.2V14z"/>
		<path d="M111.4,21.1c0-2.8,1.7-3.6,3.2-3.6c1.5,0,3.2,0.8,3.2,3.6c0,2.8-1.7,3.6-3.2,3.6C113.1,24.7,111.4,23.9,111.4,21.1z
			 M116.6,21.1c0-1.7-0.7-2.6-2-2.6s-2,0.9-2,2.6c0,1.7,0.7,2.6,2,2.6S116.6,22.8,116.6,21.1z"/>
		<path d="M120.1,17.6h1v0.9c0.3-0.6,0.8-1.1,1.9-1.1c0.5,0,0.7,0.1,0.8,0.1v1.1c-0.2-0.1-0.6-0.2-1-0.2c-0.9,0-1.3,0.4-1.5,0.7v5.4
			h-1.2V17.6z"/>
		<path d="M131.1,22.3c-0.2,1.9-1.8,2.4-3,2.4c-1.6,0-3.1-1-3.1-3.6c0-2.7,1.6-3.6,3.1-3.6c1.4,0,3.1,0.8,3.1,3.6v0.2h-5
			c0,1.6,0.7,2.5,2,2.5c1,0,1.6-0.5,1.8-1.4H131.1z M129.9,20.5c-0.1-1.3-0.8-2.1-1.8-2.1c-1.2,0-1.8,0.7-1.9,2.1H129.9z"/>
		<path d="M136.9,18.6h-1.1v-1h0.6c0.5,0,0.7-0.2,0.7-0.7v-1.5h1v2.2h2.1v1h-2.1v3.9c0,0.8,0.2,1.2,1,1.2c0.4,0,0.8-0.1,1-0.2v1
			c-0.2,0.1-0.6,0.2-1.2,0.2c-1.5,0-2-0.9-2-2.1V18.6z"/>
		<path d="M142.1,14h1.2v4.4c0.3-0.4,0.9-0.9,2.1-0.9c1.2,0,2.4,0.5,2.4,2.8v4.3h-1.2v-4c0-1.3-0.3-2-1.5-2c-0.9,0-1.4,0.4-1.7,0.7
			v5.4h-1.2V14z"/>
		<path d="M156.1,22.3c-0.2,1.9-1.8,2.4-3,2.4c-1.6,0-3.1-1-3.1-3.6c0-2.7,1.6-3.6,3.1-3.6c1.4,0,3.1,0.8,3.1,3.6v0.2h-5
			c0,1.6,0.7,2.5,2,2.5c1,0,1.6-0.5,1.8-1.4H156.1z M154.9,20.5c-0.1-1.3-0.8-2.1-1.8-2.1c-1.2,0-1.8,0.7-1.9,2.1H154.9z"/>
		<path d="M161.7,14h1.2v6.9l3.2-3.3h1.4l-2.6,2.6l2.7,4.3h-1.4l-2.1-3.6l-1.2,1.2v2.4h-1.2V14z"/>
		<path d="M169.4,14h1.5v1.4h-1.5V14z M169.6,17.6h1.2v7h-1.2V17.6z"/>
		<path d="M173.7,18.6h-1.1v-1h0.6c0.5,0,0.7-0.2,0.7-0.7v-1.5h1v2.2h2.1v1h-2.1v3.9c0,0.8,0.2,1.2,1,1.2c0.4,0,0.8-0.1,1-0.2v1
			c-0.2,0.1-0.6,0.2-1.2,0.2c-1.5,0-2-0.9-2-2.1V18.6z"/>
		<path d="M184.5,22.2c-0.1,1.7-1.2,2.5-2.8,2.5c-1.4,0-3.2-0.7-3.2-3.6c0-2.9,1.8-3.6,3.2-3.6c1.6,0,2.7,0.9,2.8,2.5h-1.2
			c0-0.8-0.5-1.5-1.6-1.5c-1.3,0-2,0.9-2,2.6c0,1.7,0.7,2.6,2,2.6c1.1,0,1.6-0.7,1.6-1.5H184.5z"/>
		<path d="M186.7,14h1.2v4.4c0.3-0.4,0.9-0.9,2.1-0.9c1.2,0,2.4,0.5,2.4,2.8v4.3h-1.2v-4c0-1.3-0.3-2-1.5-2c-0.9,0-1.4,0.4-1.7,0.7
			v5.4h-1.2V14z"/>
		<path d="M200.7,22.3c-0.2,1.9-1.8,2.4-3,2.4c-1.6,0-3.1-1-3.1-3.6c0-2.7,1.6-3.6,3.1-3.6c1.4,0,3.1,0.8,3.1,3.6v0.2h-5
			c0,1.6,0.7,2.5,2,2.5c1,0,1.6-0.5,1.8-1.4H200.7z M199.5,20.5c-0.1-1.3-0.8-2.1-1.8-2.1c-1.2,0-1.8,0.7-1.9,2.1H199.5z"/>
		<path d="M203,17.6h1v0.9c0.4-0.6,1.1-1.1,2.3-1.1c1.2,0,2.4,0.5,2.4,2.8v4.3h-1.2v-4c0-1.3-0.3-2-1.5-2c-0.9,0-1.4,0.4-1.7,0.7
			v5.4H203V17.6z"/>
		<path d="M214.8,14h1.2v4.4c0.3-0.4,0.9-0.9,2-0.9c1.5,0,2.9,1,2.9,3.6c0,2.7-1.4,3.7-2.9,3.7c-1.1,0-1.8-0.6-2.2-1v0.9h-1V14z
			 M216,23c0.4,0.4,1,0.7,1.7,0.7c1.3,0,2-1,2-2.6c0-1.6-0.7-2.6-2-2.6c-0.7,0-1.3,0.3-1.7,0.7V23z"/>
		<path d="M222.4,26.7c0.2,0.1,0.5,0.1,0.8,0.1c0.6,0,0.9-0.3,1.3-1.2l0.4-1l-2.6-7.1h1.3l1.9,5.7l1.9-5.7h1.2l-3,8.1
			c-0.5,1.2-1,2.2-2.4,2.2c-0.4,0-0.7-0.1-0.8-0.1V26.7z"/>
		<path d="M234.4,22.3c0,0.9,0.8,1.5,1.9,1.5c0.9,0,1.5-0.4,1.5-1.1c0-0.8-0.9-1-2.1-1.3c-1-0.3-2.1-0.7-2.1-2
			c0-1.4,1.3-1.9,2.5-1.9c1.5,0,2.6,0.7,2.7,2.2h-1.2c0-0.7-0.6-1.3-1.5-1.3c-0.8,0-1.3,0.3-1.3,0.9c0,0.8,0.9,0.9,2.2,1.3
			c1,0.3,2.1,0.7,2.1,2c0,1.6-1.4,2.1-2.7,2.1c-1.7,0-2.9-0.8-3-2.4H234.4z"/>
		<path d="M246.9,22.2c-0.1,1.7-1.2,2.5-2.8,2.5c-1.4,0-3.2-0.7-3.2-3.6c0-2.9,1.8-3.6,3.2-3.6c1.6,0,2.7,0.9,2.8,2.5h-1.2
			c0-0.8-0.5-1.5-1.6-1.5c-1.3,0-2,0.9-2,2.6c0,1.7,0.7,2.6,2,2.6c1.1,0,1.6-0.7,1.6-1.5H246.9z"/>
		<path d="M249.1,17.6h1v0.9c0.3-0.6,0.8-1.1,1.9-1.1c0.5,0,0.7,0.1,0.8,0.1v1.1c-0.2-0.1-0.6-0.2-1-0.2c-0.9,0-1.3,0.4-1.5,0.7v5.4
			h-1.2V17.6z"/>
		<path d="M253.9,21.1c0-2.8,1.7-3.6,3.2-3.6s3.2,0.8,3.2,3.6c0,2.8-1.7,3.6-3.2,3.6S253.9,23.9,253.9,21.1z M259.1,21.1
			c0-1.7-0.7-2.6-2-2.6s-2,0.9-2,2.6c0,1.7,0.7,2.6,2,2.6S259.1,22.8,259.1,21.1z"/>
		<path d="M262.6,14h1.2v10.6h-1.2V14z"/>
		<path d="M266.5,14h1.2v10.6h-1.2V14z"/>
		<path d="M270.3,14h1.5v1.4h-1.5V14z M270.4,17.6h1.2v7h-1.2V17.6z"/>
		<path d="M274.3,17.6h1v0.9c0.4-0.6,1.1-1.1,2.3-1.1c1.2,0,2.4,0.5,2.4,2.8v4.3h-1.2v-4c0-1.3-0.3-2-1.5-2c-0.9,0-1.4,0.4-1.7,0.7
			v5.4h-1.2V17.6z"/>
		<path d="M285,17.4c0.8,0,1.8,0.3,2.4,1c0.3-0.6,0.9-1,1.9-1v1.2c-0.7,0-1.2,0.1-1.5,0.5c0.1,0.3,0.2,0.5,0.2,0.9
			c0,1.8-1.6,2.5-2.8,2.5c-0.4,0-0.8-0.1-1.2-0.2c-0.3,0.1-0.6,0.4-0.6,0.7c0,0.4,0.4,0.6,1.1,0.6h1.8c1.3,0,2.5,0.5,2.5,1.9
			c0,1.5-1.3,2.4-3.5,2.4c-2.1,0-3.2-0.8-3.2-2c0-0.8,0.5-1.3,1.2-1.6c-0.4-0.2-0.8-0.5-0.8-1.1s0.4-1,0.9-1.3c-0.6-0.4-1-1-1-2
			C282.2,18.1,283.8,17.4,285,17.4z M284,24.6c-0.4,0.1-0.9,0.5-0.9,1.1s0.5,1.2,2.1,1.2c1.5,0,2.3-0.5,2.3-1.4c0-0.6-0.5-1-1.5-1
			H284z M285,18.4c-1,0-1.7,0.6-1.7,1.6s0.6,1.6,1.7,1.6s1.7-0.6,1.7-1.6S286.1,18.4,285,18.4z"/>
		<path d="M87.8,42.8c-0.4,0.5-1.2,1.1-2.4,1.1c-1.6,0-2.2-0.9-2.2-1.9c0-1.7,1.6-2.1,2.7-2.2l1.7-0.1v-0.2c0-1.2-0.2-1.9-1.4-1.9
			c-1.1,0-1.5,0.5-1.5,1.5h-1.2c0-2.1,1.6-2.5,2.8-2.5c1.9,0,2.5,1,2.5,2.7v3.2c0,0.3,0.1,0.4,0.4,0.4c0.2,0,0.4-0.1,0.6-0.2v0.9
			c-0.2,0.1-0.6,0.2-1,0.2c-0.9,0-1-0.5-1-0.9V42.8z M87.6,40.5l-1.5,0.2c-1.1,0.1-1.7,0.5-1.7,1.3c0,0.6,0.4,1,1.3,1
			c0.8,0,1.4-0.3,1.9-0.7V40.5z"/>
		<path d="M91.6,36.8h1v0.9c0.4-0.6,1.1-1.1,2.3-1.1c1.2,0,2.4,0.5,2.4,2.8v4.3H96v-4c0-1.3-0.3-2-1.5-2c-0.9,0-1.4,0.4-1.7,0.7v5.4
			h-1.2V36.8z"/>
		<path d="M104.5,42.9c-0.4,0.5-1.1,1-2.2,1c-1.5,0-2.9-1-2.9-3.6c0-2.7,1.4-3.7,2.9-3.7c1,0,1.7,0.5,2,0.9v-4.4h1.2v10.6h-1V42.9z
			 M104.3,38.4c-0.4-0.4-1-0.7-1.7-0.7c-1.3,0-2,0.9-2,2.6c0,1.6,0.7,2.6,2,2.6c0.7,0,1.3-0.3,1.7-0.7V38.4z"/>
		<path d="M111.7,36.8h1v0.9c0.4-0.5,1.1-1,2.2-1c1.5,0,2.9,1,2.9,3.6c0,2.7-1.4,3.7-2.9,3.7c-1,0-1.7-0.5-2-0.9v3.9h-1.2V36.8z
			 M112.9,42.2c0.4,0.4,1,0.7,1.7,0.7c1.3,0,2-1,2-2.6c0-1.6-0.7-2.6-2-2.6c-0.7,0-1.3,0.3-1.7,0.7V42.2z"/>
		<path d="M124.1,42.8c-0.4,0.5-1.2,1.1-2.4,1.1c-1.6,0-2.2-0.9-2.2-1.9c0-1.7,1.6-2.1,2.7-2.2l1.7-0.1v-0.2c0-1.2-0.2-1.9-1.4-1.9
			c-1.1,0-1.5,0.5-1.5,1.5h-1.2c0-2.1,1.6-2.5,2.8-2.5c1.9,0,2.5,1,2.5,2.7v3.2c0,0.3,0.1,0.4,0.4,0.4c0.2,0,0.4-0.1,0.6-0.2v0.9
			c-0.2,0.1-0.6,0.2-1,0.2c-0.9,0-1-0.5-1-0.9V42.8z M123.9,40.5l-1.5,0.2c-1.1,0.1-1.7,0.5-1.7,1.3c0,0.6,0.4,1,1.3,1
			c0.8,0,1.4-0.3,1.9-0.7V40.5z"/>
		<path d="M127.9,36.8h1v0.9c0.4-0.6,1.1-1.1,2.3-1.1c1.2,0,2.4,0.5,2.4,2.8v4.3h-1.2v-4c0-1.3-0.3-2-1.5-2c-0.9,0-1.4,0.4-1.7,0.7
			v5.4h-1.2V36.8z"/>
		<path d="M136.2,36.8h1v0.9c0.4-0.6,1.1-1.1,2.3-1.1c1.2,0,2.4,0.5,2.4,2.8v4.3h-1.2v-4c0-1.3-0.3-2-1.5-2c-0.9,0-1.4,0.4-1.7,0.7
			v5.4h-1.2V36.8z"/>
		<path d="M144.4,33.2h1.5v1.4h-1.5V33.2z M144.5,36.8h1.2v7h-1.2V36.8z"/>
		<path d="M148.4,36.8h1v0.9c0.4-0.6,1.1-1.1,2.3-1.1c1.2,0,2.4,0.5,2.4,2.8v4.3h-1.2v-4c0-1.3-0.3-2-1.5-2c-0.9,0-1.4,0.4-1.7,0.7
			v5.4h-1.2V36.8z"/>
		<path d="M159.1,36.6c0.8,0,1.8,0.3,2.4,1c0.3-0.6,0.9-1,1.9-1v1.2c-0.7,0-1.2,0.1-1.5,0.5c0.1,0.3,0.2,0.5,0.2,0.9
			c0,1.8-1.6,2.5-2.8,2.5c-0.4,0-0.8-0.1-1.2-0.2c-0.3,0.1-0.6,0.4-0.6,0.7c0,0.4,0.4,0.6,1.1,0.6h1.8c1.3,0,2.5,0.5,2.5,1.9
			c0,1.5-1.3,2.4-3.5,2.4c-2.1,0-3.2-0.8-3.2-2c0-0.8,0.5-1.3,1.2-1.6c-0.4-0.2-0.8-0.5-0.8-1.1s0.4-1,0.9-1.3c-0.6-0.4-1-1-1-2
			C156.3,37.3,157.9,36.6,159.1,36.6z M158,43.8c-0.4,0.1-0.9,0.5-0.9,1.1s0.5,1.2,2.1,1.2c1.5,0,2.3-0.5,2.3-1.4c0-0.6-0.5-1-1.5-1
			H158z M159.1,37.6c-1,0-1.7,0.6-1.7,1.6s0.6,1.6,1.7,1.6s1.7-0.6,1.7-1.6S160.2,37.6,159.1,37.6z"/>
	</g>
	<g>
		<path d="M84,109v-8.9h5.6v1.1h-4.4v2.8H89v1.1h-3.8v4H84z"/>
		<path d="M91.6,98.4h1.5v1.4h-1.5V98.4z M91.8,102H93v7h-1.2V102z"/>
		<path d="M95.7,102h1v0.9c0.4-0.6,1.1-1.1,2.3-1.1c1.2,0,2.4,0.5,2.4,2.8v4.3h-1.2v-4c0-1.3-0.3-2-1.5-2c-0.9,0-1.4,0.4-1.7,0.7
			v5.4h-1.2V102z"/>
		<path d="M108.6,108.1c-0.4,0.5-1.1,1-2.2,1c-1.5,0-2.9-1-2.9-3.6c0-2.7,1.4-3.7,2.9-3.7c1,0,1.7,0.5,2,0.9v-4.4h1.2V109h-1V108.1z
			 M108.4,103.6c-0.4-0.4-1-0.7-1.7-0.7c-1.3,0-2,0.9-2,2.6c0,1.6,0.7,2.6,2,2.6c0.7,0,1.3-0.3,1.7-0.7V103.6z"/>
		<path d="M116,103h-1.1v-1h0.6c0.5,0,0.7-0.2,0.7-0.7v-1.5h1v2.2h2.1v1h-2.1v3.9c0,0.8,0.2,1.2,1,1.2c0.4,0,0.8-0.1,1-0.2v1
			c-0.2,0.1-0.6,0.2-1.2,0.2c-1.5,0-2-0.9-2-2.1V103z"/>
		<path d="M121.2,98.4h1.2v4.4c0.3-0.4,0.9-0.9,2.1-0.9c1.2,0,2.4,0.5,2.4,2.8v4.3h-1.2v-4c0-1.3-0.3-2-1.5-2
			c-0.9,0-1.4,0.4-1.7,0.7v5.4h-1.2V98.4z"/>
		<path d="M135.2,106.7c-0.2,1.9-1.8,2.4-3,2.4c-1.6,0-3.1-1-3.1-3.6c0-2.7,1.6-3.6,3.1-3.6c1.4,0,3.1,0.8,3.1,3.6v0.2h-5
			c0,1.6,0.7,2.5,2,2.5c1,0,1.6-0.5,1.8-1.4H135.2z M134,104.9c-0.1-1.3-0.8-2.1-1.8-2.1c-1.2,0-1.8,0.7-1.9,2.1H134z"/>
		<path d="M140.1,105.5c0-2.8,1.7-3.6,3.2-3.6c1.5,0,3.2,0.8,3.2,3.6c0,2.8-1.7,3.6-3.2,3.6C141.8,109.2,140.1,108.4,140.1,105.5z
			 M145.3,105.5c0-1.7-0.7-2.6-2-2.6s-2,0.9-2,2.6c0,1.7,0.7,2.6,2,2.6S145.3,107.2,145.3,105.5z"/>
		<path d="M148.8,98.4h1.2v4.4c0.3-0.4,0.9-0.9,2-0.9c1.5,0,2.9,1,2.9,3.6c0,2.7-1.4,3.7-2.9,3.7c-1.1,0-1.8-0.6-2.2-1v0.9h-1V98.4z
			 M150,107.4c0.4,0.4,1,0.7,1.7,0.7c1.3,0,2-1,2-2.6c0-1.6-0.7-2.6-2-2.6c-0.7,0-1.3,0.3-1.7,0.7V107.4z"/>
		<path d="M155.7,111.2c0.1,0,0.4,0.1,0.6,0.1c0.7,0,0.9-0.4,0.9-1.2v-8h1.2v8.1c0,1.2-0.6,2.1-2,2.1c-0.4,0-0.6-0.1-0.8-0.1V111.2z
			 M157.1,98.4h1.5v1.4h-1.5V98.4z"/>
		<path d="M166.8,106.7c-0.2,1.9-1.8,2.4-3,2.4c-1.6,0-3.1-1-3.1-3.6c0-2.7,1.6-3.6,3.1-3.6c1.4,0,3.1,0.8,3.1,3.6v0.2h-5
			c0,1.6,0.7,2.5,2,2.5c1,0,1.6-0.5,1.8-1.4H166.8z M165.6,104.9c-0.1-1.3-0.8-2.1-1.8-2.1c-1.2,0-1.8,0.7-1.9,2.1H165.6z"/>
		<path d="M174.7,106.6c-0.1,1.7-1.2,2.5-2.8,2.5c-1.4,0-3.2-0.7-3.2-3.6c0-2.9,1.8-3.6,3.2-3.6c1.6,0,2.7,0.9,2.8,2.5h-1.2
			c0-0.8-0.5-1.5-1.6-1.5c-1.3,0-2,0.9-2,2.6c0,1.7,0.7,2.6,2,2.6c1.1,0,1.6-0.7,1.6-1.5H174.7z"/>
		<path d="M177.1,103H176v-1h0.6c0.5,0,0.7-0.2,0.7-0.7v-1.5h1v2.2h2.1v1h-2.1v3.9c0,0.8,0.2,1.2,1,1.2c0.4,0,0.8-0.1,1-0.2v1
			c-0.2,0.1-0.6,0.2-1.2,0.2c-1.5,0-2-0.9-2-2.1V103z"/>
		<path d="M183,106.8c0,0.9,0.8,1.5,1.9,1.5c0.9,0,1.5-0.4,1.5-1.1c0-0.8-0.9-1-2.1-1.3c-1-0.3-2.1-0.7-2.1-2c0-1.4,1.3-1.9,2.5-1.9
			c1.5,0,2.6,0.7,2.7,2.2h-1.2c0-0.7-0.6-1.3-1.5-1.3c-0.8,0-1.3,0.3-1.3,0.9c0,0.8,0.9,0.9,2.2,1.3c1,0.3,2.1,0.7,2.1,2
			c0,1.6-1.4,2.1-2.7,2.1c-1.7,0-2.9-0.8-3-2.4H183z"/>
		<path d="M193.2,98.4h1.2v4.4c0.3-0.4,0.9-0.9,2.1-0.9c1.2,0,2.4,0.5,2.4,2.8v4.3h-1.2v-4c0-1.3-0.3-2-1.5-2
			c-0.9,0-1.4,0.4-1.7,0.7v5.4h-1.2V98.4z"/>
		<path d="M205.5,108.1c-0.4,0.5-1.2,1.1-2.4,1.1c-1.6,0-2.2-0.9-2.2-1.9c0-1.7,1.6-2.1,2.7-2.2l1.7-0.1v-0.2c0-1.2-0.2-1.9-1.4-1.9
			c-1.1,0-1.5,0.5-1.5,1.5h-1.2c0-2.1,1.6-2.5,2.8-2.5c1.9,0,2.5,1,2.5,2.7v3.2c0,0.3,0.1,0.4,0.4,0.4c0.2,0,0.4-0.1,0.6-0.2v0.9
			c-0.2,0.1-0.6,0.2-1,0.2c-0.9,0-1-0.5-1-0.9V108.1z M205.3,105.7l-1.5,0.2c-1.1,0.1-1.7,0.5-1.7,1.3c0,0.6,0.4,1,1.3,1
			c0.8,0,1.4-0.3,1.9-0.7V105.7z"/>
		<path d="M209.3,102h1v0.9c0.3-0.6,0.8-1.1,1.9-1.1c0.5,0,0.7,0.1,0.8,0.1v1.1c-0.2-0.1-0.6-0.2-1-0.2c-0.9,0-1.3,0.4-1.5,0.7v5.4
			h-1.2V102z"/>
		<path d="M219.1,108.1c-0.4,0.5-1.1,1-2.2,1c-1.5,0-2.9-1-2.9-3.6c0-2.7,1.4-3.7,2.9-3.7c1,0,1.7,0.5,2,0.9v-4.4h1.2V109h-1V108.1z
			 M218.9,103.6c-0.4-0.4-1-0.7-1.7-0.7c-1.3,0-2,0.9-2,2.6c0,1.6,0.7,2.6,2,2.6c0.7,0,1.3-0.3,1.7-0.7V103.6z"/>
		<path d="M226.5,103h-1.1v-1h0.6c0.5,0,0.7-0.2,0.7-0.7v-1.5h1v2.2h2.1v1h-2.1v3.9c0,0.8,0.2,1.2,1,1.2c0.4,0,0.8-0.1,1-0.2v1
			c-0.2,0.1-0.6,0.2-1.2,0.2c-1.5,0-2-0.9-2-2.1V103z"/>
		<path d="M231.2,105.5c0-2.8,1.7-3.6,3.2-3.6s3.2,0.8,3.2,3.6c0,2.8-1.7,3.6-3.2,3.6S231.2,108.4,231.2,105.5z M236.5,105.5
			c0-1.7-0.7-2.6-2-2.6s-2,0.9-2,2.6c0,1.7,0.7,2.6,2,2.6S236.5,107.2,236.5,105.5z"/>
		<path d="M243.2,102h1v0.9c0.3-0.6,0.8-1.1,1.9-1.1c0.5,0,0.7,0.1,0.8,0.1v1.1c-0.2-0.1-0.6-0.2-1-0.2c-0.9,0-1.3,0.4-1.5,0.7v5.4
			h-1.2V102z"/>
		<path d="M254.1,106.7c-0.2,1.9-1.8,2.4-3,2.4c-1.6,0-3.1-1-3.1-3.6c0-2.7,1.6-3.6,3.1-3.6c1.4,0,3.1,0.8,3.1,3.6v0.2h-5
			c0,1.6,0.7,2.5,2,2.5c1,0,1.6-0.5,1.8-1.4H254.1z M252.9,104.9c-0.1-1.3-0.8-2.1-1.8-2.1c-1.2,0-1.8,0.7-1.9,2.1H252.9z"/>
		<path d="M262,106.6c-0.1,1.7-1.2,2.5-2.8,2.5c-1.4,0-3.2-0.7-3.2-3.6c0-2.9,1.8-3.6,3.2-3.6c1.6,0,2.7,0.9,2.8,2.5h-1.2
			c0-0.8-0.5-1.5-1.6-1.5c-1.3,0-2,0.9-2,2.6c0,1.7,0.7,2.6,2,2.6c1.1,0,1.6-0.7,1.6-1.5H262z"/>
		<path d="M263.5,111.2c0.2,0.1,0.5,0.1,0.8,0.1c0.6,0,0.9-0.3,1.3-1.2l0.4-1l-2.6-7.1h1.3l1.9,5.7l1.9-5.7h1.2l-3,8.1
			c-0.5,1.2-1,2.2-2.4,2.2c-0.4,0-0.7-0.1-0.8-0.1V111.2z"/>
		<path d="M277.1,106.6c-0.1,1.7-1.2,2.5-2.8,2.5c-1.4,0-3.2-0.7-3.2-3.6c0-2.9,1.8-3.6,3.2-3.6c1.6,0,2.7,0.9,2.8,2.5h-1.2
			c0-0.8-0.5-1.5-1.6-1.5c-1.3,0-2,0.9-2,2.6c0,1.7,0.7,2.6,2,2.6c1.1,0,1.6-0.7,1.6-1.5H277.1z"/>
		<path d="M279.3,98.4h1.2V109h-1.2V98.4z"/>
		<path d="M288.9,106.7c-0.2,1.9-1.8,2.4-3,2.4c-1.6,0-3.1-1-3.1-3.6c0-2.7,1.6-3.6,3.1-3.6c1.4,0,3.1,0.8,3.1,3.6v0.2h-5
			c0,1.6,0.7,2.5,2,2.5c1,0,1.6-0.5,1.8-1.4H288.9z M287.7,104.9c-0.1-1.3-0.8-2.1-1.8-2.1c-1.2,0-1.8,0.7-1.9,2.1H287.7z"/>
		<path d="M298.6,108.1c-0.4,0.5-1.2,1.1-2.4,1.1c-1.6,0-2.2-0.9-2.2-1.9c0-1.7,1.6-2.1,2.7-2.2l1.7-0.1v-0.2c0-1.2-0.2-1.9-1.4-1.9
			c-1.1,0-1.5,0.5-1.5,1.5h-1.2c0-2.1,1.6-2.5,2.8-2.5c1.9,0,2.5,1,2.5,2.7v3.2c0,0.3,0.1,0.4,0.4,0.4c0.2,0,0.4-0.1,0.6-0.2v0.9
			c-0.2,0.1-0.6,0.2-1,0.2c-0.9,0-1-0.5-1-0.9V108.1z M298.4,105.7l-1.5,0.2c-1.1,0.1-1.7,0.5-1.7,1.3c0,0.6,0.4,1,1.3,1
			c0.8,0,1.4-0.3,1.9-0.7V105.7z"/>
		<path d="M302.3,102h1v0.9c0.4-0.6,1.1-1.1,2.3-1.1c1.2,0,2.4,0.5,2.4,2.8v4.3h-1.2v-4c0-1.3-0.3-2-1.5-2c-0.9,0-1.4,0.4-1.7,0.7
			v5.4h-1.2V102z"/>
		<path d="M315.3,108.1c-0.4,0.5-1.1,1-2.2,1c-1.5,0-2.9-1-2.9-3.6c0-2.7,1.4-3.7,2.9-3.7c1,0,1.7,0.5,2,0.9v-4.4h1.2V109h-1V108.1z
			 M315.1,103.6c-0.4-0.4-1-0.7-1.7-0.7c-1.3,0-2,0.9-2,2.6c0,1.6,0.7,2.6,2,2.6c0.7,0,1.3-0.3,1.7-0.7V103.6z"/>
		<path d="M84,122.2h-1.1v-1h0.6c0.5,0,0.7-0.2,0.7-0.7V119h1v2.2h2.1v1h-2.1v3.9c0,0.8,0.2,1.2,1,1.2c0.4,0,0.8-0.1,1-0.2v1
			c-0.2,0.1-0.6,0.2-1.2,0.2c-1.5,0-2-0.9-2-2.1V122.2z"/>
		<path d="M89.2,117.6h1.2v4.4c0.3-0.4,0.9-0.9,2.1-0.9c1.2,0,2.4,0.5,2.4,2.8v4.3h-1.2v-4c0-1.3-0.3-2-1.5-2
			c-0.9,0-1.4,0.4-1.7,0.7v5.4h-1.2V117.6z"/>
		<path d="M101.5,127.3c-0.4,0.5-1.2,1.1-2.4,1.1c-1.6,0-2.2-0.9-2.2-1.9c0-1.7,1.6-2.1,2.7-2.2l1.7-0.1v-0.2c0-1.2-0.2-1.9-1.4-1.9
			c-1.1,0-1.5,0.5-1.5,1.5h-1.2c0-2.1,1.6-2.5,2.8-2.5c1.9,0,2.5,1,2.5,2.7v3.2c0,0.3,0.1,0.4,0.4,0.4c0.2,0,0.4-0.1,0.6-0.2v0.9
			c-0.2,0.1-0.6,0.2-1,0.2c-0.9,0-1-0.5-1-0.9V127.3z M101.3,124.9l-1.5,0.2c-1.1,0.1-1.7,0.5-1.7,1.3c0,0.6,0.4,1,1.3,1
			c0.8,0,1.4-0.3,1.9-0.7V124.9z"/>
		<path d="M105.5,122.2h-1.1v-1h0.6c0.5,0,0.7-0.2,0.7-0.7V119h1v2.2h2.1v1h-2.1v3.9c0,0.8,0.2,1.2,1,1.2c0.4,0,0.8-0.1,1-0.2v1
			c-0.2,0.1-0.6,0.2-1.2,0.2c-1.5,0-2-0.9-2-2.1V122.2z"/>
		<path d="M113.1,121.2h1.2l1.6,5.6l1.6-5.6h1.3l1.6,5.6l1.6-5.6h1.2l-2.1,7h-1.3l-1.6-5.5l-1.6,5.5h-1.3L113.1,121.2z"/>
		<path d="M130.6,125.9c-0.2,1.9-1.8,2.4-3,2.4c-1.6,0-3.1-1-3.1-3.6c0-2.7,1.6-3.6,3.1-3.6c1.4,0,3.1,0.8,3.1,3.6v0.2h-5
			c0,1.6,0.7,2.5,2,2.5c1,0,1.6-0.5,1.8-1.4H130.6z M129.4,124.1c-0.1-1.3-0.8-2.1-1.8-2.1c-1.2,0-1.8,0.7-1.9,2.1H129.4z"/>
		<path d="M135.5,124.7c0-2.8,1.7-3.6,3.2-3.6c1.5,0,3.2,0.8,3.2,3.6c0,2.8-1.7,3.6-3.2,3.6C137.2,128.4,135.5,127.6,135.5,124.7z
			 M140.7,124.7c0-1.7-0.7-2.6-2-2.6s-2,0.9-2,2.6c0,1.7,0.7,2.6,2,2.6S140.7,126.4,140.7,124.7z"/>
		<path d="M144.4,128.2v-6h-1.1v-1h1.1v-1.6c0-1.3,0.6-2.1,2-2.1c0.4,0,0.6,0,0.8,0.1v1c-0.2-0.1-0.4-0.1-0.6-0.1
			c-0.7,0-0.9,0.4-0.9,1.2v1.5h1.5v1h-1.5v6H144.4z"/>
		<path d="M148.8,122.2h-1.1v-1h0.6c0.5,0,0.7-0.2,0.7-0.7V119h1v2.2h2.1v1H150v3.9c0,0.8,0.2,1.2,1,1.2c0.4,0,0.8-0.1,1-0.2v1
			c-0.2,0.1-0.6,0.2-1.2,0.2c-1.5,0-2-0.9-2-2.1V122.2z"/>
		<path d="M159.7,125.9c-0.2,1.9-1.8,2.4-3,2.4c-1.6,0-3.1-1-3.1-3.6c0-2.7,1.6-3.6,3.1-3.6c1.4,0,3.1,0.8,3.1,3.6v0.2h-5
			c0,1.6,0.7,2.5,2,2.5c1,0,1.6-0.5,1.8-1.4H159.7z M158.5,124.1c-0.1-1.3-0.8-2.1-1.8-2.1c-1.2,0-1.8,0.7-1.9,2.1H158.5z"/>
		<path d="M162,121.2h1v0.9c0.4-0.6,1.1-1.1,2.3-1.1c1.2,0,2.4,0.5,2.4,2.8v4.3h-1.2v-4c0-1.3-0.3-2-1.5-2c-0.9,0-1.4,0.4-1.7,0.7
			v5.4H162V121.2z"/>
		<path d="M173.9,122.2h-1.1v-1h0.6c0.5,0,0.7-0.2,0.7-0.7V119h1v2.2h2.1v1h-2.1v3.9c0,0.8,0.2,1.2,1,1.2c0.4,0,0.8-0.1,1-0.2v1
			c-0.2,0.1-0.6,0.2-1.2,0.2c-1.5,0-2-0.9-2-2.1V122.2z"/>
		<path d="M179.2,117.6h1.2v4.4c0.3-0.4,0.9-0.9,2.1-0.9c1.2,0,2.4,0.5,2.4,2.8v4.3h-1.2v-4c0-1.3-0.3-2-1.5-2
			c-0.9,0-1.4,0.4-1.7,0.7v5.4h-1.2V117.6z"/>
		<path d="M187.5,121.2h1v0.9c0.3-0.6,0.8-1.1,1.9-1.1c0.5,0,0.7,0.1,0.8,0.1v1.1c-0.2-0.1-0.6-0.2-1-0.2c-0.9,0-1.3,0.4-1.5,0.7
			v5.4h-1.2V121.2z"/>
		<path d="M192.3,124.7c0-2.8,1.7-3.6,3.2-3.6s3.2,0.8,3.2,3.6c0,2.8-1.7,3.6-3.2,3.6S192.3,127.6,192.3,124.7z M197.5,124.7
			c0-1.7-0.7-2.6-2-2.6s-2,0.9-2,2.6c0,1.7,0.7,2.6,2,2.6S197.5,126.4,197.5,124.7z"/>
		<path d="M200.1,121.2h1.2l1.6,5.6l1.6-5.6h1.3l1.6,5.6l1.6-5.6h1.2l-2.1,7h-1.3l-1.6-5.5l-1.6,5.5h-1.3L200.1,121.2z"/>
		<path d="M219.3,127.3c-0.4,0.5-1.2,1.1-2.4,1.1c-1.6,0-2.2-0.9-2.2-1.9c0-1.7,1.6-2.1,2.7-2.2l1.7-0.1v-0.2c0-1.2-0.2-1.9-1.4-1.9
			c-1.1,0-1.5,0.5-1.5,1.5h-1.2c0-2.1,1.6-2.5,2.8-2.5c1.9,0,2.5,1,2.5,2.7v3.2c0,0.3,0.1,0.4,0.4,0.4c0.2,0,0.4-0.1,0.6-0.2v0.9
			c-0.2,0.1-0.6,0.2-1,0.2c-0.9,0-1-0.5-1-0.9V127.3z M219.1,124.9l-1.5,0.2c-1.1,0.1-1.7,0.5-1.7,1.3c0,0.6,0.4,1,1.3,1
			c0.8,0,1.4-0.3,1.9-0.7V124.9z"/>
		<path d="M222.2,121.2h1.2l1.6,5.6l1.6-5.6h1.3l1.6,5.6l1.6-5.6h1.2l-2.1,7h-1.3l-1.6-5.5l-1.6,5.5h-1.3L222.2,121.2z"/>
		<path d="M238,127.3c-0.4,0.5-1.2,1.1-2.4,1.1c-1.6,0-2.2-0.9-2.2-1.9c0-1.7,1.6-2.1,2.7-2.2l1.7-0.1v-0.2c0-1.2-0.2-1.9-1.4-1.9
			c-1.1,0-1.5,0.5-1.5,1.5h-1.2c0-2.1,1.6-2.5,2.8-2.5c1.9,0,2.5,1,2.5,2.7v3.2c0,0.3,0.1,0.4,0.4,0.4c0.2,0,0.4-0.1,0.6-0.2v0.9
			c-0.2,0.1-0.6,0.2-1,0.2c-0.9,0-1-0.5-1-0.9V127.3z M237.8,124.9l-1.5,0.2c-1.1,0.1-1.7,0.5-1.7,1.3c0,0.6,0.4,1,1.3,1
			c0.8,0,1.4-0.3,1.9-0.7V124.9z"/>
		<path d="M241.1,130.4c0.2,0.1,0.5,0.1,0.8,0.1c0.6,0,0.9-0.3,1.3-1.2l0.4-1l-2.6-7.1h1.3l1.9,5.7l1.9-5.7h1.2l-3,8.1
			c-0.5,1.2-1,2.2-2.4,2.2c-0.4,0-0.7-0.1-0.8-0.1V130.4z"/>
		<path d="M251.5,121.2h1.2l1.6,5.6l1.6-5.6h1.3l1.6,5.6l1.6-5.6h1.2l-2.1,7H258l-1.6-5.5l-1.6,5.5h-1.3L251.5,121.2z"/>
		<path d="M263.2,117.6h1.5v1.4h-1.5V117.6z M263.3,121.2h1.2v7h-1.2V121.2z"/>
		<path d="M267.3,117.6h1.2v4.4c0.3-0.4,0.9-0.9,2.1-0.9c1.2,0,2.4,0.5,2.4,2.8v4.3h-1.2v-4c0-1.3-0.3-2-1.5-2
			c-0.9,0-1.4,0.4-1.7,0.7v5.4h-1.2V117.6z"/>
		<path d="M275.7,122.2h-1.1v-1h0.6c0.5,0,0.7-0.2,0.7-0.7V119h1v2.2h2.1v1h-2.1v3.9c0,0.8,0.2,1.2,1,1.2c0.4,0,0.8-0.1,1-0.2v1
			c-0.2,0.1-0.6,0.2-1.2,0.2c-1.5,0-2-0.9-2-2.1V122.2z"/>
		<path d="M280.5,124.7c0-2.8,1.7-3.6,3.2-3.6s3.2,0.8,3.2,3.6c0,2.8-1.7,3.6-3.2,3.6S280.5,127.6,280.5,124.7z M285.7,124.7
			c0-1.7-0.7-2.6-2-2.6s-2,0.9-2,2.6c0,1.7,0.7,2.6,2,2.6S285.7,126.4,285.7,124.7z"/>
		<path d="M289.1,121.2h1.2v4c0,1.3,0.3,2.1,1.5,2.1c0.9,0,1.4-0.4,1.7-0.7v-5.4h1.2v7h-1v-0.9c-0.4,0.6-1.1,1.1-2.3,1.1
			c-1.1,0-2.3-0.5-2.3-2.8V121.2z"/>
		<path d="M297.6,122.2h-1.1v-1h0.6c0.5,0,0.7-0.2,0.7-0.7V119h1v2.2h2.1v1h-2.1v3.9c0,0.8,0.2,1.2,1,1.2c0.4,0,0.8-0.1,1-0.2v1
			c-0.2,0.1-0.6,0.2-1.2,0.2c-1.5,0-2-0.9-2-2.1V122.2z"/>
		<path d="M306.2,117.6h1.2v4.4c0.3-0.4,0.9-0.9,2-0.9c1.5,0,2.9,1,2.9,3.6c0,2.7-1.4,3.7-2.9,3.7c-1.1,0-1.8-0.6-2.2-1v0.9h-1
			V117.6z M307.4,126.6c0.4,0.4,1,0.7,1.7,0.7c1.3,0,2-1,2-2.6c0-1.6-0.7-2.6-2-2.6c-0.7,0-1.3,0.3-1.7,0.7V126.6z"/>
		<path d="M320.3,125.9c-0.2,1.9-1.8,2.4-3,2.4c-1.6,0-3.1-1-3.1-3.6c0-2.7,1.6-3.6,3.1-3.6c1.4,0,3.1,0.8,3.1,3.6v0.2h-5
			c0,1.6,0.7,2.5,2,2.5c1,0,1.6-0.5,1.8-1.4H320.3z M319.1,124.1c-0.1-1.3-0.8-2.1-1.8-2.1c-1.2,0-1.8,0.7-1.9,2.1H319.1z"/>
		<path d="M322.4,117.6h1.5v1.4h-1.5V117.6z M322.6,121.2h1.2v7h-1.2V121.2z"/>
		<path d="M326.5,121.2h1v0.9c0.4-0.6,1.1-1.1,2.3-1.1c1.2,0,2.4,0.5,2.4,2.8v4.3h-1.2v-4c0-1.3-0.3-2-1.5-2c-0.9,0-1.4,0.4-1.7,0.7
			v5.4h-1.2V121.2z"/>
		<path d="M337.2,121.1c0.8,0,1.8,0.3,2.4,1c0.3-0.6,0.9-1,1.9-1v1.2c-0.7,0-1.2,0.1-1.5,0.5c0.1,0.3,0.2,0.5,0.2,0.9
			c0,1.8-1.6,2.5-2.8,2.5c-0.4,0-0.8-0.1-1.2-0.2c-0.3,0.1-0.6,0.4-0.6,0.7c0,0.4,0.4,0.6,1.1,0.6h1.8c1.3,0,2.5,0.5,2.5,1.9
			c0,1.5-1.3,2.4-3.5,2.4c-2.1,0-3.2-0.8-3.2-2c0-0.8,0.5-1.3,1.2-1.6c-0.4-0.2-0.8-0.5-0.8-1.1s0.4-1,0.9-1.3c-0.6-0.4-1-1-1-2
			C334.3,121.8,335.9,121.1,337.2,121.1z M336.1,128.2c-0.4,0.1-0.9,0.5-0.9,1.1s0.5,1.2,2.1,1.2c1.5,0,2.3-0.5,2.3-1.4
			c0-0.6-0.5-1-1.5-1H336.1z M337.2,122c-1,0-1.7,0.6-1.7,1.6s0.6,1.6,1.7,1.6s1.7-0.6,1.7-1.6S338.2,122,337.2,122z"/>
		<path d="M84.5,145.2c0,0.9,0.8,1.5,1.9,1.5c0.9,0,1.5-0.4,1.5-1.1c0-0.8-0.9-1-2.1-1.3c-1-0.3-2.1-0.7-2.1-2
			c0-1.4,1.3-1.9,2.5-1.9c1.5,0,2.6,0.7,2.7,2.2h-1.2c0-0.7-0.6-1.3-1.5-1.3c-0.8,0-1.3,0.3-1.3,0.9c0,0.8,0.9,0.9,2.2,1.3
			c1,0.3,2.1,0.7,2.1,2c0,1.6-1.4,2.1-2.7,2.1c-1.7,0-2.9-0.8-3-2.4H84.5z"/>
		<path d="M91.2,140.4h1.2v4c0,1.3,0.3,2.1,1.5,2.1c0.9,0,1.4-0.4,1.7-0.7v-5.4h1.2v7h-1v-0.9c-0.4,0.6-1.1,1.1-2.3,1.1
			c-1.1,0-2.3-0.5-2.3-2.8V140.4z"/>
		<path d="M99.5,140.4h1v0.9c0.3-0.6,0.8-1.1,1.9-1.1c0.5,0,0.7,0.1,0.8,0.1v1.1c-0.2-0.1-0.6-0.2-1-0.2c-0.9,0-1.3,0.4-1.5,0.7v5.4
			h-1.2V140.4z"/>
		<path d="M110.5,145.1c-0.2,1.9-1.8,2.4-3,2.4c-1.6,0-3.1-1-3.1-3.6c0-2.7,1.6-3.6,3.1-3.6c1.4,0,3.1,0.8,3.1,3.6v0.2h-5
			c0,1.6,0.7,2.5,2,2.5c1,0,1.6-0.5,1.8-1.4H110.5z M109.3,143.3c-0.1-1.3-0.8-2.1-1.8-2.1c-1.2,0-1.8,0.7-1.9,2.1H109.3z"/>
		<path d="M115.4,143.9c0-2.8,1.7-3.6,3.2-3.6c1.5,0,3.2,0.8,3.2,3.6c0,2.8-1.7,3.6-3.2,3.6C117.1,147.6,115.4,146.8,115.4,143.9z
			 M120.6,143.9c0-1.7-0.7-2.6-2-2.6s-2,0.9-2,2.6c0,1.7,0.7,2.6,2,2.6S120.6,145.6,120.6,143.9z"/>
		<path d="M124.3,147.4v-6h-1.1v-1h1.1v-1.6c0-1.3,0.6-2.1,2-2.1c0.4,0,0.6,0,0.8,0.1v1c-0.2-0.1-0.4-0.1-0.6-0.1
			c-0.7,0-0.9,0.4-0.9,1.2v1.5h1.5v1h-1.5v6H124.3z"/>
		<path d="M131.1,140.4h1.2l1.6,5.6l1.6-5.6h1.3l1.6,5.6l1.6-5.6h1.2l-2.1,7h-1.3l-1.6-5.5l-1.6,5.5h-1.3L131.1,140.4z"/>
		<path d="M142.9,136.8h1.2v4.4c0.3-0.4,0.9-0.9,2.1-0.9c1.2,0,2.4,0.5,2.4,2.8v4.3h-1.2v-4c0-1.3-0.3-2-1.5-2
			c-0.9,0-1.4,0.4-1.7,0.7v5.4h-1.2V136.8z"/>
		<path d="M151,136.8h1.5v1.4H151V136.8z M151.2,140.4h1.2v7h-1.2V140.4z"/>
		<path d="M160.7,145c-0.1,1.7-1.2,2.5-2.8,2.5c-1.4,0-3.2-0.7-3.2-3.6c0-2.9,1.8-3.6,3.2-3.6c1.6,0,2.7,0.9,2.8,2.5h-1.2
			c0-0.8-0.5-1.5-1.6-1.5c-1.3,0-2,0.9-2,2.6c0,1.7,0.7,2.6,2,2.6c1.1,0,1.6-0.7,1.6-1.5H160.7z"/>
		<path d="M162.9,136.8h1.2v4.4c0.3-0.4,0.9-0.9,2.1-0.9c1.2,0,2.4,0.5,2.4,2.8v4.3h-1.2v-4c0-1.3-0.3-2-1.5-2
			c-0.9,0-1.4,0.4-1.7,0.7v5.4h-1.2V136.8z"/>
		<path d="M174.7,136.8h1.2v4.4c0.3-0.4,0.9-0.9,2-0.9c1.5,0,2.9,1,2.9,3.6c0,2.7-1.4,3.7-2.9,3.7c-1.1,0-1.8-0.6-2.2-1v0.9h-1
			V136.8z M175.9,145.8c0.4,0.4,1,0.7,1.7,0.7c1.3,0,2-1,2-2.6c0-1.6-0.7-2.6-2-2.6c-0.7,0-1.3,0.3-1.7,0.7V145.8z"/>
		<path d="M183,136.8h1.5v1.4H183V136.8z M183.1,140.4h1.2v7h-1.2V140.4z"/>
		<path d="M187,140.4h1v0.9c0.4-0.6,1.1-1.1,2.3-1.1c1.2,0,2.4,0.5,2.4,2.8v4.3h-1.2v-4c0-1.3-0.3-2-1.5-2c-0.9,0-1.4,0.4-1.7,0.7
			v5.4H187V140.4z"/>
		<path d="M199,141.4h-1.1v-1h0.6c0.5,0,0.7-0.2,0.7-0.7v-1.5h1v2.2h2.1v1h-2.1v3.9c0,0.8,0.2,1.2,1,1.2c0.4,0,0.8-0.1,1-0.2v1
			c-0.2,0.1-0.6,0.2-1.2,0.2c-1.5,0-2-0.9-2-2.1V141.4z"/>
		<path d="M204.2,136.8h1.2v4.4c0.3-0.4,0.9-0.9,2.1-0.9c1.2,0,2.4,0.5,2.4,2.8v4.3h-1.2v-4c0-1.3-0.3-2-1.5-2
			c-0.9,0-1.4,0.4-1.7,0.7v5.4h-1.2V136.8z"/>
		<path d="M218.2,145.1c-0.2,1.9-1.8,2.4-3,2.4c-1.6,0-3.1-1-3.1-3.6c0-2.7,1.6-3.6,3.1-3.6c1.4,0,3.1,0.8,3.1,3.6v0.2h-5
			c0,1.6,0.7,2.5,2,2.5c1,0,1.6-0.5,1.8-1.4H218.2z M217,143.3c-0.1-1.3-0.8-2.1-1.8-2.1c-1.2,0-1.8,0.7-1.9,2.1H217z"/>
		<path d="M219.8,149.6c0.2,0.1,0.5,0.1,0.8,0.1c0.6,0,0.9-0.3,1.3-1.2l0.4-1l-2.6-7.1h1.3l1.9,5.7l1.9-5.7h1.2l-3,8.1
			c-0.5,1.2-1,2.2-2.4,2.2c-0.4,0-0.7-0.1-0.8-0.1V149.6z"/>
		<path d="M231.2,136.8h1.2v4.4c0.3-0.4,0.9-0.9,2-0.9c1.5,0,2.9,1,2.9,3.6c0,2.7-1.4,3.7-2.9,3.7c-1.1,0-1.8-0.6-2.2-1v0.9h-1
			V136.8z M232.4,145.8c0.4,0.4,1,0.7,1.7,0.7c1.3,0,2-1,2-2.6c0-1.6-0.7-2.6-2-2.6c-0.7,0-1.3,0.3-1.7,0.7V145.8z"/>
		<path d="M245.2,145.1c-0.2,1.9-1.8,2.4-3,2.4c-1.6,0-3.1-1-3.1-3.6c0-2.7,1.6-3.6,3.1-3.6c1.4,0,3.1,0.8,3.1,3.6v0.2h-5
			c0,1.6,0.7,2.5,2,2.5c1,0,1.6-0.5,1.8-1.4H245.2z M244,143.3c-0.1-1.3-0.8-2.1-1.8-2.1c-1.2,0-1.8,0.7-1.9,2.1H244z"/>
		<path d="M247.5,136.8h1.2v10.6h-1.2V136.8z"/>
		<path d="M251,143.9c0-2.8,1.7-3.6,3.2-3.6s3.2,0.8,3.2,3.6c0,2.8-1.7,3.6-3.2,3.6S251,146.8,251,143.9z M256.2,143.9
			c0-1.7-0.7-2.6-2-2.6s-2,0.9-2,2.6c0,1.7,0.7,2.6,2,2.6S256.2,145.6,256.2,143.9z"/>
		<path d="M259.7,140.4h1v0.9c0.4-0.6,1.1-1.1,2.3-1.1c1.2,0,2.4,0.5,2.4,2.8v4.3h-1.2v-4c0-1.3-0.3-2-1.5-2c-0.9,0-1.4,0.4-1.7,0.7
			v5.4h-1.2V140.4z"/>
		<path d="M270.4,140.3c0.8,0,1.8,0.3,2.4,1c0.3-0.6,0.9-1,1.9-1v1.2c-0.7,0-1.2,0.1-1.5,0.5c0.1,0.3,0.2,0.5,0.2,0.9
			c0,1.8-1.6,2.5-2.8,2.5c-0.4,0-0.8-0.1-1.2-0.2c-0.3,0.1-0.6,0.4-0.6,0.7c0,0.4,0.4,0.6,1.1,0.6h1.8c1.3,0,2.5,0.5,2.5,1.9
			c0,1.5-1.3,2.4-3.5,2.4c-2.1,0-3.2-0.8-3.2-2c0-0.8,0.5-1.3,1.2-1.6c-0.4-0.2-0.8-0.5-0.8-1.1s0.4-1,0.9-1.3c-0.6-0.4-1-1-1-2
			C267.5,141,269.2,140.3,270.4,140.3z M269.3,147.4c-0.4,0.1-0.9,0.5-0.9,1.1s0.5,1.2,2.1,1.2c1.5,0,2.3-0.5,2.3-1.4
			c0-0.6-0.5-1-1.5-1H269.3z M270.4,141.2c-1,0-1.7,0.6-1.7,1.6s0.6,1.6,1.7,1.6s1.7-0.6,1.7-1.6S271.4,141.2,270.4,141.2z"/>
		<path d="M279.8,141.4h-1.1v-1h0.6c0.5,0,0.7-0.2,0.7-0.7v-1.5h1v2.2h2.1v1H281v3.9c0,0.8,0.2,1.2,1,1.2c0.4,0,0.8-0.1,1-0.2v1
			c-0.2,0.1-0.6,0.2-1.2,0.2c-1.5,0-2-0.9-2-2.1V141.4z"/>
		<path d="M284.6,143.9c0-2.8,1.7-3.6,3.2-3.6s3.2,0.8,3.2,3.6c0,2.8-1.7,3.6-3.2,3.6S284.6,146.8,284.6,143.9z M289.8,143.9
			c0-1.7-0.7-2.6-2-2.6s-2,0.9-2,2.6c0,1.7,0.7,2.6,2,2.6S289.8,145.6,289.8,143.9z"/>
	</g>
	<g>
		<path d="M84,187.6h2.8c2.9,0,4.3,1.8,4.3,4.5c0,2.7-1.3,4.5-4.3,4.5H84V187.6z M86.8,195.5c2.4,0,3-1.7,3-3.4s-0.6-3.4-3-3.4h-1.6
			v6.8H86.8z"/>
		<path d="M93.4,186h1.5v1.4h-1.5V186z M93.5,189.6h1.2v7h-1.2V189.6z"/>
		<path d="M98.2,194.3c0,0.9,0.8,1.5,1.9,1.5c0.9,0,1.5-0.4,1.5-1.1c0-0.8-0.9-1-2.1-1.3c-1-0.3-2.1-0.7-2.1-2
			c0-1.4,1.3-1.9,2.5-1.9c1.5,0,2.6,0.7,2.7,2.2h-1.2c0-0.7-0.6-1.3-1.5-1.3c-0.8,0-1.3,0.3-1.3,0.9c0,0.8,0.9,0.9,2.2,1.3
			c1,0.3,2.1,0.7,2.1,2c0,1.6-1.4,2.1-2.7,2.1c-1.7,0-2.9-0.8-3-2.4H98.2z"/>
		<path d="M110.6,194.2c-0.1,1.7-1.2,2.5-2.8,2.5c-1.4,0-3.2-0.7-3.2-3.6c0-2.9,1.8-3.6,3.2-3.6c1.6,0,2.7,0.9,2.8,2.5h-1.2
			c0-0.8-0.5-1.5-1.6-1.5c-1.3,0-2,0.9-2,2.6c0,1.7,0.7,2.6,2,2.6c1.1,0,1.6-0.7,1.6-1.5H110.6z"/>
		<path d="M112.4,193.1c0-2.8,1.7-3.6,3.2-3.6c1.5,0,3.2,0.8,3.2,3.6c0,2.8-1.7,3.6-3.2,3.6C114.1,196.7,112.4,195.9,112.4,193.1z
			 M117.6,193.1c0-1.7-0.7-2.6-2-2.6s-2,0.9-2,2.6c0,1.7,0.7,2.6,2,2.6S117.6,194.8,117.6,193.1z"/>
		<path d="M120.2,189.6h1.3l1.9,5.7l1.9-5.7h1.2l-2.6,7h-1.3L120.2,189.6z"/>
		<path d="M134,194.3c-0.2,1.9-1.8,2.4-3,2.4c-1.6,0-3.1-1-3.1-3.6c0-2.7,1.6-3.6,3.1-3.6c1.4,0,3.1,0.8,3.1,3.6v0.2h-5
			c0,1.6,0.7,2.5,2,2.5c1,0,1.6-0.5,1.8-1.4H134z M132.8,192.5c-0.1-1.3-0.8-2.1-1.8-2.1c-1.2,0-1.8,0.7-1.9,2.1H132.8z"/>
		<path d="M136.3,189.6h1v0.9c0.3-0.6,0.8-1.1,1.9-1.1c0.5,0,0.7,0.1,0.8,0.1v1.1c-0.2-0.1-0.6-0.2-1-0.2c-0.9,0-1.3,0.4-1.5,0.7
			v5.4h-1.2V189.6z"/>
		<path d="M144.9,186h1.2v4.4c0.3-0.4,0.9-0.9,2.1-0.9c1.2,0,2.4,0.5,2.4,2.8v4.3h-1.2v-4c0-1.3-0.3-2-1.5-2c-0.9,0-1.4,0.4-1.7,0.7
			v5.4h-1.2V186z"/>
		<path d="M152.7,193.1c0-2.8,1.7-3.6,3.2-3.6s3.2,0.8,3.2,3.6c0,2.8-1.7,3.6-3.2,3.6S152.7,195.9,152.7,193.1z M157.9,193.1
			c0-1.7-0.7-2.6-2-2.6s-2,0.9-2,2.6c0,1.7,0.7,2.6,2,2.6S157.9,194.8,157.9,193.1z"/>
		<path d="M160.5,189.6h1.2l1.6,5.6l1.6-5.6h1.3l1.6,5.6l1.6-5.6h1.2l-2.1,7h-1.3l-1.6-5.5l-1.6,5.5h-1.3L160.5,189.6z"/>
		<path d="M175,193.1c0-2.8,1.7-3.6,3.2-3.6s3.2,0.8,3.2,3.6c0,2.8-1.7,3.6-3.2,3.6S175,195.9,175,193.1z M180.2,193.1
			c0-1.7-0.7-2.6-2-2.6s-2,0.9-2,2.6c0,1.7,0.7,2.6,2,2.6S180.2,194.8,180.2,193.1z"/>
		<path d="M183.7,186h1.2v4.4c0.3-0.4,0.9-0.9,2-0.9c1.5,0,2.9,1,2.9,3.6c0,2.7-1.4,3.7-2.9,3.7c-1.1,0-1.8-0.6-2.2-1v0.9h-1V186z
			 M184.9,195c0.4,0.4,1,0.7,1.7,0.7c1.3,0,2-1,2-2.6c0-1.6-0.7-2.6-2-2.6c-0.7,0-1.3,0.3-1.7,0.7V195z"/>
		<path d="M190.6,198.8c0.1,0,0.4,0.1,0.6,0.1c0.7,0,0.9-0.4,0.9-1.2v-8h1.2v8.1c0,1.2-0.6,2.1-2,2.1c-0.4,0-0.6-0.1-0.8-0.1V198.8z
			 M191.9,186h1.5v1.4h-1.5V186z"/>
		<path d="M201.7,194.3c-0.2,1.9-1.8,2.4-3,2.4c-1.6,0-3.1-1-3.1-3.6c0-2.7,1.6-3.6,3.1-3.6c1.4,0,3.1,0.8,3.1,3.6v0.2h-5
			c0,1.6,0.7,2.5,2,2.5c1,0,1.6-0.5,1.8-1.4H201.7z M200.5,192.5c-0.1-1.3-0.8-2.1-1.8-2.1c-1.2,0-1.8,0.7-1.9,2.1H200.5z"/>
		<path d="M209.6,194.2c-0.1,1.7-1.2,2.5-2.8,2.5c-1.4,0-3.2-0.7-3.2-3.6c0-2.9,1.8-3.6,3.2-3.6c1.6,0,2.7,0.9,2.8,2.5h-1.2
			c0-0.8-0.5-1.5-1.6-1.5c-1.3,0-2,0.9-2,2.6c0,1.7,0.7,2.6,2,2.6c1.1,0,1.6-0.7,1.6-1.5H209.6z"/>
		<path d="M212,190.6h-1.1v-1h0.6c0.5,0,0.7-0.2,0.7-0.7v-1.5h1v2.2h2.1v1h-2.1v3.9c0,0.8,0.2,1.2,1,1.2c0.4,0,0.8-0.1,1-0.2v1
			c-0.2,0.1-0.6,0.2-1.2,0.2c-1.5,0-2-0.9-2-2.1V190.6z"/>
		<path d="M217.9,194.3c0,0.9,0.8,1.5,1.9,1.5c0.9,0,1.5-0.4,1.5-1.1c0-0.8-0.9-1-2.1-1.3c-1-0.3-2.1-0.7-2.1-2
			c0-1.4,1.3-1.9,2.5-1.9c1.5,0,2.6,0.7,2.7,2.2H221c0-0.7-0.6-1.3-1.5-1.3c-0.8,0-1.3,0.3-1.3,0.9c0,0.8,0.9,0.9,2.2,1.3
			c1,0.3,2.1,0.7,2.1,2c0,1.6-1.4,2.1-2.7,2.1c-1.7,0-2.9-0.8-3-2.4H217.9z"/>
		<path d="M232.1,195.7c-0.4,0.5-1.2,1.1-2.4,1.1c-1.6,0-2.2-0.9-2.2-1.9c0-1.7,1.6-2.1,2.7-2.2l1.7-0.1v-0.2c0-1.2-0.2-1.9-1.4-1.9
			c-1.1,0-1.5,0.5-1.5,1.5h-1.2c0-2.1,1.6-2.5,2.8-2.5c1.9,0,2.5,1,2.5,2.7v3.2c0,0.3,0.1,0.4,0.4,0.4c0.2,0,0.4-0.1,0.6-0.2v0.9
			c-0.2,0.1-0.6,0.2-1,0.2c-0.9,0-1-0.5-1-0.9V195.7z M231.9,193.3l-1.5,0.2c-1.1,0.1-1.7,0.5-1.7,1.3c0,0.6,0.4,1,1.3,1
			c0.8,0,1.4-0.3,1.9-0.7V193.3z"/>
		<path d="M235.8,189.6h1v0.9c0.3-0.6,0.8-1.1,1.9-1.1c0.5,0,0.7,0.1,0.8,0.1v1.1c-0.2-0.1-0.6-0.2-1-0.2c-0.9,0-1.3,0.4-1.5,0.7
			v5.4h-1.2V189.6z"/>
		<path d="M246.8,194.3c-0.2,1.9-1.8,2.4-3,2.4c-1.6,0-3.1-1-3.1-3.6c0-2.7,1.6-3.6,3.1-3.6c1.4,0,3.1,0.8,3.1,3.6v0.2h-5
			c0,1.6,0.7,2.5,2,2.5c1,0,1.6-0.5,1.8-1.4H246.8z M245.6,192.5c-0.1-1.3-0.8-2.1-1.8-2.1c-1.2,0-1.8,0.7-1.9,2.1H245.6z"/>
		<path d="M252.4,189.6h1v0.9c0.4-0.5,1.1-1,2.2-1c1.5,0,2.9,1,2.9,3.6c0,2.7-1.4,3.7-2.9,3.7c-1,0-1.7-0.5-2-0.9v3.9h-1.2V189.6z
			 M253.6,195c0.4,0.4,1,0.7,1.7,0.7c1.3,0,2-1,2-2.6c0-1.6-0.7-2.6-2-2.6c-0.7,0-1.3,0.3-1.7,0.7V195z"/>
		<path d="M260.8,189.6h1v0.9c0.3-0.6,0.8-1.1,1.9-1.1c0.5,0,0.7,0.1,0.8,0.1v1.1c-0.2-0.1-0.6-0.2-1-0.2c-0.9,0-1.3,0.4-1.5,0.7
			v5.4h-1.2V189.6z"/>
		<path d="M265.6,193.1c0-2.8,1.7-3.6,3.2-3.6s3.2,0.8,3.2,3.6c0,2.8-1.7,3.6-3.2,3.6S265.6,195.9,265.6,193.1z M270.8,193.1
			c0-1.7-0.7-2.6-2-2.6s-2,0.9-2,2.6c0,1.7,0.7,2.6,2,2.6S270.8,194.8,270.8,193.1z"/>
		<path d="M279.9,194.2c-0.1,1.7-1.2,2.5-2.8,2.5c-1.4,0-3.2-0.7-3.2-3.6c0-2.9,1.8-3.6,3.2-3.6c1.6,0,2.7,0.9,2.8,2.5h-1.2
			c0-0.8-0.5-1.5-1.6-1.5c-1.3,0-2,0.9-2,2.6c0,1.7,0.7,2.6,2,2.6c1.1,0,1.6-0.7,1.6-1.5H279.9z"/>
		<path d="M287.8,194.3c-0.2,1.9-1.8,2.4-3,2.4c-1.6,0-3.1-1-3.1-3.6c0-2.7,1.6-3.6,3.1-3.6c1.4,0,3.1,0.8,3.1,3.6v0.2h-5
			c0,1.6,0.7,2.5,2,2.5c1,0,1.6-0.5,1.8-1.4H287.8z M286.6,192.5c-0.1-1.3-0.8-2.1-1.8-2.1c-1.2,0-1.8,0.7-1.9,2.1H286.6z"/>
		<path d="M290.8,194.3c0,0.9,0.8,1.5,1.9,1.5c0.9,0,1.5-0.4,1.5-1.1c0-0.8-0.9-1-2.1-1.3c-1-0.3-2.1-0.7-2.1-2
			c0-1.4,1.3-1.9,2.5-1.9c1.5,0,2.6,0.7,2.7,2.2H294c0-0.7-0.6-1.3-1.5-1.3c-0.8,0-1.3,0.3-1.3,0.9c0,0.8,0.9,0.9,2.2,1.3
			c1,0.3,2.1,0.7,2.1,2c0,1.6-1.4,2.1-2.7,2.1c-1.7,0-2.9-0.8-3-2.4H290.8z"/>
		<path d="M298.3,194.3c0,0.9,0.8,1.5,1.9,1.5c0.9,0,1.5-0.4,1.5-1.1c0-0.8-0.9-1-2.1-1.3c-1-0.3-2.1-0.7-2.1-2
			c0-1.4,1.3-1.9,2.5-1.9c1.5,0,2.6,0.7,2.7,2.2h-1.2c0-0.7-0.6-1.3-1.5-1.3c-0.8,0-1.3,0.3-1.3,0.9c0,0.8,0.9,0.9,2.2,1.3
			c1,0.3,2.1,0.7,2.1,2c0,1.6-1.4,2.1-2.7,2.1c-1.7,0-2.9-0.8-3-2.4H298.3z"/>
		<path d="M310.9,194.3c-0.2,1.9-1.8,2.4-3,2.4c-1.6,0-3.1-1-3.1-3.6c0-2.7,1.6-3.6,3.1-3.6c1.4,0,3.1,0.8,3.1,3.6v0.2h-5
			c0,1.6,0.7,2.5,2,2.5c1,0,1.6-0.5,1.8-1.4H310.9z M309.7,192.5c-0.1-1.3-0.8-2.1-1.8-2.1c-1.2,0-1.8,0.7-1.9,2.1H309.7z"/>
		<path d="M317.8,195.7c-0.4,0.5-1.1,1-2.2,1c-1.5,0-2.9-1-2.9-3.6c0-2.7,1.4-3.7,2.9-3.7c1,0,1.7,0.5,2,0.9V186h1.2v10.6h-1V195.7z
			 M317.6,191.2c-0.4-0.4-1-0.7-1.7-0.7c-1.3,0-2,0.9-2,2.6c0,1.6,0.7,2.6,2,2.6c0.7,0,1.3-0.3,1.7-0.7V191.2z"/>
		<path d="M324.9,186h1.5v1.4h-1.5V186z M325,189.6h1.2v7H325V189.6z"/>
		<path d="M329,189.6h1v0.9c0.4-0.6,1.1-1.1,2.3-1.1c1.2,0,2.4,0.5,2.4,2.8v4.3h-1.2v-4c0-1.3-0.3-2-1.5-2c-0.9,0-1.4,0.4-1.7,0.7
			v5.4H329V189.6z"/>
		<path d="M84,206.8h3.2c2,0,3.2,0.8,3.2,2.4c0,1-0.5,1.6-1.2,1.9c1,0.3,1.6,1,1.6,2.1c0,1.6-1.2,2.5-3.3,2.5H84V206.8z M87.1,210.7
			c1.5,0,2-0.5,2-1.4c0-0.9-0.5-1.4-2-1.4h-1.9v2.8H87.1z M87.3,214.7c1.6,0,2.1-0.5,2.1-1.5c0-1-0.5-1.5-2.1-1.5h-2.1v3H87.3z"/>
		<path d="M98.9,213.5c-0.2,1.9-1.8,2.4-3,2.4c-1.6,0-3.1-1-3.1-3.6c0-2.7,1.6-3.6,3.1-3.6c1.4,0,3.1,0.8,3.1,3.6v0.2h-5
			c0,1.6,0.7,2.5,2,2.5c1,0,1.6-0.5,1.8-1.4H98.9z M97.7,211.7c-0.1-1.3-0.8-2.1-1.8-2.1c-1.2,0-1.8,0.7-1.9,2.1H97.7z"/>
		<path d="M101.1,208.8h1v0.9c0.3-0.6,0.8-1.1,1.9-1.1c0.5,0,0.7,0.1,0.8,0.1v1.1c-0.2-0.1-0.6-0.2-1-0.2c-0.9,0-1.3,0.4-1.5,0.7
			v5.4h-1.2V208.8z"/>
		<path d="M106.5,205.2h1.2v10.6h-1.2V205.2z"/>
		<path d="M110.3,205.2h1.5v1.4h-1.5V205.2z M110.4,208.8h1.2v7h-1.2V208.8z"/>
		<path d="M114.3,208.8h1v0.9c0.4-0.6,1.1-1.1,2.3-1.1c1.2,0,2.4,0.5,2.4,2.8v4.3h-1.2v-4c0-1.3-0.3-2-1.5-2c-0.9,0-1.4,0.4-1.7,0.7
			v5.4h-1.2V208.8z"/>
		<path d="M123.7,215.8h-0.8v-1.5h1.5v1.5l-0.9,2.6h-0.7L123.7,215.8z"/>
		<path d="M129.9,208.8h1.2l1.6,5.6l1.6-5.6h1.3l1.6,5.6l1.6-5.6h1.2l-2.1,7h-1.3l-1.6-5.5l-1.6,5.5H132L129.9,208.8z"/>
		<path d="M141.7,205.2h1.2v4.4c0.3-0.4,0.9-0.9,2.1-0.9c1.2,0,2.4,0.5,2.4,2.8v4.3h-1.2v-4c0-1.3-0.3-2-1.5-2
			c-0.9,0-1.4,0.4-1.7,0.7v5.4h-1.2V205.2z"/>
		<path d="M149.9,205.2h1.5v1.4h-1.5V205.2z M150,208.8h1.2v7H150V208.8z"/>
		<path d="M159.6,213.4c-0.1,1.7-1.2,2.5-2.8,2.5c-1.4,0-3.2-0.7-3.2-3.6c0-2.9,1.8-3.6,3.2-3.6c1.6,0,2.7,0.9,2.8,2.5h-1.2
			c0-0.8-0.5-1.5-1.6-1.5c-1.3,0-2,0.9-2,2.6c0,1.7,0.7,2.6,2,2.6c1.1,0,1.6-0.7,1.6-1.5H159.6z"/>
		<path d="M161.8,205.2h1.2v4.4c0.3-0.4,0.9-0.9,2.1-0.9c1.2,0,2.4,0.5,2.4,2.8v4.3h-1.2v-4c0-1.3-0.3-2-1.5-2
			c-0.9,0-1.4,0.4-1.7,0.7v5.4h-1.2V205.2z"/>
		<path d="M173.6,205.2h1.2v4.4c0.3-0.4,0.9-0.9,2-0.9c1.5,0,2.9,1,2.9,3.6c0,2.7-1.4,3.7-2.9,3.7c-1.1,0-1.8-0.6-2.2-1v0.9h-1
			V205.2z M174.8,214.2c0.4,0.4,1,0.7,1.7,0.7c1.3,0,2-1,2-2.6c0-1.6-0.7-2.6-2-2.6c-0.7,0-1.3,0.3-1.7,0.7V214.2z"/>
		<path d="M181.8,205.2h1.5v1.4h-1.5V205.2z M181.9,208.8h1.2v7h-1.2V208.8z"/>
		<path d="M185.8,208.8h1v0.9c0.4-0.6,1.1-1.1,2.3-1.1c1.2,0,2.4,0.5,2.4,2.8v4.3h-1.2v-4c0-1.3-0.3-2-1.5-2c-0.9,0-1.4,0.4-1.7,0.7
			v5.4h-1.2V208.8z"/>
		<path d="M197.8,209.8h-1.1v-1h0.6c0.5,0,0.7-0.2,0.7-0.7v-1.5h1v2.2h2.1v1H199v3.9c0,0.8,0.2,1.2,1,1.2c0.4,0,0.8-0.1,1-0.2v1
			c-0.2,0.1-0.6,0.2-1.2,0.2c-1.5,0-2-0.9-2-2.1V209.8z"/>
		<path d="M203,205.2h1.2v4.4c0.3-0.4,0.9-0.9,2.1-0.9c1.2,0,2.4,0.5,2.4,2.8v4.3h-1.2v-4c0-1.3-0.3-2-1.5-2c-0.9,0-1.4,0.4-1.7,0.7
			v5.4H203V205.2z"/>
		<path d="M217,213.5c-0.2,1.9-1.8,2.4-3,2.4c-1.6,0-3.1-1-3.1-3.6c0-2.7,1.6-3.6,3.1-3.6c1.4,0,3.1,0.8,3.1,3.6v0.2h-5
			c0,1.6,0.7,2.5,2,2.5c1,0,1.6-0.5,1.8-1.4H217z M215.8,211.7c-0.1-1.3-0.8-2.1-1.8-2.1c-1.2,0-1.8,0.7-1.9,2.1H215.8z"/>
		<path d="M218.6,217.9c0.2,0.1,0.5,0.1,0.8,0.1c0.6,0,0.9-0.3,1.3-1.2l0.4-1l-2.6-7.1h1.3l1.9,5.7l1.9-5.7h1.2l-3,8.1
			c-0.5,1.2-1,2.2-2.4,2.2c-0.4,0-0.7-0.1-0.8-0.1V217.9z"/>
		<path d="M230,205.2h1.2v4.4c0.3-0.4,0.9-0.9,2-0.9c1.5,0,2.9,1,2.9,3.6c0,2.7-1.4,3.7-2.9,3.7c-1.1,0-1.8-0.6-2.2-1v0.9h-1V205.2z
			 M231.2,214.2c0.4,0.4,1,0.7,1.7,0.7c1.3,0,2-1,2-2.6c0-1.6-0.7-2.6-2-2.6c-0.7,0-1.3,0.3-1.7,0.7V214.2z"/>
		<path d="M244.1,213.5c-0.2,1.9-1.8,2.4-3,2.4c-1.6,0-3.1-1-3.1-3.6c0-2.7,1.6-3.6,3.1-3.6c1.4,0,3.1,0.8,3.1,3.6v0.2h-5
			c0,1.6,0.7,2.5,2,2.5c1,0,1.6-0.5,1.8-1.4H244.1z M242.9,211.7c-0.1-1.3-0.8-2.1-1.8-2.1c-1.2,0-1.8,0.7-1.9,2.1H242.9z"/>
		<path d="M246.4,205.2h1.2v10.6h-1.2V205.2z"/>
		<path d="M249.8,212.3c0-2.8,1.7-3.6,3.2-3.6s3.2,0.8,3.2,3.6c0,2.8-1.7,3.6-3.2,3.6S249.8,215.1,249.8,212.3z M255.1,212.3
			c0-1.7-0.7-2.6-2-2.6s-2,0.9-2,2.6c0,1.7,0.7,2.6,2,2.6S255.1,214,255.1,212.3z"/>
		<path d="M258.5,208.8h1v0.9c0.4-0.6,1.1-1.1,2.3-1.1c1.2,0,2.4,0.5,2.4,2.8v4.3H263v-4c0-1.3-0.3-2-1.5-2c-0.9,0-1.4,0.4-1.7,0.7
			v5.4h-1.2V208.8z"/>
		<path d="M269.2,208.6c0.8,0,1.8,0.3,2.4,1c0.3-0.6,0.9-1,1.9-1v1.2c-0.7,0-1.2,0.1-1.5,0.5c0.1,0.3,0.2,0.5,0.2,0.9
			c0,1.8-1.6,2.5-2.8,2.5c-0.4,0-0.8-0.1-1.2-0.2c-0.3,0.1-0.6,0.4-0.6,0.7c0,0.4,0.4,0.6,1.1,0.6h1.8c1.3,0,2.5,0.5,2.5,1.9
			c0,1.5-1.3,2.4-3.5,2.4c-2.1,0-3.2-0.8-3.2-2c0-0.8,0.5-1.3,1.2-1.6c-0.4-0.2-0.8-0.5-0.8-1.1s0.4-1,0.9-1.3c-0.6-0.4-1-1-1-2
			C266.4,209.3,268,208.6,269.2,208.6z M268.2,215.8c-0.4,0.1-0.9,0.5-0.9,1.1s0.5,1.2,2.1,1.2c1.5,0,2.3-0.5,2.3-1.4
			c0-0.6-0.5-1-1.5-1H268.2z M269.2,209.6c-1,0-1.7,0.6-1.7,1.6s0.6,1.6,1.7,1.6s1.7-0.6,1.7-1.6S270.3,209.6,269.2,209.6z"/>
		<path d="M278.7,209.8h-1.1v-1h0.6c0.5,0,0.7-0.2,0.7-0.7v-1.5h1v2.2h2.1v1h-2.1v3.9c0,0.8,0.2,1.2,1,1.2c0.4,0,0.8-0.1,1-0.2v1
			c-0.2,0.1-0.6,0.2-1.2,0.2c-1.5,0-2-0.9-2-2.1V209.8z"/>
		<path d="M283.4,212.3c0-2.8,1.7-3.6,3.2-3.6s3.2,0.8,3.2,3.6c0,2.8-1.7,3.6-3.2,3.6S283.4,215.1,283.4,212.3z M288.6,212.3
			c0-1.7-0.7-2.6-2-2.6s-2,0.9-2,2.6c0,1.7,0.7,2.6,2,2.6S288.6,214,288.6,212.3z"/>
		<path d="M299.3,214.9c-0.4,0.5-1.2,1.1-2.4,1.1c-1.6,0-2.2-0.9-2.2-1.9c0-1.7,1.6-2.1,2.7-2.2l1.7-0.1v-0.2c0-1.2-0.2-1.9-1.4-1.9
			c-1.1,0-1.5,0.5-1.5,1.5H295c0-2.1,1.6-2.5,2.8-2.5c1.9,0,2.5,1,2.5,2.7v3.2c0,0.3,0.1,0.4,0.4,0.4c0.2,0,0.4-0.1,0.6-0.2v0.9
			c-0.2,0.1-0.6,0.2-1,0.2c-0.9,0-1-0.5-1-0.9V214.9z M299.1,212.5l-1.5,0.2c-1.1,0.1-1.7,0.5-1.7,1.3c0,0.6,0.4,1,1.3,1
			c0.8,0,1.4-0.3,1.9-0.7V212.5z"/>
		<path d="M303.1,208.8h1v0.9c0.4-0.6,1.1-1.1,2.3-1.1c1.2,0,2.4,0.5,2.4,2.8v4.3h-1.2v-4c0-1.3-0.3-2-1.5-2c-0.9,0-1.4,0.4-1.7,0.7
			v5.4h-1.2V208.8z"/>
		<path d="M316,214.9c-0.4,0.5-1.1,1-2.2,1c-1.5,0-2.9-1-2.9-3.6c0-2.7,1.4-3.7,2.9-3.7c1,0,1.7,0.5,2,0.9v-4.4h1.2v10.6h-1V214.9z
			 M315.8,210.4c-0.4-0.4-1-0.7-1.7-0.7c-1.3,0-2,0.9-2,2.6c0,1.6,0.7,2.6,2,2.6c0.7,0,1.3-0.3,1.7-0.7V210.4z"/>
		<path d="M82.9,228h1.2l1.6,5.6l1.6-5.6h1.3l1.6,5.6l1.6-5.6h1.2l-2.1,7h-1.3l-1.6-5.5l-1.6,5.5h-1.3L82.9,228z"/>
		<path d="M94.8,224.4H96v4.4c0.3-0.4,0.9-0.9,2.1-0.9c1.2,0,2.4,0.5,2.4,2.8v4.3h-1.2v-4c0-1.3-0.3-2-1.5-2c-0.9,0-1.4,0.4-1.7,0.7
			v5.4h-1.2V224.4z"/>
		<path d="M108.7,232.7c-0.2,1.9-1.8,2.4-3,2.4c-1.6,0-3.1-1-3.1-3.6c0-2.7,1.6-3.6,3.1-3.6c1.4,0,3.1,0.8,3.1,3.6v0.2h-5
			c0,1.6,0.7,2.5,2,2.5c1,0,1.6-0.5,1.8-1.4H108.7z M107.6,230.9c-0.1-1.3-0.8-2.1-1.8-2.1c-1.2,0-1.8,0.7-1.9,2.1H107.6z"/>
		<path d="M111.2,229h-1.1v-1h0.6c0.5,0,0.7-0.2,0.7-0.7v-1.5h1v2.2h2.1v1h-2.1v3.9c0,0.8,0.2,1.2,1,1.2c0.4,0,0.8-0.1,1-0.2v1
			c-0.2,0.1-0.6,0.2-1.2,0.2c-1.5,0-2-0.9-2-2.1V229z"/>
		<path d="M116.4,224.4h1.2v4.4c0.3-0.4,0.9-0.9,2.1-0.9c1.2,0,2.4,0.5,2.4,2.8v4.3h-1.2v-4c0-1.3-0.3-2-1.5-2
			c-0.9,0-1.4,0.4-1.7,0.7v5.4h-1.2V224.4z"/>
		<path d="M130.4,232.7c-0.2,1.9-1.8,2.4-3,2.4c-1.6,0-3.1-1-3.1-3.6c0-2.7,1.6-3.6,3.1-3.6c1.4,0,3.1,0.8,3.1,3.6v0.2h-5
			c0,1.6,0.7,2.5,2,2.5c1,0,1.6-0.5,1.8-1.4H130.4z M129.2,230.9c-0.1-1.3-0.8-2.1-1.8-2.1c-1.2,0-1.8,0.7-1.9,2.1H129.2z"/>
		<path d="M132.7,228h1v0.9c0.3-0.6,0.8-1.1,1.9-1.1c0.5,0,0.7,0.1,0.8,0.1v1.1c-0.2-0.1-0.6-0.2-1-0.2c-0.9,0-1.3,0.4-1.5,0.7v5.4
			h-1.2V228z"/>
		<path d="M140.5,231.5c0-2.8,1.7-3.6,3.2-3.6c1.5,0,3.2,0.8,3.2,3.6c0,2.8-1.7,3.6-3.2,3.6C142.2,235.1,140.5,234.3,140.5,231.5z
			 M145.7,231.5c0-1.7-0.7-2.6-2-2.6s-2,0.9-2,2.6s0.7,2.6,2,2.6S145.7,233.2,145.7,231.5z"/>
		<path d="M149.2,228h1v0.9c0.3-0.6,0.8-1.1,1.9-1.1c0.5,0,0.7,0.1,0.8,0.1v1.1c-0.2-0.1-0.6-0.2-1-0.2c-0.9,0-1.3,0.4-1.5,0.7v5.4
			h-1.2V228z"/>
		<path d="M157.8,228h1v0.9c0.4-0.6,1.1-1.1,2.3-1.1c1.2,0,2.4,0.5,2.4,2.8v4.3h-1.2v-4c0-1.3-0.3-2-1.5-2c-0.9,0-1.4,0.4-1.7,0.7
			v5.4h-1.2V228z"/>
		<path d="M165.6,231.5c0-2.8,1.7-3.6,3.2-3.6s3.2,0.8,3.2,3.6c0,2.8-1.7,3.6-3.2,3.6S165.6,234.3,165.6,231.5z M170.8,231.5
			c0-1.7-0.7-2.6-2-2.6s-2,0.9-2,2.6s0.7,2.6,2,2.6S170.8,233.2,170.8,231.5z"/>
		<path d="M174.5,229h-1.1v-1h0.6c0.5,0,0.7-0.2,0.7-0.7v-1.5h1v2.2h2.1v1h-2.1v3.9c0,0.8,0.2,1.2,1,1.2c0.4,0,0.8-0.1,1-0.2v1
			c-0.2,0.1-0.6,0.2-1.2,0.2c-1.5,0-2-0.9-2-2.1V229z"/>
		<path d="M183.2,229h-1.1v-1h0.6c0.5,0,0.7-0.2,0.7-0.7v-1.5h1v2.2h2.1v1h-2.1v3.9c0,0.8,0.2,1.2,1,1.2c0.4,0,0.8-0.1,1-0.2v1
			c-0.2,0.1-0.6,0.2-1.2,0.2c-1.5,0-2-0.9-2-2.1V229z"/>
		<path d="M188.5,224.4h1.2v4.4c0.3-0.4,0.9-0.9,2.1-0.9c1.2,0,2.4,0.5,2.4,2.8v4.3h-1.2v-4c0-1.3-0.3-2-1.5-2
			c-0.9,0-1.4,0.4-1.7,0.7v5.4h-1.2V224.4z"/>
		<path d="M202.4,232.7c-0.2,1.9-1.8,2.4-3,2.4c-1.6,0-3.1-1-3.1-3.6c0-2.7,1.6-3.6,3.1-3.6c1.4,0,3.1,0.8,3.1,3.6v0.2h-5
			c0,1.6,0.7,2.5,2,2.5c1,0,1.6-0.5,1.8-1.4H202.4z M201.3,230.9c-0.1-1.3-0.8-2.1-1.8-2.1c-1.2,0-1.8,0.7-1.9,2.1H201.3z"/>
		<path d="M204,237.1c0.2,0.1,0.5,0.1,0.8,0.1c0.6,0,0.9-0.3,1.3-1.2l0.4-1l-2.6-7.1h1.3l1.9,5.7l1.9-5.7h1.2l-3,8.1
			c-0.5,1.2-1,2.2-2.4,2.2c-0.4,0-0.7-0.1-0.8-0.1V237.1z"/>
		<path d="M220.8,232.6c-0.1,1.7-1.2,2.5-2.8,2.5c-1.4,0-3.2-0.7-3.2-3.6c0-2.9,1.8-3.6,3.2-3.6c1.6,0,2.7,0.9,2.8,2.5h-1.2
			c0-0.8-0.5-1.5-1.6-1.5c-1.3,0-2,0.9-2,2.6s0.7,2.6,2,2.6c1.1,0,1.6-0.7,1.6-1.5H220.8z"/>
		<path d="M227,234.1c-0.4,0.5-1.2,1.1-2.4,1.1c-1.6,0-2.2-0.9-2.2-1.9c0-1.7,1.6-2.1,2.7-2.2l1.7-0.1v-0.2c0-1.2-0.2-1.9-1.4-1.9
			c-1.1,0-1.5,0.5-1.5,1.5h-1.2c0-2.1,1.6-2.5,2.8-2.5c1.9,0,2.5,1,2.5,2.7v3.2c0,0.3,0.1,0.4,0.4,0.4c0.2,0,0.4-0.1,0.6-0.2v0.9
			c-0.2,0.1-0.6,0.2-1,0.2c-0.9,0-1-0.5-1-0.9V234.1z M226.8,231.7l-1.5,0.2c-1.1,0.1-1.7,0.5-1.7,1.3c0,0.6,0.4,1,1.3,1
			c0.8,0,1.4-0.3,1.9-0.7V231.7z"/>
		<path d="M230.8,228h1v0.9c0.4-0.6,1.1-1.1,2.3-1.1c1.2,0,2.4,0.5,2.4,2.8v4.3h-1.2v-4c0-1.3-0.3-2-1.5-2c-0.9,0-1.4,0.4-1.7,0.7
			v5.4h-1.2V228z"/>
		<path d="M242.6,224.4h1.2v4.4c0.3-0.4,0.9-0.9,2-0.9c1.5,0,2.9,1,2.9,3.6c0,2.7-1.4,3.7-2.9,3.7c-1.1,0-1.8-0.6-2.2-1v0.9h-1
			V224.4z M243.8,233.4c0.4,0.4,1,0.7,1.7,0.7c1.3,0,2-1,2-2.6s-0.7-2.6-2-2.6c-0.7,0-1.3,0.3-1.7,0.7V233.4z"/>
		<path d="M256.7,232.7c-0.2,1.9-1.8,2.4-3,2.4c-1.6,0-3.1-1-3.1-3.6c0-2.7,1.6-3.6,3.1-3.6c1.4,0,3.1,0.8,3.1,3.6v0.2h-5
			c0,1.6,0.7,2.5,2,2.5c1,0,1.6-0.5,1.8-1.4H256.7z M255.5,230.9c-0.1-1.3-0.8-2.1-1.8-2.1c-1.2,0-1.8,0.7-1.9,2.1H255.5z"/>
		<path d="M262.3,228h1v0.9c0.4-0.5,1.1-1,2.2-1c1.5,0,2.9,1,2.9,3.6c0,2.7-1.4,3.7-2.9,3.7c-1,0-1.7-0.5-2-0.9v3.9h-1.2V228z
			 M263.5,233.4c0.4,0.4,1,0.7,1.7,0.7c1.3,0,2-1,2-2.6c0-1.6-0.7-2.6-2-2.6c-0.7,0-1.3,0.3-1.7,0.7V233.4z"/>
		<path d="M274.7,234.1c-0.4,0.5-1.2,1.1-2.4,1.1c-1.6,0-2.2-0.9-2.2-1.9c0-1.7,1.6-2.1,2.7-2.2l1.7-0.1v-0.2c0-1.2-0.2-1.9-1.4-1.9
			c-1.1,0-1.5,0.5-1.5,1.5h-1.2c0-2.1,1.6-2.5,2.8-2.5c1.9,0,2.5,1,2.5,2.7v3.2c0,0.3,0.1,0.4,0.4,0.4c0.2,0,0.4-0.1,0.6-0.2v0.9
			c-0.2,0.1-0.6,0.2-1,0.2c-0.9,0-1-0.5-1-0.9V234.1z M274.5,231.7l-1.5,0.2c-1.1,0.1-1.7,0.5-1.7,1.3c0,0.6,0.4,1,1.3,1
			c0.8,0,1.4-0.3,1.9-0.7V231.7z"/>
		<path d="M278.5,228h1v0.9c0.3-0.6,0.8-1.1,1.9-1.1c0.5,0,0.7,0.1,0.8,0.1v1.1c-0.2-0.1-0.6-0.2-1-0.2c-0.9,0-1.3,0.4-1.5,0.7v5.4
			h-1.2V228z"/>
		<path d="M284,229h-1.1v-1h0.6c0.5,0,0.7-0.2,0.7-0.7v-1.5h1v2.2h2.1v1h-2.1v3.9c0,0.8,0.2,1.2,1,1.2c0.4,0,0.8-0.1,1-0.2v1
			c-0.2,0.1-0.6,0.2-1.2,0.2c-1.5,0-2-0.9-2-2.1V229z"/>
		<path d="M289.1,224.4h1.5v1.4h-1.5V224.4z M289.2,228h1.2v7h-1.2V228z"/>
		<path d="M297.2,234.1c-0.4,0.5-1.2,1.1-2.4,1.1c-1.6,0-2.2-0.9-2.2-1.9c0-1.7,1.6-2.1,2.7-2.2l1.7-0.1v-0.2c0-1.2-0.2-1.9-1.4-1.9
			c-1.1,0-1.5,0.5-1.5,1.5h-1.2c0-2.1,1.6-2.5,2.8-2.5c1.9,0,2.5,1,2.5,2.7v3.2c0,0.3,0.1,0.4,0.4,0.4c0.2,0,0.4-0.1,0.6-0.2v0.9
			c-0.2,0.1-0.6,0.2-1,0.2c-0.9,0-1-0.5-1-0.9V234.1z M297,231.7l-1.5,0.2c-1.1,0.1-1.7,0.5-1.7,1.3c0,0.6,0.4,1,1.3,1
			c0.8,0,1.4-0.3,1.9-0.7V231.7z"/>
		<path d="M301,224.4h1.2V235H301V224.4z"/>
		<path d="M304.9,224.4h1.2V235h-1.2V224.4z"/>
		<path d="M308.2,237.1c0.2,0.1,0.5,0.1,0.8,0.1c0.6,0,0.9-0.3,1.3-1.2l0.4-1L308,228h1.3l1.9,5.7l1.9-5.7h1.2l-3,8.1
			c-0.5,1.2-1,2.2-2.4,2.2c-0.4,0-0.7-0.1-0.8-0.1V237.1z"/>
		<path d="M83.3,250.7c0-2.8,1.7-3.6,3.2-3.6c1.5,0,3.2,0.8,3.2,3.6c0,2.8-1.7,3.6-3.2,3.6C85,254.3,83.3,253.5,83.3,250.7z
			 M88.5,250.7c0-1.7-0.7-2.6-2-2.6s-2,0.9-2,2.6s0.7,2.6,2,2.6S88.5,252.4,88.5,250.7z"/>
		<path d="M92,247.2h1v0.9c0.3-0.6,0.8-1.1,1.9-1.1c0.5,0,0.7,0.1,0.8,0.1v1.1c-0.2-0.1-0.6-0.2-1-0.2c-0.9,0-1.3,0.4-1.5,0.7v5.4
			H92V247.2z"/>
		<path d="M106,251.9c-0.2,1.9-1.8,2.4-3,2.4c-1.6,0-3.1-1-3.1-3.6c0-2.7,1.6-3.6,3.1-3.6c1.4,0,3.1,0.8,3.1,3.6v0.2h-5
			c0,1.6,0.7,2.5,2,2.5c1,0,1.6-0.5,1.8-1.4H106z M104.8,250.1c-0.1-1.3-0.8-2.1-1.8-2.1c-1.2,0-1.8,0.7-1.9,2.1H104.8z"/>
		<path d="M108.3,247.2h1v0.9c0.4-0.6,1.1-1.1,2.3-1.1c1.2,0,2.4,0.5,2.4,2.8v4.3h-1.2v-4c0-1.3-0.3-2-1.5-2c-0.9,0-1.4,0.4-1.7,0.7
			v5.4h-1.2V247.2z"/>
		<path d="M116.8,248.2h-1.1v-1h0.6c0.5,0,0.7-0.2,0.7-0.7V245h1v2.2h2.1v1H118v3.9c0,0.8,0.2,1.2,1,1.2c0.4,0,0.8-0.1,1-0.2v1
			c-0.2,0.1-0.6,0.2-1.2,0.2c-1.5,0-2-0.9-2-2.1V248.2z"/>
		<path d="M121.9,243.6h1.5v1.4h-1.5V243.6z M122,247.2h1.2v7H122V247.2z"/>
		<path d="M125.9,247.2h1v0.9c0.3-0.6,0.8-1.1,1.9-1.1c0.5,0,0.7,0.1,0.8,0.1v1.1c-0.2-0.1-0.6-0.2-1-0.2c-0.9,0-1.3,0.4-1.5,0.7
			v5.4h-1.2V247.2z"/>
		<path d="M136.9,251.9c-0.2,1.9-1.8,2.4-3,2.4c-1.6,0-3.1-1-3.1-3.6c0-2.7,1.6-3.6,3.1-3.6c1.4,0,3.1,0.8,3.1,3.6v0.2h-5
			c0,1.6,0.7,2.5,2,2.5c1,0,1.6-0.5,1.8-1.4H136.9z M135.7,250.1c-0.1-1.3-0.8-2.1-1.8-2.1c-1.2,0-1.8,0.7-1.9,2.1H135.7z"/>
		<path d="M139.2,243.6h1.2v10.6h-1.2V243.6z"/>
		<path d="M142.4,256.3c0.2,0.1,0.5,0.1,0.8,0.1c0.6,0,0.9-0.3,1.3-1.2l0.4-1l-2.6-7.1h1.3l1.9,5.7l1.9-5.7h1.2l-3,8.1
			c-0.5,1.2-1,2.2-2.4,2.2c-0.4,0-0.7-0.1-0.8-0.1V256.3z"/>
		<path d="M153.9,247.2h1v0.9c0.3-0.6,0.8-1.1,1.9-1.1c0.5,0,0.7,0.1,0.8,0.1v1.1c-0.2-0.1-0.6-0.2-1-0.2c-0.9,0-1.3,0.4-1.5,0.7
			v5.4h-1.2V247.2z"/>
		<path d="M164.8,251.9c-0.2,1.9-1.8,2.4-3,2.4c-1.6,0-3.1-1-3.1-3.6c0-2.7,1.6-3.6,3.1-3.6c1.4,0,3.1,0.8,3.1,3.6v0.2h-5
			c0,1.6,0.7,2.5,2,2.5c1,0,1.6-0.5,1.8-1.4H164.8z M163.6,250.1c-0.1-1.3-0.8-2.1-1.8-2.1c-1.2,0-1.8,0.7-1.9,2.1H163.6z"/>
		<path d="M172.7,251.8c-0.1,1.7-1.2,2.5-2.8,2.5c-1.4,0-3.2-0.7-3.2-3.6c0-2.9,1.8-3.6,3.2-3.6c1.6,0,2.7,0.9,2.8,2.5h-1.2
			c0-0.8-0.5-1.5-1.6-1.5c-1.3,0-2,0.9-2,2.6s0.7,2.6,2,2.6c1.1,0,1.6-0.7,1.6-1.5H172.7z"/>
		<path d="M174.2,256.3c0.2,0.1,0.5,0.1,0.8,0.1c0.6,0,0.9-0.3,1.3-1.2l0.4-1l-2.6-7.1h1.3l1.9,5.7l1.9-5.7h1.2l-3,8.1
			c-0.5,1.2-1,2.2-2.4,2.2c-0.4,0-0.7-0.1-0.8-0.1V256.3z"/>
		<path d="M187.8,251.8c-0.1,1.7-1.2,2.5-2.8,2.5c-1.4,0-3.2-0.7-3.2-3.6c0-2.9,1.8-3.6,3.2-3.6c1.6,0,2.7,0.9,2.8,2.5h-1.2
			c0-0.8-0.5-1.5-1.6-1.5c-1.3,0-2,0.9-2,2.6s0.7,2.6,2,2.6c1.1,0,1.6-0.7,1.6-1.5H187.8z"/>
		<path d="M190,243.6h1.2v10.6H190V243.6z"/>
		<path d="M198,253.3c-0.4,0.5-1.2,1.1-2.4,1.1c-1.6,0-2.2-0.9-2.2-1.9c0-1.7,1.6-2.1,2.7-2.2l1.7-0.1v-0.2c0-1.2-0.2-1.9-1.4-1.9
			c-1.1,0-1.5,0.5-1.5,1.5h-1.2c0-2.1,1.6-2.5,2.8-2.5c1.9,0,2.5,1,2.5,2.7v3.2c0,0.3,0.1,0.4,0.4,0.4c0.2,0,0.4-0.1,0.6-0.2v0.9
			c-0.2,0.1-0.6,0.2-1,0.2c-0.9,0-1-0.5-1-0.9V253.3z M197.8,250.9l-1.5,0.2c-1.1,0.1-1.7,0.5-1.7,1.3c0,0.6,0.4,1,1.3,1
			c0.8,0,1.4-0.3,1.9-0.7V250.9z"/>
		<path d="M201.7,243.6h1.2v4.4c0.3-0.4,0.9-0.9,2-0.9c1.5,0,2.9,1,2.9,3.6c0,2.7-1.4,3.7-2.9,3.7c-1.1,0-1.8-0.6-2.2-1v0.9h-1
			V243.6z M202.9,252.6c0.4,0.4,1,0.7,1.7,0.7c1.3,0,2-1,2-2.6s-0.7-2.6-2-2.6c-0.7,0-1.3,0.3-1.7,0.7V252.6z"/>
		<path d="M210.1,243.6h1.2v10.6h-1.2V243.6z"/>
		<path d="M219.7,251.9c-0.2,1.9-1.8,2.4-3,2.4c-1.6,0-3.1-1-3.1-3.6c0-2.7,1.6-3.6,3.1-3.6c1.4,0,3.1,0.8,3.1,3.6v0.2h-5
			c0,1.6,0.7,2.5,2,2.5c1,0,1.6-0.5,1.8-1.4H219.7z M218.5,250.1c-0.1-1.3-0.8-2.1-1.8-2.1c-1.2,0-1.8,0.7-1.9,2.1H218.5z"/>
	</g>
	<g>
		<path d="M86,329.7l-3.2-5.4h1.4l2.5,4.3l2.5-4.3h1.3l-3.2,5.4v3.6H86V329.7z"/>
		<path d="M91.2,329.8c0-2.8,1.7-3.6,3.2-3.6c1.5,0,3.2,0.8,3.2,3.6c0,2.8-1.7,3.6-3.2,3.6C92.9,333.4,91.2,332.6,91.2,329.8z
			 M96.4,329.8c0-1.7-0.7-2.6-2-2.6s-2,0.9-2,2.6s0.7,2.6,2,2.6S96.4,331.5,96.4,329.8z"/>
		<path d="M99.8,326.3h1.2v4c0,1.3,0.3,2.1,1.5,2.1c0.9,0,1.4-0.4,1.7-0.7v-5.4h1.2v7h-1v-0.9c-0.4,0.6-1.1,1.1-2.3,1.1
			c-1.1,0-2.3-0.5-2.3-2.8V326.3z"/>
		<path d="M117,330.9c-0.1,1.7-1.2,2.5-2.8,2.5c-1.4,0-3.2-0.7-3.2-3.6c0-2.9,1.8-3.6,3.2-3.6c1.6,0,2.7,0.9,2.8,2.5h-1.2
			c0-0.8-0.5-1.5-1.6-1.5c-1.3,0-2,0.9-2,2.6s0.7,2.6,2,2.6c1.1,0,1.6-0.7,1.6-1.5H117z"/>
		<path d="M123.2,332.4c-0.4,0.5-1.2,1.1-2.4,1.1c-1.6,0-2.2-0.9-2.2-1.9c0-1.7,1.6-2.1,2.7-2.2l1.7-0.1V329c0-1.2-0.2-1.9-1.4-1.9
			c-1.1,0-1.5,0.5-1.5,1.5h-1.2c0-2.1,1.6-2.5,2.8-2.5c1.9,0,2.5,1,2.5,2.7v3.2c0,0.3,0.1,0.4,0.4,0.4c0.2,0,0.4-0.1,0.6-0.2v0.9
			c-0.2,0.1-0.6,0.2-1,0.2c-0.9,0-1-0.5-1-0.9V332.4z M123.1,330l-1.5,0.2c-1.1,0.1-1.7,0.5-1.7,1.3c0,0.6,0.4,1,1.3,1
			c0.8,0,1.4-0.3,1.9-0.7V330z"/>
		<path d="M127,326.3h1v0.9c0.4-0.6,1.1-1.1,2.3-1.1c1.2,0,2.4,0.5,2.4,2.8v4.3h-1.2v-4c0-1.3-0.3-2-1.5-2c-0.9,0-1.4,0.4-1.7,0.7
			v5.4H127V326.3z"/>
		<path d="M141.2,326.2c0.8,0,1.8,0.3,2.4,1c0.3-0.6,0.9-1,1.9-1v1.2c-0.7,0-1.2,0.1-1.5,0.5c0.1,0.3,0.2,0.5,0.2,0.9
			c0,1.8-1.6,2.5-2.8,2.5c-0.4,0-0.8-0.1-1.2-0.2c-0.3,0.1-0.6,0.4-0.6,0.7c0,0.4,0.4,0.6,1.1,0.6h1.8c1.3,0,2.5,0.5,2.5,1.9
			c0,1.5-1.3,2.4-3.5,2.4c-2.1,0-3.2-0.8-3.2-2c0-0.8,0.5-1.3,1.2-1.6c-0.4-0.2-0.8-0.5-0.8-1.1s0.4-1,0.9-1.3c-0.6-0.4-1-1-1-2
			C138.3,326.9,139.9,326.2,141.2,326.2z M140.1,333.3c-0.4,0.1-0.9,0.5-0.9,1.1s0.5,1.2,2.1,1.2c1.5,0,2.3-0.5,2.3-1.4
			c0-0.6-0.5-1-1.5-1H140.1z M141.2,327.1c-1,0-1.7,0.6-1.7,1.6s0.6,1.6,1.7,1.6s1.7-0.6,1.7-1.6S142.2,327.1,141.2,327.1z"/>
		<path d="M146.4,329.8c0-2.8,1.7-3.6,3.2-3.6c1.5,0,3.2,0.8,3.2,3.6c0,2.8-1.7,3.6-3.2,3.6C148.1,333.4,146.4,332.6,146.4,329.8z
			 M151.6,329.8c0-1.7-0.7-2.6-2-2.6s-2,0.9-2,2.6s0.7,2.6,2,2.6S151.6,331.5,151.6,329.8z"/>
		<path d="M158.3,322.7h1.2v4.4c0.3-0.4,0.9-0.9,2-0.9c1.5,0,2.9,1,2.9,3.6c0,2.7-1.4,3.7-2.9,3.7c-1.1,0-1.8-0.6-2.2-1v0.9h-1
			V322.7z M159.5,331.7c0.4,0.4,1,0.7,1.7,0.7c1.3,0,2-1,2-2.6s-0.7-2.6-2-2.6c-0.7,0-1.3,0.3-1.7,0.7V331.7z"/>
		<path d="M170.7,332.4c-0.4,0.5-1.2,1.1-2.4,1.1c-1.6,0-2.2-0.9-2.2-1.9c0-1.7,1.6-2.1,2.7-2.2l1.7-0.1V329c0-1.2-0.2-1.9-1.4-1.9
			c-1.1,0-1.5,0.5-1.5,1.5h-1.2c0-2.1,1.6-2.5,2.8-2.5c1.9,0,2.5,1,2.5,2.7v3.2c0,0.3,0.1,0.4,0.4,0.4c0.2,0,0.4-0.1,0.6-0.2v0.9
			c-0.2,0.1-0.6,0.2-1,0.2c-0.9,0-1-0.5-1-0.9V332.4z M170.5,330l-1.5,0.2c-1.1,0.1-1.7,0.5-1.7,1.3c0,0.6,0.4,1,1.3,1
			c0.8,0,1.4-0.3,1.9-0.7V330z"/>
		<path d="M180.1,330.9c-0.1,1.7-1.2,2.5-2.8,2.5c-1.4,0-3.2-0.7-3.2-3.6c0-2.9,1.8-3.6,3.2-3.6c1.6,0,2.7,0.9,2.8,2.5h-1.2
			c0-0.8-0.5-1.5-1.6-1.5c-1.3,0-2,0.9-2,2.6s0.7,2.6,2,2.6c1.1,0,1.6-0.7,1.6-1.5H180.1z"/>
		<path d="M182.3,322.7h1.2v6.9l3.2-3.3h1.4l-2.6,2.6l2.7,4.3h-1.4l-2.1-3.6l-1.2,1.2v2.4h-1.2V322.7z"/>
		<path d="M197.5,332.4c-0.4,0.5-1.2,1.1-2.4,1.1c-1.6,0-2.2-0.9-2.2-1.9c0-1.7,1.6-2.1,2.7-2.2l1.7-0.1V329c0-1.2-0.2-1.9-1.4-1.9
			c-1.1,0-1.5,0.5-1.5,1.5h-1.2c0-2.1,1.6-2.5,2.8-2.5c1.9,0,2.5,1,2.5,2.7v3.2c0,0.3,0.1,0.4,0.4,0.4c0.2,0,0.4-0.1,0.6-0.2v0.9
			c-0.2,0.1-0.6,0.2-1,0.2c-0.9,0-1-0.5-1-0.9V332.4z M197.3,330l-1.5,0.2c-1.1,0.1-1.7,0.5-1.7,1.3c0,0.6,0.4,1,1.3,1
			c0.8,0,1.4-0.3,1.9-0.7V330z"/>
		<path d="M201.3,326.3h1v0.9c0.4-0.6,1.1-1.1,2.3-1.1c1.2,0,2.4,0.5,2.4,2.8v4.3h-1.2v-4c0-1.3-0.3-2-1.5-2c-0.9,0-1.4,0.4-1.7,0.7
			v5.4h-1.2V326.3z"/>
		<path d="M214.2,332.4c-0.4,0.5-1.1,1-2.2,1c-1.5,0-2.9-1-2.9-3.6c0-2.7,1.4-3.7,2.9-3.7c1,0,1.7,0.5,2,0.9v-4.4h1.2v10.6h-1V332.4
			z M214,327.9c-0.4-0.4-1-0.7-1.7-0.7c-1.3,0-2,0.9-2,2.6s0.7,2.6,2,2.6c0.7,0,1.3-0.3,1.7-0.7V327.9z"/>
		<path d="M226.7,330.9c-0.1,1.7-1.2,2.5-2.8,2.5c-1.4,0-3.2-0.7-3.2-3.6c0-2.9,1.8-3.6,3.2-3.6c1.6,0,2.7,0.9,2.8,2.5h-1.2
			c0-0.8-0.5-1.5-1.6-1.5c-1.3,0-2,0.9-2,2.6s0.7,2.6,2,2.6c1.1,0,1.6-0.7,1.6-1.5H226.7z"/>
		<path d="M228.9,322.7h1.2v4.4c0.3-0.4,0.9-0.9,2.1-0.9c1.2,0,2.4,0.5,2.4,2.8v4.3h-1.2v-4c0-1.3-0.3-2-1.5-2
			c-0.9,0-1.4,0.4-1.7,0.7v5.4h-1.2V322.7z"/>
		<path d="M242.9,331c-0.2,1.9-1.8,2.4-3,2.4c-1.6,0-3.1-1-3.1-3.6c0-2.7,1.6-3.6,3.1-3.6c1.4,0,3.1,0.8,3.1,3.6v0.2h-5
			c0,1.6,0.7,2.5,2,2.5c1,0,1.6-0.5,1.8-1.4H242.9z M241.7,329.2c-0.1-1.3-0.8-2.1-1.8-2.1c-1.2,0-1.8,0.7-1.9,2.1H241.7z"/>
		<path d="M250.8,330.9c-0.1,1.7-1.2,2.5-2.8,2.5c-1.4,0-3.2-0.7-3.2-3.6c0-2.9,1.8-3.6,3.2-3.6c1.6,0,2.7,0.9,2.8,2.5h-1.2
			c0-0.8-0.5-1.5-1.6-1.5c-1.3,0-2,0.9-2,2.6s0.7,2.6,2,2.6c1.1,0,1.6-0.7,1.6-1.5H250.8z"/>
		<path d="M253,322.7h1.2v6.9l3.2-3.3h1.4l-2.6,2.6l2.7,4.3h-1.4l-2.1-3.6l-1.2,1.2v2.4H253V322.7z"/>
		<path d="M268.2,332.4c-0.4,0.5-1.2,1.1-2.4,1.1c-1.6,0-2.2-0.9-2.2-1.9c0-1.7,1.6-2.1,2.7-2.2l1.7-0.1V329c0-1.2-0.2-1.9-1.4-1.9
			c-1.1,0-1.5,0.5-1.5,1.5h-1.2c0-2.1,1.6-2.5,2.8-2.5c1.9,0,2.5,1,2.5,2.7v3.2c0,0.3,0.1,0.4,0.4,0.4c0.2,0,0.4-0.1,0.6-0.2v0.9
			c-0.2,0.1-0.6,0.2-1,0.2c-0.9,0-1-0.5-1-0.9V332.4z M268,330l-1.5,0.2c-1.1,0.1-1.7,0.5-1.7,1.3c0,0.6,0.4,1,1.3,1
			c0.8,0,1.4-0.3,1.9-0.7V330z"/>
		<path d="M272,322.7h1.2v10.6H272V322.7z"/>
		<path d="M275.9,322.7h1.2v10.6h-1.2V322.7z"/>
		<path d="M283.5,327.3h-1.1v-1h0.6c0.5,0,0.7-0.2,0.7-0.7v-1.5h1v2.2h2.1v1h-2.1v3.9c0,0.8,0.2,1.2,1,1.2c0.4,0,0.8-0.1,1-0.2v1
			c-0.2,0.1-0.6,0.2-1.2,0.2c-1.5,0-2-0.9-2-2.1V327.3z"/>
		<path d="M288.7,322.7h1.2v4.4c0.3-0.4,0.9-0.9,2.1-0.9c1.2,0,2.4,0.5,2.4,2.8v4.3h-1.2v-4c0-1.3-0.3-2-1.5-2
			c-0.9,0-1.4,0.4-1.7,0.7v5.4h-1.2V322.7z"/>
		<path d="M302.7,331c-0.2,1.9-1.8,2.4-3,2.4c-1.6,0-3.1-1-3.1-3.6c0-2.7,1.6-3.6,3.1-3.6c1.4,0,3.1,0.8,3.1,3.6v0.2h-5
			c0,1.6,0.7,2.5,2,2.5c1,0,1.6-0.5,1.8-1.4H302.7z M301.5,329.2c-0.1-1.3-0.8-2.1-1.8-2.1c-1.2,0-1.8,0.7-1.9,2.1H301.5z"/>
		<path d="M83.3,349c0-2.8,1.7-3.6,3.2-3.6c1.5,0,3.2,0.8,3.2,3.6c0,2.8-1.7,3.6-3.2,3.6C85,352.6,83.3,351.8,83.3,349z M88.5,349
			c0-1.7-0.7-2.6-2-2.6s-2,0.9-2,2.6s0.7,2.6,2,2.6S88.5,350.7,88.5,349z"/>
		<path d="M92,341.9h1.2v4.4c0.3-0.4,0.9-0.9,2-0.9c1.5,0,2.9,1,2.9,3.6c0,2.7-1.4,3.7-2.9,3.7c-1.1,0-1.8-0.6-2.2-1v0.9h-1V341.9z
			 M93.2,350.9c0.4,0.4,1,0.7,1.7,0.7c1.3,0,2-1,2-2.6s-0.7-2.6-2-2.6c-0.7,0-1.3,0.3-1.7,0.7V350.9z"/>
		<path d="M98.9,354.7c0.1,0,0.4,0.1,0.6,0.1c0.7,0,0.9-0.4,0.9-1.2v-8h1.2v8.1c0,1.2-0.6,2.1-2,2.1c-0.4,0-0.6-0.1-0.8-0.1V354.7z
			 M100.3,341.9h1.5v1.4h-1.5V341.9z"/>
		<path d="M110,350.2c-0.2,1.9-1.8,2.4-3,2.4c-1.6,0-3.1-1-3.1-3.6c0-2.7,1.6-3.6,3.1-3.6c1.4,0,3.1,0.8,3.1,3.6v0.2h-5
			c0,1.6,0.7,2.5,2,2.5c1,0,1.6-0.5,1.8-1.4H110z M108.9,348.4c-0.1-1.3-0.8-2.1-1.8-2.1c-1.2,0-1.8,0.7-1.9,2.1H108.9z"/>
		<path d="M118,350.1c-0.1,1.7-1.2,2.5-2.8,2.5c-1.4,0-3.2-0.7-3.2-3.6c0-2.9,1.8-3.6,3.2-3.6c1.6,0,2.7,0.9,2.8,2.5h-1.2
			c0-0.8-0.5-1.5-1.6-1.5c-1.3,0-2,0.9-2,2.6s0.7,2.6,2,2.6c1.1,0,1.6-0.7,1.6-1.5H118z"/>
		<path d="M120.3,346.5h-1.1v-1h0.6c0.5,0,0.7-0.2,0.7-0.7v-1.5h1v2.2h2.1v1h-2.1v3.9c0,0.8,0.2,1.2,1,1.2c0.4,0,0.8-0.1,1-0.2v1
			c-0.2,0.1-0.6,0.2-1.2,0.2c-1.5,0-2-0.9-2-2.1V346.5z"/>
		<path d="M126.2,350.3c0,0.9,0.8,1.5,1.9,1.5c0.9,0,1.5-0.4,1.5-1.1c0-0.8-0.9-1-2.1-1.3c-1-0.3-2.1-0.7-2.1-2
			c0-1.4,1.3-1.9,2.5-1.9c1.5,0,2.6,0.7,2.7,2.2h-1.2c0-0.7-0.6-1.3-1.5-1.3c-0.8,0-1.3,0.3-1.3,0.9c0,0.8,0.9,0.9,2.2,1.3
			c1,0.3,2.1,0.7,2.1,2c0,1.6-1.4,2.1-2.7,2.1c-1.7,0-2.9-0.8-3-2.4H126.2z"/>
		<path d="M135.6,354.7c0.2,0.1,0.5,0.1,0.8,0.1c0.6,0,0.9-0.3,1.3-1.2l0.4-1l-2.6-7.1h1.3l1.9,5.7l1.9-5.7h1.2l-3,8.1
			c-0.5,1.2-1,2.2-2.4,2.2c-0.4,0-0.7-0.1-0.8-0.1V354.7z"/>
		<path d="M143.1,349c0-2.8,1.7-3.6,3.2-3.6c1.5,0,3.2,0.8,3.2,3.6c0,2.8-1.7,3.6-3.2,3.6C144.8,352.6,143.1,351.8,143.1,349z
			 M148.3,349c0-1.7-0.7-2.6-2-2.6s-2,0.9-2,2.6s0.7,2.6,2,2.6S148.3,350.7,148.3,349z"/>
		<path d="M151.7,345.5h1.2v4c0,1.3,0.3,2.1,1.5,2.1c0.9,0,1.4-0.4,1.7-0.7v-5.4h1.2v7h-1v-0.9c-0.4,0.6-1.1,1.1-2.3,1.1
			c-1.1,0-2.3-0.5-2.3-2.8V345.5z"/>
		<path d="M168.9,350.1c-0.1,1.7-1.2,2.5-2.8,2.5c-1.4,0-3.2-0.7-3.2-3.6c0-2.9,1.8-3.6,3.2-3.6c1.6,0,2.7,0.9,2.8,2.5h-1.2
			c0-0.8-0.5-1.5-1.6-1.5c-1.3,0-2,0.9-2,2.6s0.7,2.6,2,2.6c1.1,0,1.6-0.7,1.6-1.5H168.9z"/>
		<path d="M170.7,349c0-2.8,1.7-3.6,3.2-3.6s3.2,0.8,3.2,3.6c0,2.8-1.7,3.6-3.2,3.6S170.7,351.8,170.7,349z M175.9,349
			c0-1.7-0.7-2.6-2-2.6s-2,0.9-2,2.6s0.7,2.6,2,2.6S175.9,350.7,175.9,349z"/>
		<path d="M179.4,341.9h1.2v10.6h-1.2V341.9z"/>
		<path d="M183.3,341.9h1.2v10.6h-1.2V341.9z"/>
		<path d="M192.9,350.2c-0.2,1.9-1.8,2.4-3,2.4c-1.6,0-3.1-1-3.1-3.6c0-2.7,1.6-3.6,3.1-3.6c1.4,0,3.1,0.8,3.1,3.6v0.2h-5
			c0,1.6,0.7,2.5,2,2.5c1,0,1.6-0.5,1.8-1.4H192.9z M191.7,348.4c-0.1-1.3-0.8-2.1-1.8-2.1c-1.2,0-1.8,0.7-1.9,2.1H191.7z"/>
		<path d="M200.8,350.1c-0.1,1.7-1.2,2.5-2.8,2.5c-1.4,0-3.2-0.7-3.2-3.6c0-2.9,1.8-3.6,3.2-3.6c1.6,0,2.7,0.9,2.8,2.5h-1.2
			c0-0.8-0.5-1.5-1.6-1.5c-1.3,0-2,0.9-2,2.6s0.7,2.6,2,2.6c1.1,0,1.6-0.7,1.6-1.5H200.8z"/>
		<path d="M203.2,346.5h-1.1v-1h0.6c0.5,0,0.7-0.2,0.7-0.7v-1.5h1v2.2h2.1v1h-2.1v3.9c0,0.8,0.2,1.2,1,1.2c0.4,0,0.8-0.1,1-0.2v1
			c-0.2,0.1-0.6,0.2-1.2,0.2c-1.5,0-2-0.9-2-2.1V346.5z"/>
		<path d="M214.1,350.2c-0.2,1.9-1.8,2.4-3,2.4c-1.6,0-3.1-1-3.1-3.6c0-2.7,1.6-3.6,3.1-3.6c1.4,0,3.1,0.8,3.1,3.6v0.2h-5
			c0,1.6,0.7,2.5,2,2.5c1,0,1.6-0.5,1.8-1.4H214.1z M212.9,348.4c-0.1-1.3-0.8-2.1-1.8-2.1c-1.2,0-1.8,0.7-1.9,2.1H212.9z"/>
		<path d="M221,351.6c-0.4,0.5-1.1,1-2.2,1c-1.5,0-2.9-1-2.9-3.6c0-2.7,1.4-3.7,2.9-3.7c1,0,1.7,0.5,2,0.9v-4.4h1.2v10.6h-1V351.6z
			 M220.8,347.1c-0.4-0.4-1-0.7-1.7-0.7c-1.3,0-2,0.9-2,2.6s0.7,2.6,2,2.6c0.7,0,1.3-0.3,1.7-0.7V347.1z"/>
		<path d="M228.2,341.9h1.2v4.4c0.3-0.4,0.9-0.9,2-0.9c1.5,0,2.9,1,2.9,3.6c0,2.7-1.4,3.7-2.9,3.7c-1.1,0-1.8-0.6-2.2-1v0.9h-1
			V341.9z M229.4,350.9c0.4,0.4,1,0.7,1.7,0.7c1.3,0,2-1,2-2.6s-0.7-2.6-2-2.6c-0.7,0-1.3,0.3-1.7,0.7V350.9z"/>
		<path d="M235.8,354.7c0.2,0.1,0.5,0.1,0.8,0.1c0.6,0,0.9-0.3,1.3-1.2l0.4-1l-2.6-7.1h1.3l1.9,5.7l1.9-5.7h1.2l-3,8.1
			c-0.5,1.2-1,2.2-2.4,2.2c-0.4,0-0.7-0.1-0.8-0.1V354.7z"/>
		<path d="M252.6,350.1c-0.1,1.7-1.2,2.5-2.8,2.5c-1.4,0-3.2-0.7-3.2-3.6c0-2.9,1.8-3.6,3.2-3.6c1.6,0,2.7,0.9,2.8,2.5h-1.2
			c0-0.8-0.5-1.5-1.6-1.5c-1.3,0-2,0.9-2,2.6s0.7,2.6,2,2.6c1.1,0,1.6-0.7,1.6-1.5H252.6z"/>
		<path d="M254.8,341.9h1.2v10.6h-1.2V341.9z"/>
		<path d="M258.6,341.9h1.5v1.4h-1.5V341.9z M258.7,345.5h1.2v7h-1.2V345.5z"/>
		<path d="M268.3,350.1c-0.1,1.7-1.2,2.5-2.8,2.5c-1.4,0-3.2-0.7-3.2-3.6c0-2.9,1.8-3.6,3.2-3.6c1.6,0,2.7,0.9,2.8,2.5h-1.2
			c0-0.8-0.5-1.5-1.6-1.5c-1.3,0-2,0.9-2,2.6s0.7,2.6,2,2.6c1.1,0,1.6-0.7,1.6-1.5H268.3z"/>
		<path d="M270.5,341.9h1.2v6.9l3.2-3.3h1.4l-2.6,2.6l2.7,4.3H275l-2.1-3.6l-1.2,1.2v2.4h-1.2V341.9z"/>
		<path d="M278.2,341.9h1.5v1.4h-1.5V341.9z M278.3,345.5h1.2v7h-1.2V345.5z"/>
		<path d="M282.2,345.5h1v0.9c0.4-0.6,1.1-1.1,2.3-1.1c1.2,0,2.4,0.5,2.4,2.8v4.3h-1.2v-4c0-1.3-0.3-2-1.5-2c-0.9,0-1.4,0.4-1.7,0.7
			v5.4h-1.2V345.5z"/>
		<path d="M292.9,345.4c0.8,0,1.8,0.3,2.4,1c0.3-0.6,0.9-1,1.9-1v1.2c-0.7,0-1.2,0.1-1.5,0.5c0.1,0.3,0.2,0.5,0.2,0.9
			c0,1.8-1.6,2.5-2.8,2.5c-0.4,0-0.8-0.1-1.2-0.2c-0.3,0.1-0.6,0.4-0.6,0.7c0,0.4,0.4,0.6,1.1,0.6h1.8c1.3,0,2.5,0.5,2.5,1.9
			c0,1.5-1.3,2.4-3.5,2.4c-2.1,0-3.2-0.8-3.2-2c0-0.8,0.5-1.3,1.2-1.6c-0.4-0.2-0.8-0.5-0.8-1.1s0.4-1,0.9-1.3c-0.6-0.4-1-1-1-2
			C290.1,346.1,291.7,345.4,292.9,345.4z M291.8,352.5c-0.4,0.1-0.9,0.5-0.9,1.1s0.5,1.2,2.1,1.2c1.5,0,2.3-0.5,2.3-1.4
			c0-0.6-0.5-1-1.5-1H291.8z M292.9,346.3c-1,0-1.7,0.6-1.7,1.6s0.6,1.6,1.7,1.6s1.7-0.6,1.7-1.6S294,346.3,292.9,346.3z"/>
		<path d="M302.3,346.5h-1.1v-1h0.6c0.5,0,0.7-0.2,0.7-0.7v-1.5h1v2.2h2.1v1h-2.1v3.9c0,0.8,0.2,1.2,1,1.2c0.4,0,0.8-0.1,1-0.2v1
			c-0.2,0.1-0.6,0.2-1.2,0.2c-1.5,0-2-0.9-2-2.1V346.5z"/>
		<path d="M307.6,341.9h1.2v4.4c0.3-0.4,0.9-0.9,2.1-0.9c1.2,0,2.4,0.5,2.4,2.8v4.3H312v-4c0-1.3-0.3-2-1.5-2
			c-0.9,0-1.4,0.4-1.7,0.7v5.4h-1.2V341.9z"/>
		<path d="M321.6,350.2c-0.2,1.9-1.8,2.4-3,2.4c-1.6,0-3.1-1-3.1-3.6c0-2.7,1.6-3.6,3.1-3.6c1.4,0,3.1,0.8,3.1,3.6v0.2h-5
			c0,1.6,0.7,2.5,2,2.5c1,0,1.6-0.5,1.8-1.4H321.6z M320.4,348.4c-0.1-1.3-0.8-2.1-1.8-2.1c-1.2,0-1.8,0.7-1.9,2.1H320.4z"/>
		<path d="M83.8,361.1H85v4.4c0.3-0.4,0.9-0.9,2-0.9c1.5,0,2.9,1,2.9,3.6c0,2.7-1.4,3.7-2.9,3.7c-1.1,0-1.8-0.6-2.2-1v0.9h-1V361.1z
			 M85,370.1c0.4,0.4,1,0.7,1.7,0.7c1.3,0,2-1,2-2.6c0-1.6-0.7-2.6-2-2.6c-0.7,0-1.3,0.3-1.7,0.7V370.1z"/>
		<path d="M92,361.1h1.5v1.4H92V361.1z M92.1,364.7h1.2v7h-1.2V364.7z"/>
		<path d="M96,364.7h1v0.9c0.4-0.6,1.1-1.1,2.3-1.1c1.2,0,2.4,0.5,2.4,2.8v4.3h-1.2v-4c0-1.3-0.3-2-1.5-2c-0.9,0-1.4,0.4-1.7,0.7
			v5.4H96V364.7z"/>
		<path d="M107.7,361.1h1.5v1.4h-1.5V361.1z M107.9,364.7h1.2v7h-1.2V364.7z"/>
		<path d="M117.4,369.3c-0.1,1.7-1.2,2.5-2.8,2.5c-1.4,0-3.2-0.7-3.2-3.6c0-2.9,1.8-3.6,3.2-3.6c1.6,0,2.7,0.9,2.8,2.5h-1.2
			c0-0.8-0.5-1.5-1.6-1.5c-1.3,0-2,0.9-2,2.6c0,1.7,0.7,2.6,2,2.6c1.1,0,1.6-0.7,1.6-1.5H117.4z"/>
		<path d="M119.2,368.2c0-2.8,1.7-3.6,3.2-3.6c1.5,0,3.2,0.8,3.2,3.6c0,2.8-1.7,3.6-3.2,3.6C120.9,371.8,119.2,371,119.2,368.2z
			 M124.4,368.2c0-1.7-0.7-2.6-2-2.6s-2,0.9-2,2.6c0,1.7,0.7,2.6,2,2.6S124.4,369.9,124.4,368.2z"/>
		<path d="M127.9,364.7h1v0.9c0.4-0.6,1.1-1.1,2.3-1.1c1.2,0,2.4,0.5,2.4,2.8v4.3h-1.2v-4c0-1.3-0.3-2-1.5-2c-0.9,0-1.4,0.4-1.7,0.7
			v5.4h-1.2V364.7z"/>
		<path d="M139,368.2c0-2.8,1.7-3.6,3.2-3.6c1.5,0,3.2,0.8,3.2,3.6c0,2.8-1.7,3.6-3.2,3.6C140.7,371.8,139,371,139,368.2z
			 M144.2,368.2c0-1.7-0.7-2.6-2-2.6s-2,0.9-2,2.6c0,1.7,0.7,2.6,2,2.6S144.2,369.9,144.2,368.2z"/>
		<path d="M147.7,364.7h1v0.9c0.4-0.6,1.1-1.1,2.3-1.1c1.2,0,2.4,0.5,2.4,2.8v4.3h-1.2v-4c0-1.3-0.3-2-1.5-2c-0.9,0-1.4,0.4-1.7,0.7
			v5.4h-1.2V364.7z"/>
		<path d="M159.6,365.7h-1.1v-1h0.6c0.5,0,0.7-0.2,0.7-0.7v-1.5h1v2.2h2.1v1h-2.1v3.9c0,0.8,0.2,1.2,1,1.2c0.4,0,0.8-0.1,1-0.2v1
			c-0.2,0.1-0.6,0.2-1.2,0.2c-1.5,0-2-0.9-2-2.1V365.7z"/>
		<path d="M164.9,361.1h1.2v4.4c0.3-0.4,0.9-0.9,2.1-0.9c1.2,0,2.4,0.5,2.4,2.8v4.3h-1.2v-4c0-1.3-0.3-2-1.5-2
			c-0.9,0-1.4,0.4-1.7,0.7v5.4h-1.2V361.1z"/>
		<path d="M178.8,369.4c-0.2,1.9-1.8,2.4-3,2.4c-1.6,0-3.1-1-3.1-3.6c0-2.7,1.6-3.6,3.1-3.6c1.4,0,3.1,0.8,3.1,3.6v0.2h-5
			c0,1.6,0.7,2.5,2,2.5c1,0,1.6-0.5,1.8-1.4H178.8z M177.7,367.6c-0.1-1.3-0.8-2.1-1.8-2.1c-1.2,0-1.8,0.7-1.9,2.1H177.7z"/>
		<path d="M184.5,361.1h1.2v4.4c0.3-0.4,0.9-0.9,2-0.9c1.5,0,2.9,1,2.9,3.6c0,2.7-1.4,3.7-2.9,3.7c-1.1,0-1.8-0.6-2.2-1v0.9h-1
			V361.1z M185.7,370.1c0.4,0.4,1,0.7,1.7,0.7c1.3,0,2-1,2-2.6c0-1.6-0.7-2.6-2-2.6c-0.7,0-1.3,0.3-1.7,0.7V370.1z"/>
		<path d="M192.4,368.2c0-2.8,1.7-3.6,3.2-3.6s3.2,0.8,3.2,3.6c0,2.8-1.7,3.6-3.2,3.6S192.4,371,192.4,368.2z M197.6,368.2
			c0-1.7-0.7-2.6-2-2.6s-2,0.9-2,2.6c0,1.7,0.7,2.6,2,2.6S197.6,369.9,197.6,368.2z"/>
		<path d="M201.3,365.7h-1.1v-1h0.6c0.5,0,0.7-0.2,0.7-0.7v-1.5h1v2.2h2.1v1h-2.1v3.9c0,0.8,0.2,1.2,1,1.2c0.4,0,0.8-0.1,1-0.2v1
			c-0.2,0.1-0.6,0.2-1.2,0.2c-1.5,0-2-0.9-2-2.1V365.7z"/>
		<path d="M206.4,365.7h-1.1v-1h0.6c0.5,0,0.7-0.2,0.7-0.7v-1.5h1v2.2h2.1v1h-2.1v3.9c0,0.8,0.2,1.2,1,1.2c0.4,0,0.8-0.1,1-0.2v1
			c-0.2,0.1-0.6,0.2-1.2,0.2c-1.5,0-2-0.9-2-2.1V365.7z"/>
		<path d="M211.1,368.2c0-2.8,1.7-3.6,3.2-3.6s3.2,0.8,3.2,3.6c0,2.8-1.7,3.6-3.2,3.6S211.1,371,211.1,368.2z M216.3,368.2
			c0-1.7-0.7-2.6-2-2.6s-2,0.9-2,2.6c0,1.7,0.7,2.6,2,2.6S216.3,369.9,216.3,368.2z"/>
		<path d="M219.8,364.7h1v0.9c0.4-0.6,1-1.1,2.2-1.1c0.8,0,1.5,0.2,1.9,1.1c0.4-0.6,1.2-1.1,2.3-1.1c1.1,0,2.2,0.5,2.2,2.8v4.3h-1.2
			v-4c0-1.3-0.2-2-1.4-2c-0.9,0-1.4,0.4-1.7,0.8c0,0.3,0.1,0.6,0.1,1v4.3H224v-4c0-1.3-0.3-2-1.4-2c-0.8,0-1.3,0.4-1.6,0.7v5.4h-1.2
			V364.7z"/>
		<path d="M235.6,364.7h1v0.9c0.3-0.6,0.8-1.1,1.9-1.1c0.5,0,0.7,0.1,0.8,0.1v1.1c-0.2-0.1-0.6-0.2-1-0.2c-0.9,0-1.3,0.4-1.5,0.7
			v5.4h-1.2V364.7z"/>
		<path d="M240.8,361.1h1.5v1.4h-1.5V361.1z M241,364.7h1.2v7H241V364.7z"/>
		<path d="M247.3,364.6c0.8,0,1.8,0.3,2.4,1c0.3-0.6,0.9-1,1.9-1v1.2c-0.7,0-1.2,0.1-1.5,0.5c0.1,0.3,0.2,0.5,0.2,0.9
			c0,1.8-1.6,2.5-2.8,2.5c-0.4,0-0.8-0.1-1.2-0.2c-0.3,0.1-0.6,0.4-0.6,0.7c0,0.4,0.4,0.6,1.1,0.6h1.8c1.3,0,2.5,0.5,2.5,1.9
			c0,1.5-1.3,2.4-3.5,2.4c-2.1,0-3.2-0.8-3.2-2c0-0.8,0.5-1.3,1.2-1.6c-0.4-0.2-0.8-0.5-0.8-1.1s0.4-1,0.9-1.3c-0.6-0.4-1-1-1-2
			C244.5,365.3,246.1,364.6,247.3,364.6z M246.2,371.7c-0.4,0.1-0.9,0.5-0.9,1.1s0.5,1.2,2.1,1.2c1.5,0,2.3-0.5,2.3-1.4
			c0-0.6-0.5-1-1.5-1H246.2z M247.3,365.5c-1,0-1.7,0.6-1.7,1.6s0.6,1.6,1.7,1.6s1.7-0.6,1.7-1.6S248.3,365.5,247.3,365.5z"/>
		<path d="M253.1,361.1h1.2v4.4c0.3-0.4,0.9-0.9,2.1-0.9c1.2,0,2.4,0.5,2.4,2.8v4.3h-1.2v-4c0-1.3-0.3-2-1.5-2
			c-0.9,0-1.4,0.4-1.7,0.7v5.4h-1.2V361.1z"/>
		<path d="M261.5,365.7h-1.1v-1h0.6c0.5,0,0.7-0.2,0.7-0.7v-1.5h1v2.2h2.1v1h-2.1v3.9c0,0.8,0.2,1.2,1,1.2c0.4,0,0.8-0.1,1-0.2v1
			c-0.2,0.1-0.6,0.2-1.2,0.2c-1.5,0-2-0.9-2-2.1V365.7z"/>
		<path d="M269.4,368.2c0-2.8,1.7-3.6,3.2-3.6s3.2,0.8,3.2,3.6c0,2.8-1.7,3.6-3.2,3.6S269.4,371,269.4,368.2z M274.6,368.2
			c0-1.7-0.7-2.6-2-2.6s-2,0.9-2,2.6c0,1.7,0.7,2.6,2,2.6S274.6,369.9,274.6,368.2z"/>
		<path d="M278.3,371.7v-6h-1.1v-1h1.1v-1.6c0-1.3,0.6-2.1,2-2.1c0.4,0,0.6,0,0.8,0.1v1c-0.2-0.1-0.4-0.1-0.6-0.1
			c-0.7,0-0.9,0.4-0.9,1.2v1.5h1.5v1h-1.5v6H278.3z"/>
		<path d="M286.2,365.7h-1.1v-1h0.6c0.5,0,0.7-0.2,0.7-0.7v-1.5h1v2.2h2.1v1h-2.1v3.9c0,0.8,0.2,1.2,1,1.2c0.4,0,0.8-0.1,1-0.2v1
			c-0.2,0.1-0.6,0.2-1.2,0.2c-1.5,0-2-0.9-2-2.1V365.7z"/>
		<path d="M291.4,361.1h1.2v4.4c0.3-0.4,0.9-0.9,2.1-0.9c1.2,0,2.4,0.5,2.4,2.8v4.3h-1.2v-4c0-1.3-0.3-2-1.5-2
			c-0.9,0-1.4,0.4-1.7,0.7v5.4h-1.2V361.1z"/>
		<path d="M305.4,369.4c-0.2,1.9-1.8,2.4-3,2.4c-1.6,0-3.1-1-3.1-3.6c0-2.7,1.6-3.6,3.1-3.6c1.4,0,3.1,0.8,3.1,3.6v0.2h-5
			c0,1.6,0.7,2.5,2,2.5c1,0,1.6-0.5,1.8-1.4H305.4z M304.2,367.6c-0.1-1.3-0.8-2.1-1.8-2.1c-1.2,0-1.8,0.7-1.9,2.1H304.2z"/>
		<path d="M311.6,369.5c0,0.9,0.8,1.5,1.9,1.5c0.9,0,1.5-0.4,1.5-1.1c0-0.8-0.9-1-2.1-1.3c-1-0.3-2.1-0.7-2.1-2
			c0-1.4,1.3-1.9,2.5-1.9c1.5,0,2.6,0.7,2.7,2.2h-1.2c0-0.7-0.6-1.3-1.5-1.3c-0.8,0-1.3,0.3-1.3,0.9c0,0.8,0.9,0.9,2.2,1.3
			c1,0.3,2.1,0.7,2.1,2c0,1.6-1.4,2.1-2.7,2.1c-1.7,0-2.9-0.8-3-2.4H311.6z"/>
		<path d="M324.1,369.3c-0.1,1.7-1.2,2.5-2.8,2.5c-1.4,0-3.2-0.7-3.2-3.6c0-2.9,1.8-3.6,3.2-3.6c1.6,0,2.7,0.9,2.8,2.5h-1.2
			c0-0.8-0.5-1.5-1.6-1.5c-1.3,0-2,0.9-2,2.6c0,1.7,0.7,2.6,2,2.6c1.1,0,1.6-0.7,1.6-1.5H324.1z"/>
		<path d="M326.3,364.7h1v0.9c0.3-0.6,0.8-1.1,1.9-1.1c0.5,0,0.7,0.1,0.8,0.1v1.1c-0.2-0.1-0.6-0.2-1-0.2c-0.9,0-1.3,0.4-1.5,0.7
			v5.4h-1.2V364.7z"/>
		<path d="M337.2,369.4c-0.2,1.9-1.8,2.4-3,2.4c-1.6,0-3.1-1-3.1-3.6c0-2.7,1.6-3.6,3.1-3.6c1.4,0,3.1,0.8,3.1,3.6v0.2h-5
			c0,1.6,0.7,2.5,2,2.5c1,0,1.6-0.5,1.8-1.4H337.2z M336.1,367.6c-0.1-1.3-0.8-2.1-1.8-2.1c-1.2,0-1.8,0.7-1.9,2.1H336.1z"/>
		<path d="M345.2,369.4c-0.2,1.9-1.8,2.4-3,2.4c-1.6,0-3.1-1-3.1-3.6c0-2.7,1.6-3.6,3.1-3.6c1.4,0,3.1,0.8,3.1,3.6v0.2h-5
			c0,1.6,0.7,2.5,2,2.5c1,0,1.6-0.5,1.8-1.4H345.2z M344.1,367.6c-0.1-1.3-0.8-2.1-1.8-2.1c-1.2,0-1.8,0.7-1.9,2.1H344.1z"/>
		<path d="M347.5,364.7h1v0.9c0.4-0.6,1.1-1.1,2.3-1.1c1.2,0,2.4,0.5,2.4,2.8v4.3H352v-4c0-1.3-0.3-2-1.5-2c-0.9,0-1.4,0.4-1.7,0.7
			v5.4h-1.2V364.7z"/>
	</g>
	<path class="st12" d="M340.9,336.4h4.6c8.2,0,14.9-6.7,14.9-14.9v-26c0-8.2-6.7-14.9-14.9-14.9H84c-8.2,0-14.9-6.7-14.9-14.9v-85.2
		c0-8.2,6.7-14.9,14.9-14.9h261.4c8.2,0,14.9-6.7,14.9-14.9V95.3c0-8.2-6.7-14.9-14.9-14.9h-225c-10.9,0-19.6-8.8-19.6-19.6v0"/>
	
		<rect x="332.9" y="330.8" transform="matrix(0.7071 0.7071 -0.7071 0.7071 337.0505 -140.8582)" class="st13" width="11.4" height="11.4"/>
	
		<rect x="92.9" y="55.2" transform="matrix(0.7071 0.7071 -0.7071 0.7071 71.8785 -51.8745)" class="st13" width="11.4" height="11.4"/>
</g>
</svg>
