<svg xmlns="http://www.w3.org/2000/svg" xmlns:xlink="http://www.w3.org/1999/xlink" viewBox="0 0 1256.27 649.65"><defs><style>.cls-1{fill:#fff;}.cls-2{fill:#fcde7e;}.cls-3{fill:#d1f28f;}.cls-4{fill:#dab0ff;}.cls-5{fill:url(#linear-gradient);}.cls-6{fill:#ad5050;}.cls-7{fill:#8da5d3;}.cls-8{fill:#83ffe7;}.cls-9{fill:#ea954e;}</style><linearGradient id="linear-gradient" x1="153.79" y1="122.03" x2="116.98" y2="38.37" gradientUnits="userSpaceOnUse"><stop offset="0" stop-color="#4bd400"/><stop offset="1" stop-color="#29abe2"/></linearGradient></defs><g id="background"><rect class="cls-1" x="259.56" y="195.09" width="57.96" height="57.96" transform="translate(-127.3 225.04) rotate(-45)"/><path d="M288.54,183.79l40.28,40.28-40.28,40.27-40.28-40.27,40.28-40.28m0-1.41-41.69,41.69,41.69,41.69,41.69-41.69-41.69-41.69Z" transform="translate(-53.37 -44.61)"/><rect class="cls-1" x="466.04" y="63.18" width="57.96" height="57.96" transform="translate(26.45 332.42) rotate(-45)"/><path d="M495,51.89,535.3,92.16,495,132.44,454.74,92.16,495,51.89m0-1.42L453.33,92.16,495,133.86l41.69-41.7L495,50.47Z" transform="translate(-53.37 -44.61)"/><rect class="cls-1" x="368.92" y="258.59" width="57.96" height="57.96" transform="translate(-140.17 320.97) rotate(-45)"/><path d="M397.9,247.29l40.28,40.28L397.9,327.84l-40.28-40.27,40.28-40.28m0-1.41-41.69,41.69,41.69,41.69,41.69-41.69L397.9,245.88Z" transform="translate(-53.37 -44.61)"/><rect class="cls-1" x="1019.94" y="184.07" width="57.96" height="57.96" transform="translate(103.2 759.49) rotate(-45)"/><path d="M1048.92,172.77l40.28,40.28-40.28,40.27-40.28-40.27,40.28-40.28m0-1.41-41.69,41.69,41.69,41.69,41.69-41.69-41.69-41.69Z" transform="translate(-53.37 -44.61)"/><rect class="cls-1" x="444.07" y="379.6" width="57.96" height="57.96" transform="translate(-203.73 409.56) rotate(-45)"/><path d="M473.05,368.3l40.28,40.28-40.28,40.27-40.28-40.27,40.28-40.28m0-1.41-41.69,41.69,41.69,41.69,41.69-41.69-41.69-41.69Z" transform="translate(-53.37 -44.61)"/><rect class="cls-1" x="402.38" y="514.65" width="57.96" height="57.96" transform="translate(-311.44 419.63) rotate(-45)"/><path d="M431.36,503.35l40.28,40.28-40.28,40.28-40.28-40.28,40.28-40.28m0-1.41-41.69,41.69,41.69,41.69,41.69-41.69-41.69-41.69Z" transform="translate(-53.37 -44.61)"/><rect class="cls-1" x="890.55" y="427.28" width="57.96" height="57.96" transform="translate(-106.67 739.23) rotate(-45)"/><path d="M919.54,416l40.27,40.28-40.27,40.28-40.28-40.28L919.54,416m0-1.41-41.7,41.69L919.54,498l41.69-41.69-41.69-41.69Z" transform="translate(-53.37 -44.61)"/><rect class="cls-1" x="654.02" y="236.78" width="57.96" height="57.96" transform="translate(-41.25 516.18) rotate(-45)"/><path d="M683,225.48l40.28,40.28L683,306l-40.28-40.28L683,225.48m0-1.41-41.69,41.69L683,307.45l41.69-41.69L683,224.07Z" transform="translate(-53.37 -44.61)"/><rect class="cls-1" x="603.42" y="424.25" width="57.96" height="57.96" transform="translate(-188.62 535.31) rotate(-45)"/><path d="M632.4,413l40.28,40.28L632.4,493.5l-40.27-40.27L632.4,413m0-1.42-41.69,41.7,41.69,41.69,41.7-41.69-41.7-41.7Z" transform="translate(-53.37 -44.61)"/><rect class="cls-1" x="284.72" y="422.37" width="57.96" height="57.96" transform="translate(-280.64 309.4) rotate(-45)"/><path d="M313.7,411.07,354,451.35,313.7,491.62l-40.28-40.27,40.28-40.28m0-1.42L272,451.35,313.7,493l41.69-41.69-41.69-41.7Z" transform="translate(-53.37 -44.61)"/><polygon class="cls-1" points="302.24 120.21 315.12 78.82 357.41 69.28 386.81 101.13 373.93 142.52 331.65 152.06 302.24 120.21"/><path d="M410.63,114.37l29.06,31.48L427,186.76l-41.79,9.43-29.06-31.48,12.73-40.91,41.79-9.43m.3-1-42.78,9.65-13,41.87,29.75,32.22,42.78-9.65,13-41.87-29.75-32.22Z" transform="translate(-53.37 -44.61)"/><polygon class="cls-1" points="455.15 179.17 468.03 137.78 510.31 128.24 539.72 160.09 526.84 201.48 484.55 211.02 455.15 179.17"/><path d="M563.53,173.33l29.06,31.48-12.73,40.91-41.79,9.43L509,223.67l12.73-40.91,41.79-9.43m.3-1L521.05,182l-13,41.87,29.75,32.22,42.78-9.65,13-41.87-29.75-32.22Z" transform="translate(-53.37 -44.61)"/><polygon class="cls-1" points="734.9 219.85 747.78 178.46 790.07 168.92 819.48 200.77 806.59 242.16 764.31 251.7 734.9 219.85"/><path d="M843.29,214l29.06,31.48L859.62,286.4l-41.79,9.43-29.06-31.48,12.73-40.91L843.29,214m.3-1-42.78,9.65-13,41.87,29.75,32.23,42.78-9.66,13-41.87-29.75-32.22Z" transform="translate(-53.37 -44.61)"/><polygon class="cls-1" points="646.95 537.52 659.83 496.13 702.11 486.59 731.52 518.43 718.64 559.83 676.35 569.37 646.95 537.52"/><path d="M755.33,531.68l29.07,31.48-12.73,40.91-41.79,9.42L700.81,582l12.73-40.91,41.79-9.43m.31-1-42.78,9.66-13,41.87,29.74,32.22,42.78-9.65,13-41.87-29.74-32.23Z" transform="translate(-53.37 -44.61)"/><polygon class="cls-1" points="30.68 220.89 3.92 194.12 3.92 156.27 30.68 129.5 68.54 129.5 95.3 156.27 95.3 194.12 68.54 220.89 30.68 220.89"/><path d="M121.7,174.61l26.48,26.47v37.44L121.7,265H84.26L57.79,238.52V201.08l26.47-26.47H121.7m.42-1H83.85L56.79,200.67v38.27L83.85,266h38.27l27.06-27.06V200.67l-27.06-27.06Z" transform="translate(-53.37 -44.61)"/><polygon class="cls-1" points="1106.17 646.68 1079.41 619.91 1079.41 582.06 1106.17 555.29 1144.03 555.29 1170.8 582.06 1170.8 619.91 1144.03 646.68 1106.17 646.68"/><path d="M1197.19,600.4l26.48,26.48v37.44l-26.48,26.47h-37.44l-26.47-26.47V626.88l26.47-26.48h37.44m.42-1h-38.27l-27.06,27.06v38.27l27.06,27.06h38.27l27.06-27.06V626.46l-27.06-27.06Z" transform="translate(-53.37 -44.61)"/><polygon class="cls-1" points="847.24 126.25 820.47 99.48 820.47 61.62 847.24 34.86 885.09 34.86 911.86 61.62 911.86 99.48 885.09 126.25 847.24 126.25"/><path d="M938.26,80l26.47,26.47v37.44l-26.47,26.48H900.82l-26.48-26.48V106.44L900.82,80h37.44m.41-1H900.4L873.34,106V144.3l27.06,27.06h38.27l27.06-27.06V106L938.67,79Z" transform="translate(-53.37 -44.61)"/><polygon class="cls-1" points="124.84 380.15 100.1 362.18 90.65 333.1 100.1 304.02 124.84 286.05 155.42 286.05 180.15 304.02 189.6 333.1 180.15 362.18 155.42 380.15 124.84 380.15"/><path d="M208.63,331.16l24.47,17.78,9.35,28.77-9.35,28.77-24.47,17.78H178.37L153.9,406.48l-9.35-28.77,9.35-28.77,24.47-17.78h30.26m.32-1h-30.9l-25,18.16-9.55,29.39,9.55,29.39,25,18.16H209l25-18.16,9.55-29.39L234,348.32l-25-18.16Z" transform="translate(-53.37 -44.61)"/><polygon class="cls-1" points="1056.94 94.61 1032.2 76.63 1022.75 47.55 1032.2 18.47 1056.94 0.5 1087.52 0.5 1112.25 18.47 1121.7 47.55 1112.25 76.63 1087.52 94.61 1056.94 94.61"/><path d="M1140.73,45.61l24.47,17.78,9.35,28.77-9.35,28.78-24.47,17.78h-30.26L1086,120.94l-9.35-28.78L1086,63.39l24.47-17.78h30.26m.32-1h-30.9l-25,18.17-9.55,29.38,9.55,29.39,25,18.17h30.9l25-18.17,9.55-29.39-9.55-29.38-25-18.17Z" transform="translate(-53.37 -44.61)"/><polygon class="cls-1" points="532.14 633.96 507.4 615.99 497.96 586.91 507.4 557.83 532.14 539.85 562.72 539.85 587.46 557.83 596.9 586.91 587.46 615.99 562.72 633.96 532.14 633.96"/><path d="M615.93,585l24.47,17.79,9.35,28.77-9.35,28.77-24.47,17.78H585.68L561.2,660.29l-9.35-28.77,9.35-28.77L585.68,585h30.25m.32-1h-30.9l-25,18.17-9.55,29.39,9.55,29.39,25,18.16h30.9l25-18.16,9.55-29.39-9.55-29.39-25-18.17Z" transform="translate(-53.37 -44.61)"/><polygon class="cls-1" points="101.72 100.12 144.15 26.62 186.59 100.12 101.72 100.12"/><path d="M197.52,72.23l41.57,72H156l41.57-72m0-2-43.3,75h86.6l-43.3-75Z" transform="translate(-53.37 -44.61)"/><polygon class="cls-1" points="885.02 323.75 866.46 344.31 867.87 316.64 840.21 318.06 860.77 299.49 840.21 280.93 867.87 282.34 866.46 254.68 885.02 275.24 903.59 254.68 902.17 282.34 929.84 280.93 909.28 299.49 929.84 318.06 902.17 316.64 903.59 344.31 885.02 323.75"/><path d="M956.39,300.67l-1.31,25.71-.06,1.1,1.1-.05,25.71-1.32-19.1,17.25-.83.75.83.74,19.1,17.25-25.71-1.32-1.1,0,.06,1.1,1.31,25.71-17.25-19.11-.74-.82-.75.82L920.4,387.54l1.32-25.71,0-1.1-1.1,0L895,362.1l19.11-17.25.82-.74-.82-.75L895,326.11l25.71,1.32,1.1.05,0-1.1-1.32-25.71,17.25,19.11.75.82.74-.82,17.25-19.11m1.14-2.76-19.13,21.2-19.14-21.2,1.46,28.52L892.2,325l21.2,19.14-21.2,19.13,28.52-1.46-1.46,28.52,19.14-21.19,19.13,21.19-1.46-28.52,28.52,1.46L963.4,344.11,984.59,325l-28.52,1.46,1.46-28.52Z" transform="translate(-53.37 -44.61)"/><polygon class="cls-1" points="1210.07 518.77 1191.51 539.33 1192.92 511.67 1165.26 513.08 1185.82 494.52 1165.26 475.95 1192.92 477.37 1191.51 449.7 1210.07 470.26 1228.63 449.7 1227.22 477.37 1254.89 475.95 1234.33 494.52 1254.89 513.08 1227.22 511.67 1228.63 539.33 1210.07 518.77"/><path d="M1245.45,495.69l17.25,19.11.74.82.75-.82,17.25-19.11-1.32,25.71,0,1.11,1.1-.06,25.71-1.31-19.11,17.25-.82.74.82.74,19.11,17.25-25.71-1.31-1.1-.06,0,1.11,1.32,25.71-17.25-19.11-.75-.82-.74.82-17.25,19.11,1.32-25.71,0-1.11-1.1.06L1220,557.12l19.1-17.25.83-.74-.83-.74L1220,521.14l25.71,1.31,1.1.06,0-1.11-1.32-25.71m37.13-2.75-19.14,21.19-19.13-21.19,1.46,28.51L1217.25,520l21.19,19.13-21.19,19.13,28.52-1.45-1.46,28.51,19.13-21.19,19.14,21.19-1.46-28.51,28.52,1.45-21.2-19.13,21.2-19.13-28.52,1.45,1.46-28.51Z" transform="translate(-53.37 -44.61)"/><polygon class="cls-1" points="912.36 564.97 893.79 585.53 895.21 557.86 867.54 559.27 888.1 540.71 867.54 522.15 895.21 523.56 893.79 495.9 912.36 516.46 930.92 495.9 929.51 523.56 957.17 522.15 936.61 540.71 957.17 559.27 929.51 557.86 930.92 585.53 912.36 564.97"/><path d="M983.72,541.89l-1.31,25.7-.06,1.11,1.11-.06,25.71-1.31-19.11,17.25-.82.74.82.75,19.11,17.25L983.46,602l-1.11,0,.06,1.1,1.31,25.71-17.25-19.11-.74-.82-.74.82-17.25,19.11,1.31-25.71.06-1.1L948,602l-25.71,1.32,19.11-17.25.82-.75-.82-.74-19.11-17.25L948,568.64l1.11.06-.06-1.11-1.31-25.7L965,561l.74.83.74-.83,17.25-19.1m1.14-2.76-19.13,21.19L946.6,539.13l1.45,28.52-28.51-1.46,21.19,19.13-21.19,19.14L948.05,603l-1.45,28.52,19.13-21.2,19.13,21.2L983.41,603l28.51,1.46-21.19-19.14,21.19-19.13-28.51,1.46,1.45-28.52Z" transform="translate(-53.37 -44.61)"/><polygon class="cls-1" points="637.29 92.36 605.18 87.69 628.41 65.04 622.93 33.05 651.65 48.15 680.38 33.05 674.89 65.04 698.13 87.69 666.02 92.36 651.65 121.46 637.29 92.36"/><path d="M677,78.58l27.59,14.5.47.25.46-.25,27.6-14.5-5.27,30.73-.09.51.38.37L750.43,132l-30.85,4.49-.52.07-.23.47-13.8,28-13.8-28-.23-.47-.52-.07L659.62,132,682,110.19l.38-.37-.09-.51L677,78.58m57.45-1.83L705,92.2,675.64,76.75l5.61,32.72-23.78,23.18,32.86,4.77L705,167.2l14.69-29.78,32.86-4.77L728.8,109.47l5.62-32.72Z" transform="translate(-53.37 -44.61)"/><polygon class="cls-1" points="103.49 570.76 71.38 566.09 94.61 543.44 89.13 511.45 117.85 526.55 146.58 511.45 141.09 543.44 164.33 566.09 132.22 570.76 117.85 599.86 103.49 570.76"/><path d="M199.29,557,194,587.7l-.09.52.38.37,22.32,21.76-30.85,4.48-.52.08-.24.47-13.79,28-13.8-28-.23-.47-.52-.08-30.86-4.48,22.33-21.76.37-.37-.08-.52L143.17,557l27.59,14.5.47.25.46-.25,27.6-14.5m1.33-1.83L171.23,570.6l-29.39-15.45,5.61,32.72-23.78,23.18,32.86,4.77,14.7,29.78,14.69-29.78,32.86-4.77L195,587.87l5.62-32.72Z" transform="translate(-53.37 -44.61)"/><polygon class="cls-1" points="271.2 614.29 261.06 579.67 295.68 589.81 330.3 579.67 320.16 614.29 330.3 648.91 295.68 638.77 261.06 648.91 271.2 614.29"/><path d="M382.93,625l-9.84,33.6-.08.28.08.28,9.84,33.6-33.6-9.84-.28-.08-.28.08-33.6,9.84,9.84-33.6.09-.28-.09-.28L315.17,625l33.6,9.84.28.08.28-.08,33.6-9.84m1.48-1.47L349.05,633.9,313.7,623.55l10.35,35.35L313.7,694.26l35.35-10.36,35.36,10.36L374.05,658.9l10.36-35.35Z" transform="translate(-53.37 -44.61)"/><polygon class="cls-1" points="1114.26 376.69 1079.64 386.83 1089.78 352.21 1079.64 317.59 1114.26 327.73 1148.88 317.59 1138.74 352.21 1148.88 386.83 1114.26 376.69"/><path d="M1133.75,362.94l33.6,9.84.29.08.28-.08,33.6-9.84-9.84,33.6-.09.28.09.28,9.84,33.6-33.6-9.84-.28-.08-.29.08-33.6,9.84,9.84-33.6.09-.28-.09-.28-9.84-33.6m69.24-1.48-35.35,10.36-35.36-10.36,10.36,35.36-10.36,35.35,35.36-10.35L1203,432.17l-10.35-35.35L1203,361.46Z" transform="translate(-53.37 -44.61)"/><circle class="cls-1" cx="722.6" cy="345.69" r="41.15"/><path d="M776,349.65a40.65,40.65,0,1,1-40.65,40.65A40.7,40.7,0,0,1,776,349.65m0-1a41.65,41.65,0,1,0,41.65,41.65A41.65,41.65,0,0,0,776,348.65Z" transform="translate(-53.37 -44.61)"/><circle class="cls-1" cx="1035.87" cy="473.02" r="41.15"/><path d="M1089.24,477a40.65,40.65,0,1,1-40.65,40.65A40.7,40.7,0,0,1,1089.24,477m0-1a41.65,41.65,0,1,0,41.65,41.65A41.65,41.65,0,0,0,1089.24,476Z" transform="translate(-53.37 -44.61)"/><circle class="cls-1" cx="1163.88" cy="175.19" r="41.15"/><path d="M1217.25,179.16a40.65,40.65,0,1,1-40.65,40.64,40.69,40.69,0,0,1,40.65-40.64m0-1a41.65,41.65,0,1,0,41.65,41.64,41.64,41.64,0,0,0-41.65-41.64Z" transform="translate(-53.37 -44.61)"/><circle class="cls-1" cx="799.09" cy="608" r="41.15"/><path d="M852.46,612a40.65,40.65,0,1,1-40.65,40.65A40.7,40.7,0,0,1,852.46,612m0-1a41.65,41.65,0,1,0,41.65,41.65A41.65,41.65,0,0,0,852.46,611Z" transform="translate(-53.37 -44.61)"/><circle class="cls-1" cx="95.02" cy="475.98" r="41.15" transform="translate(-228.29 27.98) rotate(-22.5)"/><path d="M95,435.33A40.65,40.65,0,1,1,54.37,476,40.69,40.69,0,0,1,95,435.33m0-1A41.65,41.65,0,1,0,136.67,476,41.65,41.65,0,0,0,95,434.33Z" transform="translate(-53.37 -44.61)"/><polygon class="cls-1" points="513.83 339.08 497.95 290.21 539.52 260.01 581.09 290.21 565.21 339.08 513.83 339.08"/><path d="M592.89,305.17,633.94,335l-15.68,48.26H567.52L551.84,335l41-29.82m0-1.09L550.8,334.66l16.08,49.47h52L635,334.66l-42.09-30.58Z" transform="translate(-53.37 -44.61)"/></g><g id="clickable-objects"><g id="rectangle"><rect class="cls-2" x="654.02" y="236.78" width="57.96" height="57.96" transform="translate(-41.25 516.18) rotate(-45)"/><path d="M683,225.48l40.28,40.28L683,306l-40.28-40.28L683,225.48m0-1.41-41.69,41.69L683,307.45l41.69-41.69L683,224.07Z" transform="translate(-53.37 -44.61)"/></g><g id="octagon"><polygon class="cls-3" points="30.68 220.89 3.92 194.12 3.92 156.27 30.68 129.5 68.54 129.5 95.3 156.27 95.3 194.12 68.54 220.89 30.68 220.89"/><path d="M121.7,174.61l26.48,26.47v37.44L121.7,265H84.26L57.79,238.52V201.08l26.47-26.47H121.7m.42-1H83.85L56.79,200.67v38.27L83.85,266h38.27l27.06-27.06V200.67l-27.06-27.06Z" transform="translate(-53.37 -44.61)"/></g><g id="decagon"><polygon class="cls-4" points="124.84 380.15 100.1 362.18 90.65 333.1 100.1 304.02 124.84 286.05 155.42 286.05 180.15 304.02 189.6 333.1 180.15 362.18 155.42 380.15 124.84 380.15"/><path d="M208.63,331.16l24.47,17.78,9.35,28.77-9.35,28.77-24.47,17.78H178.37L153.9,406.48l-9.35-28.77,9.35-28.77,24.47-17.78h30.26m.32-1h-30.9l-25,18.16-9.55,29.39,9.55,29.39,25,18.16H209l25-18.16,9.55-29.39L234,348.32l-25-18.16Z" transform="translate(-53.37 -44.61)"/></g><g id="triangle"><polygon class="cls-5" points="101.72 100.12 144.15 26.62 186.59 100.12 101.72 100.12"/><path d="M197.52,72.23l41.57,72H156l41.57-72m0-2-43.3,75h86.6l-43.3-75Z" transform="translate(-53.37 -44.61)"/></g><g id="eight-point-red-star"><polygon class="cls-6" points="885.02 323.75 866.46 344.31 867.87 316.64 840.21 318.06 860.77 299.49 840.21 280.93 867.87 282.34 866.46 254.68 885.02 275.24 903.59 254.68 902.17 282.34 929.84 280.93 909.28 299.49 929.84 318.06 902.17 316.64 903.59 344.31 885.02 323.75"/><path d="M956.39,300.67l-1.31,25.71-.06,1.1,1.1-.05,25.71-1.32-19.1,17.25-.83.75.83.74,19.1,17.25-25.71-1.32-1.1,0,.06,1.1,1.31,25.71-17.25-19.11-.74-.82-.75.82L920.4,387.54l1.32-25.71,0-1.1-1.1,0L895,362.1l19.11-17.25.82-.74-.82-.75L895,326.11l25.71,1.32,1.1.05,0-1.1-1.32-25.71,17.25,19.11.75.82.74-.82,17.25-19.11m1.14-2.76-19.13,21.2-19.14-21.2,1.46,28.52L892.2,325l21.2,19.14-21.2,19.13,28.52-1.46-1.46,28.52,19.14-21.19,19.13,21.19-1.46-28.52,28.52,1.46L963.4,344.11,984.59,325l-28.52,1.46,1.46-28.52Z" transform="translate(-53.37 -44.61)"/></g><g id="eight-point-star"><polygon class="cls-7" points="1210.07 518.77 1191.51 539.33 1192.92 511.67 1165.26 513.08 1185.82 494.52 1165.26 475.95 1192.92 477.37 1191.51 449.7 1210.07 470.26 1228.63 449.7 1227.22 477.37 1254.89 475.95 1234.33 494.52 1254.89 513.08 1227.22 511.67 1228.63 539.33 1210.07 518.77"/><path d="M1245.45,495.69l17.25,19.11.74.82.75-.82,17.25-19.11-1.32,25.71,0,1.11,1.1-.06,25.71-1.31-19.11,17.25-.82.74.82.74,19.11,17.25-25.71-1.31-1.1-.06,0,1.11,1.32,25.71-17.25-19.11-.75-.82-.74.82-17.25,19.11,1.32-25.71,0-1.11-1.1.06L1220,557.12l19.1-17.25.83-.74-.83-.74L1220,521.14l25.71,1.31,1.1.06,0-1.11-1.32-25.71m37.13-2.75-19.14,21.19-19.13-21.19,1.46,28.51L1217.25,520l21.19,19.13-21.19,19.13,28.52-1.45-1.46,28.51,19.13-21.19,19.14,21.19-1.46-28.51,28.52,1.45-21.2-19.13,21.2-19.13-28.52,1.45,1.46-28.51Z" transform="translate(-53.37 -44.61)"/></g><g id="four-points-star"><polygon class="cls-8" points="271.2 614.29 261.06 579.67 295.68 589.81 330.3 579.67 320.16 614.29 330.3 648.91 295.68 638.77 261.06 648.91 271.2 614.29"/><path d="M382.93,625l-9.84,33.6-.08.28.08.28,9.84,33.6-33.6-9.84-.28-.08-.28.08-33.6,9.84,9.84-33.6.09-.28-.09-.28L315.17,625l33.6,9.84.28.08.28-.08,33.6-9.84m1.48-1.47L349.05,633.9,313.7,623.55l10.35,35.35L313.7,694.26l35.35-10.36,35.36,10.36L374.05,658.9l10.36-35.35Z" transform="translate(-53.37 -44.61)"/></g><g id="circle"><circle class="cls-9" cx="799.09" cy="608" r="41.15"/><path d="M852.46,612a40.65,40.65,0,1,1-40.65,40.65A40.7,40.7,0,0,1,852.46,612m0-1a41.65,41.65,0,1,0,41.65,41.65A41.65,41.65,0,0,0,852.46,611Z" transform="translate(-53.37 -44.61)"/></g></g></svg>