<?xml version="1.0" encoding="utf-8"?>
<!-- Generator: Adobe Illustrator 25.4.0, SVG Export Plug-In . SVG Version: 6.00 Build 0)  -->
<svg version="1.1" id="Layer_1" xmlns="http://www.w3.org/2000/svg" xmlns:xlink="http://www.w3.org/1999/xlink" x="0px" y="0px"
	 viewBox="0 0 300 300" style="enable-background:new 0 0 300 300;" xml:space="preserve">
<style type="text/css">
	.st0{fill:#FFFFFF;stroke:#7DD197;stroke-width:1.5;stroke-miterlimit:10;}
	.st1{fill:#E4F7EB;stroke:#7DD197;stroke-width:1.5;stroke-miterlimit:10;}
	.st2{enable-background:new    ;}
	.st3{fill:#7DD197;}
	.st4{fill:#E4F7F2;}
	.st5{fill:#D6EAE4;}
	.st6{fill:none;stroke:#7DD197;stroke-width:1.5;stroke-miterlimit:10;}
	.st7{fill:none;stroke:#7DD197;stroke-width:1.5;stroke-linecap:round;stroke-miterlimit:10;}
	.st8{fill:#FFFFFF;}
</style>
<g id="Layer_1_00000149383435343377709330000014053718418799388800_">
	<circle class="st0" cx="150" cy="150" r="148.3"/>
	<circle class="st1" cx="150" cy="150" r="138.8"/>
	<g class="st2">
		<path class="st3" d="M34.1,113.2c0.6-2,1.6-3.5,3-4.4c1.3-0.9,2.8-1,4.5-0.5c1.8,0.5,2.9,1.5,3.5,3s0.6,3.2-0.1,5.2l0.1,0.5
			l-1.2,3.9l6.9,2.1l-1.1,3.7l-18-5.6L34.1,113.2z M42.3,116.1c0.3-1.1,0.4-1.9,0.1-2.6c-0.3-0.7-0.8-1.1-1.7-1.4s-1.6-0.2-2.2,0.2
			c-0.6,0.4-1,1.1-1.4,2.2l-1.2,3.8l5.2,1.6L42.3,116.1z M43.7,114.2l10.8-3.1l-1.3,4.2l-9.4,2.4L43.7,114.2z"/>
	</g>
	<g>
		<path class="st3" d="M60.5,99.2L44.7,88.9l7.8-11.8l2.7,1.7l-5.6,8.5l3.9,2.6l4.4-6.7l2.5,1.7L56,91.6l4,2.6l5.8-8.9l2.7,1.7
			L60.5,99.2z"/>
	</g>
	<g class="st2">
		<path class="st3" d="M86.3,62.6c0.5,1.2,0.7,2.3,0.7,3.4c-0.1,1.1-0.4,2.2-0.9,3.2c-0.6,1-1.3,1.9-2.3,2.7c-1.4,1.2-2.9,2-4.4,2.3
			s-3.1,0.1-4.6-0.5s-2.9-1.7-4.2-3.2s-2.2-3.1-2.5-4.7c-0.4-1.6-0.3-3.1,0.2-4.6s1.5-2.8,2.9-4c1-0.8,2-1.5,3-1.9s2.1-0.6,3.1-0.5
			s2,0.4,3,1l-1.7,3.5c-1-0.7-1.9-1-2.7-0.9c-0.8,0.1-1.6,0.4-2.4,1.1c-0.8,0.7-1.3,1.4-1.6,2.3c-0.3,0.9-0.2,1.8,0.1,2.8
			c0.3,1,0.9,2,1.8,3.1s1.8,1.8,2.7,2.3c0.9,0.5,1.8,0.7,2.7,0.5c0.9-0.1,1.8-0.5,2.6-1.3c0.8-0.7,1.3-1.5,1.5-2.4s0.1-1.9-0.4-2.9
			L86.3,62.6z"/>
	</g>
	<g class="st2">
		<path class="st3" d="M106.7,36.1l-1.1,13.5l3,6.4l-3.6,1.7l-3-6.4l-11-7.9l3.8-1.8l5.1,3.9l2.5,2.1l0.1-3.3l0.4-6.4L106.7,36.1z"
			/>
	</g>
	<g class="st2">
		<path class="st3" d="M141,42.1c-0.2,1.3-0.6,2.4-1.2,3.3c-0.6,0.9-1.4,1.7-2.4,2.3s-2.1,1-3.4,1.2c-1.8,0.3-3.5,0.2-5-0.4
			c-1.5-0.5-2.7-1.5-3.6-2.8c-1-1.3-1.6-3-1.9-5s-0.2-3.8,0.2-5.3c0.5-1.5,1.3-2.8,2.6-3.8c1.2-1,2.7-1.6,4.5-1.9
			c1.3-0.2,2.5-0.2,3.6-0.1c1.1,0.2,2.1,0.6,2.9,1.2c0.8,0.6,1.5,1.4,2,2.4l-3.3,2.1c-0.5-1.1-1.1-1.8-1.9-2.2s-1.6-0.5-2.7-0.3
			c-1,0.2-1.9,0.6-2.5,1.2c-0.7,0.6-1.1,1.4-1.4,2.4s-0.3,2.2,0,3.6c0.2,1.4,0.6,2.5,1.2,3.4c0.5,0.9,1.2,1.5,2.1,1.9
			c0.8,0.4,1.8,0.5,2.9,0.3c1-0.2,1.8-0.6,2.5-1.3s1-1.6,1.2-2.7L141,42.1z"/>
	</g>
	<g class="st2">
		<path class="st3" d="M159.6,44.6l9.9,1.1l-0.3,3.2l-13.8-1.5l2.1-18.7l3.9,0.4L159.6,44.6z"/>
	</g>
	<g class="st2">
		<path class="st3" d="M180.2,51.4l13.6-14.9l4.4,1.8l-0.8,20.2l-3.8-1.6l0.9-13.6l0.3-3h-0.1l-1.8,2.3L184,52.9L180.2,51.4z
			 M185.8,48.7l1.1-2.7l9.6,3.9l-1.1,2.7L185.8,48.7z"/>
	</g>
	<g class="st2">
		<path class="st3" d="M208.4,65.2l11.8-14.8l6.5,5.1c1.8,1.4,2.8,2.8,3.1,4.2s-0.1,2.7-1.1,4c-0.6,0.8-1.4,1.3-2.4,1.5
			s-2,0.1-3-0.5l0,0c0.9,1,1.4,2,1.4,3c0.1,1.1-0.3,2-1,2.9c-1,1.3-2.3,1.9-3.7,1.9s-3.1-0.7-4.9-2.1L208.4,65.2z M213.2,65.3
			l3.4,2.7c0.8,0.7,1.6,1,2.3,1s1.3-0.3,1.7-0.9c0.5-0.6,0.7-1.3,0.5-1.9c-0.1-0.6-0.6-1.3-1.5-2l-3.4-2.7L213.2,65.3z M218.2,59
			l3.1,2.4c1.6,1.3,2.9,1.3,4,0c1-1.3,0.7-2.5-0.9-3.8l-3.1-2.4L218.2,59z"/>
	</g>
	<g class="st2">
		<path class="st3" d="M234.7,86.5l5.8,8.1l-2.6,1.8l-8.1-11.3l15.3-10.9l2.3,3.2L234.7,86.5z"/>
	</g>
	<g class="st2">
		<path class="st3" d="M244.1,108.3l17.7-6.5l4.9,13.3l-3,1.1l-3.5-9.6l-4.4,1.6l2.8,7.5l-2.8,1l-2.8-7.5l-4.5,1.7l3.7,10l-3,1.1
			L244.1,108.3z"/>
	</g>
	<g class="st2">
		<path class="st3" d="M255.8,187.1L245,190l1.4-4.2l9.4-2.3L255.8,187.1z M265.4,188.3c-0.7,2-1.7,3.5-3,4.3
			c-1.4,0.8-2.9,1-4.5,0.5c-1.8-0.6-2.9-1.6-3.5-3c-0.6-1.5-0.5-3.2,0.1-5.2l-0.1-0.5l1.2-3.9l-6.9-2.2l1.2-3.7l18,5.8L265.4,188.3z
			 M257.3,185.2c-0.3,1.1-0.4,1.9-0.1,2.6c0.3,0.7,0.8,1.1,1.7,1.4c0.9,0.3,1.6,0.2,2.2-0.1c0.6-0.4,1.1-1.1,1.4-2.1l1.2-3.8
			l-5.2-1.7L257.3,185.2z"/>
	</g>
	<g class="st2">
		<path class="st3" d="M238.9,201.9l15.7,10.6l-7.9,11.7l-2.6-1.8l5.7-8.5l-3.9-2.6l-4.5,6.7l-2.5-1.7l4.5-6.7l-4-2.7l-5.9,8.8
			l-2.6-1.8L238.9,201.9z"/>
	</g>
	<g class="st2">
		<path class="st3" d="M212.8,238.1c-0.5-1.2-0.7-2.3-0.7-3.4c0.1-1.1,0.4-2.2,0.9-3.2c0.6-1,1.3-1.9,2.3-2.7
			c1.4-1.2,2.9-1.9,4.4-2.2s3-0.1,4.5,0.5s2.9,1.7,4.2,3.2s2.1,3.1,2.5,4.7c0.4,1.6,0.3,3.1-0.2,4.6s-1.5,2.8-2.9,4
			c-1,0.8-2,1.4-3,1.8c-1,0.4-2,0.6-3.1,0.5c-1-0.1-2-0.4-3-1l1.7-3.4c1,0.7,1.9,1,2.7,0.9s1.6-0.4,2.4-1.1c0.8-0.7,1.3-1.4,1.6-2.3
			c0.3-0.9,0.3-1.8,0-2.8s-0.9-2-1.8-3.1c-0.9-1.1-1.8-1.8-2.7-2.3s-1.8-0.7-2.7-0.6c-0.9,0.1-1.8,0.5-2.6,1.2s-1.3,1.4-1.5,2.3
			c-0.2,0.9-0.1,1.9,0.4,2.9L212.8,238.1z"/>
	</g>
	<g class="st2">
		<path class="st3" d="M192,264.4l1.2-13.5l-2.9-6.4l3.6-1.6l2.9,6.4l11,8L204,259l-5.1-3.9l-2.5-2.1l-0.1,3.3l-0.4,6.4L192,264.4z"
			/>
	</g>
	<g class="st2">
		<path class="st3" d="M157.6,258c0.2-1.3,0.6-2.4,1.2-3.3c0.7-0.9,1.5-1.7,2.5-2.2s2.1-0.9,3.4-1.1c1.8-0.3,3.5-0.1,5,0.4
			s2.7,1.5,3.6,2.8c0.9,1.3,1.6,3,1.9,5c0.3,2,0.2,3.8-0.3,5.3s-1.4,2.8-2.6,3.8c-1.2,1-2.8,1.6-4.6,1.9c-1.3,0.2-2.5,0.2-3.6,0
			s-2.1-0.6-2.9-1.2c-0.8-0.6-1.5-1.4-2-2.5l3.3-2c0.5,1.1,1.1,1.8,1.8,2.2c0.7,0.4,1.6,0.5,2.7,0.3c1-0.2,1.9-0.5,2.6-1.1
			c0.7-0.6,1.2-1.4,1.4-2.4c0.3-1,0.3-2.2,0.1-3.6s-0.6-2.5-1.1-3.4s-1.2-1.5-2-1.9s-1.8-0.5-2.9-0.3c-1,0.2-1.9,0.6-2.5,1.2
			c-0.7,0.7-1.1,1.6-1.2,2.7L157.6,258z"/>
	</g>
	<g class="st2">
		<path class="st3" d="M139.1,255.3l-9.8-1.2l0.4-3.1l13.8,1.7l-2.3,18.7l-3.9-0.5L139.1,255.3z"/>
	</g>
	<g class="st2">
		<path class="st3" d="M118.5,248.2l-13.7,14.7l-4.3-1.8l1-20l3.8,1.6l-1,13.5l-0.3,3h0.1l1.8-2.3l9-10.2L118.5,248.2z M113,250.9
			l-1.1,2.7l-9.5-4l1.1-2.7L113,250.9z"/>
	</g>
	<g class="st2">
		<path class="st3" d="M90.6,234.1l-11.9,14.5l-6.4-5.2c-1.8-1.4-2.8-2.8-3-4.2c-0.3-1.4,0.1-2.7,1.1-4c0.6-0.8,1.4-1.3,2.4-1.5
			s2,0,3,0.5l0,0c-0.9-1-1.4-2-1.4-3.1s0.3-2,1-2.9c1-1.2,2.3-1.9,3.7-1.8c1.5,0,3.1,0.8,4.8,2.2L90.6,234.1z M80.8,240.1l-3-2.5
			c-1.6-1.3-2.9-1.3-3.9-0.1s-0.7,2.5,0.9,3.8l3,2.5L80.8,240.1z M85.8,234l-3.4-2.8c-0.8-0.7-1.6-1-2.2-1c-0.7,0-1.3,0.3-1.7,0.9
			c-0.5,0.6-0.7,1.2-0.6,1.9c0.1,0.6,0.6,1.3,1.4,2l3.4,2.8L85.8,234z"/>
	</g>
	<g class="st2">
		<path class="st3" d="M64.5,212.5l-5.7-8.2l2.6-1.8l7.9,11.4l-15.5,10.8l-2.2-3.2L64.5,212.5z"/>
	</g>
	<g class="st2">
		<path class="st3" d="M55.4,190.5l-17.7,6.2L33,183.4l3-1l3.4,9.6l4.4-1.5l-2.7-7.5l2.8-1l2.7,7.5l4.5-1.6l-3.5-10l3-1L55.4,190.5z
			"/>
	</g>
	<circle class="st0" cx="37.1" cy="153.8" r="3.6"/>
	<circle class="st0" cx="263.8" cy="150.2" r="3.6"/>
	<path class="st4" d="M202.4,139.4c56.4-11.4,46.9,63.6-4.6,36.1c51.5,27.5-4.1,78.9-26.7,24.7c22.7,54.1-52.9,57.8-36.4,1.8
		c-16.5,56-76.7,10.2-29-22c-47.7,32.3-64.4-41.5-8-35.5c-56.4-6-21.8-73.2,16.7-32.4C75.8,71.2,145.6,42,147.9,98
		c-2.3-56,70-33.6,34.8,10.8C217.8,64.4,258.8,128,202.4,139.4z"/>
	<path class="st5" d="M194.5,98.5c0,0,9.9,5.4,15.7,17.7c5,10.5,5.6,19.4,5.6,19.4l-7.7,3.7c0,0-2-12.5-7.1-18.6
		s-13.3-15.9-13.3-15.9l3.9-4.3L194.5,98.5z"/>
	<path class="st5" d="M118,200.7c0,0-0.6,2.4,0.9,4.7s11.3,8.5,11.3,8.5l2.9-5.9l-11.6-4.5L118,200.7z"/>
	<path class="st5" d="M148.1,90.5c0,0,19.7-5.9,35.3,1l7.5,3.5l-4.3,9c0,0-5.7-6.5-16.1-9.1S148.1,90.5,148.1,90.5z"/>
	<path class="st5" d="M211,181.6c0,0,6.8-6.9,8.4-22.5c1.1-10.8-1.6-19.7-1.6-19.7s-9.2-1.6-9.6,0c-0.4,1.6,1.3,5.3,0.9,9.8
		c-0.4,4.5,0.5,11.1-2.5,18.9c-3,7.8-4.1,10.4-4.1,10.4L211,181.6z"/>
	<path class="st5" d="M173.2,206l3.8,6.3c0,0,10.3-0.3,21.2-10.6c11.2-10.7,11.8-16.2,11.8-16.2l-8-6.6c0,0-4.4,11.1-12.5,16.7
		C181.4,201.2,173.2,206,173.2,206z"/>
	<path class="st6" d="M202.4,139.4c56.4-11.4,46.9,63.6-4.6,36.1c51.5,27.5-4.1,78.9-26.7,24.7c22.7,54.1-52.9,57.8-36.4,1.8
		c-16.5,56-76.7,10.2-29-22c-47.7,32.3-64.4-41.5-8-35.5c-56.4-6-21.8-73.2,16.7-32.4C75.8,71.2,145.6,42,147.9,98
		c-2.3-56,70-33.6,34.8,10.8C217.8,64.4,258.8,128,202.4,139.4z"/>
	<path class="st5" d="M132.4,214.4c0,0,24.1,7.5,42.4-0.5l-2.1-8.5c0,0-13.3,5.8-25,4.8c-11.6-1-15.3-2.9-15.3-2.9L132.4,214.4
		L132.4,214.4z"/>
	<circle class="st0" cx="150" cy="150" r="59.4"/>
	<path class="st5" d="M117.4,199.6c0,0,2.6-1.9,4.6-1.9s27.7,13,56-3s28-53,30.8-53.1c0.8,0,5.2,32.1-21.2,54.4
		C153.1,225,117.4,199.6,117.4,199.6z"/>
	<path class="st7" d="M117.6,145.8c0,0-6.1,35,26.1,36.2c33.5,1.2,36.2-36.2,36.2-36.2"/>
	<circle class="st6" cx="150" cy="150" r="59.4"/>
	<g>
		<path class="st3" d="M137.8,121.3c2.3-0.1,2.9,8.7,1.5,14c-1.5,5.3-4.9,13.9-8.3,12.8c-3.4-1.1-1.1-12.5,0-16.1
			S134.6,121.4,137.8,121.3z"/>
		<path class="st3" d="M164.8,118.3c2.3-0.1,2.9,8.7,1.5,14c-1.5,5.3-4.9,13.9-8.3,12.8c-3.4-1-1.1-12.5,0-16.1
			C159,125.4,161.6,118.4,164.8,118.3z"/>
		<circle class="st8" cx="140.3" cy="128.8" r="3"/>
		<circle class="st8" cx="165.8" cy="125.8" r="3"/>
	</g>
</g>
</svg>
