<svg width="178" height="226" viewBox="0 0 178 226" fill="none" xmlns="http://www.w3.org/2000/svg">
<path d="M92.5 1.44077L104.05 32.6545L104.13 32.8701L104.346 32.9499L135.559 44.5L104.346 56.0501L104.13 56.1299L104.05 56.3455L92.5 87.5592L80.9499 56.3455L80.8701 56.1299L80.6545 56.0501L49.4408 44.5L80.6545 32.9499L80.8701 32.8701L80.9499 32.6545L92.5 1.44077Z" fill="white" stroke="#412589"/>
<path d="M147.5 43.4408L155.269 64.4358L155.349 64.6514L155.564 64.7312L176.559 72.5L155.564 80.2688L155.349 80.3486L155.269 80.5643L147.5 101.559L139.731 80.5643L139.651 80.3486L139.436 80.2688L118.441 72.5L139.436 64.7312L139.651 64.6514L139.731 64.4358L147.5 43.4408Z" fill="white" stroke="#412589"/>
<path d="M68.5 90.4408L86.5323 139.172L86.6121 139.388L86.8277 139.468L135.559 157.5L86.8277 175.532L86.6121 175.612L86.5323 175.828L68.5 224.559L50.4677 175.828L50.3879 175.612L50.1723 175.532L1.44077 157.5L50.1723 139.468L50.3879 139.388L50.4677 139.172L68.5 90.4408Z" fill="white" stroke="#412589"/>
</svg>
