<?xml version="1.0" encoding="utf-8"?>
<!-- Generator: Adobe Illustrator 25.4.0, SVG Export Plug-In . SVG Version: 6.00 Build 0)  -->
<svg version="1.1" id="Layer_1" xmlns="http://www.w3.org/2000/svg" xmlns:xlink="http://www.w3.org/1999/xlink" x="0px" y="0px"
	 viewBox="0 0 300 300" style="enable-background:new 0 0 300 300;" xml:space="preserve">
<style type="text/css">
	.st0{fill:#FFFFFF;stroke:#BA933A;stroke-width:1.5;stroke-miterlimit:10;}
	.st1{fill:#FFDEAE;stroke:#BA933A;stroke-width:1.5;stroke-miterlimit:10;}
	.st2{fill:#BA933A;}
	.st3{fill:#EDCA8C;}
	.st4{fill:#DBB982;}
	.st5{fill:none;stroke:#BA933A;stroke-width:1.5;stroke-miterlimit:10;}
	.st6{fill:#FFFFFF;stroke:#7D9FD2;stroke-width:1.5;stroke-miterlimit:10;}
	.st7{fill:#FFFFFF;}
	.st8{fill:none;stroke:#BA933A;stroke-width:2;stroke-miterlimit:10;}
	.st9{fill:none;stroke:#BA933A;stroke-width:1.5;stroke-linecap:round;stroke-linejoin:round;stroke-miterlimit:10;}
</style>
<g>
	<circle class="st0" cx="150" cy="150" r="148.3"/>
	<circle class="st1" cx="150" cy="150" r="138.8"/>
	<g>
		<path class="st2" d="M34.5,111.2c0.5-1.6,1.3-3,2.3-4s2.2-1.8,3.5-2.3l1.7,2.9c-1.2,0.4-2.1,1-2.9,1.7c-0.7,0.7-1.3,1.7-1.7,2.8
			c-0.3,0.8-0.4,1.4-0.3,2c0,0.6,0.2,1,0.4,1.3s0.6,0.6,1,0.7c0.5,0.2,1,0.1,1.4-0.2c0.5-0.3,1-0.8,1.5-1.7l1.9-3.1
			c1-1.6,2-2.7,3-3.2s2.2-0.5,3.4-0.1s2.1,1,2.7,1.9c0.6,0.9,1,2,1.1,3.2s-0.1,2.6-0.6,4c-0.4,1.2-0.9,2.3-1.6,3.3
			c-0.6,0.9-1.4,1.7-2.2,2.4c-0.8,0.6-1.6,1.1-2.5,1.4l-1.8-3c0.7-0.2,1.4-0.6,2.1-1c0.7-0.5,1.2-1,1.8-1.7c0.5-0.7,0.9-1.5,1.2-2.3
			c0.2-0.7,0.4-1.4,0.4-2s-0.1-1-0.3-1.4s-0.6-0.6-1-0.8c-0.5-0.2-0.9-0.1-1.4,0.1c-0.4,0.2-0.9,0.7-1.4,1.5l-2,3.4
			c-0.6,1-1.2,1.8-1.9,2.4s-1.4,1-2.1,1.2c-0.8,0.2-1.6,0.1-2.5-0.2c-1.1-0.4-1.9-1-2.6-1.8c-0.7-0.9-1-1.9-1.2-3.2
			C33.8,114.2,34,112.8,34.5,111.2z"/>
	</g>
	<g>
		<path class="st2" d="M53.8,75.2c1.1-1.5,2.4-2.5,3.9-3.1s3-0.7,4.6-0.4c1.6,0.3,3.2,1.1,4.8,2.3c1.6,1.2,2.7,2.6,3.4,4.1
			c0.7,1.5,0.9,3,0.7,4.5c-0.2,1.5-0.9,3.1-2,4.5s-2.4,2.5-3.9,3.1s-3,0.7-4.6,0.4c-1.6-0.3-3.2-1.1-4.8-2.3
			c-1.6-1.2-2.7-2.6-3.4-4.1s-0.9-3-0.7-4.5C52,78.2,52.7,76.7,53.8,75.2z M56.4,77.2c-0.6,0.8-1,1.7-1.1,2.6s0.2,1.8,0.7,2.7
			c0.5,0.9,1.3,1.8,2.4,2.6c1.1,0.9,2.2,1.4,3.2,1.7c1,0.3,1.9,0.3,2.8,0s1.6-0.8,2.2-1.7c0.6-0.8,1-1.7,1.1-2.6s-0.2-1.8-0.7-2.7
			c-0.5-0.9-1.3-1.8-2.4-2.6c-1.1-0.9-2.1-1.4-3.2-1.7c-1-0.3-1.9-0.3-2.8,0C57.8,75.8,57,76.4,56.4,77.2z"/>
	</g>
	<g>
		<path class="st2" d="M96.4,40.4l9.7,16.2l-3,1.8L98,50l-2.7-4.8l0,0L98.7,61l-2.8,1.7L83.6,52.2l0,0l3,4.6l5.1,8.4L88.6,67
			l-9.7-16.2l4.9-2.9L92,55l3.2,3l0,0l-1.1-4.3l-2.4-10.6L96.4,40.4z"/>
	</g>
	<g>
		<path class="st2" d="M124.9,50.2l-3.4-18.6l13.9-2.5l0.6,3.1L126,34l0.8,4.6l7.9-1.4l0.5,3l-7.9,1.4l0.9,4.7l10.4-1.9l0.6,3.1
			L124.9,50.2z"/>
	</g>
	<g>
		<path class="st2" d="M161.2,47.6l-2-19.5l4.1,0.8l0.8,15.9l6.5-14.6l3.7,0.7l0.9,16l6.4-14.6l3.9,0.7l-8.8,17.5l-4.3-0.8
			l-0.7-10.6l-0.1-4.5h-0.1l-1.7,4.2l-4.4,9.6L161.2,47.6z"/>
	</g>
	<g>
		<path class="st2" d="M212.1,45.4l-10.2,15.8l-3.3-2.1l10.2-15.8L212.1,45.4z M216.6,57.6l-1.7,2.7l-10.4-6.7l1.7-2.7L216.6,57.6z
			 M222.4,52.1l-10.2,15.8l-3.3-2.1L219.1,50L222.4,52.1z"/>
	</g>
	<g>
		<path class="st2" d="M225.5,79.8l19.1-6.1l2.9,3.7l-10.7,16.9l-2.5-3.2l7.5-11.2l1.7-2.4l0,0l-2.7,1.1L228,83L225.5,79.8z
			 M231.6,80.2l2.3-1.8l6.3,8.2l-2.3,1.8L231.6,80.2z"/>
	</g>
	<g>
		<path class="st2" d="M266.9,115.6l-3,1.1l-2.2-5.9l-14.7,5.4l-1.4-3.7l14.7-5.4l-2.2-6l3-1.1L266.9,115.6z"/>
	</g>
	<g>
		<path class="st2" d="M255.8,187.1L245,190l1.4-4.2l9.4-2.3L255.8,187.1z M265.4,188.3c-0.7,2-1.7,3.5-3,4.3
			c-1.4,0.8-2.9,1-4.5,0.5c-1.8-0.6-2.9-1.6-3.5-3c-0.6-1.5-0.5-3.2,0.1-5.2l-0.1-0.5l1.2-3.9l-6.9-2.2l1.2-3.7l18,5.8L265.4,188.3z
			 M257.3,185.2c-0.3,1.1-0.4,1.9-0.1,2.6c0.3,0.7,0.8,1.1,1.7,1.4c0.9,0.3,1.6,0.2,2.2-0.1c0.6-0.4,1.1-1.1,1.4-2.1l1.2-3.8
			l-5.2-1.7L257.3,185.2z"/>
	</g>
	<g>
		<path class="st2" d="M238.9,201.9l15.7,10.6l-7.9,11.7l-2.6-1.8l5.7-8.5l-3.9-2.6l-4.5,6.7l-2.5-1.7l4.5-6.7l-4-2.7l-5.9,8.8
			l-2.6-1.8L238.9,201.9z"/>
	</g>
	<g>
		<path class="st2" d="M212.7,238.2c-0.5-1.2-0.7-2.3-0.7-3.4c0.1-1.1,0.4-2.2,0.9-3.2c0.6-1,1.3-1.9,2.3-2.7
			c1.4-1.2,2.9-1.9,4.5-2.2c1.5-0.3,3.1-0.1,4.6,0.5s2.9,1.7,4.2,3.3c1.3,1.5,2.1,3.1,2.5,4.7c0.4,1.6,0.3,3.1-0.2,4.6
			s-1.5,2.8-2.9,4c-1,0.8-2,1.5-3,1.9s-2.1,0.6-3.1,0.5s-2-0.4-3-1l1.8-3.5c1,0.7,1.9,1,2.7,0.9s1.6-0.4,2.4-1.1
			c0.8-0.7,1.3-1.4,1.6-2.3c0.3-0.9,0.3-1.8,0-2.8s-0.9-2-1.8-3.1c-0.9-1.1-1.8-1.8-2.7-2.3s-1.8-0.7-2.7-0.6s-1.8,0.5-2.6,1.2
			s-1.3,1.4-1.5,2.4c-0.2,0.9-0.1,1.9,0.4,2.9L212.7,238.2z"/>
	</g>
	<g>
		<path class="st2" d="M192.1,264.4l1.2-13.5l-2.9-6.4l3.6-1.6l2.9,6.4l11,8L204,259l-5.1-3.9l-2.5-2.1l-0.1,3.3l-0.4,6.4
			L192.1,264.4z"/>
	</g>
	<g>
		<path class="st2" d="M157.7,258c0.2-1.3,0.6-2.4,1.2-3.3s1.5-1.7,2.5-2.2c1-0.6,2.1-0.9,3.4-1.1c1.8-0.3,3.5-0.1,5,0.4
			c1.5,0.6,2.7,1.5,3.6,2.8c0.9,1.3,1.6,3,1.9,5c0.3,2,0.2,3.8-0.3,5.3s-1.4,2.8-2.6,3.8c-1.2,1-2.7,1.6-4.6,1.9
			c-1.3,0.2-2.5,0.2-3.6,0s-2.1-0.6-2.9-1.2s-1.5-1.4-2-2.5l3.3-2c0.5,1.1,1.1,1.8,1.8,2.2c0.7,0.4,1.6,0.5,2.7,0.3
			c1-0.2,1.9-0.5,2.6-1.1c0.7-0.6,1.2-1.4,1.4-2.4c0.3-1,0.3-2.2,0.1-3.6s-0.6-2.5-1.1-3.4s-1.2-1.5-2-1.9s-1.8-0.5-2.9-0.3
			c-1,0.2-1.9,0.6-2.5,1.2c-0.7,0.7-1.1,1.6-1.2,2.7L157.7,258z"/>
	</g>
	<g>
		<path class="st2" d="M139.1,255.3l-9.8-1.2l0.4-3.1l13.8,1.7l-2.3,18.7l-3.9-0.5L139.1,255.3z"/>
	</g>
	<g>
		<path class="st2" d="M118.5,248.2l-13.7,14.7l-4.3-1.8l1-20.1l3.8,1.6l-1,13.5l-0.3,3h0.1l1.8-2.3l9-10.2L118.5,248.2z M113,250.9
			l-1.1,2.7l-9.5-4l1.1-2.7L113,250.9z"/>
	</g>
	<g>
		<path class="st2" d="M90.6,234.1l-11.9,14.5l-6.4-5.2c-1.8-1.4-2.8-2.8-3-4.2c-0.3-1.4,0.1-2.7,1.1-4c0.6-0.8,1.4-1.3,2.4-1.5
			s2,0,3,0.5l0,0c-0.9-1-1.4-2-1.4-3.1s0.3-2,1-2.9c1-1.2,2.3-1.9,3.7-1.8c1.5,0,3.1,0.8,4.8,2.2L90.6,234.1z M80.8,240.1l-3-2.5
			c-1.6-1.3-2.9-1.3-3.9-0.1s-0.7,2.5,0.9,3.8l3,2.5L80.8,240.1z M85.8,234l-3.4-2.8c-0.8-0.7-1.6-1-2.2-1c-0.7,0-1.3,0.3-1.7,0.9
			c-0.5,0.6-0.7,1.2-0.6,1.9c0.1,0.6,0.6,1.3,1.4,2l3.4,2.8L85.8,234z"/>
	</g>
	<g>
		<path class="st2" d="M64.5,212.5l-5.7-8.2l2.6-1.8l7.9,11.4l-15.5,10.8l-2.2-3.2L64.5,212.5z"/>
	</g>
	<g>
		<path class="st2" d="M55.4,190.5l-17.8,6.3l-4.7-13.3l3-1.1l3.4,9.6l4.4-1.6l-2.7-7.6l2.9-1l2.7,7.6l4.5-1.6l-3.5-10l3-1.1
			L55.4,190.5z"/>
	</g>
	<circle class="st2" cx="37.2" cy="150.6" r="3.6"/>
	<circle class="st2" cx="263.9" cy="149" r="3.6"/>
	<path class="st3" d="M202.4,139.4c56.4-11.4,46.9,63.6-4.6,36.1c51.5,27.5-4.1,78.9-26.7,24.7c22.7,54.1-52.9,57.8-36.4,1.8
		c-16.5,56-76.7,10.2-29-22c-47.7,32.3-64.4-41.5-8-35.5c-56.4-6-21.8-73.2,16.7-32.4C75.8,71.2,145.6,42,147.9,98
		c-2.3-56,70-33.6,34.8,10.8C217.8,64.4,258.8,128,202.4,139.4z"/>
	<path class="st4" d="M194.6,97.7c0,0,9.9,5.4,15.7,17.7c5,10.5,5.6,19.4,5.6,19.4l-7.7,3.7c0,0-2-12.5-7.1-18.6
		S187.8,104,187.8,104l3.9-4.3L194.6,97.7z"/>
	<path class="st4" d="M118.1,199.8c0,0-0.6,2.4,0.9,4.7s11.3,8.5,11.3,8.5l2.9-5.9l-11.6-4.5L118.1,199.8z"/>
	<path class="st4" d="M148.1,89.6c0,0,19.7-5.9,35.3,1l7.5,3.5l-4.3,9c0,0-5.7-6.5-16.1-9.1S148.1,89.6,148.1,89.6z"/>
	<path class="st4" d="M211.1,180.7c0,0,6.8-6.9,8.4-22.5c1.1-10.8-1.6-19.7-1.6-19.7s-9.2-1.6-9.6,0c-0.4,1.6,1.3,5.3,0.9,9.8
		s0.5,11.1-2.5,18.9s-4.1,10.4-4.1,10.4L211.1,180.7z"/>
	<path class="st4" d="M173.3,205.1l3.8,6.3c0,0,10.3-0.3,21.2-10.6c11.2-10.7,11.8-16.2,11.8-16.2l-8-6.6c0,0-4.4,11.1-12.5,16.7
		C181.5,200.3,173.3,205.1,173.3,205.1z"/>
	<path class="st4" d="M132.4,213.6c0,0,24.1,7.5,42.4-0.5l-2.1-8.5c0,0-13.3,5.8-25,4.8c-11.6-1-15.3-2.9-15.3-2.9L132.4,213.6
		L132.4,213.6z"/>
	<path class="st5" d="M202.4,139.4c56.4-11.4,46.9,63.6-4.6,36.1c51.5,27.5-4.1,78.9-26.7,24.7c22.7,54.1-52.9,57.8-36.4,1.8
		c-16.5,56-76.7,10.2-29-22c-47.7,32.3-64.4-41.5-8-35.5c-56.4-6-21.8-73.2,16.7-32.4C75.8,71.2,145.6,42,147.9,98
		c-2.3-56,70-33.6,34.8,10.8C217.8,64.4,258.8,128,202.4,139.4z"/>
	<circle class="st6" cx="150" cy="150" r="59.4"/>
	<path class="st4" d="M117.4,199.6c0,0,2.6-1.9,4.6-1.9s27.7,13,56-3s28-53,30.8-53.1c0.8,0,5.2,32.1-21.2,54.4
		C153.1,225,117.4,199.6,117.4,199.6z"/>
	<g>
		<path class="st2" d="M139.5,125.5c2.3-0.1,2.9,8.7,1.5,14c-1.5,5.3-4.9,13.9-8.3,12.8c-3.4-1.1-1.1-12.5,0-16.1
			S136.4,125.7,139.5,125.5z"/>
		<path class="st2" d="M166.5,122.6c2.3-0.1,2.9,8.7,1.5,14c-1.5,5.3-4.9,13.9-8.3,12.8s-1.1-12.5,0-16.1
			C160.7,129.7,163.4,122.7,166.5,122.6z"/>
		<circle class="st7" cx="142" cy="133.1" r="3"/>
		<circle class="st7" cx="167.5" cy="130.1" r="3"/>
	</g>
	<circle class="st8" cx="149.9" cy="149.7" r="59.4"/>
	<line class="st9" x1="129.4" y1="170.6" x2="172" y2="166"/>
	<ellipse class="st4" cx="147.5" cy="174.9" rx="4" ry="1.6"/>
</g>
</svg>
