<svg xmlns="http://www.w3.org/2000/svg" xmlns:xlink="http://www.w3.org/1999/xlink" viewBox="0 0 526.17 451.37"><defs><style>.cls-1{fill:url(#linear-gradient);}.cls-2{fill:url(#linear-gradient-2);}.cls-3{fill:#7da0d3;}</style><linearGradient id="linear-gradient" x1="50.69" y1="-0.97" x2="276.24" y2="321.24" gradientUnits="userSpaceOnUse"><stop offset="0" stop-color="#ffcaab"/><stop offset="1" stop-color="#e3eeff"/></linearGradient><linearGradient id="linear-gradient-2" x1="129.2" y1="56.69" x2="318.13" y2="384.03" gradientUnits="userSpaceOnUse"><stop offset="0" stop-color="#ffbaab"/><stop offset="1" stop-color="#7da0d3" stop-opacity="0.5"/></linearGradient></defs><g id="Layer_2" data-name="Layer 2"><path class="cls-1" d="M523.57,299.52a13.5,13.5,0,0,0-5.1-4.71,13.91,13.91,0,0,0-2.76-1,13,13,0,0,0,.35-3.6,12.62,12.62,0,0,0-.57-3.5,11.86,11.86,0,0,0-2.45-4.28,13.3,13.3,0,0,0-5.75-3.63,18.7,18.7,0,0,0-3.68-1,16.27,16.27,0,0,0-3.81-.32,13.15,13.15,0,0,0-3.06.57c-.29-.53-.6-1.06-.94-1.58-2-3.11-4.18-6-7.64-7.59a30.81,30.81,0,0,0-11-2.77c-3.25-.22-6.88.29-9.59,2.22a10.85,10.85,0,0,0-4.83,8.38,45.72,45.72,0,0,0-4.76.49,28.29,28.29,0,0,0-5.36,1.29,15.15,15.15,0,0,0-4.52,2.47,10.13,10.13,0,0,0-2.84,1.91,9.44,9.44,0,0,0-1.46,1.86l-.18-.23a4.59,4.59,0,0,0-1.45-1.46,6.26,6.26,0,0,0-2.61-1.37h0c2.68-5.4,2.37-12.68-2.52-16.82a71.57,71.57,0,0,0-6.39-4.53,13.11,13.11,0,0,0-9.36-2.41,15.71,15.71,0,0,0-7,2.86h-.1a6.89,6.89,0,0,0-1.34.4,15.3,15.3,0,0,0-3,1.4,8.33,8.33,0,0,0-3.45,4.48,6,6,0,0,0-.27,1.61,15.75,15.75,0,0,0-1.87,4.29,7.26,7.26,0,0,0-1.31-.94l-.48-.27a8.12,8.12,0,0,0-1-2.74,10.12,10.12,0,0,0-2.66-2.9c-1.09-.84-2.23-1.6-3.37-2.38l0,0a24.07,24.07,0,0,0,3.35-2.42c3.72-3.24,6.37-8.6,5.81-13.59a17.07,17.07,0,0,0-8.26-12.83,20.49,20.49,0,0,0-15-2.55,14.48,14.48,0,0,0-7.65,4.45,16,16,0,0,0-2.11,3.09,16.16,16.16,0,0,0-6.63,2.33c-2.25-4.93-6.9-7.78-12.28-8.5-5-.67-10.08-.39-14.68,1.91a15,15,0,0,0-4.34,3.38,12,12,0,0,0-1.17-.79,12.63,12.63,0,0,0-15.79,2.36,15,15,0,0,0-3.07,14.52,18.83,18.83,0,0,0,1.62,3.48,16.78,16.78,0,0,0-5.51,4.24,13,13,0,0,0-2.8,5.14,11.51,11.51,0,0,0,.14,6.16,20.67,20.67,0,0,0,1.3,3,12.21,12.21,0,0,0,2.26,5.74,28,28,0,0,0-2.92,2.34,7.48,7.48,0,0,0-2.11,4.27,17.59,17.59,0,0,0-2.43,5.37,7.26,7.26,0,0,0-.22,2.64,18.9,18.9,0,0,0-2.66,1.15,8.87,8.87,0,0,0-2.16-1.76,10.1,10.1,0,0,0-6.11-1.06,42.55,42.55,0,0,0-4.75.72,34.07,34.07,0,0,0-7.3,2.7,4.46,4.46,0,0,0-.76.49l-.23-.2a9,9,0,0,0,3.21-2.16,10.53,10.53,0,0,0,2.42-4.34,12.11,12.11,0,0,0-.69-7.83,14.81,14.81,0,0,0-3.5-5.17c-.24-.22-.49-.43-.74-.64a19.11,19.11,0,0,0-3.18-2.26c.2-.2.41-.41.6-.63a5.41,5.41,0,0,0,2.09-1.49c2.43-2.94,4.92-6.12,5.6-10a14.62,14.62,0,0,0-.21-7.08,15.59,15.59,0,0,0-1.3-2.89c3.68-1.56,6.78-4.2,7.56-8.44s.72-9.41-1.64-13.19a17.8,17.8,0,0,0-5.45-5.06c-.31-.26-.62-.52-.94-.77-1-.79-2-1.61-3.05-2.31a15.22,15.22,0,0,0-5.22-2.11,2.29,2.29,0,0,0-.1-.23,16,16,0,0,0-6.43-7,14.49,14.49,0,0,0-10.81-1.06c-.57.17-1.12.37-1.66.59l-.18,0a6.36,6.36,0,0,0-3.21,1.49,18.12,18.12,0,0,0-4.06,3.22,7.61,7.61,0,0,0-2.11,6l-.38.67a7.66,7.66,0,0,0-.9,4.83l-.23.05a12.24,12.24,0,0,0-4.26,1.79,8.22,8.22,0,0,0-.67.49,11.92,11.92,0,0,0,.35-1.43c.8-4.45-.37-8.87-4-11.71-4.65-3.59-10.81-4.22-16.51-3.75-3.21.26-6.28.91-8.91,2.87q-.56.42-1.05.84a13.43,13.43,0,0,0-2.81-1.89A24.87,24.87,0,0,0,194,216.3a22.46,22.46,0,0,0-13.19,4.9,93,93,0,0,0-7.62,7.88,7.89,7.89,0,0,0-1.73,3,38.1,38.1,0,0,0-9,4.32,22.57,22.57,0,0,0-5.89,6.23,23.78,23.78,0,0,0-1.83,3.93c-.12.3-.22.6-.32.91-5.2-1.91-10.7-1.76-16.17-.44-4.77,1.15-9.81,3-13.28,6.63-4.78,4.95-5.53,11.93-2.91,18.13,2,4.85,6,8.56,10,11.78a34.72,34.72,0,0,0,7,4.64c.32.15.64.28,1,.41a8.3,8.3,0,0,0-.8,1.05c-.31.14-.62.27-.93.42a5.12,5.12,0,0,0-.73.39,8.33,8.33,0,0,0-3.45,4.48,6.45,6.45,0,0,0-.24,1.27,5.61,5.61,0,0,0-.85,2.71,5.55,5.55,0,0,0-.12,1.22c-1.48-.75-3-1.38-4.53-2a41.67,41.67,0,0,0-6.09-2,8,8,0,0,0-2.93-.18,8.25,8.25,0,0,0-.21-1.19l-.22-.54a9.87,9.87,0,0,0-.41-2.6,11.14,11.14,0,0,0-2.81-4.68,11.52,11.52,0,0,0-2.5-1.82c-.18-.13-.36-.27-.55-.39a9.56,9.56,0,0,0-1.31-.59l-.63-.27a12.69,12.69,0,0,0-.2-2.3c.23-.31.47-.62.68-1a12.68,12.68,0,0,0,1.32-10,13,13,0,0,0-2.9-5.08,12.35,12.35,0,0,0-5-3.2c-3.67-1.43-7.63-.52-11.09,1A22.81,22.81,0,0,0,88,267a36,36,0,0,0-5.11,5.71,21.63,21.63,0,0,0-2.31-3,19.67,19.67,0,0,0-11.15-6,37.6,37.6,0,0,0-15.21,1.1,7.58,7.58,0,0,0-4.87,4.27c-1.14-.46-2.29-.9-3.4-1.38-3.25-1.4-6.17-2.67-9.73-2.88s-6.88,1-10,2.39a33.74,33.74,0,0,0-5.56,3.13,30.25,30.25,0,0,0-7,6.75,16.17,16.17,0,0,0-2.45,5,9.72,9.72,0,0,0-3.64,3.43,9.15,9.15,0,0,0-1.3,4.79c0,.54.12,1.08.16,1.63.15,1.86.22,3.66.53,5.51a14.09,14.09,0,0,0,4.71,8,44.84,44.84,0,0,0-5,4A21,21,0,0,0,.05,323.06c-.39,4.6,1.41,9.39,3.9,13.17a63.13,63.13,0,0,0,4.17,5.47l.05.06a6.64,6.64,0,0,0-.64.55,11.33,11.33,0,0,0-3,5.15A23.65,23.65,0,0,0,3,352.53c-.49,2.8-.67,5.69.86,8.24a9.76,9.76,0,0,0,5.38,4.32c.68.81,1.38,1.6,2.07,2.4.37.53.73,1.06,1.09,1.6-1.77,2.67-3.05,5.65-2.75,9A12.6,12.6,0,0,0,17,388.76a44,44,0,0,0,13.88,4c.1.18.2.37.31.55A44,44,0,0,0,37.49,401a7.24,7.24,0,0,0,.78,1.95c5.69,9.88,17.48,12.18,28,12a29.62,29.62,0,0,0,8.37-1.15,23.35,23.35,0,0,0,7.78-4.33c.36-.29.7-.6,1-.91a9.66,9.66,0,0,0,4.14,2.14,21.27,21.27,0,0,0,11.56-.8c.53-.19,1-.39,1.54-.6a7.53,7.53,0,0,0,5.06.38,9.28,9.28,0,0,0,5.36-4.46,23.25,23.25,0,0,0,1.15-2.15,7.31,7.31,0,0,0,3.12-7.78,10.48,10.48,0,0,0-.21-4.63,7,7,0,0,0-1-3,8.59,8.59,0,0,0-2-2.21c-.15-.2-.32-.39-.48-.59a10.13,10.13,0,0,0,2.79-.59,22.5,22.5,0,0,0,3.26-1.45,22.39,22.39,0,0,0,2.84-2.1,8.42,8.42,0,0,0,2.2-5.31,8,8,0,0,0-1.4-4.37,8.3,8.3,0,0,0-4-4.83,10.53,10.53,0,0,0-4.59-1.18,13.15,13.15,0,0,0-3.14.36,6.93,6.93,0,0,0-1.66.61,10,10,0,0,0-1.49-.49,34.32,34.32,0,0,0,6-2.69,11,11,0,0,0,2.56-2.12,8.74,8.74,0,0,0,1-.48,7.41,7.41,0,0,0,2.59-2.6,7.06,7.06,0,0,0,.25,1.77,7.47,7.47,0,0,0,2.48,3.78,13.31,13.31,0,0,0,1.41,4.49,12.69,12.69,0,0,0,6.25,5.11l5.69,2.46.48.21a18.89,18.89,0,0,0-9.83,7.75,20.68,20.68,0,0,0-2.88,14.61,12.86,12.86,0,0,0,3.51,6.87,10.11,10.11,0,0,0,1,.86,15.16,15.16,0,0,0-1.79,7.21,12.11,12.11,0,0,0,3.51,8.07,10.38,10.38,0,0,0-.67,1.7,7.52,7.52,0,0,0,4.34,8.85c3.15,1.33,7.82.33,9.37-3.07.11-.24.24-.48.36-.72a16.66,16.66,0,0,0,1.65-2.11c.16-.27.31-.55.45-.83a7.86,7.86,0,0,0,5.68-5.28,9.38,9.38,0,0,0,.42-4.83c3.28-1.08,6.39-3.35,8.93-5.28,4.21-3.18,8.22-7.09,9.28-12.5a15.09,15.09,0,0,0-1.21-10,9.43,9.43,0,0,0-1.26-1.83,8.75,8.75,0,0,0,1.4-4.72,8.51,8.51,0,0,0-1.4-4.71,13.13,13.13,0,0,0,4-4.2,11,11,0,0,0,1.52-5.69,9.92,9.92,0,0,0-1.18-4.46,8.76,8.76,0,0,0-2.26-2.61,8.23,8.23,0,0,0,.77-1.35l.07,0c3.07-1.65,6.38-3.74,7.25-7.38a8.79,8.79,0,0,0-2.14-8.17,9.89,9.89,0,0,0-6.73-2.75h-.31l.43-.34a31,31,0,0,0,4.14-4,5.77,5.77,0,0,0,1.77,2.84,23.17,23.17,0,0,0,7,4,30.57,30.57,0,0,0,5.14,1.33c.88.16,1.75.3,2.63.42,0,.14.06.28.1.41a13.67,13.67,0,0,0,3.51,8.3,11.68,11.68,0,0,0,3.06,2.44,13.93,13.93,0,0,0,5.71,1.64,17.56,17.56,0,0,0,4.51-.37l1.29-.27a19.48,19.48,0,0,0,3-.32,7.76,7.76,0,0,0,1.25-.36,17,17,0,0,0,2.65-1.18,14,14,0,0,0,4.24-4.11c.15-.35.3-.7.44-1.05.57.25,1.14.49,1.73.72a16.63,16.63,0,0,0,4.73,1.1c3.22.31,6.29-1.18,8.82-3,2.36-1.7,4.69-3.64,6-6.31q.32.63.69,1.26a22.17,22.17,0,0,0,5.52,6l.6,1.43a7.62,7.62,0,0,0,2.69,2.69l.25.12a5.51,5.51,0,0,0,2.79.89,5.64,5.64,0,0,0,3-.13l.12,0a20.38,20.38,0,0,0,9.16,1.69,21,21,0,0,0,8.3-2.65,6.76,6.76,0,0,0,4.35,1.43,23.25,23.25,0,0,0,12.26-4.23,28.66,28.66,0,0,0,3.09-2.53,8.11,8.11,0,0,0,.55-.62,8.93,8.93,0,0,0,1.79.85A31.91,31.91,0,0,0,304.92,349a21.72,21.72,0,0,0,7.39-1.44,5.46,5.46,0,0,0,1.28,1.49,30,30,0,0,0,12,6.26A25.07,25.07,0,0,0,339,355a5.65,5.65,0,0,0,1.84,2.74c3.8,3.1,8.06,5.67,13.15,5.68a14.74,14.74,0,0,0,4.33-.64,8,8,0,0,0,3.38-.06c5.55-1.29,8.81-6.54,9.21-11.93a18,18,0,0,0-.84-6.26,2.25,2.25,0,0,1-.08-.24l.64-.28a12,12,0,0,0,2.51-1.72,18.38,18.38,0,0,0,2.72,7.12,18.86,18.86,0,0,0,2.87,3.65,7.49,7.49,0,0,0-1.32,2.61,15.41,15.41,0,0,0-.64,2.1,24,24,0,0,0-.39,2.81,9.21,9.21,0,0,0,.16,2,9.52,9.52,0,0,0,1.53,4.36,11.86,11.86,0,0,0,3.91,3.71,19.8,19.8,0,0,0,2.45,1.08c.31.12.61.23.92.33.72.22,1.45.39,2.18.54s1.46.27,2.2.38l.16.21a8.14,8.14,0,0,0,.81,2.34,11.1,11.1,0,0,0,4.78,4.54,13.26,13.26,0,0,0,3.65,1.35,16.72,16.72,0,0,0,3.88.3,9.74,9.74,0,0,0,7.86-2.46,10.32,10.32,0,0,0,.8-.82,7.92,7.92,0,0,0,3.56,5.34,49.94,49.94,0,0,0,14.12,6.67,13.26,13.26,0,0,0-3.66,3.79,11.32,11.32,0,0,0,0,12.18c2.29,3.35,5.7,5,9.45,6.29a30.1,30.1,0,0,0,5.17,1.2c.05.12.08.23.13.35,1.54,3.64,4.55,5.83,8,7.34a10.34,10.34,0,0,0-1.16,2.47c-1,3.28-.21,6.83,1.3,9.81,2.24,4.45,6.42,7.52,10.93,9.37a7.75,7.75,0,0,0,2.71,1.41,7.92,7.92,0,0,0,3.93,0,21.8,21.8,0,0,0,18.4-9.64,15.19,15.19,0,0,0,2.53-7.48,24,24,0,0,0,4-2.69,13.38,13.38,0,0,0,1.95-2,21.1,21.1,0,0,0,2.49-3.59,18,18,0,0,0,2.2-8.71c0-.49-.07-.93-.12-1.34a28.49,28.49,0,0,0,5.31-4,39.52,39.52,0,0,0,3.94-3.48,15.54,15.54,0,0,0,3.77-7.36c1-5.14.14-10.74-3.69-14.59a13,13,0,0,0-5.83-3.34c.18-.39.35-.82.56-1.38a10.18,10.18,0,0,0-1.1-8.46A12.5,12.5,0,0,0,497,363a15.38,15.38,0,0,0-3.18-1.5l-.19-.06a9.27,9.27,0,0,0,2.2-1.9,32.3,32.3,0,0,0,3.49-5.09,22.92,22.92,0,0,0,2.26-5.78c.67-.24,1.33-.5,2-.78a19.08,19.08,0,0,0,3.17-1.57,17.72,17.72,0,0,0,5.93-6.06,14.9,14.9,0,0,0,1.58-4,13.74,13.74,0,0,0,.38-4.19,14.15,14.15,0,0,0-1.33-5.13,9,9,0,0,0,4.14-1.48,18.87,18.87,0,0,0,4.43-4.26,21,21,0,0,0,4.25-10.9A16.6,16.6,0,0,0,523.57,299.52ZM423,364.17l.11-.15-.08.16Zm4.36-8.59.1.24-.27.34C427.21,356,427.27,355.78,427.32,355.58ZM460.25,363a7.28,7.28,0,0,0-.31-.77,12.45,12.45,0,0,0,1.1.81C460.78,363,460.51,363,460.25,363ZM428.1,348.33c.25-.15.49-.32.74-.48a6,6,0,0,0-1,1.37c-.06.1-.1.21-.15.31-.05-.29-.12-.57-.18-.86A5.36,5.36,0,0,0,428.1,348.33ZM426,359.23a7.31,7.31,0,0,0-.1,1.8,7.76,7.76,0,0,0-1.75,1.51A27.44,27.44,0,0,0,426,359.23ZM359.5,281.5c-.05,1-.1,2-.16,3.05a16.65,16.65,0,0,0-1.52-1.23c-.11-.08-.23-.15-.35-.22a7.63,7.63,0,0,0,.68-.93C358.61,282,359.06,281.74,359.5,281.5ZM252.18,313.71a18.25,18.25,0,0,1-1,1.74,11.61,11.61,0,0,0,.81-4.31,8.06,8.06,0,0,0,.5,1.48C252.43,313,252.31,313.35,252.18,313.71Zm-.41-5.1c0,.09,0,.17,0,.25,0-.08,0-.17-.07-.26ZM142,361.89h0v0Zm211.57-10.72.81-1a15.48,15.48,0,0,0-1,1.53Zm6-91.88-.59-.37.63-.49C359.56,258.72,359.54,259,359.54,259.29Zm-35.48-9,0,0v0S324.05,250.27,324.06,250.27Zm132.31,182-.26,0-.74-.1C455.7,432.22,456,432.24,456.37,432.25ZM476.32,274.6c-.21-.12-.37-.22-.35-.26A2.83,2.83,0,0,1,476.32,274.6Zm-111,70.87-.12,0,.12,0Zm26.76,31.28.11.16a7.17,7.17,0,0,1-.45-.63C391.82,376.44,391.93,376.6,392.05,376.75ZM21.33,107a25.89,25.89,0,0,0,7,7.15,19.67,19.67,0,0,0,2.37,1.33c-1.69,4.48-2.88,10.71-1.14,15.09s5.5,6.6,9.11,9.49a16.76,16.76,0,0,0,1.2,4.07,4.5,4.5,0,0,0-1.26.63c-1.37,1.06-4.57.5-5.91,1.6-.76.51-3.69,5.51-5,7a18.39,18.39,0,0,0-3.21,5,22,22,0,0,0-1.63,3.85,7,7,0,0,0,.48,5.17,16.38,16.38,0,0,0,.53,2.23,20.82,20.82,0,0,0,9.84,12,34.28,34.28,0,0,0,12.42,3.68,17.64,17.64,0,0,0,.77,5.22C45,200,51.54,209.76,59.62,214.23A47,47,0,0,0,73.79,219l1.23.22a15.89,15.89,0,0,0,1.14,13.05c2.92,5.24,8.33,7.54,14,8.06a29.94,29.94,0,0,0,6.06-.15,33.43,33.43,0,0,0,7.68-1.54c3.22-1.16,6.23-3,7.87-6.12a9.72,9.72,0,0,0,1-6.39c.42-.18.83-.36,1.23-.57a11.88,11.88,0,0,0,5-4.85,14.72,14.72,0,0,0-.34-13.94q-.33-.61-.72-1.2c-.11-.19-.23-.37-.35-.54a27.85,27.85,0,0,0,5.84-4.48,7.2,7.2,0,0,0,1.09.85c1.21,1.21,2.09,2.73,3.39,3.86,3.08,2.69,6.55,3.65,10.51,4.08.4.05.79.08,1.19.11a11.62,11.62,0,0,0,1.67,5.41,14.32,14.32,0,0,0,7.32,5.82,22.73,22.73,0,0,0,6.65,1.23,31.23,31.23,0,0,0,5.47,0,21.88,21.88,0,0,0,8.19-2.24,16.22,16.22,0,0,0,5.66-5.2A13.33,13.33,0,0,0,175,200a17.41,17.41,0,0,0-6.21-5.72c.58-.13,1.16-.28,1.73-.46A28.51,28.51,0,0,0,181,188a20.86,20.86,0,0,0,4.54-5.89,6,6,0,0,0,.67.75,12,12,0,0,0,2.59,1.87c1.12.58,2.29,1.09,3.47,1.57a5.43,5.43,0,0,0,0,1.4,19,19,0,0,0,.49,3,8,8,0,0,0-.49,3,9.31,9.31,0,0,0,1.4,4.7,10.48,10.48,0,0,0,6.68,4.6,47.47,47.47,0,0,0,6.14.77,9.08,9.08,0,0,0,1.15.5c4.19,1.47,8.76.31,12.82-1s9.37-3.38,11.66-7.4a10.21,10.21,0,0,0,1.35-4.94l.14.33a8.1,8.1,0,0,0,.53,1.16,8.82,8.82,0,0,0,3.61,3.32,22.56,22.56,0,0,0,4.84,1.74,5.74,5.74,0,0,0,3,.14,5.45,5.45,0,0,0,1.06-.17,22.84,22.84,0,0,0,14.22-1.63,6.18,6.18,0,0,0,1.63,2.24c6.14,5.26,14.29,8.44,22.46,7.41a25.84,25.84,0,0,0,11.83-4.16,27.57,27.57,0,0,0,8.33-8.93,25.57,25.57,0,0,0,3-8.77,6.59,6.59,0,0,0,2.5-.29c.85-.27,1.7-.58,2.53-.91a10.79,10.79,0,0,0,3.52,5.81,13.42,13.42,0,0,0,4.43,2.58,15.63,15.63,0,0,0,3.87.77,14.79,14.79,0,0,0,1.75.1A8.06,8.06,0,0,0,327,199a2.46,2.46,0,0,0,.29.34,12.21,12.21,0,0,0-1.33,1.79,20.55,20.55,0,0,0-1.12,2.55,8.74,8.74,0,0,0-.38,5.62,9.28,9.28,0,0,0,2.25,3.87,8.05,8.05,0,0,0,1.3,1.1,8.68,8.68,0,0,0,1.39,1,17.9,17.9,0,0,0,2.49,1,13.6,13.6,0,0,0,3.7.51,14.28,14.28,0,0,0,2.06-.15,22.87,22.87,0,0,0,2.38-.32,8,8,0,0,0,2-.83,8.13,8.13,0,0,0,2.28-2,20.75,20.75,0,0,0,3.93,1.35c3.14.7,6.17.72,9.06-.87a11.64,11.64,0,0,0,4.63-5.28,10.85,10.85,0,0,0,.73-2c2.64,4.1,7.62,7,12.2,8a26.8,26.8,0,0,0,15.76-1.25c4.73-1.88,9.94-4.43,13.23-8.44a15.68,15.68,0,0,0,4-10.06,14.23,14.23,0,0,0-.56-3.89c5.55-3.64,10.71-8.38,12.14-15.11A16.5,16.5,0,0,0,415,160a19.26,19.26,0,0,0,5.16-2,12.07,12.07,0,0,0,5.71-7.42,14.57,14.57,0,0,0-1.56-10.12,15.3,15.3,0,0,0-1.09-1.73l-.26-.51c.12-.1.25-.19.36-.3,1.49-1.35,3-2.66,4.45-4.06a18.55,18.55,0,0,0,4.64-7,7.47,7.47,0,0,0,.3-1.15,13.23,13.23,0,0,0,.31-2.94,13.08,13.08,0,0,0-.81-4,10.48,10.48,0,0,0-.53-2.57,15.41,15.41,0,0,0-7-8.26,7.44,7.44,0,0,0-2.29-.84,15.71,15.71,0,0,0,1.77-7.54,15.25,15.25,0,0,0-.74-4.07l.06-.19a7.6,7.6,0,0,0-.76-5.77c-1-1.54-2.6-3.16-4.48-3.45L416,85.75a19.48,19.48,0,0,0-6.87-3.65,21.76,21.76,0,0,0-11.81.45,26.47,26.47,0,0,0-9.89,5.22,13.3,13.3,0,0,0-4.21,12.36c.65,4.18,3.37,8.06,6,11.22.09.12.2.22.29.33a15.72,15.72,0,0,0-6.79,4.51,19.15,19.15,0,0,0-1.79,2.44,21.85,21.85,0,0,0-1.17,2.61,15.53,15.53,0,0,0-.89,4.29,9.85,9.85,0,0,0,0,1.8l-.53.11c-.77-.29-1.55-.6-2.33-.87-3.12-1.12-6.92.71-8.55,3.55q-.57-.59-1.14-1.14a26.72,26.72,0,0,0-5.43-4.33,16.65,16.65,0,0,0,5.24-4.64,10.58,10.58,0,0,0,1.38-1.38,14.54,14.54,0,0,0,2.7-4.73,7.06,7.06,0,0,0,.24-1,16.67,16.67,0,0,0,.31-2.82,13.12,13.12,0,0,0-3.36-8.46c-.15-.16-.31-.3-.47-.44a10.85,10.85,0,0,0-2.36-2.6c3.74-1.85,6.94-4.5,8.68-8.62,3-7.09-.2-14.56-6.54-18.54-5.16-3.24-11.8-3.24-17.68-2.87-6.33.41-12.7,1.88-17.44,6.36a18.72,18.72,0,0,0-5.13,8.62,15.63,15.63,0,0,0-.3,6.4,15.24,15.24,0,0,0-4.31-2l-.66-.16c.22-.31.43-.62.62-.94a13.5,13.5,0,0,0,1.72-10.18,14.39,14.39,0,0,0-6.23-8.37,21,21,0,0,0-7.62-2.88,37.6,37.6,0,0,0-8.47-.73,25.61,25.61,0,0,0-7.67,1.3,17.09,17.09,0,0,0-3.94,1.91,16,16,0,0,0-1.76,1.42,23.56,23.56,0,0,0-10.44-5c-5.54-1.06-10.95-.21-16.35,1.16-4.4,1.11-9,2.47-12.67,5.23-3,2.24-5.41,4.85-6.51,8.51a8.33,8.33,0,0,0-.22.86,16.3,16.3,0,0,0-2.08.42,6.47,6.47,0,0,0-1.18.44l0-.27a16,16,0,0,0-2.54-10.38,18.41,18.41,0,0,0-9.37-7A7.45,7.45,0,0,0,221.28,62a16.6,16.6,0,0,0-8.44.62c-5.34,2-10.4,7.71-8.29,13.86a9.68,9.68,0,0,0,1,2.09,17.83,17.83,0,0,0-7.27.64,14.6,14.6,0,0,0-4,2.18c.06-.45.11-.91.13-1.37a13.08,13.08,0,0,0-.55-4.13l.18-.42a1.21,1.21,0,0,0,.05-.18c.08-.35.13-.89.16-1.12a7.85,7.85,0,0,0,.14-1.15c0-.05,0-.1,0-.15l-.27-2s0-.06,0-.1a14.15,14.15,0,0,0-.83-2c-.05-.09-.09-.19-.15-.28-.24-.35-.49-.7-.75-1a11.19,11.19,0,0,0,3.53-3.74,14.18,14.18,0,0,0,1.61-6.06l.14-1a7.45,7.45,0,0,0-.35-2.48,7.83,7.83,0,0,0-3.44-4.48l-1.79-.75a5.91,5.91,0,0,0-2.11-.26,21.81,21.81,0,0,0,0-7.77c.19-.48.36-1,.52-1.48,2.37-7.9-1.71-16-8.22-20.49a27.52,27.52,0,0,0-14.44-8,57.08,57.08,0,0,0-11.88-1.12,32.27,32.27,0,0,0-6.29.36,8.87,8.87,0,0,0-3.25,1.31,10,10,0,0,0-3.92,5.2,5.62,5.62,0,0,0-.24,2.66,14.51,14.51,0,0,0-1.89,8,17.69,17.69,0,0,0,5.55,11.51c-1.46.15-2.91.35-4.36.64a35.88,35.88,0,0,0-8.95,3.06,15.08,15.08,0,0,0-7.49,8.75c-1,3-1,6.33-.9,9.44a26.15,26.15,0,0,0,2.51,11.29c2.65,5.43,7.75,9.81,12.55,13.29a46.08,46.08,0,0,0,8,4.58,23.94,23.94,0,0,0-6.63,3.31A6.94,6.94,0,0,0,136,95.24a33.14,33.14,0,0,0-3.06,4.2,31.8,31.8,0,0,0-2.17,4.75,20.16,20.16,0,0,0-.94,3.25,34.67,34.67,0,0,0-.59,4.56c-.46-.22-.93-.42-1.41-.62a23.86,23.86,0,0,0-22.51,3.16,30.91,30.91,0,0,0-8.62,9.62,35.68,35.68,0,0,0-1.94,4.08A11.82,11.82,0,0,0,89.11,123c-3.19-1.35-4.21-2.74-7.62-2.72-1.75,0-6.11,2.46-7.4,3.51a7.81,7.81,0,0,0,.54-2.9c.18-.06.36-.11.54-.18a17.93,17.93,0,0,0,7-4.41,18.62,18.62,0,0,0,2.63-3.59,10.32,10.32,0,0,0,1.17-1.36c2.18-3.08,3.61-7.22,3-10.92A14.9,14.9,0,0,0,87.06,89.6a18.09,18.09,0,0,0-8.7-6.88c-3.67-1.5-7.49-1.53-11.33-1.59,0-.32,0-.65,0-1a18.37,18.37,0,0,0-1.87-7.35,13.65,13.65,0,0,0-1.15-2,8.5,8.5,0,0,0-.18-1.65c-1.3-6-8.27-7.69-13.43-8.94s-10.66-2.22-15.83,0A28.55,28.55,0,0,0,23.77,68a17.87,17.87,0,0,0-3.85,7.27,14.56,14.56,0,0,0,.36,8.62,16.74,16.74,0,0,0,.83,1.75,20.13,20.13,0,0,0-4.49,7.5,10,10,0,0,0,.42,7.24A27.42,27.42,0,0,0,21.33,107Zm184.83,81.71-.15-.2h0l.15.19Zm19.7-20,.06,0a6.22,6.22,0,0,0,.7-.48,2,2,0,0,0,.07.23c.07.2.16.39.24.59h-.15Zm10-32.83a28.62,28.62,0,0,0,12.1,5,47.59,47.59,0,0,0,6.3.4,10.46,10.46,0,0,0-1.76,1.48,9.92,9.92,0,0,0-2.76,2.13,13,13,0,0,0-2.21,3.52c-.26-.2-.53-.4-.81-.58-2.57-1.64-5.76-1.76-8.73-1.88a30.16,30.16,0,0,0-3.68.1l0-.12a12.73,12.73,0,0,0,.31-2.89,14.25,14.25,0,0,0-1.57-5.67,16.71,16.71,0,0,0-.31-2.33,4.79,4.79,0,0,0-.21-.74,17.32,17.32,0,0,0-1-2.38A22.2,22.2,0,0,0,235.84,135.88ZM103.75,160.45s0,0-.07.05ZM231,114.51c-.22.26-.42.53-.62.81a16.75,16.75,0,0,0-.5-1.71C230.24,113.91,230.61,114.21,231,114.51ZM228.88,127a15.8,15.8,0,0,0,1.16,2.77c.09.16.19.31.28.46-.45-.58-.91-1.15-1.38-1.7a5.43,5.43,0,0,0-.61-.57C228.52,127.69,228.7,127.37,228.88,127Zm-3.18-20.39.15.55-.75-.89-.07-.09c.13-.31.27-.62.41-.92C225.52,105.76,225.6,106.21,225.7,106.65Zm-81.65,21.71a5.21,5.21,0,0,0,.13.79,8.64,8.64,0,0,0-1-.57A8.15,8.15,0,0,0,144.05,128.36ZM311.43,149a33.09,33.09,0,0,0-7.79-3.39,11.65,11.65,0,0,0,1.05-1.94,12.45,12.45,0,0,0-1.06-11.55,20.31,20.31,0,0,0-4.51-4.93,15.49,15.49,0,0,0,3.24-.94,18.38,18.38,0,0,0,2.7-1.45c0,.07,0,.15.05.23a10.75,10.75,0,0,0,5,6.51,14.8,14.8,0,0,0,5.24,1.7c1.07.17,2.08.31,3.07.38a14.43,14.43,0,0,0-2.19,1.76,15.1,15.1,0,0,0-1.63,2,5.5,5.5,0,0,0-.54.9,14.56,14.56,0,0,0-1.47,5.67,13.15,13.15,0,0,0,.06,2.51,32,32,0,0,0,.55,3.64C312.63,149.7,312,149.31,311.43,149ZM415.81,101.8c1,.62.44.43,0,0Zm-15.62-.65a.6.6,0,0,0-.08-.08l-.27-.32-.07-.12C400.46,101.35,400.41,101.37,400.19,101.15Zm-68.79-.59a32.42,32.42,0,0,0,1.34,4.3l-.08,0a8.13,8.13,0,0,0-2.49-.88c.06-.11.13-.22.19-.34A12.36,12.36,0,0,0,331.4,100.56ZM89.11,154.88a4.78,4.78,0,0,0-.7.17l.55-.37.2-.14C89.14,154.65,89.13,154.77,89.11,154.88Zm90.1,24.38h0Zm49.67,15.46a1.06,1.06,0,0,1,.27-.36Zm134-1.72a10.68,10.68,0,0,0-2.28,6.3h0a7.54,7.54,0,0,0-4.92-4.19,6.79,6.79,0,0,0,.59-3.87,7.6,7.6,0,0,0-.38-4.17,12.09,12.09,0,0,0-6.4-6.56c1.25-2.82,2.51-6.07,2.26-9.21a12.12,12.12,0,0,0-.56-3.17c-.06-.19-.13-.36-.2-.53a7.56,7.56,0,0,0,2.5-.93c.18.13.36.27.56.4a30.3,30.3,0,0,0,17.49,4.72c.49.06,1,.1,1.47.13a22,22,0,0,0-3.37,2.53c-4.08,3.77-6.45,10.09-3.44,15.22l.18.28A12.38,12.38,0,0,0,362.9,193ZM255.84,80.91c.42.5.23.37,0,0ZM210.1,22.1a8.9,8.9,0,0,1,.08-12.65,11.41,11.41,0,0,1,3.32-2.17,20.76,20.76,0,0,1,3.79-1.39,21.74,21.74,0,0,1,4.18-.53,19.16,19.16,0,0,1,3.94.41,7.57,7.57,0,0,1,2.68,1.15,7.46,7.46,0,0,1,5.2,2.2,7.48,7.48,0,0,1,.13,10.46,9.07,9.07,0,0,1,2.2.54A13.23,13.23,0,0,1,241,23.53,15.92,15.92,0,0,1,245.27,34a10.85,10.85,0,0,1-3,7.47,15.35,15.35,0,0,1-5.67,3.33,24.85,24.85,0,0,1-9,1.64,7.23,7.23,0,0,1-4-1.2A16.36,16.36,0,0,1,217,42.4a12.77,12.77,0,0,1-3.89-4.12,13.23,13.23,0,0,1-1.5-5.58,14.38,14.38,0,0,1,1.69-7.23,10.35,10.35,0,0,1,.61-1.08A8.75,8.75,0,0,1,210.1,22.1Z"/><path class="cls-2" d="M87.54,157.13a1.51,1.51,0,0,1,1.84-1,2.55,2.55,0,0,1,.35.14,1.74,1.74,0,0,1,.48-.53l.61-.45.17-.13.25-.2q.58-.48,1.14-1c.49-.44.94-.92,1.4-1.39a1.58,1.58,0,0,1-.17-1.75,16.32,16.32,0,0,1,1.78-2.1,2.5,2.5,0,0,0,.25-.41l.06-.22c0-.07,0-.14,0-.22v.1a1.61,1.61,0,0,1,.17-1,1.49,1.49,0,0,1,.9-.69,1.52,1.52,0,0,1,.87,0,6.36,6.36,0,0,1,1.15-.84,6.82,6.82,0,0,1,1.11-.49,1.45,1.45,0,0,1-.45-.31,1.18,1.18,0,0,1-.18-.21c-.19.11-.39.23-.59.33a1.55,1.55,0,0,1-2.06-.54,1.59,1.59,0,0,1-.12-.27,1.44,1.44,0,0,1-.55-2.41A8.08,8.08,0,0,0,97.3,140a2.85,2.85,0,0,0,.11-.65,14.46,14.46,0,0,0,0-2.63,35.09,35.09,0,0,0-1.09-5.28,1.57,1.57,0,0,1,.44-1.5,11.7,11.7,0,0,1-.66-1.54,1.27,1.27,0,0,1,.11-1.16,1.52,1.52,0,0,1,2.48-1.55c2.64,2.47,5.45,5.24,6.11,8.95a11.23,11.23,0,0,1-.64,5.62,9.15,9.15,0,0,1-2.52,4.43,7.09,7.09,0,0,1,1.72.07h0a11.34,11.34,0,0,1,1.4-.23,1.16,1.16,0,0,1,.87.24,1.5,1.5,0,0,1,1.68-.84,1.73,1.73,0,0,1,1.06,2.54,3,3,0,0,1-2.51,1.38,18.61,18.61,0,0,0-2.59.24,8.05,8.05,0,0,0-.11.8,5.23,5.23,0,0,1-.54,1.34,18.63,18.63,0,0,1-3.89,4.14,14.19,14.19,0,0,0-2,1.82c-.44.61-.27,1.64-.32,2.36a27.57,27.57,0,0,1-.44,3.39,12.51,12.51,0,0,1-.74,3.07A1.54,1.54,0,0,1,93.32,166a1.52,1.52,0,0,1-1-1.85v0a.17.17,0,0,1,0-.05,1.63,1.63,0,0,1-.87-.43,1.66,1.66,0,0,1-.44-1.06c0-.29,0-.58-.08-.87a3.49,3.49,0,0,0-.12-.54c0-.1-.06-.21-.1-.31v0a5.7,5.7,0,0,0-.3-.54l-.08-.13h0l-.09-.12c-.15-.16-.3-.32-.47-.47l-.22-.19c.37.32.08.07,0,0a5.3,5.3,0,0,0-.57-.33h0l-.28-.1A1.53,1.53,0,0,1,87.54,157.13Zm43.27-48.21a1.08,1.08,0,0,0-.07.31,5.21,5.21,0,0,0,0,.55,5.4,5.4,0,0,0,.15.88,5.14,5.14,0,0,0,.51,1.18,5.4,5.4,0,0,0,.33.74,1.38,1.38,0,0,0-.3.56,1.5,1.5,0,0,0,1,1.84l.08,0a1.42,1.42,0,0,0,.41,1.31,12.43,12.43,0,0,1,3.41,5.51c.36,1.07.64,2.17,1,3.25a4.09,4.09,0,0,0,1.94,2.71,2,2,0,0,0,.73.18l0,0a2.58,2.58,0,0,0,.35.45,3,3,0,0,0,.44.36,1,1,0,0,0,.17.1c.13,0,.27.12.42.17a1.62,1.62,0,0,0,1.4.32h0a1.54,1.54,0,0,0,2.81-.78,20.71,20.71,0,0,0-.53-6.47,16.56,16.56,0,0,0-3-5.52c-2.27-3-4.74-6-8.1-7.73l-.09-.19c0-.09-.08-.22-.13-.31l-.05-.12c-.05-.12-.09-.24-.13-.36a12.8,12.8,0,0,1-.43-1.46,1.52,1.52,0,0,0-1.85-1,1.54,1.54,0,0,0-1.05,1.84A13.78,13.78,0,0,0,130.81,108.92Zm3.59,91.43a9.89,9.89,0,0,0,2.41-4.08,9.46,9.46,0,0,0,.37-2.73,17.94,17.94,0,0,0,.13-3.66,1.57,1.57,0,0,0-.53-1.12c0-.19,0-.38-.05-.57a13.46,13.46,0,0,0-1.68-5.82,1.5,1.5,0,0,0-2.66,1.37,1.32,1.32,0,0,0,0,.81,14.63,14.63,0,0,1,.62,2.72,1.5,1.5,0,0,0-.87,1.78,5.41,5.41,0,0,1,.15,1.62l0,.33a1.44,1.44,0,0,0-.26.83c0,.36,0,.72,0,1.09,0,.18,0,.36,0,.54s-.07.27,0,.1,0,.11,0,.16a7.09,7.09,0,0,1-.25,1l-.06.17c-.06.12-.12.25-.19.37s-.14.22-.21.33h0l-.1.11c-.1.11-.2.21-.31.31l-.13.08a4.22,4.22,0,0,0-1.71,1.45,1.59,1.59,0,0,0-.16,1,8.9,8.9,0,0,1-1.31.47,1.47,1.47,0,0,0-.83,2.23c0,.05-.09.09-.13.15a97.74,97.74,0,0,1,.3,2.18,1.53,1.53,0,0,0,1.84,1A8.32,8.32,0,0,0,134.4,200.35Zm19.2,4.26a1.85,1.85,0,0,0-.62,0,1.64,1.64,0,0,0-1.13.24,1.54,1.54,0,0,0-1.74,1.06.36.36,0,0,0,0,.07l-.12.25a4.67,4.67,0,0,1-.27.49q-.15.25-.33.51l-.06.08c-.49.35-1,.69-1.51,1a8.48,8.48,0,0,1-2.22,1,5.54,5.54,0,0,1-2.42.15,1.5,1.5,0,0,0-1.5,1.5,1.45,1.45,0,0,0,.69,1.2h0a1.58,1.58,0,0,0,.1,1,1.35,1.35,0,0,0-.42,1,1.53,1.53,0,0,0,1.5,1.5c2.64-.28,5-1.84,7.08-3.46a11.6,11.6,0,0,0,4.06-5.73A1.53,1.53,0,0,0,153.6,204.61Zm25-141.27a33.65,33.65,0,0,0,8.71-4.4A34.6,34.6,0,0,0,191,55.87a9.38,9.38,0,0,0,2.77-4A1.45,1.45,0,0,0,192.23,50a1.61,1.61,0,0,0-1.1-.53,3.85,3.85,0,0,0-3.6,2.15,1.59,1.59,0,0,0-.15,1.15,1,1,0,0,0,0,.1l-.16.12-.45.33-.87.61c-.67.47-1.33,1-2,1.47a1.51,1.51,0,0,0,0,2.12h0a30.88,30.88,0,0,1-6.2,2.94C176,61.07,176.75,64,178.58,63.34Zm44,92.33a1.51,1.51,0,0,0,1.84-1c.09-.56.2-1.11.32-1.66a1.09,1.09,0,0,0,.48-.35,19.12,19.12,0,0,0,1.31-1.92,1.27,1.27,0,0,0,.27-.34,1.67,1.67,0,0,0,.16-.43c.12-.21.22-.43.33-.66a1.37,1.37,0,0,0,1.24-.1c1.76-1.08,2.82-2.94,3.79-4.7s2.09-4.52.86-6.57a1.59,1.59,0,0,0-.7-.61,9.42,9.42,0,0,0-.39-1.63c0-.23,0-.46,0-.68,0-.47-.07-.94-.12-1.4a1.56,1.56,0,0,0,1.37-2,1.53,1.53,0,0,0-1-1,32.28,32.28,0,0,1-2.09-2.53,1.37,1.37,0,0,0-.38-1.39,15.5,15.5,0,0,1-2-1.81,4.36,4.36,0,0,1,0-1.4,18.82,18.82,0,0,1,.39-2.48,6.05,6.05,0,0,0,1.29-3.84,24.51,24.51,0,0,1,1.16-2.21,1.48,1.48,0,0,0-1.3-2.22l0-.1a15,15,0,0,0-.05-2.68,2,2,0,0,0,0-.26.49.49,0,0,0,0-.12,1.62,1.62,0,0,0-.24-.68c0-.19,0-.38-.05-.58a1.53,1.53,0,0,0-1.5-1.5,1.59,1.59,0,0,0-.37.06,9.72,9.72,0,0,1,.81-5,1.55,1.55,0,0,0-.54-2,1.51,1.51,0,0,0-2.05.54,13.19,13.19,0,0,0-.19,10.78,12.37,12.37,0,0,0,.83,1.62l.15.23c-.92,4.93-4.24,9.79-1.44,14.7a8.85,8.85,0,0,0,1.57,1.92c1.62,5,.35,10.48-1.22,15.37a5.74,5.74,0,0,0-.57,1.38,11.42,11.42,0,0,0-1.89,3.5,22.69,22.69,0,0,0-1,4.06A1.54,1.54,0,0,0,222.62,155.67Zm8.62,32.16-.1-.18,0-.05a.34.34,0,0,0,0-.09c0-.15-.08-.3-.11-.45s0-.18,0-.26,0-.35,0-.53a1.33,1.33,0,0,0,1-1,7.23,7.23,0,0,0,.15-2.91,1.21,1.21,0,0,0-.16-1.1l-.17-.25a9.53,9.53,0,0,0-.7-1.57s0-.08,0-.12h.17a1.06,1.06,0,0,0,.58-.13,1,1,0,0,0,.48-.31,1.46,1.46,0,0,0,.44-1.06c0-.13,0-.27-.05-.4a1.49,1.49,0,0,0-.39-.66l-1.6-2a1.11,1.11,0,0,0-.48-.31,1.36,1.36,0,0,0-1.16,0,1.14,1.14,0,0,0-.48.31c0-.13-.09-.25-.13-.38a1.54,1.54,0,0,0-1.69-1.08c-.3-.41-.61-.82-.91-1.24a1.54,1.54,0,0,0-2-.53,1.5,1.5,0,0,0-.54,2.05q1.8,2.46,3.59,4.94a24.59,24.59,0,0,0,1.2,2.27l-.12,4.39c0,1.73-.06,3.52,1.21,4.86a1.5,1.5,0,0,0,2.12-2.12S231.26,187.84,231.24,187.83Zm48.54-42.71a1.67,1.67,0,0,0-.44-.44,9.5,9.5,0,0,0-5-3.26,1.53,1.53,0,0,0-1.84,1.05,1.51,1.51,0,0,0,1,1.84c.28.07.57.15.85.24l.25.1.18.08a5.09,5.09,0,0,1,.56.32l.28.19h0a12.07,12.07,0,0,1,.91.84l.45.48.42.49a7.1,7.1,0,0,1,.79,1.32l0,.05.06.14c0,.11.07.22.1.33a5,5,0,0,1,.14.64A9.06,9.06,0,0,1,278,153a1.4,1.4,0,0,0,.06,1,1.5,1.5,0,0,0,2.36,1.8,6.18,6.18,0,0,0,1.69-5.15A12.41,12.41,0,0,0,279.78,145.12Zm24.33-21a1.32,1.32,0,0,0,2-.48c1.54-3-1-5.46-3.55-6.67a18.65,18.65,0,0,0-8-1.78,11.07,11.07,0,0,0-3.1-2.75c-1.61-1.16-3.27-2.25-5-3.29s-3.16,1.58-1.51,2.59q.86.52,1.71,1.08a29.12,29.12,0,0,1,3.44,3.23,1.43,1.43,0,0,0-.54,1.57,3.25,3.25,0,0,1,.16,1.56,5.2,5.2,0,0,1-.23.86,5.84,5.84,0,0,1-.48.8,1.57,1.57,0,0,0-.39,1,1.54,1.54,0,0,0,.44,1.06,1.52,1.52,0,0,0,2.12,0,5.57,5.57,0,0,0,.43-.56,1.52,1.52,0,0,0,.73,1.45,1.45,1.45,0,0,0,1.25.1h0a1.54,1.54,0,0,0,1.06.44,1.67,1.67,0,0,0,1.18-.59,1.7,1.7,0,0,0,0,.68,1.49,1.49,0,0,0,.69.9,1.62,1.62,0,0,0,1,.17,1.78,1.78,0,0,0,.64-.13,1.44,1.44,0,0,0,.36.3,1.47,1.47,0,0,0,1.16.15l.14,0a1.52,1.52,0,0,0,1.85-.5,1.72,1.72,0,0,0,.39,0,4.71,4.71,0,0,0,1.76-.88A2.15,2.15,0,0,0,304.11,124.14ZM268.69,186.2a1.69,1.69,0,0,0-.18-.64,1.27,1.27,0,0,0-.93-.8h0a1.49,1.49,0,0,0-.36-.05,1.46,1.46,0,0,0-.67.18,1.24,1.24,0,0,0-.72.73,1.11,1.11,0,0,0-.11.59v.08c-.08.75-.11,1.5-.12,2.26,0,.47,0,.94,0,1.4,0,.22,0,.43,0,.65l0,.34a1,1,0,0,1,0,.15,4.93,4.93,0,0,1-.83,2.06,4.69,4.69,0,0,1-.77,1,5.19,5.19,0,0,1-.55.49l-.1.07-.39.24a1.52,1.52,0,0,0-.54,2,1.45,1.45,0,0,0,.72.62,1.42,1.42,0,0,0,0,1.49,1.51,1.51,0,0,0,2,.54,10.29,10.29,0,0,0,4-5.71,9.1,9.1,0,0,0,.3-3.74C269.13,188.85,268.78,187.54,268.69,186.2Zm39.2-9.06a6,6,0,0,1,.65.37,1.43,1.43,0,0,0-.08.22,1.56,1.56,0,0,0,.15,1.16,3.13,3.13,0,0,1,.25.48,5,5,0,0,1,.23.86,5.26,5.26,0,0,1,0,1.05v0a1.48,1.48,0,0,0,1.07,1.64,1.71,1.71,0,0,0,.45,0,1.54,1.54,0,0,0,1.66-.29c1.43-1.28,1.05-3.42.31-4.94a6.82,6.82,0,0,0-3.17-3.15,1.67,1.67,0,0,0-1.16-.15,1.5,1.5,0,0,0-.35,2.74Zm3.51-81,.56,0a20.13,20.13,0,0,0,6.58-.45,17.12,17.12,0,0,0,6.33-2.77,1.51,1.51,0,0,0,0-2.12,1.48,1.48,0,0,0-.73-.4,1.49,1.49,0,0,0-2.5-.77c-2.45,2.5-6.42,3.29-9.83,3.52-.1,0-.16,0,0,0h0a1.52,1.52,0,0,0-1.77,1,1.34,1.34,0,0,0,0,.35.51.51,0,0,0,0,.13A1.52,1.52,0,0,0,311.4,96.13ZM290.25,73.22c.13.45.25.92.35,1.39a1.7,1.7,0,0,1,0,.22,1.63,1.63,0,0,0,.07.73s0,.08,0,.12a1.5,1.5,0,0,0,.32.9,1.42,1.42,0,0,0,.37.68,1.53,1.53,0,0,0,2.12,0c1.74-1.57,2.17-4.1,2.41-6.32a17.63,17.63,0,0,0,.06-2.72,12,12,0,0,0-.36-2.8,1.5,1.5,0,0,0-2.9.8,4.05,4.05,0,0,1,.12.47,1.7,1.7,0,0,0,0,.22v0h0l.06.82a1.56,1.56,0,0,0-1.26,1.09,1.42,1.42,0,0,0-1.21-.21,1.54,1.54,0,0,0-1.05,1.85C289.66,71.4,290,72.3,290.25,73.22Zm29.39,108.5c0-.21.07-.41.11-.61a2.84,2.84,0,0,0,0-.41A13.35,13.35,0,0,0,322,170.38a1.5,1.5,0,0,0-2.89.8,10.05,10.05,0,0,1-.49,5.36,10.78,10.78,0,0,1-.95,1.89,1.51,1.51,0,0,0-1.46,1.09c-.1.31-.18.63-.25.95-.17.15-.34.3-.52.44a1.46,1.46,0,0,0-.19,1.86,8.05,8.05,0,0,0-.4,1.89,4.68,4.68,0,0,0,.69,2.85,1.64,1.64,0,0,0,.9.69,1.66,1.66,0,0,0,.33,0c.07.16.13.32.2.47a1.41,1.41,0,0,0,1,.71,13.28,13.28,0,0,0,1.26,2.15,1.54,1.54,0,0,0,2.05.54,1.51,1.51,0,0,0,.54-2.05,11.27,11.27,0,0,1-2-4.38,9.21,9.21,0,0,1-.27-2.2,11.4,11.4,0,0,1,0-1.31S319.64,181.74,319.64,181.72Zm51.24-48.18a3.09,3.09,0,0,1-.77-3.08,1.5,1.5,0,0,1,1.24-1.08,1.28,1.28,0,0,1,.39,0,1.74,1.74,0,0,1,.61-.68,1.56,1.56,0,0,1,1.16-.15,1.5,1.5,0,0,1,.89.69,9.07,9.07,0,0,1,.88,4.55,5.4,5.4,0,0,1-1,2.59.13.13,0,0,1,0,.06,1.22,1.22,0,0,1-.08.47.13.13,0,0,1,0,.06,1,1,0,0,1-.27.51,1,1,0,0,1-.34.32l.07-.06a2.12,2.12,0,0,0-.33.34.86.86,0,0,0-.07.1,1.55,1.55,0,0,1-.54.54l-.36.15a1.51,1.51,0,0,1-.79,0l-.36-.15a1.13,1.13,0,0,1-.42-.39,1.06,1.06,0,0,1-.27-.51,1.22,1.22,0,0,1,0-.6,1.18,1.18,0,0,1,.17-.55,1.56,1.56,0,0,1,.52-1.59V135l-.06-.35c0-.22-.08-.44-.13-.66S370.91,133.69,370.88,133.54Zm.32,1.55h0a.19.19,0,0,0,0-.07Zm-15.46,22a4.8,4.8,0,0,1,.76,3.1,8.18,8.18,0,0,1-1.41,3.21,1.47,1.47,0,0,0,1,2.21,1.31,1.31,0,0,0,.42.9,1.72,1.72,0,0,0,.71.37,1.63,1.63,0,0,0,.7,1,1.53,1.53,0,0,0,2.05-.54,9.93,9.93,0,0,0,1.21-9,13.2,13.2,0,0,0-2.8-4.25c-1.3-1.42-2.66-2.79-4-4.18a1.31,1.31,0,0,0-1.08-.45l-.19-.18c-1.42-1.29-3.55.83-2.12,2.13A23.58,23.58,0,0,1,355.74,157.11Zm35.53-65.8a11,11,0,0,1,3-3.77c.39-.21.77-.43,1.18-.62,1.54-.68.42-3.39-1.15-2.74l-.35.17v0a17.8,17.8,0,0,0-10.14,13.1,1.52,1.52,0,0,0,.14,1,10.12,10.12,0,0,0,.17,4c.82,3.27,3,5.86,5.48,8.08a11,11,0,0,0-6.85,6,8.22,8.22,0,0,0-.86,5.74,12.66,12.66,0,0,0,1.21,2.68,2.71,2.71,0,0,0,2.34,1.61l.17,0a1.53,1.53,0,0,0,2-.55s0,0,0-.06a8.93,8.93,0,0,0,1.07.79,1.34,1.34,0,0,0,1.3.11l0,0,.17.14a11.44,11.44,0,0,1,1.26,1.25c.08.1.17.2.25.31a.64.64,0,0,1,.1.13q.26.34.48.72c.16.26.3.52.44.79l.19.39a.36.36,0,0,0,0,.09l0,.07a1.65,1.65,0,0,0,.69.89,1.57,1.57,0,0,0,1.16.16,1.53,1.53,0,0,0,1.05-1.85,12.91,12.91,0,0,0-4.79-6s0,0,0,0a19.65,19.65,0,0,1-2.12-4.5,10.33,10.33,0,0,1-.23-1.67,3.25,3.25,0,0,1,.55-.91c.82-1,1.79-1.79,2.69-2.66a1.35,1.35,0,0,0,.44-.94,1.7,1.7,0,0,0,0-1.38,1.45,1.45,0,0,0,.5-.33,1.6,1.6,0,0,0,.42-1.22,1.6,1.6,0,0,0,.54-2.46c-2.71-3.19-4.66-6.69-4.26-11A14.26,14.26,0,0,1,391.27,91.31ZM371.2,185.26c-.21-.38-.43-.75-.63-1.13a.54.54,0,0,1-.07-.13,4.22,4.22,0,0,1,.73-1.95,14.08,14.08,0,0,1,4.34-3.51c3.4-2.1,7.12-4.21,8.89-8a1.55,1.55,0,0,0-.54-2.05,1.51,1.51,0,0,0-2.05.54,9.94,9.94,0,0,1-1.58,2.36,1.41,1.41,0,0,0-1.59-.56A26.78,26.78,0,0,0,368,178.69c-1.45,1.81-2.72,3.94-2.48,6.36a6.42,6.42,0,0,0,3.12,4.66,1.42,1.42,0,0,0-.08.45c0,.09,0,.19,0,.29l-.14.1a55,55,0,0,0-4.1,3.83,8.21,8.21,0,0,0-2.55,4.52,10.75,10.75,0,0,0,2.87,9.23,1.46,1.46,0,0,0,.73.39c.45,1.06.94,2.1,1.43,3.11.84,1.74,3.43.22,2.59-1.51-1.47-3.07-3-6.3-2.76-9.8.22-3.1,2.54-5.45,4.53-7.71a1.31,1.31,0,0,0,.31-.23l.18-.17c-.21.2,0,0,.06,0s.41-.3.6-.46a2.67,2.67,0,0,0,.82-1.31c.26-1.06-.37-2-.83-2.95C372,186.72,371.59,186,371.2,185.26Zm-45.05-50.77c.78-.68,1.62-1.29,2.38-2a13.1,13.1,0,0,0,3.55-5.26c.63-1.83-2.26-2.62-2.89-.8a9.17,9.17,0,0,1-2.16,3.32h0a13,13,0,0,0-4.73,2.32,27.72,27.72,0,0,0-4.28,3.35,14.48,14.48,0,0,0-4,6.54,10.76,10.76,0,0,0-1.1,5.35,1.54,1.54,0,0,0,1.5,1.5,1.5,1.5,0,0,0,.37-.05,4.64,4.64,0,0,0,.12.47c.62,1.81,3.52,1,2.89-.8-.69-2,1.21-4.47,2.27-6,1.3-1.92,3-3.48,4.31-5.41A11.14,11.14,0,0,1,326.15,134.49Zm2.34-42.94a1.37,1.37,0,0,0,.39,1.4c.3.24.59.5.87.77a1.4,1.4,0,0,0-.06,1,10.37,10.37,0,0,0,.87,1.92q.18.33.33.66s.12.27.13.32.07.3.11.44h0c0,.06,0,.11,0,.17a4.34,4.34,0,0,1,0,.51s0,.19,0,.24,0,.27-.07.4a12.7,12.7,0,0,1-.63,1.89,1.45,1.45,0,0,0,.59,1.62l-.14.16a1.57,1.57,0,0,0-.18,1.9,1.61,1.61,0,0,0,.13,1.19,1.52,1.52,0,0,0-.56,0,2.75,2.75,0,0,0-.62.24,2,2,0,0,0-.39.25l0,0a1.53,1.53,0,0,0-.53.33l-1.36,1.19a1,1,0,0,0-.31.48,1.07,1.07,0,0,0-.13.53c-.72.31-1.49.55-2.2.79a9.31,9.31,0,0,1-5.25.61,1.53,1.53,0,0,0-1.85,1,1.52,1.52,0,0,0,1.05,1.84,12,12,0,0,0,6.84-.6c1.06-.37,2.1-.78,3.12-1.22a8.61,8.61,0,0,0,1.43-.78,11.33,11.33,0,0,0,3.41-1.9,1.51,1.51,0,0,0,.43-1.06,1.53,1.53,0,0,0-.43-1.06l-.13-.1a7.64,7.64,0,0,0,3.41-3.93c1-2.85,0-6-1.41-8.52s-3.55-4.76-4.51-7.57A19.68,19.68,0,0,1,329.63,79c.14-1.93-2.87-1.92-3,0a18.94,18.94,0,0,0,.22,4.45s0,0,0,.08C326,86.39,327,89.1,328.49,91.55ZM81.3,346.7a1.56,1.56,0,0,1-.15,2.47c-3.05,2-7.06,2.1-10.59,2A41.09,41.09,0,0,1,59,349.26a1.45,1.45,0,0,1-1-1.45,9.81,9.81,0,0,0-2.77,4.47,6.88,6.88,0,0,0,.1,4.14A12.19,12.19,0,0,0,57.58,360a1.54,1.54,0,0,1,0,2.12,1.51,1.51,0,0,1-2.12,0,15.85,15.85,0,0,1-3.1-4.86,9.88,9.88,0,0,1-.16-5.47,12.57,12.57,0,0,1,3.47-5.91c-3.35-1.64-6.41-4.4-7.14-8.19a17.32,17.32,0,0,1,.2-8.33,9.87,9.87,0,0,1-1.92-2.88,20.15,20.15,0,0,1-1.69-4.82,1.54,1.54,0,0,1,1.05-1.85A1.5,1.5,0,0,1,48,320.82c.11.48.23.95.37,1.43a1.45,1.45,0,0,1,.85.41,27,27,0,0,1,2.26,3,6.22,6.22,0,0,1,.56-.32c1.74-.84,3.26,1.75,1.52,2.59a3.62,3.62,0,0,0-1.46,1.27,1.51,1.51,0,0,1-.14.44,1.11,1.11,0,0,1-.28.35,6.69,6.69,0,0,0-.46,2,20.94,20.94,0,0,0,0,3.27,1.28,1.28,0,0,1,.59.83,8.34,8.34,0,0,0,.38,1.32v0l.15.31c.11.21.23.41.35.61s.23.36.35.53l.14.19.14.17c.28.33.58.64.89.95s.67.62,1,.91c.18.16.37.31.56.46l.23.18,0,0,.06.05a8.64,8.64,0,0,1,2,1.92h0l.1.06.57-.4c1.44-.95,2.77,1,1.94,2.18a1.51,1.51,0,0,1,.28.05,22.12,22.12,0,0,0,4.94.61c1.56.1,3.12.16,4.68.13a19,19,0,0,0,8.9-2A1.52,1.52,0,0,1,81.3,346.7Zm-29.13-9.37c0-.09,0-.07,0,0Zm65.39-3.8a13.73,13.73,0,0,0-2.31-1.41c-.5-.33-1-.65-1.54-.94s-.9-.48-1.36-.71a5.24,5.24,0,0,1-.57-.32s-.17-.19-.22-.22l-.11-.15-.17-.29-.32-.58v0a13.58,13.58,0,0,0,1.56-7.53A12.69,12.69,0,0,0,111,315a19.38,19.38,0,0,0-4.19-4.48,16.46,16.46,0,0,0,.52-8.42,15.66,15.66,0,0,0-3.29-7.6,17,17,0,0,0-7.47-5.12,16.8,16.8,0,0,0-3.23-1.23,8.73,8.73,0,0,0,1.65-5,10.26,10.26,0,0,0,.53-3.19,12.56,12.56,0,0,0-3.39-8.09c-.13-.27-.28-.54-.43-.81-.72-1.21-2.54-3.6-4.29-3.8-1.28-.56-2.77,1-1.87,2.2a1.61,1.61,0,0,0-.62,1.64c.38,1.56,1.47,2.86,2.06,4.34a16.8,16.8,0,0,1,1.09,4.16,17.15,17.15,0,0,1-1.25,8.84,1.23,1.23,0,0,0-.07.32c-1.26.69-.44,3,1.27,2.73h0a1.6,1.6,0,0,0,2.49-.45c.43.05.86.12,1.28.2a1.37,1.37,0,0,0,.68.88,32.46,32.46,0,0,1,6.31,4.25c1.74,1.5,3.81,3.34,3.54,5.85a1.52,1.52,0,0,0,1.5,1.5,1.48,1.48,0,0,0,.77-.22,13.46,13.46,0,0,1-.79,6.57,1.33,1.33,0,0,0,.33,1.37,1.2,1.2,0,0,0,.47,1.17l1.08.93a1.7,1.7,0,0,0,.39,1.43,9.29,9.29,0,0,1,1.84,6,15.79,15.79,0,0,1-.5,3.62,8.7,8.7,0,0,1-.38,1.35,2.34,2.34,0,0,1-.27.5c-.16.19,0,.11-.26.18a1.35,1.35,0,0,0-1.05,1.38,1.56,1.56,0,0,0-.08.42,1.33,1.33,0,0,0-.58.35l-.23.3a1.48,1.48,0,0,0-.21.76,6.6,6.6,0,0,0,.77,3.69,1.53,1.53,0,0,0,1.75.67,1.5,1.5,0,0,0,1.56.5,1.65,1.65,0,0,0,.64-.37,1.48,1.48,0,0,0,1.57-.74,22.69,22.69,0,0,1,3,1.13,21.55,21.55,0,0,1,3,2.45,1.46,1.46,0,0,0,.48.31c.07.09.15.19.2.27s.27.45.39.68c0,0,.07.16.09.19s.07.21.11.31a6.93,6.93,0,0,1,.2.75c0,.05,0,.15,0,.19s0,.28,0,.42a1.53,1.53,0,0,0,1.5,1.5,1.51,1.51,0,0,0,1.5-1.5A9,9,0,0,0,117.56,333.53Zm17.63-37.81a1.52,1.52,0,0,0-2.56,1.06c-.13,2.39,1.91,4.53,3,6.48.58,1,1.17,2,1.65,3.08a2.73,2.73,0,0,1,.19,2.7,1.26,1.26,0,0,0,.16,1.69c-.28.4-.58.79-.88,1.18a14.69,14.69,0,0,1-4.61,3.94,1.5,1.5,0,0,0,1.52,2.59,17.41,17.41,0,0,0,5.42-4.68c1.51-1.93,2.77-3.82,2.92-6.35C142.34,302.48,138.76,298.6,135.19,295.72Zm37.06,44.36-.21-.17a1.47,1.47,0,0,0-1.39-1h0a4.46,4.46,0,0,0-4.24-.16,1.49,1.49,0,0,0-.74,1.19,13.76,13.76,0,0,0-3.48,2.09,1.07,1.07,0,0,0-.25.31h0a2.54,2.54,0,0,0-1.38,1.05,1.51,1.51,0,0,0-.15,1.16,1.49,1.49,0,0,0,.69.89,1.51,1.51,0,0,0,1.84-.28c.36-.12.74-.22,1.1-.32l.83-.2a1.72,1.72,0,0,0,.5,0,35.16,35.16,0,0,1,3.78-.77h0l.23,0,.52-.06.93-.08.89-.06a1.74,1.74,0,0,0,1.55-1.06C173.72,341.48,173,340.72,172.25,340.08Zm24.33-41.85-.5.63a2,2,0,0,1,0,.24l-.15.36a1.31,1.31,0,0,1-.39.42,1.14,1.14,0,0,1-.51.27,1.11,1.11,0,0,1-.6,0,.85.85,0,0,1-.22,0,2.11,2.11,0,0,0-.67,1.81,1.6,1.6,0,0,1-1.18,1.82l.18.58a1.51,1.51,0,0,1-1,1.84,1.53,1.53,0,0,1-1.84-1.05,16.44,16.44,0,0,1-1.05-5.46,6.9,6.9,0,0,1,1.09-3.55,13,13,0,0,1-1.17-2.25,17.05,17.05,0,0,1-1-6.45,37.94,37.94,0,0,1,.65-6.9,8.58,8.58,0,0,1,.56-1.76A21.39,21.39,0,0,1,186.9,273c-.62-3.28-.67-7.17,1.7-9.8,1.29-1.44,3.41.69,2.12,2.12a4.31,4.31,0,0,0-.87,1.53,1.55,1.55,0,0,1,.71.9,1.51,1.51,0,0,1-.47,1.51s0,.06,0,.08,0,.25,0,.27,0,.21,0,.32a9.85,9.85,0,0,0,0,1.33c0,.1,0,.2,0,.31s0,.13,0,.19,0,.17,0,.18,0,.26.08.39c.09.41.2.81.33,1.21a6.13,6.13,0,0,0,.43,1,11.9,11.9,0,0,0,.67,1.15h0a1.55,1.55,0,0,1,1.67.35c1.73-.39,2.42,2.35.64,2.92-.14.05-.25.13-.38.19a1.51,1.51,0,0,1-.29.45l-.15.12a1.52,1.52,0,0,1-1.36,2.34,20.78,20.78,0,0,0-.29,2.29,11.35,11.35,0,0,0,1.15,6.7c.56,1.11,1.16,2.21,1.8,3.28.26.45.6.91.9,1.38l.2,0a1.47,1.47,0,0,1,1.06.44,1.11,1.11,0,0,1,.31.48,1.27,1.27,0,0,1,.13.58,1.22,1.22,0,0,1-.13.57A1.21,1.21,0,0,1,196.58,298.23ZM190,269.3a1.83,1.83,0,0,1-.5.26A1.44,1.44,0,0,0,190,269.3Zm.09-.16v.06C190.28,269,190.15,268.8,190.1,269.14Zm39.13,18.78a1.34,1.34,0,0,0-1.14,0,1,1,0,0,0-.47-.31,1.29,1.29,0,0,0-.58-.13l-.4.06a1.51,1.51,0,0,0-.66.38l-.24.31a1.5,1.5,0,0,0-.2.75,2,2,0,0,0,0,.35,6.09,6.09,0,0,0,.1.73,1.26,1.26,0,0,0,.27.51,1.06,1.06,0,0,0,.33.3,22.64,22.64,0,0,1-2.82,4.15,14,14,0,0,1-6.78,4c-5,1.43-11.67,2.83-16-.82a1.51,1.51,0,0,0-1.47-.29l-.37-.26c-1.58-1.12-3.08,1.48-1.51,2.59,3.09,2.2,6.2,3.85,10,4.19a27.33,27.33,0,0,0,10.25-1.09,22.52,22.52,0,0,0,8.53-4.72,12,12,0,0,0,3.11-4.07c.64-1.44,1-3.13,2-4.37C232.34,288.8,230.48,286.8,229.23,287.92Zm5.68,0a7,7,0,0,1-1.23.59c-1.81.68-2.59-2.22-.79-2.89a9,9,0,0,0,3.53-3.21,16.39,16.39,0,0,0,2.4-4.28,10,10,0,0,0-.95-9.29c-1-1.4.92-2.72,2.14-2a1.69,1.69,0,0,1,.64-.51,1.53,1.53,0,0,1,.35-1.19c1.29-1.56,2.89-2.8,4.26-4.28a1.42,1.42,0,0,1,0-.91,16.34,16.34,0,0,0-5.37-17.64,1.51,1.51,0,0,1,0-2.13,1.12,1.12,0,0,1,.24-.19,1.87,1.87,0,0,1,0-.32,1.36,1.36,0,0,1,0-.2,1.56,1.56,0,0,1-1.66-.69,1.52,1.52,0,0,1,.54-2.05l0,0,.28-.28a4.39,4.39,0,0,0,.27-.47,4.23,4.23,0,0,0,.18-.7,12.26,12.26,0,0,0,0-2,1.52,1.52,0,0,1,1.5-1.5,1.42,1.42,0,0,1,1.34.88,1.67,1.67,0,0,1,1-.4,1.52,1.52,0,0,1,1.5,1.5A9.82,9.82,0,0,1,243.9,239a17.07,17.07,0,0,1,5.08,6.27c1.16,2.71,1.31,5.75,1.45,8.65s-.2,5.55-1.92,7.86c-1.56,2.08-3.73,3.59-5.38,5.59a1.57,1.57,0,0,1-.19.18c2,3.46,1.94,7.72.71,11.44a29.53,29.53,0,0,1-2.64,5.74A22,22,0,0,1,247.06,300a1.5,1.5,0,0,1-3,0c0-.58,0-1.16-.06-1.73a10.93,10.93,0,0,0-1.26-1.92c0-.27,0-.53-.05-.79a.19.19,0,0,0,0-.08c0-.1,0-.21-.07-.31a2.82,2.82,0,0,0-.09-.27l-.08-.15c0-.08-.1-.16-.15-.25s0,0,0,0l-.06-.06a26.59,26.59,0,0,0-2-1.88q-2.08-1.91-4.26-3.7A1.73,1.73,0,0,1,234.91,287.93Zm7.79,7.69Zm9.8,34.09a7.51,7.51,0,0,0-3.06-4.39c1.27-1.84,2.49-3.8,2.32-6.13-.14-1.92-3.14-1.93-3,0a4.32,4.32,0,0,1-.16,1.48,1.5,1.5,0,0,0-1.25,1.07c-.12.41-.25.81-.4,1.2l0,.07a1.83,1.83,0,0,0-.57.79l-.56,1.44c-.08.14-.17.28-.26.41a20.4,20.4,0,0,1-1.5,1.84c-.48.52-1.16,1-1.64,1.58a1.33,1.33,0,0,0-.74,0,1.52,1.52,0,0,0-1,1.85,5.51,5.51,0,0,1,.2.8c0,.08,0,.23,0,.27l0,.45c0,.31,0,.61,0,.91,0,.13,0,.26,0,.39s0,.2,0,.3a3,3,0,0,0-.05.33c0,.13,0,.26-.08.38a8.75,8.75,0,0,1-.23.88q-.12.38-.27.75l-.09.23-.23.46a1.56,1.56,0,0,0,.36,1.9,1.5,1.5,0,0,0,1.08,1.14c-.09,1-.15,2-.18,3a1.31,1.31,0,0,0,.52,1.15.67.67,0,0,0,0,.2,8.61,8.61,0,0,0,.4,2.31,9.27,9.27,0,0,0,.49,1.23,1.59,1.59,0,0,0,1,.86,12.72,12.72,0,0,0,1.4,2c1.25,1.47,3.37-.66,2.12-2.12a7.25,7.25,0,0,1-.49-.64,30.47,30.47,0,0,1-1.15-3.5,1.39,1.39,0,0,0-.35-.61c0-.11,0-.22,0-.33,0-.91,0-1.42.76-2s1.52-1.05,2.25-1.62c1.35-1.06,3.06-2.41,3.66-4.08a3.09,3.09,0,0,0-.22-2.6A4.66,4.66,0,0,0,252.5,329.71Zm81.43-25.9c-3.19-4.82-6.59-9.36-12.2-11.46a28.08,28.08,0,0,0-8.37-1.54c-3-.16-6-.22-8.75,1.1-1.74.83-.22,3.42,1.51,2.59a6.85,6.85,0,0,1,.85-.34,1.72,1.72,0,0,0,.58.18c4.24.42,8.66.85,12.54,2.74a15.15,15.15,0,0,1,4.67,3.46c1.42,1.59,2.55,3.4,3.87,5.06a1.51,1.51,0,0,0,2.12,0l.1-.12h.07c.16,0,.3.08.45.12a2.26,2.26,0,0,1,.26.16l.22.22c0,.08.11.15.15.23a1,1,0,0,0,.38.42,1.06,1.06,0,0,0,.51.27,1.66,1.66,0,0,0,1.16-.15,1.5,1.5,0,0,0,.69-.89l.05-.4a1.54,1.54,0,0,0-.2-.76A3.66,3.66,0,0,0,333.93,303.81Zm-4.65,30v0a1,1,0,0,0,0-.59,1.12,1.12,0,0,0-.18-.56,1.5,1.5,0,0,0-.89-.69l-.4-.06a1.55,1.55,0,0,0-.76.21l-1.61.78a1.13,1.13,0,0,0-.42.39.85.85,0,0,0-.17.25,1.36,1.36,0,0,0-.45,1.06,13.74,13.74,0,0,1-9.56,13.06c-1.82.58-1.07,3.41.74,2.91a1.35,1.35,0,0,0,.15.26l0,0,.07.09a1.38,1.38,0,0,0,1.48.45l.18-.06a12.51,12.51,0,0,0,9-5.05,19.29,19.29,0,0,0,3.53-11.16A1.28,1.28,0,0,0,329.28,333.81Zm40-80.93a21.89,21.89,0,0,1-4.67,7.6c.33.34.65.68,1,1a22,22,0,0,1,3.23,4.77,1.41,1.41,0,0,1,.26.52s0,.07,0,.11.14.33.2.51c1.67,4.68-1,9.75-3.42,13.75a15.51,15.51,0,0,1,2.41,7.51,20.88,20.88,0,0,1-.29,4.67,32.26,32.26,0,0,1-1,3.89,1.36,1.36,0,0,1,.09.69,10.16,10.16,0,0,1,1.21,2c1.13,2.62,1.18,5.78,1,8.59-.27,4.38-1.75,8.79-4.92,11.78q.54.72,1.05,1.44a12,12,0,0,1,2.18,6.37c.2,3.55.16,7.43-1.48,10.63-.25.68-.52,1.35-.8,2a30.81,30.81,0,0,1-12.44,14c-2.92,1.72-6.51,3.43-10,3a1.53,1.53,0,0,1-1.5-1.5,1.51,1.51,0,0,1,1.5-1.5c3.78.5,7.82-1.92,10.77-4.08a27.55,27.55,0,0,0,7.17-7.81,27.12,27.12,0,0,0,1.73-3.29,1.6,1.6,0,0,1,.33-1.21,4,4,0,0,0,.28-.43,1.78,1.78,0,0,1,0-.69c.11-.48.2-1,.28-1.46,0-.11,0-.23.05-.34l0-.11c0-.23.06-.46.08-.69a25.78,25.78,0,0,0,.13-2.64l0-.11a47.33,47.33,0,0,0-5.2-11.94,1.45,1.45,0,0,1-.2-1,1.31,1.31,0,0,1,.11-1.9,1.65,1.65,0,0,1,1.52-1.65,12.14,12.14,0,0,0-.48-15.57,1.57,1.57,0,0,1,.68-2.51,1.38,1.38,0,0,1,1.21-.76c-1.19-1.12,0-3.27,1.34-2.65a1.61,1.61,0,0,1-.17-.66,46.56,46.56,0,0,0-.2-5.54,6.65,6.65,0,0,0-1.65-3.83,1.5,1.5,0,0,1,2.07-2.16,1.28,1.28,0,0,1,0-.55,1.38,1.38,0,0,1,.22-.95c.66-1.07,1.41-2.27,2.07-3.54a1.6,1.6,0,0,1-.59-.34,1.52,1.52,0,0,1,0-2.12l.37-.42.09-.12.05-.08a7.53,7.53,0,0,0,.56-.9c.08-.14.15-.29.22-.44l.08-.17,0-.05c.11-.31.22-.63.31-.95s.09-.36.13-.55,0-.16,0-.24l0-.09s0-.11,0-.13l0-.25c0-.16,0-.33,0-.5a9.48,9.48,0,0,0,0-1.06v0c0-.06,0-.12,0-.18s-.05-.22-.07-.33a17.14,17.14,0,0,0-2.75-4.12,8.17,8.17,0,0,0-4.34-3,1.43,1.43,0,0,1-.63-2.45,1.71,1.71,0,0,1-.22-1.21,1.45,1.45,0,0,1,.37-1.4,19.11,19.11,0,0,0,5.29-12,1.53,1.53,0,0,1,1.5-1.5l.3,0h.07a1.54,1.54,0,0,1,2.91,0C369.84,245.66,370.54,249.2,369.3,252.88Zm-3,15.35Zm-.54,3.92Zm.24,30.51a10.2,10.2,0,0,0-.39-1.29,7.93,7.93,0,0,0-.4-.83A14.18,14.18,0,0,1,366,302.66Zm19.5,15.71a8.47,8.47,0,0,1-1.95,5.66,19.72,19.72,0,0,1,.15,2.55,11.79,11.79,0,0,1-.93,3.49,2.57,2.57,0,0,1,.33.33c3.2,4.17-1.54,8.65-2.73,12.54a8.58,8.58,0,0,0,.28,6.47c.95,1.85,2.84,2.53,4,4.14a1.27,1.27,0,0,1,.28.9,1.43,1.43,0,0,1,0,.87,1.5,1.5,0,0,1-1.84,1.05,15,15,0,0,1-5.08-2.91,8.19,8.19,0,0,1-2.5-5.49,21.46,21.46,0,0,1,0-2.41,20.23,20.23,0,0,1,.23-9,77.42,77.42,0,0,1,4.75-12.27.26.26,0,0,1,.05-.09,6.46,6.46,0,0,1,0-1.39,1.56,1.56,0,0,1,1.22-1.47c.1-.18.21-.36.29-.54a7.13,7.13,0,0,0,.38-1.37,7,7,0,0,0,.05-1,1.5,1.5,0,0,1,3,0Zm-4.89,17.36a6,6,0,0,0,.39-1.1c-.15.33-.3.67-.46,1ZM422.47,372a21.65,21.65,0,0,1-1,5.87,22.1,22.1,0,0,1-1.32,3.19,17.1,17.1,0,0,0-1.49,2.8,1.53,1.53,0,0,1-2.79.28,1.6,1.6,0,0,1-1.14-.43,1.38,1.38,0,0,1-.39-1.28,1.92,1.92,0,0,1-.29-.14,1.51,1.51,0,0,1-.54-2,10.7,10.7,0,0,0,1.95-4.27,8.63,8.63,0,0,0,.27-2.13c0-.43,0-.86,0-1.28a7.11,7.11,0,0,0-.15-1,1.89,1.89,0,0,1,0-.75,1.94,1.94,0,0,1,0-.24,1.5,1.5,0,0,1,1.86-1.62,5,5,0,0,0,2.34.08,1.5,1.5,0,0,1,.52-.42,28.12,28.12,0,0,0,3.56-2.09,26.12,26.12,0,0,0,3.52-5,17.3,17.3,0,0,0,1.9-4.95c0-.63,0-1.27,0-1.9a18.14,18.14,0,0,0-.53-3.55,1.52,1.52,0,0,1-1.42-1.6,1.31,1.31,0,0,1-.39-.63,1.51,1.51,0,0,1,1-1.84,1.36,1.36,0,0,1,1.16-.25c3.61-1,6-4,7.56-7.39a29.63,29.63,0,0,0,1.83-5.22,15.91,15.91,0,0,0-.92-4,1.63,1.63,0,0,1-1.59-1.64c-.9-.41-1.44-1.55-.46-2.32,3.11-2.45,6.63-5.26,7.77-9.24a13.41,13.41,0,0,0-.23-6.94,12.26,12.26,0,0,0-1.95-4.9,7.86,7.86,0,0,1-2,1.52,5.73,5.73,0,0,1-3.95.58,1.5,1.5,0,0,1,.79-2.89l.1,0h.58a7.22,7.22,0,0,0,.83-.23l.06,0,.23-.12.48-.3.08-.06.13-.11.39-.35c.27-.27.53-.55.77-.84a15.51,15.51,0,0,1,2.17-.28,8.34,8.34,0,0,0,2.76-2.87c.48-.72,1-1.44,1.41-2.18a1.49,1.49,0,0,1-1-.18,1.51,1.51,0,0,1-.53-2.05,9.34,9.34,0,0,0,1.45-4.4,13.32,13.32,0,0,0-.64-4.48,1.57,1.57,0,0,1-.14-1.87,1.52,1.52,0,0,1,.94-.8,1.54,1.54,0,0,1,1.85,1.05c0,.1.07.21.1.32,2.3,3.18,3.48,7,2,10.82a25.84,25.84,0,0,1-3,5.4l0,0a1.54,1.54,0,0,1,.37.39,18,18,0,0,1,3.27,7.53,12.94,12.94,0,0,1-1.48,7.44,35.51,35.51,0,0,1-4.74,6.73q-1.56,1.88-3.18,3.7c.14.68.26,1.36.35,2.05a14.88,14.88,0,0,1,.65,4.78,15.53,15.53,0,0,1-.3,3.91,8.79,8.79,0,0,1-1.12,2.5,17.28,17.28,0,0,1-.89,2.36,15.57,15.57,0,0,1-4.91,6,26,26,0,0,1-.81,9.42,8.32,8.32,0,0,1-2,5.19c-.34.65-.71,1.29-1.11,1.91C429.05,367.91,426,370.84,422.47,372Zm14.94-67.85c-.1,0-.06,0,0,0Zm17,32.41c-1.09-2.72-2.52-5.12-2.4-8.17a12.3,12.3,0,0,1,3.34-7.5c3.47-4.06,8.44-8,14.13-6.46a1.51,1.51,0,0,1-.8,2.9,3.61,3.61,0,0,0-.55-.12,1.69,1.69,0,0,1-1.36.87l-.52.07a1.57,1.57,0,0,1-.37.74l-3.09,3.46a10.39,10.39,0,0,0-2.09,3,6.39,6.39,0,0,0,.06,3.94c.33,1.23.72,2.45,1.11,3.66a1.61,1.61,0,0,1,1,1,1.51,1.51,0,0,1-1,1.84l-1.44.43s0,.05,0,.08a1.25,1.25,0,0,1-.93.69c-.71.5-1.44,1-2.19,1.42a2.17,2.17,0,0,0-.47,2.52,1.53,1.53,0,0,1-2.13,0,9.56,9.56,0,0,0-.92-.88l-.21-.18-.05,0-.45-.32a11.71,11.71,0,0,0-1-.62l-.5-.26-.26-.12h0a11.73,11.73,0,0,0-2.31-.67l-.28-.05h0l-.56-.06c-.4,0-.81,0-1.21,0a1.5,1.5,0,0,1,0-3,13.3,13.3,0,0,1,7.39,2A1.19,1.19,0,0,1,454.41,336.55Zm-1,3.23ZM498,361.2a1.51,1.51,0,0,0-2.05.54,1.71,1.71,0,0,1-.13.23,1.19,1.19,0,0,0-.2-.67,1.51,1.51,0,0,0-2.05-.54l-.68.47c-.94.12-1.88.24-2.82.39l-1.81.31-.08,0a1.75,1.75,0,0,0-.34-.15l-.4-.05a1.42,1.42,0,0,0-.75.21.59.59,0,0,0-.17.1l-.33.26,0,0a.23.23,0,0,0-.07.07.23.23,0,0,0-.07.07l-.26.34,0,0a1.62,1.62,0,0,0-.1.18,1.12,1.12,0,0,0-.18.55,1.22,1.22,0,0,0,0,.6,1.08,1.08,0,0,0,.17.38l-.26.2h-.07a1.53,1.53,0,0,0-1.31.77l-.57.24a19.78,19.78,0,0,1-5.14,1.29,22.17,22.17,0,0,1-10.75-1.41c-1.8-.7-2.58,2.2-.8,2.89a25,25,0,0,0,13.06,1.32,18.58,18.58,0,0,0,6.47-2.15,9,9,0,0,0,1.8-.36,11.46,11.46,0,0,0,8-1.72,6.63,6.63,0,0,0,2.42-2.4A1.53,1.53,0,0,0,498,361.2Zm-41.65,49.16a1.45,1.45,0,0,0-.18-.72,5.58,5.58,0,0,0,.13-.69,1.5,1.5,0,0,0-1.5-1.5,1.54,1.54,0,0,0-1.5,1.5c0-.15,0,.07,0,.1s-.07.28-.11.41a1.91,1.91,0,0,1-.21.49,4.16,4.16,0,0,1-.75,1,8.14,8.14,0,0,1-2.47,1.71,7.68,7.68,0,0,1-6,.45,1.52,1.52,0,0,0-1.85,1.05.41.41,0,0,0,0,.11l-.1.12a1.53,1.53,0,0,0,.54,2.06,11.92,11.92,0,0,0,8.93.53C454.08,415.93,456.37,413.5,456.34,410.36Zm5.19,9.52a1.31,1.31,0,0,0-1,.17c-1.48,1-3,2.32-4.75,2.71a9.22,9.22,0,0,1-5.18-.21,1.5,1.5,0,0,0-1.84,1,1.4,1.4,0,0,0,.29,1.32,1.51,1.51,0,0,0-.36.6,1.54,1.54,0,0,0,1,1.85,9.25,9.25,0,0,0,7.39-.51,23.05,23.05,0,0,0,5.88-4.47C464.15,421.26,462.82,419.58,461.53,419.88Zm-21.89-29a1.53,1.53,0,0,0-2.05.54,3.65,3.65,0,0,1-.27.3l-.27.09a1.55,1.55,0,0,0-1.14-.15,4.82,4.82,0,0,0-1.41.61,11.86,11.86,0,0,1-3.42-.21A.91.91,0,0,0,431,392l-.35-.16a1.47,1.47,0,0,0-.55,0c-.4-.13-.8-.27-1.19-.44a1.54,1.54,0,0,0-2.05.54,1.6,1.6,0,0,0,.15,1.75l-.12.16a3.93,3.93,0,0,0-.45.83,1.52,1.52,0,0,0-1.77,1,1.5,1.5,0,0,0,1,1.84,13.31,13.31,0,0,0,6-.4c.31-.1.62-.23.92-.36.72-.14,1.43-.32,2.14-.52a14.43,14.43,0,0,0,3-1.12,7.2,7.2,0,0,0,1-.74l.13,0a1.65,1.65,0,0,0,1.07-1.2l.17-.21A1.51,1.51,0,0,0,439.64,390.91Zm-89.8-185.62a1.51,1.51,0,0,0,2.22-1.44,2.29,2.29,0,0,0,.15-1.25,13.89,13.89,0,0,1,0-2c0-.18,0-.36,0-.54l0-.27v-.08c.07-.37.13-.75.21-1.13s.22-.84.36-1.25l.18-.18.22-.2.08-.07c.12-.1.1-.08-.07,0a2.87,2.87,0,0,1,.88-.56l.23-.11h0L355,196a1.55,1.55,0,0,0,1.09-1.31,7.39,7.39,0,0,0,1.11-3,8.25,8.25,0,0,0-.14-4.1,9.62,9.62,0,0,0-1.92-3.33,6,6,0,0,0-.63-.77,8,8,0,0,0-1.31-1c-.35-.27-.72-.54-1.1-.79l-.18-.09-.09-.06a1.53,1.53,0,0,0-2.5.66,4.15,4.15,0,0,1-1.75,1.87,3,3,0,0,0,.05-.42,2.61,2.61,0,0,0-.11-1,2.94,2.94,0,0,0-.39-.89,3.13,3.13,0,0,0-.63-.73,3.32,3.32,0,0,0-1.12-.65,1.48,1.48,0,0,0-1.16.15,1.57,1.57,0,0,0-.69.89,1.61,1.61,0,0,0,.15,1.16l.24.3a1.5,1.5,0,0,0,.36.26,1.43,1.43,0,0,1,.21.12l.06.07a.22.22,0,0,1,.05.08.19.19,0,0,1,0,.08v.07a.35.35,0,0,1-.05.08l-.06.06a.41.41,0,0,1-.11.07,1.56,1.56,0,0,0-.88.69,1.49,1.49,0,0,0-.15,1.15,1.51,1.51,0,0,0,.66.86,2,2,0,0,0-.2.22,1.42,1.42,0,0,0,.06,1.59h0a1.54,1.54,0,0,0-1-.47,1.42,1.42,0,0,0-.55-.3,1.45,1.45,0,0,0-1.18.18l-.1,0a1.51,1.51,0,0,0-1.84,1,3.53,3.53,0,0,1-1.15,1.67,16,16,0,0,1-2.84,1.57c-1.67.87-3.54,1.8-5.49,1.41a1.63,1.63,0,0,0-1,.12l0,0a1.52,1.52,0,0,0-1.06-.44,1.5,1.5,0,0,0-1.06.44l-.24.3a1.57,1.57,0,0,0-.2.76,5.16,5.16,0,0,0,.5,3c-.14.29-.26.59-.37.88a1,1,0,0,0,0,.6,1.12,1.12,0,0,0,.18.56,1.06,1.06,0,0,0,.32.35,1.61,1.61,0,0,0,2.12,1.45,1.37,1.37,0,0,0,.65-.24c3.14-2.12,7-1.09,10.3-.05l3.35,1.05Zm-3.36-40.2a4.93,4.93,0,0,1,.54.19,8.1,8.1,0,0,1,1.4.81,8.49,8.49,0,0,1,.83.76,1.49,1.49,0,0,0,1.86.17,1.5,1.5,0,0,0,2.33-1.84,6.69,6.69,0,0,0-5.71-3.4,4.24,4.24,0,0,0-2.29,1.46A1.53,1.53,0,0,0,346.48,165.09Zm87.44,124.65a1.69,1.69,0,0,0,1.15.15,13.5,13.5,0,0,0,4.7-1.34c1.73-1,3.08-2.73,2.65-4.79a1.34,1.34,0,0,0-.61-.83,1.53,1.53,0,0,0-.63-.74A1.5,1.5,0,0,0,440,282a1.43,1.43,0,0,0-.9.69,8.84,8.84,0,0,1-.88,1.52,7.85,7.85,0,0,1-.67.74,1.54,1.54,0,0,0-.44,1.07,2,2,0,0,0,0,.34q-.42.14-.87.24c-.67.15-1.35.26-2,.36a1.5,1.5,0,0,0-1,1.84A1.46,1.46,0,0,0,433.92,289.74ZM183.11,288a20.69,20.69,0,0,0-10.53-14.75c1.87-3,2.06-6.62,1.29-10.16a10.88,10.88,0,0,0-.91-4,17.9,17.9,0,0,0-2.23-3.67,52.07,52.07,0,0,0-12.6-14.64,1.62,1.62,0,0,0-2.62,1.28,1.64,1.64,0,0,0-.9,1.68c-.91.56-1.27,2-.05,2.5,4.45,2,7.48,6,10.6,9.64a1.49,1.49,0,0,0-1,2.53,13.46,13.46,0,0,1,2.58,16c-.68,1.23.69,2.83,2,2.09a1.28,1.28,0,0,0,1-.24c.3-.21.56-.44.83-.67a17.91,17.91,0,0,1,9.61,12.87,16.8,16.8,0,0,1-.75,8.32,1.51,1.51,0,0,0-1.79,1.05c-.09.27-.17.54-.27.8l-.15.38,0,0a.14.14,0,0,0,0,.06v0c0,.1,0,.09,0,.05l0,.1a15.14,15.14,0,0,1-.82,1.54c-.15.24-.31.47-.47.7l-.2.27s.06-.06,0,0v0l0,.05,0,0-.1.12a11.61,11.61,0,0,1-1,1.08,1.48,1.48,0,0,0-1.54,1.57,2.13,2.13,0,0,0-.75.11,2.67,2.67,0,0,0-1.63,1.77,4.51,4.51,0,0,0-.07,1.9l.48,4.05a1.68,1.68,0,0,0,.44,1.06,1.56,1.56,0,0,0,1.06.44l.31-.05.08.15a1.56,1.56,0,0,0,1.77.67,6.29,6.29,0,0,1,1,.43,1.52,1.52,0,0,0,0,2.11,5.81,5.81,0,0,1,1,2.46,13.67,13.67,0,0,1,.49,3.05,4.38,4.38,0,0,1-.63,2.57,16,16,0,0,0-1.8,2.76,1.49,1.49,0,0,0,.87,1.77,17.24,17.24,0,0,1-1.44,1.4c-1.46,1.27.67,3.39,2.12,2.12,3.36-2.92,6-7.06,5.94-11.63a10.57,10.57,0,0,0-5.28-9.32,6.71,6.71,0,0,0,.8-3.25,9.47,9.47,0,0,0-.58-3.21A20.78,20.78,0,0,0,183.11,288Zm-7.48,13.69,0,.06h0Zm1.57-2.7,0,.09a.43.43,0,0,1,0-.07Z"/><path class="cls-3" d="M30.53,114.76c-4.73,4.64-4.79,11.77-2.28,17.54,2.94,6.77,9.36,10.71,16.14,12.91A88.79,88.79,0,0,0,57.21,148c1.89.31,2.7-2.58.79-2.89-6.66-1.11-13.63-2.26-19.5-5.8-5.06-3-8.75-8.2-8.93-14.25a10.75,10.75,0,0,1,3.09-8.2c1.38-1.35-.74-3.47-2.13-2.12Z"/><path class="cls-3" d="M39.4,141.29c-8.53,3.26-15.89,9.92-17.18,19.34a22.15,22.15,0,0,0,9.41,20.93,29.17,29.17,0,0,0,15.5,4.95c1.93.09,1.92-2.91,0-3-8.06-.4-16.06-4-20-11.36a18.56,18.56,0,0,1,1.53-19.65,25.12,25.12,0,0,1,11.51-8.32c1.78-.68,1-3.58-.8-2.89Z"/><path class="cls-3" d="M22.59,84.79A16.88,16.88,0,0,1,24.66,71a22.33,22.33,0,0,1,10.79-8c8.07-3,19.25-3.21,25.44,3.32,3.7,3.9,4.09,9.56,2.84,14.82-.45,1.88,2.44,2.68,2.89.8,1.28-5.39,1.17-11.41-2.22-16.05A19.65,19.65,0,0,0,52,58.56C42,56.65,29.74,59.75,23.2,68a19.92,19.92,0,0,0-3.5,17.62c.47,1.87,3.36,1.08,2.89-.79Z"/><path class="cls-3" d="M67.33,81.39c7.64-.69,14.86,2.42,18.61,9.3a21.08,21.08,0,0,1-.19,20.17,21.92,21.92,0,0,1-10.1,9c-1.75.81-.23,3.4,1.52,2.59a24.14,24.14,0,0,0,14.19-20.29c.54-8-3-16.1-9.76-20.51a22.33,22.33,0,0,0-14.27-3.24c-1.9.18-1.92,3.18,0,3Z"/><path class="cls-3" d="M73.83,123.75c3.41-1.6,7.35-2.56,11.09-1.64a12.65,12.65,0,0,1,7.3,5.09c3.88,5.55,4.26,13.21,1.68,19.37A19.82,19.82,0,0,1,85.64,156a1.5,1.5,0,0,0,1.51,2.59A23.42,23.42,0,0,0,98.5,137.26c-.34-7.5-4.27-15.28-11.77-17.75-4.82-1.59-10-.44-14.42,1.65-1.75.82-.23,3.4,1.52,2.59Z"/><path class="cls-3" d="M77.67,156.05c6.89,2.15,15.64,6.94,14.75,15.37a1.5,1.5,0,0,0,3,0c1-9.84-8.84-15.74-17-18.27-1.85-.57-2.64,2.32-.8,2.9Z"/><path class="cls-3" d="M97.17,147.5l.47-.23c.25-.13-.17.06,0,0l.28-.1c.4-.15.81-.27,1.22-.38a17.29,17.29,0,0,1,2.71-.5,16.15,16.15,0,0,1,3,0l.39,0c.16,0-.15,0,.12,0l.72.15c.2.05.41.1.61.17l.32.11c.3.11-.19-.09.12.06a1.54,1.54,0,0,0,2-.54,1.51,1.51,0,0,0-.54-2.05,12.91,12.91,0,0,0-6.82-.91,16.25,16.25,0,0,0-6.2,1.63,1.5,1.5,0,0,0,1.51,2.59Z"/><path class="cls-3" d="M96.84,128.14a18.5,18.5,0,0,1,7.54-11.67,21.54,21.54,0,0,1,12.53-3.36c8.17.21,17.62,4.58,20.14,12.85,1.69,5.56-.37,11.26-3.44,16-1.05,1.63,1.54,3.13,2.59,1.52,3.17-4.87,5.21-10.6,4.19-16.44a18.93,18.93,0,0,0-7.73-11.71c-7.89-5.84-19.67-7-28.35-2.29a21.39,21.39,0,0,0-10.37,14.34c-.42,1.88,2.48,2.68,2.9.79Z"/><path class="cls-3" d="M140.1,131.23c9.23-.34,15.42,12.47,8.65,19.13-1.38,1.35.74,3.47,2.12,2.12,6.63-6.52,3.77-17.87-3.74-22.41a12.69,12.69,0,0,0-7-1.84c-1.92.08-1.93,3.08,0,3Z"/><path class="cls-3" d="M133.52,115.93a15.35,15.35,0,0,1-1.77-10.1,15.7,15.7,0,0,1,4.51-8A25.16,25.16,0,0,1,155,91.08c1.93.11,1.92-2.89,0-3-11.41-.6-25.36,6.47-26.48,19a19,19,0,0,0,2.37,10.38c.89,1.71,3.48.2,2.59-1.52Z"/><path class="cls-3" d="M149.88,88.09c-10.46-3.33-20.55-10.61-23.53-21.67A20,20,0,0,1,135,43.9c5.67-3.48,12.48-4.32,19-4,1.93.1,1.92-2.9,0-3-11.29-.58-24.16,3-29.3,14.05-4.5,9.7-1.32,20.83,5.6,28.51C135.3,85,142,88.74,149.08,91c1.85.58,2.64-2.31.8-2.9Z"/><path class="cls-3" d="M148.16,37c-4.79-4.64-8.77-11.4-4.4-17.65,3.69-5.28,11-7.7,17.13-8.16a26.92,26.92,0,0,1,10.48,1.16,33.69,33.69,0,0,1,4.71,2.21,26.78,26.78,0,0,1,5.23,3.33,24.06,24.06,0,0,1,8.22,20,29.49,29.49,0,0,1-12.89,22.35c-1.59,1.08-.09,3.68,1.52,2.59a32.61,32.61,0,0,0,14-21.76c1.31-8.45-.85-17.28-6.85-23.55a33.61,33.61,0,0,0-10.88-7.21A28.07,28.07,0,0,0,163,8.05c-7.33.06-15.64,2.5-20.61,8.17a13.37,13.37,0,0,0-3.54,10.19c.52,5,3.65,9.24,7.17,12.66,1.39,1.34,3.52-.78,2.13-2.12Z"/><path class="cls-3" d="M188.29,50.73A9.52,9.52,0,0,1,196,55a7.07,7.07,0,0,1,0,7.49,9.78,9.78,0,0,1-4.4,3.55,1.51,1.51,0,0,0-.54,2,1.53,1.53,0,0,0,2.05.54c3.77-1.72,6.67-5,6.95-9.28a10.89,10.89,0,0,0-4.93-9.49,13.55,13.55,0,0,0-6.85-2.17c-1.93-.11-1.93,2.89,0,3Z"/><path class="cls-3" d="M184.26,67.68a10.75,10.75,0,0,1,5,.8A6.4,6.4,0,0,1,192.09,71a11.78,11.78,0,0,1,1.07,7.68,17.52,17.52,0,0,1-.58,2.35,10.38,10.38,0,0,1-.74,1.84c-.87,1.72,1.71,3.24,2.59,1.51,2.89-5.7,3.09-14.73-3.19-18.3a13.07,13.07,0,0,0-7-1.44c-1.93.08-1.94,3.08,0,3Z"/><path class="cls-3" d="M194.05,105a11.7,11.7,0,0,1-5-6.83,11.89,11.89,0,0,1,.8-7.41c2.12-4.89,7-9,12.43-9.39a13,13,0,0,1,9.34,3.23c1.47,1.24,3.6-.87,2.12-2.12a15.56,15.56,0,0,0-19.53-1.31c-5.43,3.6-9.28,10.14-8.25,16.77a14.59,14.59,0,0,0,6.6,9.65c1.6,1.1,3.1-1.5,1.52-2.59Z"/><path class="cls-3" d="M207.37,78.32c-4.4-9.83,8-18.3,16.83-15.82a19.55,19.55,0,0,1,11.61,8.89,16,16,0,0,1,1,11.81A27.48,27.48,0,0,1,228.6,96c-1.43,1.3.7,3.42,2.12,2.12,7.37-6.72,12.68-17.84,8-27.56-2.49-5.21-7.78-9-13.17-10.8s-11.73-.22-16.21,3.29c-5.2,4.08-7.35,10.61-4.6,16.76.79,1.76,3.38.23,2.59-1.52Z"/><path class="cls-3" d="M189.92,103.61c-8.07,2.41-17,7-19.91,15.48-2.42,7.09.93,14.36,6,19.36a42.67,42.67,0,0,0,13.75,8.73,1.51,1.51,0,0,0,1.85-1.05,1.52,1.52,0,0,0-1.05-1.84c-6.92-2.91-14.42-7.71-17.3-15-2.36-6-.29-11.92,4.39-16.09,3.69-3.29,8.4-5.29,13.09-6.69,1.84-.55,1.06-3.45-.8-2.89Z"/><path class="cls-3" d="M45.83,184.25C41.9,191.86,45,201.64,50,208s12.17,10.49,19.79,12.52a39.54,39.54,0,0,0,13.61,1.23c1.91-.17,1.93-3.17,0-3-13.86,1.23-30.47-6-35.08-20-1.35-4.12-1.91-9,.14-13,.89-1.71-1.7-3.23-2.59-1.51Z"/><path class="cls-3" d="M73.62,220.69a16,16,0,0,0,2.72,13.52,20.89,20.89,0,0,0,11.16,6.84c8,2.15,19.12,1.29,24.72-5.66,3.45-4.28,3.52-9.82,1.71-14.83-.65-1.8-3.55-1-2.89.8,1.39,3.84,1.67,7.89-.48,11.24-1.86,2.9-5.23,4.7-8.66,5.62-7.27,2-16.72.76-22.19-4.71a12.71,12.71,0,0,1-3.2-12c.4-1.89-2.49-2.69-2.89-.8Z"/><path class="cls-3" d="M114.42,225.21c8-4.25,9.12-16.69,3.53-23.3a10.57,10.57,0,0,0-6.11-3.59c-1.89-.37-2.7,2.52-.8,2.89,9.5,1.82,9.59,17.32,1.86,21.41-1.7.91-.19,3.5,1.52,2.59Z"/><path class="cls-3" d="M119.49,205a21.37,21.37,0,0,0,15-16.51c1.32-7.18-.79-15-6.28-20a21.17,21.17,0,0,0-12.42-5.22c-1.92-.19-1.9,2.81,0,3a17.32,17.32,0,0,1,14.94,11.32,19.55,19.55,0,0,1-2.55,18.11,18.41,18.41,0,0,1-9.44,6.44c-1.84.57-1.06,3.47.8,2.9Z"/><path class="cls-3" d="M125.08,200.75c-1.57,11.48,15.44,11,22.51,8.92a14.39,14.39,0,0,0,6.32-3.32c1.36-1.37-.76-3.5-2.12-2.12-2.39,2.43-6.94,3.24-10.36,3.52-3.74.32-8.53.29-11.68-2.08a4.24,4.24,0,0,1-1.77-4.12,1.57,1.57,0,0,0-1-1.85,1.52,1.52,0,0,0-1.85,1.05Z"/><path class="cls-3" d="M139.77,210.76c.07,11.53,13.44,13.8,22.4,11.82,4.7-1,9.57-3.41,12.48-7.35a16.31,16.31,0,0,0,2.46-13.67A14.45,14.45,0,0,0,165.55,191c-1.89-.32-2.7,2.57-.8,2.89a11.43,11.43,0,0,1,9,7.14,13.42,13.42,0,0,1-.82,11.37c-2.07,3.62-6,5.73-9.87,6.89a23.75,23.75,0,0,1-12.6.38c-4.39-1.16-7.68-4.1-7.71-8.86a1.5,1.5,0,0,0-3,0Z"/><path class="cls-3" d="M169,195.1c3.86.3,7.57-1.78,10.43-4.18s5.4-5.6,6.27-9.24c.45-1.87-2.44-2.68-2.89-.8-.74,3.06-2.95,5.74-5.34,7.78s-5.39,3.68-8.47,3.44a1.51,1.51,0,0,0-1.5,1.5,1.53,1.53,0,0,0,1.5,1.5Z"/><path class="cls-3" d="M183.41,144c-5,3.22-9,8.27-9.74,14.31a13.52,13.52,0,0,0,6.23,13.33,19.8,19.8,0,0,0,10.61,2.53,1.5,1.5,0,0,0,0-3c-4.9.05-10.27-1.35-12.76-6-2.08-3.88-1.26-8.63.9-12.28a19.35,19.35,0,0,1,6.27-6.33c1.62-1,.12-3.63-1.51-2.59Z"/><path class="cls-3" d="M183.72,172.08c-2,3.58-2.48,7.9.05,11.35a15.1,15.1,0,0,0,9.74,5.48,20,20,0,0,0,7,0,1.5,1.5,0,1,0-.79-2.89,16.25,16.25,0,0,1-9.31-1.1,10.69,10.69,0,0,1-3.69-2.6,6.7,6.7,0,0,1-1.62-3.4,8.9,8.9,0,0,1,1.26-5.27c.93-1.7-1.66-3.21-2.59-1.52Z"/><path class="cls-3" d="M231.28,189.92a14,14,0,0,1-4.45,9.72,18.46,18.46,0,0,1-9.59,4.24c-6.75,1.09-15-.47-20.05-5.34a10.38,10.38,0,0,1-3.29-9.31c.31-1.89-2.58-2.7-2.9-.8a13.44,13.44,0,0,0,2.85,10.9,21.1,21.1,0,0,0,9.83,6.33c7.82,2.6,17.63,2.16,24.3-3.08a17,17,0,0,0,6.3-12.66c.12-1.93-2.88-1.92-3,0Z"/><path class="cls-3" d="M212.63,22.83c-3.16,4.82-4.51,10.82-1.61,16.1,2.48,4.54,7.39,7.44,12.33,8.57A20.61,20.61,0,0,0,239,45.2c5.35-3.42,9.12-10.22,6.82-16.54-2.88-7.89-12.41-13-20.59-11.66-1.9.32-1.1,3.21.8,2.9,6.19-1,13.4,2.85,16.32,8.3,2.69,5,.14,10.84-4.22,14-6.91,5-18.64,3.55-23.71-3.52-3.26-4.55-2.06-9.91.83-14.32,1.06-1.61-1.54-3.12-2.59-1.51Z"/><path class="cls-3" d="M212.07,23.09c-2.86-1.08-4.57-3.48-4.07-6.54a11.1,11.1,0,0,1,5.25-7.4,15,15,0,0,1,4.55-1.42,13.73,13.73,0,0,1,3.86-.36,18.55,18.55,0,0,1,8.86,2.4,7.51,7.51,0,0,1,1.71,1.38,3.7,3.7,0,0,1,.79,1.3,2.87,2.87,0,0,1,0,1.69,6.77,6.77,0,0,1-1.19,2.31c-1.14,1.56,1.46,3.06,2.59,1.51,2.24-3.07,2.26-6.87-.69-9.49s-6.9-3.61-10.64-4a18.6,18.6,0,0,0-5.32.18,19.09,19.09,0,0,0-5.4,1.54,14.16,14.16,0,0,0-7.23,9.16,9.3,9.3,0,0,0,.61,6.17A9.57,9.57,0,0,0,211.28,26c1.81.68,2.59-2.22.79-2.89Z"/><path class="cls-3" d="M236,171.57c-3.24,3.81-6.17,8.57-5.94,13.76a13.4,13.4,0,0,0,5.2,9.82c6.59,5.26,16.6,6.14,24.14,2.51a17.48,17.48,0,0,0,9.24-11.27,1.5,1.5,0,0,0-2.89-.8c-2.11,7.76-9.51,11.53-17.17,11.22-6.44-.26-14.16-3.58-15.4-10.36-.83-4.56,2-9.3,4.94-12.76,1.25-1.46-.86-3.59-2.12-2.12Z"/><path class="cls-3" d="M233.46,174.35c-6.12-2.52-11.6-7.89-10.61-15A13.87,13.87,0,0,1,233.75,148,18,18,0,0,1,245.46,150c1.72.87,3.24-1.71,1.51-2.59-7.2-3.65-16-3.78-22.13,2a15.83,15.83,0,0,0-3.32,18.69c2.34,4.42,6.63,7.29,11.14,9.15,1.78.74,2.56-2.16.8-2.89Z"/><path class="cls-3" d="M249.7,156a16.12,16.12,0,0,1-1.15-6.63,8.78,8.78,0,0,1,1.55-4.47,5.53,5.53,0,0,1,.59-.73,10.43,10.43,0,0,1,1-.92,5,5,0,0,1,.76-.57,12.47,12.47,0,0,1,1.11-.66,15.56,15.56,0,0,1,4.9-1.54,20.93,20.93,0,0,1,10.51,1.21,15.86,15.86,0,0,1,4.11,2.43c.3.26.58.54.85.82a7.38,7.38,0,0,1,.66.81,8.64,8.64,0,0,1,.57.91,4,4,0,0,1,.43.93,8.19,8.19,0,0,1,.1,5.29,19.17,19.17,0,0,1-4,6.95c-1.24,1.47.88,3.6,2.13,2.12,3.2-3.79,6.06-8.62,5.07-13.78-.73-3.85-3.74-6.82-7.15-8.52-6.89-3.45-17.6-3.71-23.14,2.45-3.7,4.1-3.5,9.78-1.72,14.7.65,1.8,3.55,1,2.89-.8Z"/><path class="cls-3" d="M276.71,158.61c.28-.13-.34.13,0,0l.24-.08a3.81,3.81,0,0,1,.45-.13l.48-.1c.31-.06-.33,0,0,0l.28,0a7.66,7.66,0,0,1,1.07,0l.24,0c.27,0,.12.07,0,0a2.64,2.64,0,0,0,.56.11l.49.13a2.3,2.3,0,0,0,.48.17l-.11-.05.08,0,.24.12a4.92,4.92,0,0,1,.45.28s.26.18.06,0,0,0,.08.08.22.22.33.33-.19-.29,0,0l.14.21.12.23c.14.24-.12-.33,0-.05a1.5,1.5,0,0,0,2.89-.79c-1.47-3.8-6.53-4.63-9.92-3.08a1.5,1.5,0,0,0-.54,2,1.54,1.54,0,0,0,2,.54Z"/><path class="cls-3" d="M259.62,196.72c1.67,4.35,5.68,6.9,9.91,8.41a35.78,35.78,0,0,0,13.77,1.94A29.72,29.72,0,0,0,297,203.12,28.94,28.94,0,0,0,308,192a17.5,17.5,0,0,0,.53-16.18c-.85-1.74-3.43-.22-2.59,1.51,4.24,8.69-2.09,17.79-9.31,22.46s-15.84,5.29-23.9,3.15c-3.87-1-8.61-3-10.17-7.05-.68-1.78-3.58-1-2.89.8Z"/><path class="cls-3" d="M309.9,186C319,182.82,323,173.08,322.75,164a18.31,18.31,0,0,0-4.34-11.82,22.93,22.93,0,0,0-11.2-7,18.76,18.76,0,0,0-14.35,1.46,1.5,1.5,0,0,0,1.52,2.59c6.63-3.81,15.42-1.34,20.67,3.74a14.85,14.85,0,0,1,4.63,9.64A25.31,25.31,0,0,1,318,174.14a15.21,15.21,0,0,1-8.93,8.92c-1.81.62-1,3.52.8,2.89Z"/><path class="cls-3" d="M304.85,146c3.31-5.58,2.52-11.91-1.58-16.83a23.4,23.4,0,0,0-16.39-7.93,17.21,17.21,0,0,0-9.84,2.38c-1.64,1-.14,3.6,1.52,2.59,4.52-2.77,10.24-2.39,15-.4,4.52,1.88,8.94,5.53,10.16,10.46a10.81,10.81,0,0,1-1.46,8.21,1.5,1.5,0,0,0,2.59,1.52Z"/><path class="cls-3" d="M290.77,122.2a9.12,9.12,0,0,0,.18-7.9,13.06,13.06,0,0,0-5.41-5.41,25.32,25.32,0,0,0-17.42-2.83,11.4,11.4,0,0,0-7.28,4.56c-1.07,1.61,1.52,3.11,2.59,1.51,2.4-3.61,8.1-3.84,12-3.38,4.29.5,9.69,2.18,12.25,5.94a5.86,5.86,0,0,1,.46,6c-.8,1.75,1.79,3.27,2.59,1.52Z"/><path class="cls-3" d="M250.14,140.82c-5.6-.55-10.91-3.91-14.72-7.91-3.3-3.48-6.45-8.69-4.72-13.63,1.09-3.11,4-5.07,6.87-6.41,1.75-.82.22-3.41-1.51-2.59-3.1,1.45-6.09,3.61-7.64,6.75a12.2,12.2,0,0,0-.75,8.51c1.6,6.24,6.73,11.43,12.1,14.68a24.88,24.88,0,0,0,10.37,3.6c1.92.18,1.91-2.82,0-3Z"/><path class="cls-3" d="M232.5,113c-2.85-2.19-5.08-5.88-5-9.54a6.16,6.16,0,0,1,2-4.44,12.25,12.25,0,0,1,2.66-1.63,34.43,34.43,0,0,1,3.35-1.62c2.62-1,5.57-1.67,8,.1a1.51,1.51,0,0,0,2.05-.53,1.54,1.54,0,0,0-.54-2.06c-2.6-1.89-5.92-1.81-8.89-.9a26.45,26.45,0,0,0-4.36,1.83,24,24,0,0,0-3.57,2c-4.17,3.15-4.47,8.44-2.47,12.94a16.76,16.76,0,0,0,5.19,6.43A1.5,1.5,0,1,0,232.5,113Z"/><path class="cls-3" d="M239.64,83.15c.21-.23.42-.45.64-.66l.39-.35s.21-.15.09-.07a8.21,8.21,0,0,1,.73-.47l.34-.17c.23-.12,0,0,.11-.06s.44-.15.67-.21l.33-.08s.4-.06.2,0,.16,0,.2,0h.39c.22,0,.44,0,.65,0-.21,0-.09,0,.05,0l.32.06c.2.05.41.11.61.18l.3.1c.17.06-.2-.1.05,0s.38.19.57.29l.54.32.31.22c.23.15-.09-.09,0,0a9.47,9.47,0,0,1,.93.86A1.5,1.5,0,0,0,250.22,81a9.42,9.42,0,0,0-5.84-3,8.24,8.24,0,0,0-6.86,3,1.54,1.54,0,0,0,0,2.12,1.51,1.51,0,0,0,2.12,0Z"/><path class="cls-3" d="M247.21,79.16C250.33,63.22,271.15,61.31,283,68.3A20.27,20.27,0,0,1,291.18,77c.83,1.75,3.42.23,2.59-1.51-7.09-14.83-30.34-18.53-42.71-8.48a19.48,19.48,0,0,0-6.74,11.4c-.37,1.89,2.52,2.7,2.89.8Z"/><path class="cls-3" d="M289.63,71.22a17.41,17.41,0,0,1,10.9-5.91,20.35,20.35,0,0,1,11.3,2c5.91,2.91,11.95,9.35,9.82,16.24-1.53,4.91-6.57,7.84-11,9.73a1.5,1.5,0,1,0,1.51,2.59c4.69-2,9.57-5.08,11.75-9.9a13.4,13.4,0,0,0-.4-11.58C319.72,66.73,310.4,61.88,302,62.2a20.36,20.36,0,0,0-14.45,6.9c-1.29,1.43.83,3.56,2.12,2.12Z"/><path class="cls-3" d="M320.45,91.12c1.53-.67,3.59.73,4.83,1.52a9.61,9.61,0,0,1,2.89,2.68,7.09,7.09,0,0,1,.91,6.07c-1.39,4.75-6.37,8-11.12,8.48-1.9.2-1.92,3.2,0,3a16.69,16.69,0,0,0,12.81-7.9,10.52,10.52,0,0,0-1.59-13.07c-2.55-2.47-6.7-4.93-10.25-3.37-1.76.77-.24,3.36,1.52,2.59Z"/><path class="cls-3" d="M298.51,128.36a11.62,11.62,0,0,0,5.1-1.27,6.93,6.93,0,0,0,3.74-3.65,1.5,1.5,0,0,0-1-1.85,1.55,1.55,0,0,0-1.85,1c-.1.27.18-.33,0-.08l-.11.2-.13.2c0,.05-.17.25,0,0s0,0-.07.07l-.14.15a4.38,4.38,0,0,1-.39.36l-.1.09c-.09.07-.05,0,.12-.1-.07,0-.16.12-.22.16L303,124a9.33,9.33,0,0,1-1,.52c-.07,0-.21.13-.27.12.1,0,.27-.11,0,0l-.51.19c-.37.12-.74.23-1.12.32l-.5.11-.22,0c-.26,0-.12,0,.05,0-.32,0-.64.06-1,.06a1.51,1.51,0,0,0-1.5,1.5,1.54,1.54,0,0,0,1.5,1.5Z"/><path class="cls-3" d="M303.72,126.19c2.85,8.54,13.43,8.3,20.4,5.54a18.56,18.56,0,0,0,8.89-6.65,24.39,24.39,0,0,0,4.14-10.84c.49-4.55-1.64-8.56-6.32-9.52-1.88-.38-2.69,2.51-.8,2.9,7.29,1.49,3.45,11,.9,15.15-3.31,5.35-10.38,8-16.5,7.69-3.42-.16-6.68-1.65-7.82-5.07-.61-1.82-3.51-1-2.89.8Z"/><path class="cls-3" d="M313.2,182.63c.24,13.32,18.21,13.94,26.42,7.66a12.58,12.58,0,0,0,5-7.76c.33-1.89-2.56-2.7-2.89-.8-.84,4.75-5,7.64-9.42,8.83-4.2,1.15-9.53,1.1-13.12-1.69a7.83,7.83,0,0,1-2.95-6.24c0-1.92-3-1.93-3,0Z"/><path class="cls-3" d="M340.39,189.46a15.3,15.3,0,0,0,11.7-7.89,13.58,13.58,0,0,0-.1-12.78,14.53,14.53,0,0,0-6-5.69c-1.71-.9-3.23,1.69-1.52,2.59,4.37,2.28,7.11,6.82,6,11.81-1.18,5.21-5.71,8.38-10.82,9.07a1.51,1.51,0,0,0-1,1.84,1.54,1.54,0,0,0,1.85,1.05Z"/><path class="cls-3" d="M352.42,168.64a10.31,10.31,0,0,0,4.87-9.67,13.45,13.45,0,0,0-5.39-9.81,1.51,1.51,0,0,0-2,.54,1.52,1.52,0,0,0,.54,2.05c4.45,3.32,5.73,11.11.51,14.3-1.64,1-.13,3.6,1.52,2.59Z"/><path class="cls-3" d="M353.47,165c1.68,5.57,7.56,8,12.87,8.7,5.86.76,12.48-.13,17.56-3.32a12.44,12.44,0,0,0,5.6-6.93,1.5,1.5,0,0,0-2.89-.8c-1.32,4.56-6.45,6.72-10.68,7.67-4.8,1.07-10.51,1-15-1.23a8.36,8.36,0,0,1-4.56-4.88c-.56-1.85-3.46-1.06-2.9.79Z"/><path class="cls-3" d="M373,171.22c-5.92,2.17-11.72,9.62-8.51,16a9.1,9.1,0,0,0,4.44,4,1.54,1.54,0,0,0,2.05-.54,1.5,1.5,0,0,0-.53-2.05,6.48,6.48,0,0,1-3.49-3.22,6.27,6.27,0,0,1,.06-4.33,11.74,11.74,0,0,1,6.78-7,1.54,1.54,0,0,0,1.05-1.84,1.52,1.52,0,0,0-1.85-1.05Z"/><path class="cls-3" d="M367.83,188.74c-5.46,2.94-9.76,8.26-7.76,14.74,1.8,5.83,7.21,10,12.69,12.21a21.57,21.57,0,0,0,9.33,1.55c.8-.06,1.6-.28,2.39-.31s1.37.08,2,0a20.88,20.88,0,0,0,4.7-.77A26.06,26.06,0,0,0,406.3,205a14.3,14.3,0,0,0,2.12-9.38c-.55-3.73-2.95-6.65-5.85-8.89a1.51,1.51,0,0,0-2.05.54,1.54,1.54,0,0,0,.53,2.05,11,11,0,0,1,4.4,6.6,10.61,10.61,0,0,1-1.22,6.62,22.38,22.38,0,0,1-12.14,10.25,20,20,0,0,1-4,1.05c-1.31.2-2.61,0-3.91.12a32.36,32.36,0,0,1-3.94.32,19.06,19.06,0,0,1-4-.61c-4.94-1.3-9.85-4.43-12.36-9a8.69,8.69,0,0,1-.91-6.82c1-3,3.75-5.07,6.43-6.52,1.7-.92.19-3.51-1.51-2.59Z"/><path class="cls-3" d="M404.61,191.22c6.17-.9,11.59-5.08,14.85-10.27,3-4.76,4.36-11.1,1.43-16.21-1.85-3.24-5.08-5.24-8.52-6.45-1.83-.64-2.61,2.26-.8,2.9a12.26,12.26,0,0,1,6.43,4.57,10.1,10.1,0,0,1,1.48,6.42c-.39,5-3.64,9.67-7.5,12.64a17.48,17.48,0,0,1-8.16,3.5c-1.91.28-1.1,3.17.79,2.9Z"/><path class="cls-3" d="M415.67,162.69c9.33-1.76,15.23-12.85,10.76-21.45a12.43,12.43,0,0,0-5.59-5.33c-1.73-.85-3.25,1.74-1.52,2.59A10.1,10.1,0,0,1,424.67,150a12.36,12.36,0,0,1-9.8,9.75c-1.89.36-1.09,3.25.8,2.9Z"/><path class="cls-3" d="M423.25,139.32c11.16-2.81,15.15-17.8,8.63-26.68a18.64,18.64,0,0,0-8.63-6.31c-1.81-.68-2.59,2.22-.8,2.9a14.37,14.37,0,0,1,9.39,10.87,15.4,15.4,0,0,1-3.28,12.48,11.8,11.8,0,0,1-6.11,3.85c-1.87.47-1.08,3.37.8,2.89Z"/><path class="cls-3" d="M392.28,109.89c-4.48-2.55-9-6.73-8.15-12.39.73-4.92,4.76-8.81,8.88-11.19a23.43,23.43,0,0,1,16.46-2.86,19.68,19.68,0,0,1,7.65,3.2,17.84,17.84,0,0,1,5.18,6.47c2.69,5.51,2.3,12.4-3.47,15.68a1.5,1.5,0,0,0,1.52,2.59c6-3.4,7.76-10.23,5.82-16.58a21.44,21.44,0,0,0-4.93-8.46,20,20,0,0,0-8.12-5c-6.34-2.36-13.48-1.57-19.54,1.24-5.29,2.46-10.34,6.88-12,12.65-2.19,7.52,3,13.68,9.21,17.2a1.5,1.5,0,0,0,1.51-2.59Z"/><path class="cls-3" d="M390.81,109.18c-2.89-.79-5.84.9-7.83,2.87a12.93,12.93,0,0,0-4,8.94,9.69,9.69,0,0,0,1.87,5.66,1.54,1.54,0,0,0,2.05.53,1.51,1.51,0,0,0,.54-2.05,6.93,6.93,0,0,1-1.43-4.85,9.47,9.47,0,0,1,1.65-4.38,10.39,10.39,0,0,1,3.19-3.11l.53-.29c.05,0,.57-.26.32-.16a6.37,6.37,0,0,1,.94-.29,2.87,2.87,0,0,1,1.37,0,1.5,1.5,0,0,0,.79-2.89Z"/><path class="cls-3" d="M369.62,131.32c3.22-2.81,8.22-3.36,12.31-3.21s9,1.14,11.8,4.39c1.27,1.46,3.38-.67,2.12-2.12-3.35-3.84-9-5.1-13.92-5.27s-10.58.73-14.43,4.09c-1.45,1.27.68,3.39,2.12,2.12Z"/><path class="cls-3" d="M359.83,126.64a17.53,17.53,0,0,1,6.66,3.92,8.67,8.67,0,0,1,2.06,2.94A6.72,6.72,0,0,1,369,137a1.55,1.55,0,0,0,1,1.85,1.52,1.52,0,0,0,1.84-1.05,10.49,10.49,0,0,0-3-9.08,20.36,20.36,0,0,0-8.21-4.92,1.5,1.5,0,1,0-.8,2.89Z"/><path class="cls-3" d="M360.23,126.7c11.18-.59,13.79-15.55,10.35-24a13.81,13.81,0,0,0-5.25-6.59c-1.63-1-3.14,1.55-1.52,2.59,3.49,2.23,4.95,6.62,5.18,10.58s-.6,8.61-3.35,11.7a7.7,7.7,0,0,1-5.41,2.72c-1.92.1-1.93,3.1,0,3Z"/><path class="cls-3" d="M365,98.85a14.82,14.82,0,0,0,11.42-14.66,16,16,0,0,0-2.85-9c-2.07-2.91-4.77-4.52-8-5.92-5.73-2.49-12.2-2.83-18.33-2S334.66,70.09,330,74.34a14.93,14.93,0,0,0-4.72,7.92,17.33,17.33,0,0,0,1.63,10.61c.81,1.76,3.39.23,2.6-1.51-2.16-4.71-2.08-9.9,1.54-13.84s9.1-6,14.27-7a35,35,0,0,1,16.51.47,19.41,19.41,0,0,1,7.36,3.68,12.86,12.86,0,0,1,4,7,12,12,0,0,1-9,14.26c-1.87.46-1.08,3.35.8,2.89Z"/><path class="cls-3" d="M47.57,307.47a11.25,11.25,0,0,0-3.58,7,10.5,10.5,0,0,0,1.8,6.52,18.49,18.49,0,0,0,12.54,7.77,14.15,14.15,0,0,0,8.41-1.17c1.72-.86.21-3.45-1.52-2.6-3.58,1.78-8.09.95-11.6-.94a15.06,15.06,0,0,1-4.79-3.93A8.58,8.58,0,0,1,47,315.49a8,8,0,0,1,2.72-5.9c1.38-1.36-.74-3.48-2.12-2.12Z"/><path class="cls-3" d="M52.82,326.54c-1.77,3.06-2.6,6.7-1.37,10.12A14.68,14.68,0,0,0,58,344c6,3.57,14.22,4.74,20.73,2.07a13.12,13.12,0,0,0,7.75-8.21c.59-1.84-2.31-2.63-2.89-.8-1.87,5.9-8.35,7.7-13.93,7.38s-12.17-2.63-14.88-7.71c-1.47-2.78-.93-5.92.67-8.69a1.5,1.5,0,0,0-2.59-1.51Z"/><path class="cls-3" d="M79.42,345.86c6.11,11.07,24.47,3.37,27.25-6.69a9.72,9.72,0,0,0-2-8.8c-1.2-1.51-3.31.63-2.12,2.12,2.92,3.68,1.12,7.95-2,10.9-3.3,3.11-8.36,5.39-13,4.73a7.34,7.34,0,0,1-5.5-3.78c-.93-1.69-3.52-.18-2.59,1.52Z"/><path class="cls-3" d="M100.89,332.06c3.77-.62,6.52-4.22,7.58-7.68A11.77,11.77,0,0,0,105,312.12c-1.43-1.29-3.56.82-2.12,2.12a8.8,8.8,0,0,1,2.72,9.34c-.82,2.67-2.84,5.15-5.49,5.59A1.51,1.51,0,0,0,99,331a1.54,1.54,0,0,0,1.85,1.05Z"/><path class="cls-3" d="M75.51,296C82.78,292.83,92,292.1,98,298c4.77,4.65,6.53,12.59.83,17.22-1.5,1.22.63,3.33,2.12,2.12,5.21-4.23,5.56-11.25,2.57-16.92a19.16,19.16,0,0,0-17.07-9.9A31.33,31.33,0,0,0,74,293.38c-1.77.76-.24,3.35,1.51,2.59Z"/><path class="cls-3" d="M49.49,269.73C53.44,263.5,62.68,264,69,265.25a31,31,0,0,1,9.71,3.42,17.36,17.36,0,0,1,7,9.28c1.38,4.1,1.4,8.68-1.22,12.29-1.14,1.57,1.46,3.06,2.59,1.51,5.39-7.44,1.74-18.77-4.88-24.21-3.09-2.54-7.12-3.9-11-4.84a35.46,35.46,0,0,0-13.09-1c-4.5.6-8.76,2.53-11.27,6.47-1,1.64,1.56,3.15,2.59,1.52Z"/><path class="cls-3" d="M15.58,279.85c2.18-6.27,6.77-11.71,13.25-13.72s13.41-.2,19,3.6c1.6,1.09,3.1-1.51,1.51-2.59a25.73,25.73,0,0,0-16.94-4.76,22.22,22.22,0,0,0-14.5,7.51,27.56,27.56,0,0,0-5.18,9.16c-.64,1.82,2.26,2.61,2.89.8Z"/><path class="cls-3" d="M13,305.22c-4.74-3.71-8.42-9.67-5.71-15.72a16.6,16.6,0,0,1,7.65-7.59c3.15-1.58,6.26-1.29,9.42,0,1.78.74,2.56-2.16.8-2.9a13.7,13.7,0,0,0-8.67-.9,19,19,0,0,0-8.91,5.65c-3.92,4.26-5.35,10.07-3.09,15.5a20.27,20.27,0,0,0,6.39,8c1.51,1.17,3.64-.93,2.12-2.12Z"/><path class="cls-3" d="M13.85,303.69c-12,5.86-18,22-11.15,33.87a21.25,21.25,0,0,0,8.49,8c1.71.91,3.22-1.68,1.52-2.59A18.15,18.15,0,0,1,3,329.12a22.93,22.93,0,0,1,4.58-16.47,21.84,21.84,0,0,1,7.81-6.37c1.74-.85.22-3.44-1.51-2.59Z"/><path class="cls-3" d="M7.08,341.49c-4.65,4.62-6.78,11-4.22,17.28,2.46,6,8,10.23,14,12.42,1.81.67,2.59-2.23.79-2.89-5-1.83-9.73-5.39-11.88-10.36-2.27-5.23-.43-10.46,3.47-14.33,1.37-1.36-.75-3.48-2.13-2.12Z"/><path class="cls-3" d="M11,367.54c-2.2,3.85-3.41,8.31-2.33,12.71a17.29,17.29,0,0,0,6.66,9.43c7,5.33,16.74,7.15,25.32,5.85a22.63,22.63,0,0,0,12.73-6,1.5,1.5,0,0,0-2.12-2.12c-5.46,5.46-14.27,6.31-21.53,5C23,391.26,14.7,387.88,12,381c-1.58-4-.53-8.28,1.55-11.92A1.5,1.5,0,0,0,11,367.54Z"/><path class="cls-3" d="M33.57,394.83a26.9,26.9,0,0,0,6.57,13.08,25.8,25.8,0,0,0,11.79,6.7c9.14,2.53,19.89,2,28.27-2.72,4.51-2.53,8.1-6.55,9.18-11.7.39-1.89-2.5-2.69-2.9-.8-1.8,8.64-11.1,12.4-19,13.39-8.14,1-17.92-.31-24.21-6-3.71-3.36-5.76-7.92-6.82-12.74-.41-1.89-3.31-1.09-2.89.79Z"/><path class="cls-3" d="M83.46,409.63a23.07,23.07,0,0,0,21,1.63c6.36-2.63,11.55-8,12.36-15.06.52-4.53-1-9-3.33-12.82-1-1.65-3.6-.14-2.59,1.51,3.45,5.64,4.33,12.51.07,18-3.68,4.72-9.85,7.21-15.75,7.18A19.29,19.29,0,0,1,85,407c-1.63-1-3.14,1.55-1.51,2.59Z"/><path class="cls-3" d="M113.55,385.77c4.7-.65,9.18-3.46,10.36-8.3a12.05,12.05,0,0,0-3.79-11.58,14.52,14.52,0,0,0-7.66-3.53,1.57,1.57,0,0,0-1.85,1.05,1.52,1.52,0,0,0,1,1.85c3.79.55,7.35,2.65,8.86,6.19a7.79,7.79,0,0,1-1.49,8.73,10.81,10.81,0,0,1-6.27,2.69,1.51,1.51,0,0,0-1.05,1.85,1.54,1.54,0,0,0,1.84,1Z"/><path class="cls-3" d="M106.45,367.79c7.65-2.17,16.91-8.36,15.26-17.49a1.5,1.5,0,0,0-2.9.8c1.32,7.25-7.28,12.13-13.16,13.8a1.5,1.5,0,0,0,.8,2.89Z"/><path class="cls-3" d="M106.88,336.3A13.1,13.1,0,0,1,117.39,340,9,9,0,0,1,120,344.5a7.14,7.14,0,0,1-1.07,5.13c-1,1.65,1.58,3.16,2.59,1.51a10.11,10.11,0,0,0,.13-10.56A15.75,15.75,0,0,0,113,334a14.4,14.4,0,0,0-6.11-.66,1.54,1.54,0,0,0-1.5,1.5,1.51,1.51,0,0,0,1.5,1.5Z"/><path class="cls-3" d="M59.54,344c-4.38,3.69-6,9.38-3.57,14.66,2.35,5.13,7.63,8.26,13.11,8.82,1.92.19,1.91-2.81,0-3a13,13,0,0,1-10.42-7.13c-2-4.16-.36-8.39,3-11.23,1.48-1.25-.65-3.36-2.12-2.12Z"/><path class="cls-3" d="M58.2,361.22c-3.05,1.73-3.79,5.43-3.36,8.65s1.85,6.55,4.57,8.41a1.51,1.51,0,0,0,2.05-.53,1.53,1.53,0,0,0-.53-2.06,1.64,1.64,0,0,1-.22-.14c.12.08.13.09,0,0a4,4,0,0,1-.3-.28,6.66,6.66,0,0,1-.63-.67c-.07-.1-.2-.27-.37-.54a8.13,8.13,0,0,1-.47-.81,11.68,11.68,0,0,1-1.19-3.76c0-.1,0-.11,0,0l0-.24c0-.19,0-.38,0-.57s0-.65,0-1a5.42,5.42,0,0,1,.27-1.65,3.66,3.66,0,0,1,.68-1.39c-.16.23.1-.12.12-.14l.29-.3s.34-.27.14-.13c.16-.11.33-.21.5-.31a1.5,1.5,0,0,0-1.52-2.59Z"/><path class="cls-3" d="M86,272.25c1.84-5.66,7.16-8.8,13-8.72,5.18.08,10.89,2.74,12.77,7.87,1.28,3.48.56,7.26-.93,10.55-.78,1.75,1.8,3.28,2.6,1.52,1.65-3.67,2.57-7.71,1.58-11.69a14.06,14.06,0,0,0-5.55-7.93,18.63,18.63,0,0,0-18.93-1.37,15.3,15.3,0,0,0-7.41,9c-.6,1.84,2.3,2.62,2.9.79Z"/><path class="cls-3" d="M110,284.72a6.14,6.14,0,0,1,1.72-.09l.32.05.51.13.42.13.29.11c-.15-.06,0,0,.05,0a8.18,8.18,0,0,1,3.08,2.47,12,12,0,0,1,1.83,3.3,10.21,10.21,0,0,1,.5,2c0-.24,0,.12,0,.19l0,.52a8.36,8.36,0,0,1,0,1c0,.18,0,0,0,0s0,.18,0,.28-.07.35-.12.53-.1.3-.15.45c-.1.31.05,0-.11.26a4.1,4.1,0,0,1-.23.4c0,.07-.33.46-.15.24a5.6,5.6,0,0,1-.78.76,1.51,1.51,0,0,0,0,2.12,1.53,1.53,0,0,0,2.12,0c2.64-2.12,2.9-5.88,2-8.93a13.14,13.14,0,0,0-6.21-8,8.63,8.63,0,0,0-5.9-.79c-1.88.42-1.09,3.31.8,2.89Z"/><path class="cls-3" d="M121.43,296.42c4.9.15,9.55,3.81,12,7.87a10.24,10.24,0,0,1,1.7,6.41c-.32,2.54-2.11,4.38-4.23,5.62a1.5,1.5,0,0,0,1.51,2.59c4.37-2.57,6.67-7,5.37-12.06-1.21-4.65-4.81-8.67-8.87-11.09a15.63,15.63,0,0,0-7.5-2.34c-1.94-.06-1.93,2.94,0,3Z"/><path class="cls-3" d="M135,300.64a7,7,0,0,1-.93-4.3c0-.19,0-.21,0-.07a2.23,2.23,0,0,0,0-.23l.12-.54a7.31,7.31,0,0,1,.34-1c-.08.2.14-.3.17-.35s.14-.27.22-.4a5.84,5.84,0,0,1,.33-.53l.18-.25h0a7.63,7.63,0,0,1,7.56-2.77,1.54,1.54,0,0,0,1.85-1.05,1.51,1.51,0,0,0-1-1.84,10.84,10.84,0,0,0-9,2.07,10,10,0,0,0-3.81,7.54,10.37,10.37,0,0,0,1.37,5.27c.93,1.69,3.53.18,2.59-1.52Z"/><path class="cls-3" d="M140.48,287c-6.95-2.42-13.59-6.78-17.09-13.44a16.75,16.75,0,0,1-.15-16.06c3.43-6.05,10.26-8.94,16.85-10,3.93-.59,8-.82,11.76.56a23.55,23.55,0,0,1,9.39,6.75c5.53,6.35,8.32,16.33,1.43,22.77-1.41,1.32.71,3.44,2.12,2.12,6.83-6.38,5.93-16.18,1.19-23.53a28.48,28.48,0,0,0-9.53-9.22,21.49,21.49,0,0,0-12.29-2.83c-8.17.38-16.91,2.93-22.09,9.68a19.21,19.21,0,0,0-2.5,18.5c3.36,8.8,11.48,14.54,20.11,17.54,1.83.64,2.62-2.26.8-2.89Z"/><path class="cls-3" d="M167.21,277.34a12.23,12.23,0,0,1,9.77,8.15,15.56,15.56,0,0,1-1.41,12.67,14.38,14.38,0,0,1-5.63,5.34c-1.7.91-.19,3.5,1.51,2.59,9.54-5.1,12.66-19.3,4.9-27.33a15.43,15.43,0,0,0-8.34-4.31c-1.89-.34-2.7,2.55-.8,2.89Z"/><path class="cls-3" d="M162.81,300.79c7.62,3.85,6.76,14.93.69,19.8-1.5,1.21.63,3.32,2.12,2.12,7.55-6.06,7.94-19.84-1.3-24.51-1.72-.87-3.24,1.71-1.51,2.59Z"/><path class="cls-3" d="M117.86,357.66c.54,5.15,3.87,9.72,7.36,13.35a36.49,36.49,0,0,0,6,5.08,14.93,14.93,0,0,0,5.54,2.5c1.89.33,2.7-2.56.79-2.89a12.67,12.67,0,0,1-4.81-2.2,32,32,0,0,1-5.24-4.42c-2.93-3-6.2-7.07-6.66-11.42a1.54,1.54,0,0,0-1.5-1.5,1.52,1.52,0,0,0-1.5,1.5Z"/><path class="cls-3" d="M130.6,375.39a20.66,20.66,0,0,0-8.1,7.88c-3.06,5.25-2.83,11.22-.14,16.57.87,1.72,3.46.2,2.59-1.52a13.84,13.84,0,0,1,.4-13.95,17.36,17.36,0,0,1,6.77-6.38c1.73-.86.21-3.45-1.52-2.6Z"/><path class="cls-3" d="M124.63,395.38a7.34,7.34,0,0,0-2.43,4.17,6.89,6.89,0,0,0,7.3,7.88,1.49,1.49,0,0,0,1-1.84,1.54,1.54,0,0,0-1.84-1c.51-.07-.17,0-.31,0-.31,0,.31.08,0,0-.12,0-.25,0-.37-.09l-.27-.08-.19-.07c.2.08.24.1.14.05s-.4-.19-.59-.31l-.3-.2c-.32-.21.15.15-.07-.05s-.35-.31-.51-.48L126,403c0-.06-.23-.34,0,0-.14-.21-.29-.42-.42-.64s-.09-.2-.15-.3-.06-.13,0,.06l-.08-.21a4.67,4.67,0,0,1-.18-.64c0-.09-.06-.57,0-.15,0-.11,0-.22,0-.34v-.34c0-.09.09-.58,0-.18,0-.24.1-.47.17-.71l.09-.23h0l.18-.35a5,5,0,0,1,1.2-1.44,1.51,1.51,0,0,0,0-2.12,1.53,1.53,0,0,0-2.12,0Z"/><path class="cls-3" d="M126.26,405.29a10.55,10.55,0,0,0,4.2,18.24c1.88.45,2.68-2.44.8-2.89a7.37,7.37,0,0,1-5.54-5.73,7.46,7.46,0,0,1,2.66-7.5,1.5,1.5,0,0,0-2.12-2.12Z"/><path class="cls-3" d="M129.57,421.82a8,8,0,0,0-1.91,3.81,6.77,6.77,0,0,0,.57,3.94,8.36,8.36,0,0,0,5.86,4.36,9.65,9.65,0,0,0,4.21-.05,4.66,4.66,0,0,0,2.48-1.77,7.49,7.49,0,0,0,1.52-5.32,5.08,5.08,0,0,0-1.31-3.07,4.39,4.39,0,0,0-3.27-1.23,1.5,1.5,0,0,0,0,3,1.87,1.87,0,0,1,.58,0c-.35-.15-.2,0-.05,0l.24.07c.34.08-.09,0-.06,0l.21.11.19.12s-.31-.29-.07,0l.16.16c.23.22-.09,0,0-.08l.24.39c.18.29-.06-.07,0-.08a1.43,1.43,0,0,1,.08.22,4.12,4.12,0,0,1,.13.47s.06.23,0,.24,0-.41,0-.06a4.34,4.34,0,0,1,0,.51c0,.17,0,.35,0,.52s0,.13,0,.18c.16-.41,0-.12,0,0a8.86,8.86,0,0,1-.29,1c0,.12-.05.34,0,0,0,0,0,.11-.07.16l-.29.54c-.08.12-.17.34-.29.42.27-.18.14-.16,0,0l-.16.18-.3.28c-.21.21.3-.18.05,0l-.27.17-.21.11.21-.09-.26.06-.41.08c-.43.1.3,0-.13,0a10.42,10.42,0,0,1-1.58,0c-.43,0,.3.06-.12,0l-.37-.07c-.25-.06-.5-.12-.74-.2s-.39-.13-.59-.21c.34.13,0,0-.09-.05l-.44-.23c-.21-.12-.41-.25-.61-.39s-.35-.29-.08-.05l-.18-.15c-.17-.16-.34-.32-.5-.49s-.15-.18-.23-.26-.1-.12,0,0c0-.06-.09-.12-.13-.19a6.71,6.71,0,0,1-.4-.68l-.09-.21c.16.38,0-.09,0-.16a2,2,0,0,1-.09-.33c0-.09-.09-.58,0-.15a5.49,5.49,0,0,1,0-.81l0-.35c0,.39,0,0,0-.08a5.4,5.4,0,0,1,.26-.84c-.12.32.05-.09.07-.13s.17-.33.27-.49a3.75,3.75,0,0,1,.24-.36l.17-.25q-.1.15.06-.06a1.53,1.53,0,0,0,0-2.12,1.51,1.51,0,0,0-2.12,0Z"/><path class="cls-3" d="M141.13,426.77c3,.3,6.08-1.17,8.31-3.14s3.91-4.86,3.51-7.88a7.09,7.09,0,0,0-2.64-4.52,1.55,1.55,0,0,0-2.12,0,1.51,1.51,0,0,0,0,2.12,8,8,0,0,1,.74.68c.11.11.21.23.31.35-.12-.15.13.18.16.24s.15.24.22.37l.13.26a2.51,2.51,0,0,0,.09.26,3.74,3.74,0,0,1,.12.45c0,.11.06.39,0,.12l0,.39c0,.13,0,.27,0,.4s0,.46,0,.32,0,.2-.05.26-.07.26-.1.39-.08.26-.13.39-.18.45-.08.22a7.71,7.71,0,0,1-2,2.8,7.38,7.38,0,0,1-1.31,1,10.71,10.71,0,0,1-1.66.91c-.16.07,0,0,0,0l-.28.1-.49.17a8.44,8.44,0,0,1-1,.25c-.08,0-.5.07-.23,0l-.49,0a7.19,7.19,0,0,1-1,0,1.5,1.5,0,0,0-1.5,1.5,1.53,1.53,0,0,0,1.5,1.5Z"/><path class="cls-3" d="M150.46,413.21c10.31,1.57,21.67-8.56,20-19.24a12.45,12.45,0,0,0-4.61-7.64c-1.49-1.21-3.62.9-2.12,2.12a9.63,9.63,0,0,1,3.88,6.95,12.88,12.88,0,0,1-2.24,7.54c-2.93,4.55-8.53,8.23-14.12,7.38-1.89-.29-2.7,2.6-.79,2.89Z"/><path class="cls-3" d="M159.15,390a10.62,10.62,0,0,0,9.32-15.08,1.53,1.53,0,0,0-2.06-.54,1.55,1.55,0,0,0-.53,2.06,6.93,6.93,0,0,1,.6,3.63,8.84,8.84,0,0,1-.41,1.76,5.17,5.17,0,0,1-.3.74c-.15.3-.32.6-.5.89a7.36,7.36,0,0,1-6.12,3.54,1.5,1.5,0,0,0,0,3Z"/><path class="cls-3" d="M158.72,377.35c3.77,1,7.61-.8,10.43-3.24s5.14-6.1,5-9.91a8.22,8.22,0,0,0-2.62-5.74c-1.41-1.32-3.53.79-2.13,2.12a5.59,5.59,0,0,1,1.29,1.69,3.51,3.51,0,0,1,.28.77,5.23,5.23,0,0,1,.12.54.77.77,0,0,1,0,.31,7.45,7.45,0,0,1-.81,3.88,13.36,13.36,0,0,1-6.42,6.2,10.68,10.68,0,0,1-1.28.43l-.56.13-.24.05c-.51.08.13,0-.16,0a7.85,7.85,0,0,1-1.19,0,3.58,3.58,0,0,1-1-.17,1.5,1.5,0,0,0-.79,2.89Z"/><path class="cls-3" d="M158.35,363.17a16.73,16.73,0,0,0,14.37-5.36c3.47-3.83,4.95-9.24,2.88-14.13a17.17,17.17,0,0,0-7.12-7.61c-1.65-1-3.16,1.58-1.52,2.59,4,2.43,7.36,6.4,6.49,11.34a12.91,12.91,0,0,1-7.59,9.14,13.73,13.73,0,0,1-7.51,1c-.81-.11-1.5.77-1.5,1.5a1.54,1.54,0,0,0,1.5,1.5Z"/><path class="cls-3" d="M161.4,344c1.59-3,5.06-4.08,7.67-5.94a22,22,0,0,0,5.41-5.34c2.78-4,5.09-9.73,3.46-14.58a8.9,8.9,0,0,0-6-5.6c-1.85-.59-2.64,2.3-.8,2.89,4.53,1.46,4.91,6,3.68,10a19.2,19.2,0,0,1-8.08,10.63c-2.91,1.85-6.21,3.26-7.9,6.45-.91,1.71,1.68,3.23,2.59,1.52Z"/><path class="cls-3" d="M155.81,244.87a18.52,18.52,0,0,1,20.47-11.49c1.88.38,2.69-2.52.79-2.89a21.59,21.59,0,0,0-24.15,13.59c-.67,1.81,2.23,2.59,2.89.79Z"/><path class="cls-3" d="M194,255.8c-3.86,1.64-5.45,5.85-5.54,9.79-.09,4.14,1.21,8.65,4.53,11.33a8.2,8.2,0,0,0,7,1.45c1.89-.36,1.09-3.25-.8-2.9a5.1,5.1,0,0,1-5.2-1.77,10.69,10.69,0,0,1-2.36-5.56c-.55-3.65.14-8.15,3.9-9.75a1.5,1.5,0,0,0,.54-2.05,1.53,1.53,0,0,0-2-.54Z"/><path class="cls-3" d="M194.51,275.86c-3,3.64-5.18,8.17-4.09,13,.89,3.92,3.92,7,7.31,9,7.14,4.15,17.7,5,24.42-.47,4.24-3.43,5.51-9,4.92-14.18-.21-1.9-3.21-1.92-3,0,.46,4.05-.17,8.23-3,11.08a14.41,14.41,0,0,1-9.32,3.83,22.65,22.65,0,0,1-11-2,17.12,17.12,0,0,1-4.36-2.85,10.94,10.94,0,0,1-2.68-3.66,8.47,8.47,0,0,1-.46-5.16,15.42,15.42,0,0,1,3.32-6.37c1.21-1.48-.9-3.62-2.13-2.12Z"/><path class="cls-3" d="M225.68,289.2a15,15,0,0,0,12.68-9.61A14.77,14.77,0,0,0,235.53,264c-1.32-1.41-3.43.71-2.12,2.13,6.46,6.92,1.73,19.24-7.73,20-1.91.16-1.93,3.17,0,3Z"/><path class="cls-3" d="M238.9,268.3c10.81-5.68,9.77-20.9,2-28.67a16.62,16.62,0,0,0-8.26-4.55c-1.88-.4-2.69,2.49-.8,2.89,9.14,1.94,14.8,13.59,11,22.1a11.76,11.76,0,0,1-5.41,5.64c-1.71.9-.2,3.49,1.51,2.59Z"/><path class="cls-3" d="M174.92,230c3.62-10.66,17.83-15.53,27.94-12.15A15.7,15.7,0,0,1,210.3,223a1.54,1.54,0,0,0,2,.54,1.51,1.51,0,0,0,.54-2.05c-8.34-10.81-25.28-9.37-34.89-1.08a20.25,20.25,0,0,0-6,8.77c-.62,1.83,2.28,2.62,2.89.8Z"/><path class="cls-3" d="M210.18,220.56c4.65-3.49,10.88-4,16.4-2.63,4.9,1.25,10.28,4.32,11.68,9.55.85,3.17-.14,6.37-1.75,9.12a1.5,1.5,0,0,0,2.59,1.52A15.55,15.55,0,0,0,241.42,228a13.65,13.65,0,0,0-4.09-7.62c-4.66-4.54-11.75-6.56-18.14-6.08A19.88,19.88,0,0,0,208.67,218c-1.53,1.15,0,3.76,1.51,2.59Z"/><path class="cls-3" d="M197.9,295.64c-4.56,3.24-7.89,8.24-7.24,14a14.62,14.62,0,0,0,8.14,11.43c1.73.83,3.26-1.76,1.52-2.6a11.68,11.68,0,0,1-6.66-8.83c-.63-4.68,2.05-8.81,5.75-11.43,1.56-1.11.06-3.72-1.51-2.6Z"/><path class="cls-3" d="M227,289.27l.52-.12.22,0s-.19,0,0,0a7.58,7.58,0,0,1,1.17-.06,8.39,8.39,0,0,1,1.95.21,13.36,13.36,0,0,1,4.27,1.7,13.17,13.17,0,0,1,3.43,2.9,7.94,7.94,0,0,1,1.7,3.48,1.85,1.85,0,0,1,0,.23c.08.47,0-.14,0,.13s0,.41,0,.61,0,.36,0,.54,0,.3,0,.07c0,.1,0,.21-.05.31a6.14,6.14,0,0,1-.94,2.29c-1,1.64,1.56,3.15,2.59,1.52,4.55-7.25-2.81-14.71-9.61-16.51a12.28,12.28,0,0,0-6.11-.16c-1.87.46-1.08,3.35.8,2.89Z"/><path class="cls-3" d="M242.29,299.93a17.71,17.71,0,0,1,6.68,8.46,13.67,13.67,0,0,1,0,8.37c-1.51,4.88-5.57,9.59-10.5,11.23-2.32.76-4.56.75-6.52-.73-1.53-1.16-3,1.44-1.51,2.59,4.9,3.71,11.57.58,15.5-3,5-4.56,7.92-11.63,6.19-18.33-1.2-4.68-4.5-8.34-8.32-11.14-1.56-1.14-3.06,1.46-1.51,2.59Z"/><path class="cls-3" d="M173,333c-.67,4.22,2.21,7.35,5.7,9.26a29.94,29.94,0,0,0,13,3.41,15.17,15.17,0,0,0,5.95-.7c1.79-.68,1-3.59-.8-2.89-3.87,1.48-9.05.42-12.94-.84a17,17,0,0,1-6-3.11c-1.34-1.17-2.32-2.67-2-4.34.3-1.89-2.59-2.7-2.89-.79Z"/><path class="cls-3" d="M186.18,343.93c.54,13,19.3,17.47,28,9.47a12.12,12.12,0,0,0,3.74-9.2,1.5,1.5,0,0,0-3,0c.11,11.22-15.47,12.64-22.34,6.67a9.62,9.62,0,0,1-3.42-6.94c-.08-1.92-3.08-1.93-3,0Z"/><path class="cls-3" d="M215.69,349.61c9.41,5.36,23.57-.31,25.94-11.13a15.63,15.63,0,0,0-1.22-9.8c-.79-1.76-3.37-.24-2.59,1.51a11.91,11.91,0,0,1-1.7,12.75,16.52,16.52,0,0,1-11.63,5.75A13.32,13.32,0,0,1,217.2,347a1.5,1.5,0,0,0-1.51,2.59Z"/><path class="cls-3" d="M238.58,339.15c.13,7.82,6.24,13.32,13.16,15.86,6.23,2.28,14.6,2.8,20.26-1.24a11.43,11.43,0,0,0,4.81-9.58,1.5,1.5,0,0,0-3,0c0,6-5,9-10.52,9.43-6.14.53-13-1.32-17.6-5.61a12.36,12.36,0,0,1-4.11-8.86c0-1.93-3-1.93-3,0Z"/><path class="cls-3" d="M271.49,354.29c9.79,4.63,22.6-2.32,25.4-12.49A1.5,1.5,0,0,0,294,341c-2.25,8.17-12.94,14.5-21,10.7-1.74-.82-3.26,1.76-1.51,2.59Z"/><path class="cls-3" d="M293.79,348.58c10.36,7.23,26,2.22,30.56-9.5a17.58,17.58,0,0,0,.53-10.52c-.46-1.88-3.35-1.08-2.89.8,2.68,11-7.63,20.19-18.23,19.61a16.19,16.19,0,0,1-8.45-3c-1.59-1.11-3.09,1.49-1.52,2.59Z"/><path class="cls-3" d="M326,333.88c8.95-.29,19.15-6.48,20.09-16.08a13.38,13.38,0,0,0-.17-3.63,6.87,6.87,0,0,0-1.52-3,14.69,14.69,0,0,0-4.54-3.94,18.27,18.27,0,0,0-12-1.87,15.94,15.94,0,0,0-11.21,7.73c-.94,1.69,1.65,3.2,2.59,1.51,3.4-6.09,11.48-8,17.73-5.46a12.55,12.55,0,0,1,4,2.59,10.71,10.71,0,0,1,1.54,1.88,4.83,4.83,0,0,1,.67,2.72c.08,3.86-2,7.24-4.85,9.71a20.11,20.11,0,0,1-12.29,4.8c-1.92.06-1.93,3.06,0,3Z"/><path class="cls-3" d="M329.45,305.07c-4.77-10.61-21.08-14.63-30.4-7.77a14.55,14.55,0,0,0-5.48,8.11,1.51,1.51,0,0,0,2.9.8c2.85-10.82,17.1-11.08,25-5.9a14.68,14.68,0,0,1,5.41,6.27c.79,1.76,3.38.24,2.59-1.51Z"/><path class="cls-3" d="M277.77,307.13c-2-7.83,9.16-11.32,15-10.34a9,9,0,0,1,5.08,2.43c1.35,1.38,3.47-.74,2.12-2.12-3.27-3.35-8.33-3.89-12.73-3.2s-9.06,2.88-11.42,6.78a9.32,9.32,0,0,0-1,7.24,1.5,1.5,0,0,0,2.89-.79Z"/><path class="cls-3" d="M261.59,303.55c0-.41,0-.05,0-.27a2.77,2.77,0,0,1,.15-.49c-.15.35.43-.6.21-.33a3.38,3.38,0,0,1,1.37-1,13.16,13.16,0,0,1,4.45-1.16,23.82,23.82,0,0,1,5.47.08c.51.07,1.43.25,2.08.42.33.09.65.2,1,.31l.25.1h0l.43.22c1.69.93,3.21-1.66,1.51-2.59-2.56-1.42-5.83-1.69-8.7-1.65s-6.44.44-8.91,2.27a5.3,5.3,0,0,0-2.31,4.14c-.08,1.93,2.92,1.92,3,0Z"/><path class="cls-3" d="M283.07,298c8.68-8.19.35-22-9.31-24.76a1.51,1.51,0,0,0-.8,2.9c7.52,2.12,15,13.17,8,19.74-1.41,1.33.71,3.44,2.12,2.12Z"/><path class="cls-3" d="M278.66,277.45c9-5.87,9.47-21.3.76-27.7a12.38,12.38,0,0,0-8.55-2.19c-1.91.19-1.93,3.19,0,3,9.93-1,13.79,10.76,10.77,18.64a11.67,11.67,0,0,1-4.49,5.66c-1.61,1.05-.11,3.65,1.51,2.59Z"/><path class="cls-3" d="M240.32,235.39c0-.28,0,.25,0,0a1.5,1.5,0,0,0,0-.3c0-.23-.09.24,0,0a1.81,1.81,0,0,0,.09-.31c0-.05-.17.25,0,0l.15-.23c.07-.14-.09.11-.1.11a1.79,1.79,0,0,0,.13-.14l.24-.23c.2-.21-.06,0,0,0l.27-.17a5.49,5.49,0,0,1,.63-.34c.26-.13-.2.07.07,0l.34-.12c.26-.09.53-.17.79-.24a15.05,15.05,0,0,1,1.65-.33c-.29,0,.13,0,.22,0l.42,0,.92-.06a24.31,24.31,0,0,1,3.41.13c.26,0-.2,0,.15,0l.47.09c.26,0,.51.1.76.16l.66.2c.2.07.25.12,0,0l.28.13c1.71.9,3.23-1.69,1.52-2.59a14.71,14.71,0,0,0-7.19-1.14c-2.56.1-5.57.5-7.55,2.29a4.14,4.14,0,0,0-1.23,3.94,1.52,1.52,0,0,0,1.85,1.05,1.54,1.54,0,0,0,1-1.85Z"/><path class="cls-3" d="M246.81,229.23a11.88,11.88,0,0,1,10.85-13.5,17.85,17.85,0,0,1,14.53,7c1.79,2.42,2.17,5.1.36,7.61-1.13,1.57,1.47,3.07,2.59,1.52,4.66-6.5-1.51-13.34-7.14-16.45a19.21,19.21,0,0,0-9.47-2.66,15.13,15.13,0,0,0-10.87,4.71A14.67,14.67,0,0,0,243.91,230c.32,1.9,3.22,1.09,2.9-.8Z"/><path class="cls-3" d="M277.73,227.67c9.74-.15,14.61,12.84,10.86,20.7a10.28,10.28,0,0,1-5.44,5.18c-1.77.71-1,3.62.8,2.9,5.6-2.25,8.66-7.49,8.86-13.42.19-5.53-2-11.59-6.32-15.19a13.23,13.23,0,0,0-8.76-3.17c-1.93,0-1.94,3,0,3Z"/><path class="cls-3" d="M304.82,295.76c-.28-4,2.05-7.56,5-10.09a15,15,0,0,1,10.75-3.91c1.92.17,1.91-2.83,0-3-4.69-.41-9.38,1.79-12.87,4.79s-6.21,7.46-5.88,12.21c.13,1.92,3.13,1.93,3,0Z"/><path class="cls-3" d="M311.39,279.76c-8.65-7.65.31-22.38,10.85-21.06a1.5,1.5,0,0,0,0-3c-10.09-1.26-18.88,9.41-17.1,19.07a12.67,12.67,0,0,0,4.13,7.12c1.44,1.27,3.57-.84,2.12-2.13Z"/><path class="cls-3" d="M316.89,255.66c-4.21-2.88-2.94-9.07-.65-12.76a11.33,11.33,0,0,1,12.85-4.64,9.17,9.17,0,0,1,6,5.94l2.89-.8c-3.18-8.58,10.76-9.24,16-7.45,7.69,2.64,8.59,12.39,5.28,18.76-2,3.78-5.43,6.66-9.81,6.93-1.91.12-1.93,3.12,0,3,10-.63,15.83-11.11,14.44-20.36a13.73,13.73,0,0,0-7.57-10.6,21.41,21.41,0,0,0-14-.81,11.63,11.63,0,0,0-6.35,3.74,7.72,7.72,0,0,0-.82,7.59c.66,1.78,3.53,1,2.89-.8a12.33,12.33,0,0,0-6.48-7.43,14.69,14.69,0,0,0-9.57-.66,13,13,0,0,0-7.62,5.12,16.59,16.59,0,0,0-3.15,8.89,10,10,0,0,0,4.24,8.93c1.59,1.09,3.1-1.51,1.51-2.59Z"/><path class="cls-3" d="M357.49,261.82c9.5,3.71,6,16.58-.78,21.22a10.84,10.84,0,0,1-6.92,2c-1.92-.13-1.92,2.87,0,3,10.95.72,19.89-13.21,15.41-23a12.18,12.18,0,0,0-6.91-6.1c-1.8-.7-2.58,2.2-.8,2.9Z"/><path class="cls-3" d="M358.54,286a11.09,11.09,0,0,1,2.14,8.51,9,9,0,0,1-5.38,6.87,1.5,1.5,0,0,0,1.51,2.59,11.73,11.73,0,0,0,6.8-8.87,14.35,14.35,0,0,0-2.95-11.22,1.51,1.51,0,0,0-2.12,0,1.54,1.54,0,0,0,0,2.12Z"/><path class="cls-3" d="M359.07,301.72c2.32,4.84,3.5,12.63-2.32,15.45-1.74.84-.22,3.43,1.51,2.59,7.44-3.59,6.4-13.3,3.41-19.55-.84-1.74-3.43-.22-2.6,1.51Z"/><path class="cls-3" d="M354.84,318.44c4.32,2.86,6.21,7.83,6.18,12.87,0,4.78-1.6,10.18-4.77,13.85-3,3.52-7.64,6-11.93,7.58a35.63,35.63,0,0,1-14.87,2.37c-5.34-.36-10.43-2.43-13.78-6.72-1.18-1.52-3.29.61-2.12,2.12,7.08,9.06,20.43,8.92,30.39,5.55a35.92,35.92,0,0,0,13.87-8.2c3.92-3.9,5.88-10.05,6.18-15.46.35-6.49-2.1-12.89-7.64-16.55-1.61-1.07-3.12,1.53-1.51,2.59Z"/><path class="cls-3" d="M327.12,197.46a13.66,13.66,0,0,0-4.77,7.36,10.13,10.13,0,0,0,1.19,7.16,13.84,13.84,0,0,0,12.88,6.37,15.08,15.08,0,0,0,9-4.08c1.42-1.32-.71-3.44-2.12-2.13a12,12,0,0,1-6.28,3.14,11.42,11.42,0,0,1-6-.75,10.89,10.89,0,0,1-1.28-.64c-.35-.2-1-.64-1.15-.74a11.65,11.65,0,0,1-1.11-1c-.16-.16-.32-.33-.47-.51a4,4,0,0,1-.38-.48,7,7,0,0,1-1.41-5.15c0,.06,0,.24,0-.07l.09-.48c.08-.32.17-.64.27-1a8.29,8.29,0,0,1,.7-1.49,13.73,13.73,0,0,1,3-3.44c1.46-1.26-.67-3.38-2.13-2.12Z"/><path class="cls-3" d="M361.81,197.92a16.84,16.84,0,0,0-4.95-3.45,8.1,8.1,0,0,0-5.91-.61,1.5,1.5,0,0,0,.8,2.9,3.56,3.56,0,0,1,.53-.16,2.84,2.84,0,0,1,.31-.06c-.13,0-.2,0,0,0h.83c.14,0,.27,0,.05,0a7,7,0,0,1,1.2.27c.2.07.4.13.6.21l.15.06.22.1a14.4,14.4,0,0,1,2.24,1.31,6.55,6.55,0,0,1,.53.39l.1.08.22.19q.51.42,1,.9a1.52,1.52,0,0,0,2.12,0,1.55,1.55,0,0,0,0-2.13Z"/><path class="cls-3" d="M343.45,214.85c6.95,5.48,17.67.69,20.53-7.07.67-1.81-2.23-2.59-2.89-.79-2,5.47-10.43,9.76-15.52,5.74a1.55,1.55,0,0,0-2.12,0,1.51,1.51,0,0,0,0,2.12Z"/><path class="cls-3" d="M338.08,357.31a34,34,0,0,0,8.05,5.26,22.54,22.54,0,0,0,11.28,1.5,20.87,20.87,0,0,0,10.84-4.64,12.36,12.36,0,0,0,4.45-9.55,18.5,18.5,0,0,0-3.86-12.25c-1.21-1.5-3.32.63-2.12,2.12,3.66,4.53,4.56,12.95-.05,17.09-5.07,4.56-12.53,5.47-18.83,3.19-2.91-1-5.25-2.95-7.64-4.84-1.5-1.19-3.64.92-2.12,2.12Z"/><path class="cls-3" d="M371.89,341.79c5.89-4.35,12.51-13.76,7.64-21.05-1.07-1.59-3.67-.09-2.59,1.52,1.88,2.82,1.33,6.21-.1,9.11a21.72,21.72,0,0,1-6.47,7.83,1.54,1.54,0,0,0-.53,2.05,1.49,1.49,0,0,0,2.05.54Z"/><path class="cls-3" d="M380.64,323.89a12.84,12.84,0,0,0,3-16.23,1.5,1.5,0,0,0-2.59,1.52,9.87,9.87,0,0,1-2.54,12.59,1.51,1.51,0,0,0,0,2.12,1.54,1.54,0,0,0,2.12,0Z"/><path class="cls-3" d="M374.18,335.62a16.39,16.39,0,0,0,.17,14c1.79,3.75,5.25,7.11,9.48,7.74a1.56,1.56,0,0,0,1.85-1.05,1.51,1.51,0,0,0-1.05-1.84c-7.6-1.14-10.76-11-7.86-17.36a1.55,1.55,0,0,0-.53-2.05,1.52,1.52,0,0,0-2.06.54Z"/><path class="cls-3" d="M377.25,352.5c-2.95,3.68-4.91,8.51-2.4,13,2.11,3.75,6.47,5.84,10.52,6.72a23.24,23.24,0,0,0,7.93.38,1.54,1.54,0,0,0,1.5-1.5,1.51,1.51,0,0,0-1.5-1.5,20,20,0,0,1-11.35-1.7c-2.94-1.46-5.4-3.88-5.29-7.14a11,11,0,0,1,2.71-6.11,1.54,1.54,0,0,0,0-2.12,1.51,1.51,0,0,0-2.12,0Z"/><path class="cls-3" d="M389,372.69c.3,12.8,18.42,15.62,25.42,6.44A13.77,13.77,0,0,0,416.79,369c-.24-1.89-3.24-1.92-3,0,.63,5.05-1.37,9.74-6.3,11.66-4,1.55-9.12,1.23-12.49-1.52a8.39,8.39,0,0,1-3-6.44c0-1.93-3-1.93-3,0Z"/><path class="cls-3" d="M416.38,370.56c9.85-.82,14.53-12.61,12.44-21.24a13.25,13.25,0,0,0-3.68-6.53c-1.41-1.33-3.53.79-2.12,2.12,3.55,3.35,3.89,8.85,2.66,13.32s-4.39,8.92-9.3,9.33c-1.91.16-1.92,3.16,0,3Z"/><path class="cls-3" d="M427.71,348.14c7.92-.85,13.35-10,10.5-17.49a11.06,11.06,0,0,0-4.24-5.28c-1.6-1.08-3.1,1.51-1.51,2.59,6.65,4.51,3,16.35-4.75,17.18a1.54,1.54,0,0,0-1.5,1.5,1.5,1.5,0,0,0,1.5,1.5Z"/><path class="cls-3" d="M363.5,244.4a5.94,5.94,0,0,1,2-1.72c.23-.13.46-.24.68-.35l.14-.07h0l.37-.13a11.23,11.23,0,0,1,1.43-.42l.7-.14.27,0,.27,0c.5-.05,1-.07,1.5-.07a14.28,14.28,0,0,1,1.46.08s.42.05.25,0,.25.05.24.05c.23,0,.47.08.7.14a1.53,1.53,0,0,0,1.85-1.05,1.52,1.52,0,0,0-1.05-1.85c-4.34-1-10-.27-12.9,3.46a1.55,1.55,0,0,0,0,2.12,1.51,1.51,0,0,0,2.12,0Z"/><path class="cls-3" d="M373,239.53c2.76-7.95,13-8,19.49-5.14a17,17,0,0,1,4.88,3.18,11.51,11.51,0,0,1,2.89,5.15,19.09,19.09,0,0,1-.4,12.72A14.81,14.81,0,0,1,389,264.37c-1.89.41-1.09,3.3.8,2.9a17.73,17.73,0,0,0,12-9,21.69,21.69,0,0,0,1.75-14.77,16.69,16.69,0,0,0-3.08-7,17.74,17.74,0,0,0-5.29-4.13,23,23,0,0,0-13.54-2.59c-5.33.7-9.77,3.76-11.56,8.93-.63,1.83,2.26,2.62,2.89.8Z"/><path class="cls-3" d="M394.39,265.47c2.19.78,3.8,3.37,4.59,5.57a17.05,17.05,0,0,1,0,10.8c-.58,1.84,2.31,2.63,2.89.8a19.61,19.61,0,0,0-.22-12.88c-1.21-3.07-3.28-6-6.51-7.19-1.82-.65-2.6,2.25-.79,2.9Z"/><path class="cls-3" d="M402.33,319.49a8.11,8.11,0,0,1-3.27-2.3,7.4,7.4,0,0,1-.87-1.41c-.11-.26,0,.1-.06-.16l-.15-.46c-.08-.29-.14-.58-.19-.87,0,.29,0-.11,0-.21s0-.27,0-.4,0-.27,0-.4,0-.49,0-.21a8.64,8.64,0,0,1,.19-.85l.12-.39c0-.08.19-.45.08-.21.13-.27.27-.54.42-.79l.23-.35c.17-.26,0,0,.2-.26s.39-.44.6-.64a5.63,5.63,0,0,1,.64-.52,9,9,0,0,1,4.38-1.51,1.54,1.54,0,0,0,1.5-1.5,1.5,1.5,0,0,0-1.5-1.5c-3.56.3-7.15,1.89-8.88,5.19a8.42,8.42,0,0,0,.61,8.85,11.43,11.43,0,0,0,5.16,3.79,1.51,1.51,0,0,0,1.84-1.05,1.52,1.52,0,0,0-1.05-1.84Z"/><path class="cls-3" d="M401.06,305.19c-8.6-6-4.39-19.31,3.18-24.22a12.44,12.44,0,0,1,7.56-2.06c1.93.11,1.92-2.9,0-3-11.77-.67-21,13.2-17.94,24.06a14.17,14.17,0,0,0,5.69,7.81c1.58,1.1,3.08-1.5,1.51-2.59Z"/><path class="cls-3" d="M407.77,276.8c-2.16-9.42,6-17.54,15.14-17.87a16.33,16.33,0,0,1,16.51,16.41,14.06,14.06,0,0,1-7.58,11.94c-1.69.94-.17,3.53,1.52,2.59a17.09,17.09,0,0,0,8.86-12.37,18.78,18.78,0,0,0-4-14.3A19.23,19.23,0,0,0,424.49,256a20.23,20.23,0,0,0-14.32,5.11,16.83,16.83,0,0,0-5.3,16.54c.44,1.88,3.33,1.08,2.9-.8Z"/><path class="cls-3" d="M439.34,283c4.06,2.43,5.94,6.65,4.51,11.23a14.06,14.06,0,0,1-9.52,9,1.5,1.5,0,0,0,.79,2.89,17.11,17.11,0,0,0,11.7-11.38c1.69-5.79-.88-11.32-6-14.37a1.5,1.5,0,0,0-1.52,2.59Z"/><path class="cls-3" d="M439,304.67c2.89,3.24,4.33,7.49,3.09,11.75s-4.72,7.38-8.62,9.27c-1.74.84-.22,3.43,1.51,2.59,4.67-2.26,8.7-6.22,10.08-11.34s-.41-10.43-3.94-14.39c-1.28-1.44-3.4.69-2.12,2.12Z"/><path class="cls-3" d="M411.15,382.4c6.12,7.43,16.31,9.6,25.43,10.48,1.92.18,1.91-2.82,0-3-8.37-.8-17.7-2.79-23.31-9.6-1.23-1.5-3.34.64-2.12,2.12Z"/><path class="cls-3" d="M427.45,390.49c-2.75,2.85-5.2,6.36-5.44,10.45a10.63,10.63,0,0,0,3.47,8.2c5.08,4.88,13.16,6.21,19.9,5.16a19.92,19.92,0,0,0,10.93-5.24c1.38-1.36-.74-3.48-2.12-2.12-4.47,4.4-11.49,5.42-17.46,4.3-4.74-.9-11.17-3.66-11.7-9.05-.37-3.71,2.11-7.05,4.54-9.58,1.35-1.39-.77-3.51-2.12-2.12Z"/><path class="cls-3" d="M440.27,416c2.11,10,15.67,8.87,22.76,5.6,1.75-.81.23-3.39-1.52-2.59-5.33,2.46-16.7,4-18.34-3.81-.4-1.89-3.29-1.09-2.9.8Z"/><path class="cls-3" d="M448.15,423.11c-7.44,10.39,4.38,23,14.92,24.27A25.5,25.5,0,0,0,477,444.63c4.15-2,8.13-5.17,10.29-9.33a13.56,13.56,0,0,0-1.46-14.71c-1.14-1.53-3.75,0-2.59,1.51,2.4,3.22,3.45,7,1.85,10.87-1.5,3.6-4.7,6.34-8,8.23a24.07,24.07,0,0,1-11.83,3.31,17.65,17.65,0,0,1-12-5.36,14.58,14.58,0,0,1-4.24-6.79,9.18,9.18,0,0,1,1.71-7.74c1.13-1.57-1.47-3.07-2.59-1.51Z"/><path class="cls-3" d="M487,426.64a15.84,15.84,0,0,0,10.64-8.35,10,10,0,0,0,.79-6.38,10.7,10.7,0,0,0-4.31-6,1.5,1.5,0,1,0-1.52,2.59,6.74,6.74,0,0,1,2.17,8.86,13.06,13.06,0,0,1-8.57,6.39c-1.88.44-1.08,3.33.8,2.9Z"/><path class="cls-3" d="M497.16,409.46A22.42,22.42,0,0,0,512.6,395c1.91-6.07.44-12.91-5-16.64-3.74-2.57-8.55-3.09-13-2.75-1.91.14-1.93,3.14,0,3,5.82-.44,12.92.9,15.1,7.11,1.83,5.21-.28,11.12-3.89,15.08a20.27,20.27,0,0,1-9.51,5.79,1.5,1.5,0,0,0,.8,2.89Z"/><path class="cls-3" d="M500.72,378.2c4.82-4.36,3.62-12.92-1.15-16.86a9.48,9.48,0,0,0-5-2.13,1.5,1.5,0,0,0-1.5,1.5,1.54,1.54,0,0,0,1.5,1.5c2.8.32,5,3,5.82,5.7s.54,6.1-1.75,8.17c-1.44,1.29.69,3.41,2.12,2.12Z"/><path class="cls-3" d="M446.34,340a9.26,9.26,0,0,1,1.18,0l.53,0h.12c-.24,0,.07,0,.12,0a8.58,8.58,0,0,1,1.14.26l.5.17c.13.05.35.06,0,0a1,1,0,0,1,.24.11,6.9,6.9,0,0,1,.95.55l.21.15c.15.1-.22-.2,0,0l.43.38c.13.14.26.28.38.43s0,0,0-.06a1.57,1.57,0,0,0,.19.26c.09.15.19.3.27.46l.15.29c.14.28-.1-.27,0,.05a1.54,1.54,0,0,0,1.85,1.05,1.52,1.52,0,0,0,1-1.85,7.89,7.89,0,0,0-3.82-4.24,10.53,10.53,0,0,0-5.47-1.06,1.53,1.53,0,0,0-1.5,1.5,1.5,1.5,0,0,0,1.5,1.5Z"/><path class="cls-3" d="M468.71,315c-5.1,1.79-9.22,5.83-9.7,11.41s3.13,10.18,7.8,12.6c1.71.88,3.23-1.71,1.52-2.59-3.74-1.93-6.62-5.4-6.34-9.79s3.7-7.39,7.52-8.73c1.81-.64,1-3.54-.8-2.9Z"/><path class="cls-3" d="M462.9,334.28c-4.85,2.56-9.58,6.34-11.23,11.78a15.06,15.06,0,0,0,2,12.37c4.88,7.66,15,12.53,24,10.43,5.84-1.37,10.17-5.81,12.57-11.17.78-1.75-1.8-3.28-2.59-1.52-1.86,4.14-4.85,7.84-9.26,9.36a17.52,17.52,0,0,1-11.67-.43c-6.7-2.45-13.76-9.26-12.57-16.71.87-5.45,5.63-9.1,10.21-11.52,1.71-.9.2-3.49-1.51-2.59Z"/><path class="cls-3" d="M486.39,363.46a18.41,18.41,0,0,0,10-3.24c2.84-1.93,5.37-4.71,6.13-8.15a10.2,10.2,0,0,0-.49-6,1.55,1.55,0,0,0-1.84-1.05,1.51,1.51,0,0,0-1.05,1.85c1.42,3.55.15,6.89-2.6,9.46a15.56,15.56,0,0,1-10.19,4.16,1.5,1.5,0,0,0,0,3Z"/><path class="cls-3" d="M502.09,350.23c9.32-.94,16.67-12.1,13.17-21a12,12,0,0,0-5.27-6,1.5,1.5,0,0,0-1.51,2.59c9.31,5.36,3.08,20.53-6.39,21.49-1.91.19-1.93,3.19,0,3Z"/><path class="cls-3" d="M445.21,285.19c2.13-3.77,6-5.64,10.17-6.39a26.69,26.69,0,0,1,5.58-.38,24.9,24.9,0,0,1,4.11.4c1.89.37,2.69-2.52.8-2.89-8.15-1.58-18.8-.13-23.25,7.75a1.5,1.5,0,0,0,2.59,1.51Z"/><path class="cls-3" d="M463.86,276.52a12.65,12.65,0,0,1,4.29-7.56,12,12,0,0,1,7.51-2.28,21.49,21.49,0,0,1,15.66,7.59,15.32,15.32,0,0,1,3.79,8.83c.13,1.92,3.13,1.93,3,0-.49-7.19-5.45-13.17-11.65-16.5-5.7-3.06-13.38-4.39-19.13-.71a15.14,15.14,0,0,0-6.36,9.83c-.4,1.89,2.49,2.69,2.89.8Z"/><path class="cls-3" d="M495.88,280c4.75-1.82,10.34-1.53,14.27,2s4.74,8.93,3.07,13.85c-.63,1.83,2.27,2.62,2.89.8a15.88,15.88,0,0,0-1.38-13.9,15.58,15.58,0,0,0-11.31-6.76,17.75,17.75,0,0,0-8.34,1.15,1.55,1.55,0,0,0-1.05,1.84,1.51,1.51,0,0,0,1.85,1Z"/><path class="cls-3" d="M515.54,296.06c10.49,3.51,9.21,18.45,3.73,25.65a12.56,12.56,0,0,1-6.32,4.6c-1.84.55-1.06,3.44.8,2.89,5.79-1.73,9.62-7,11.42-12.53s1.88-12.29-1.19-17.44a13.92,13.92,0,0,0-7.64-6.07c-1.84-.61-2.62,2.28-.8,2.9Z"/><path class="cls-3" d="M21.86,83.26a15.27,15.27,0,0,0-7.81,14.42A20.22,20.22,0,0,0,22.3,112.1a18.62,18.62,0,0,0,9.26,3.49c1.92.19,1.91-2.81,0-3-9.23-.91-17.3-11.44-13.74-20.56a12.71,12.71,0,0,1,5.56-6.18,1.5,1.5,0,0,0-1.52-2.59Z"/><path class="cls-3" d="M313.35,148.74a15.64,15.64,0,0,1,2.57-10.14c1.8-2.66,4.61-4.61,7.26-6.36,1.6-1.06.1-3.66-1.52-2.59-3.09,2-6.23,4.32-8.33,7.44a18.28,18.28,0,0,0-3,11.65,1.54,1.54,0,0,0,1.5,1.5,1.51,1.51,0,0,0,1.5-1.5Z"/><path class="cls-3" d="M231,133.75a16.93,16.93,0,0,0,.82,3.28,12.19,12.19,0,0,1,.47,3,12.86,12.86,0,0,1-.28,3,3.63,3.63,0,0,1-1,2.12,1.51,1.51,0,0,0,0,2.12,1.53,1.53,0,0,0,2.12,0c1.76-1.5,2.11-4.4,2.16-6.58a16,16,0,0,0-.36-3.59,29.79,29.79,0,0,1-.93-3.38,1.53,1.53,0,0,0-1.5-1.5,1.51,1.51,0,0,0-1.5,1.5Z"/><path class="cls-3" d="M326.21,192.89c0-.24,0-.28,0-.12.09-.21.1-.25,0-.1s-.11.23-.17.35c-.14.3-.27.6-.38.91a8.21,8.21,0,0,0-.41,1.47,10.67,10.67,0,0,0,0,3.61,1.5,1.5,0,0,0,2.9-.8,1.38,1.38,0,0,1,0-.2c0,.24,0,.27,0,.11l0-.4a5.3,5.3,0,0,1,0-.69c0-.23,0-.46,0-.69s0-.13,0,.1l0-.19.06-.34c0-.24.12-.48.19-.72l.09-.28c0-.06.09-.35.14-.37-.08.2-.1.23,0,.08s.05-.12.08-.17l.14-.27a3.38,3.38,0,0,0,.38-1.29,1.52,1.52,0,0,0-1.5-1.5,1.54,1.54,0,0,0-1.5,1.5Z"/><path class="cls-3" d="M352,183.25a1.61,1.61,0,0,1,.93.51,16.76,16.76,0,0,1,1.25,1.13,5.19,5.19,0,0,1,1.48,2.56,12.19,12.19,0,0,1,0,3.25,5,5,0,0,1-.23,1.23,1.81,1.81,0,0,1-.42.7,1.53,1.53,0,0,0-.54,2.05,1.51,1.51,0,0,0,2.05.54,5.3,5.3,0,0,0,2.08-3.91,14.51,14.51,0,0,0-.09-4.65,8.06,8.06,0,0,0-2.39-4c-1.1-1.09-2.51-2.44-4.16-2.38-1.92.06-1.93,3.06,0,3Z"/></g></svg>