<?xml version="1.0" encoding="UTF-8"?>
<svg width="200px" height="79px" viewBox="0 0 200 79" version="1.1" xmlns="http://www.w3.org/2000/svg" xmlns:xlink="http://www.w3.org/1999/xlink">
    <title>uclab-logo-mono</title>
    <g id="design" stroke="none" stroke-width="1" fill="none" fill-rule="evenodd">
        <g id="Page-Unrolled" transform="translate(-604.000000, -3314.000000)" fill="#09090A" fill-rule="nonzero">
            <g id="uclab-logo-mono" transform="translate(604.000000, 3314.000000)">
                <polyline id="Path" points="141.662732 41.5864783 111.526657 79 200 41.5864783 141.662732 41.5864783"></polyline>
                <polyline id="Path" points="86.6436299 41.5864783 109.591776 76.2493512 137.516097 41.5864783 86.6436299 41.5864783"></polyline>
                <polyline id="Path" points="144.151357 38.5603374 196.406035 38.5603374 165.993089 11.6005623 144.151357 38.5603374"></polyline>
                <path d="M1.21909341,7.7020301 L1.21909341,0.268017478 L2.75261841,0.268017478 L2.75261841,7.76823374 C2.75261841,9.82588141 4.08761154,10.9545443 6.02142005,10.9545443 C7.95630165,10.9545443 9.29022143,9.89208478 9.29022143,7.76823374 L9.29022143,0.268017478 L10.8248198,0.268017478 L10.8248198,7.7020301 C10.8248198,10.6224589 8.8234033,12.4142248 6.02142005,12.4142248 C3.22050989,12.4142248 1.21909341,10.6886626 1.21909341,7.7020301" id="Path"></path>
                <path d="M20.0967978,7.03785961 L18.7628777,7.03785961 L18.7628777,12.2818178 L17.2282797,12.2818178 L17.2282797,0.268017478 L20.8308294,0.268017478 C23.1649212,0.268017478 24.6995192,1.59529101 24.6995192,3.6529384 C24.6995192,5.37850069 23.6317393,6.57336721 21.8310011,6.9054526 L26.0334393,12.2818178 L24.1661659,12.2818178 L20.0967978,7.03785961 Z M20.6977593,5.64438271 C22.2978195,5.64438271 23.098386,4.91400857 23.098386,3.6529384 C23.098386,2.39186851 22.2978195,1.66149438 20.6977593,1.66149438 L18.7628777,1.66149438 L18.7628777,5.64438271 L20.6977593,5.64438271" id="Shape"></path>
                <path d="M31.3036574,0.268017478 L35.3064904,0.268017478 C37.6405821,0.268017478 38.8414321,1.72769802 38.8414321,3.38812439 C38.8414321,4.58192319 38.3746137,5.37850069 37.574047,5.91026445 C38.774897,6.37475684 39.6419986,7.30374135 39.6419986,8.89689663 C39.6419986,11.0869513 37.9743305,12.2818178 35.4395604,12.2818178 L31.2371223,12.2818178 L31.2371223,0.268017478 L31.3036574,0.268017478 Z M35.3064904,5.44577206 C36.5738753,5.44577206 37.373369,4.64919456 37.373369,3.58673504 C37.373369,2.59154689 36.6404104,1.72769802 35.3064904,1.72769802 L32.8382555,1.72769802 L32.8382555,5.5119757 L35.3064904,5.5119757 L35.3064904,5.44577206 Z M35.7067736,10.8883407 C37.3068338,10.8883407 38.1074005,10.0255595 38.1074005,8.83069326 C38.1074005,7.63582673 37.3068338,6.77304559 35.7067736,6.77304559 L32.8382555,6.77304559 L32.8382555,10.8883407 L35.7067736,10.8883407" id="Shape"></path>
                <path d="M49.247725,0.268017478 L53.9169816,0.268017478 L53.9169816,12.2818178 L52.3834563,12.2818178 L52.3834563,9.16277837 L46.5798849,9.16277837 L45.0452868,12.2818178 L43.3776184,12.2818178 L49.247725,0.268017478 Z M47.2463085,7.7020301 L52.3834563,7.7020301 L52.3834563,1.72769802 L50.1148266,1.72769802 L47.2463085,7.7020301" id="Shape"></path>
                <polyline id="Path" points="60.4545846 0.135610471 60.4545846 12.2818178 61.9891827 12.2818178 61.9891827 3.5205314 69.060139 9.89208478 69.060139 12.2818178 70.5936643 12.2818178 70.5936643 0.268017478 69.060139 0.268017478 69.060139 7.90064075 60.4545846 0.135610471"></polyline>
                <path d="M0.217848626,23.2331587 C0.217848626,19.7158304 2.9532967,17.0602157 6.4217033,17.0602157 C7.95630165,17.0602157 9.29022143,17.5257758 10.3580014,18.4547606 L9.42329148,19.6496271 C8.622725,18.9854563 7.6225533,18.5209639 6.4217033,18.5209639 C3.75386346,18.5209639 1.81898187,20.5786116 1.81898187,23.166955 C1.81898187,25.7563662 3.75386346,27.8129461 6.4217033,27.8129461 C7.6225533,27.8129461 8.622725,27.3484537 9.42329148,26.685351 L10.3580014,27.8802175 C9.29022143,28.809202 7.95630165,29.2736944 6.4217033,29.2736944 C2.88676181,29.3398977 0.217848626,26.685351 0.217848626,23.2331587" id="Path"></path>
                <path d="M14.9607228,23.2331587 C14.9607228,19.7158304 17.6950978,17.0602157 21.1635044,17.0602157 C24.6329843,17.0602157 27.3673593,19.7158304 27.3673593,23.2331587 C27.3673593,26.7515543 24.6329843,29.4061014 21.1635044,29.4061014 C17.6950978,29.4061014 14.9607228,26.685351 14.9607228,23.2331587 M25.700764,23.2331587 C25.700764,20.5786116 23.7658827,18.5871676 21.0980426,18.5871676 C18.4291294,18.5871676 16.4942481,20.6448152 16.4942481,23.2331587 C16.4942481,25.8225698 18.4291294,27.8802175 21.0980426,27.8802175 C23.7658827,27.8802175 25.700764,25.8225698 25.700764,23.2331587" id="Shape"></path>
                <polyline id="Path" points="32.9713255 17.0602157 38.8414321 23.4990404 44.7780736 17.0602157 44.7780736 29.2074907 43.1769404 29.2074907 43.1769404 20.8444933 38.8414321 25.6890951 34.5059239 20.8444933 34.5059239 29.2074907 32.9713255 29.2074907 32.9713255 17.0602157"></polyline>
                <path d="M51.2491415,17.1936907 L54.6510132,17.1936907 C57.185783,17.1936907 58.8534514,18.5871676 58.8534514,20.8444933 C58.8534514,23.1007517 57.185783,24.4942286 54.6510132,24.4942286 L52.7837398,24.4942286 L52.7837398,29.1412874 L51.2491415,29.1412874 L51.2491415,17.1936907 Z M54.6510132,23.1007517 C56.3852165,23.1007517 57.318853,22.3041739 57.318853,20.8444933 C57.318853,19.4499487 56.3852165,18.5871676 54.6510132,18.5871676 L52.8502747,18.5871676 L52.8502747,23.1007517 L54.6510132,23.1007517" id="Shape"></path>
                <polyline id="Path" points="64.1902044 17.1936907 65.7913376 17.1936907 65.7913376 27.7467425 70.8608775 27.7467425 70.8608775 29.2074907 64.1902044 29.2074907 64.1902044 17.1936907"></polyline>
                <polyline id="Path" points="76.0634874 17.1936907 83.0679088 17.1936907 83.0679088 18.7206423 77.6646206 18.7206423 77.6646206 22.3041739 82.0677371 22.3041739 82.0677371 23.8311258 77.6646206 23.8311258 77.6646206 27.7467425 83.0679088 27.7467425 83.0679088 29.2074907 76.0634874 29.2074907 76.0634874 17.1936907"></polyline>
                <polyline id="Path" points="92.5405648 23.5652438 89.4724418 29.2074907 87.8047734 29.2074907 91.6069283 22.1717669 88.0043786 17.1936907 89.8061898 17.1936907 93.7414148 22.6362593 96.609933 17.1936907 98.2776014 17.1936907 94.6750516 23.9635328 98.4772063 29.2074907 96.609933 29.2074907 92.5405648 23.5652438"></polyline>
                <polygon id="Path" points="103.880495 29.2074907 103.880495 17.1936907 105.415093 17.1936907 105.415093 29.2074907"></polygon>
                <polyline id="Path" points="114.220252 18.7206423 110.751846 18.7206423 110.751846 17.1936907 119.156722 17.1936907 119.156722 18.7206423 115.754851 18.7206423 115.754851 29.2074907 114.220252 29.2074907 114.220252 18.7206423"></polyline>
                <polyline id="Path" points="131.89818 17.1936907 128.495235 22.6362593 125.093364 17.1936907 123.292625 17.1936907 127.695742 24.0970075 127.695742 29.2074907 129.229267 29.2074907 129.229267 24.0970075 133.698918 17.1936907 131.89818 17.1936907"></polyline>
                <polyline id="Path" points="1.21909341 34.1193636 1.21909341 46.1331639 7.82323159 46.1331639 7.82323159 44.6724157 2.75261841 44.6724157 2.75261841 34.1193636 1.21909341 34.1193636"></polyline>
                <path d="M17.5620277,34.1193636 L11.7584563,46.1331639 L13.4261247,46.1331639 L14.9607228,43.013057 L20.7642942,43.013057 L20.7642942,46.1331639 L22.2978195,46.1331639 L22.2978195,34.1193636 L17.5620277,34.1193636 Z M18.4291294,35.6452478 L20.6977593,35.6452478 L20.6977593,41.6195798 L15.5606113,41.6195798 L18.4291294,35.6452478" id="Shape"></path>
                <path d="M28.7688874,34.1193636 L32.7706473,34.1193636 C35.1058121,34.1193636 36.3066621,35.5790441 36.3066621,37.238403 C36.3066621,38.4332693 35.8398437,39.2298471 35.0392772,39.7605428 C36.2401272,40.2250352 37.1072288,41.1550877 37.1072288,42.748243 C37.1072288,44.9382974 35.4395604,46.1331639 32.9047907,46.1331639 L28.7023525,46.1331639 L28.7023525,34.1193636 L28.7688874,34.1193636 Z M32.7706473,39.2960504 C34.0380324,39.2960504 34.8385989,38.4994729 34.8385989,37.4380811 C34.8385989,36.4418253 34.1056404,35.5790441 32.7706473,35.5790441 L30.3034857,35.5790441 L30.3034857,39.3622541 L32.7706473,39.3622541 L32.7706473,39.2960504 Z M33.1709308,44.7386193 C34.772064,44.7386193 35.5726305,43.8758382 35.5726305,42.6809716 C35.5726305,41.4871728 34.772064,40.623324 33.1709308,40.623324 L30.3034857,40.623324 L30.3034857,44.7386193 L33.1709308,44.7386193" id="Shape"></path>
            </g>
        </g>
    </g>
</svg>